/* XPM */
static char *right_1_resized[] = {
/* columns rows colors chars-per-pixel */
"32 32 160 2 ",
"   c #0F080B",
".  c #160D11",
"X  c #1A0F15",
"o  c #141214",
"O  c #1A1115",
"+  c #171718",
"@  c #1B151A",
"#  c #171818",
"$  c #1B1D1C",
"%  c #25151C",
"&  c #28161E",
"*  c #2C1A1E",
"=  c #311E1E",
"-  c #2A1721",
";  c #271B24",
":  c #2D1A24",
">  c #2E1C29",
",  c #331D21",
"<  c #331D2C",
"1  c #361F31",
"2  c #1D2120",
"3  c #202523",
"4  c #272D2C",
"5  c #292D2C",
"6  c #332225",
"7  c #34232A",
"8  c #382728",
"9  c #33292E",
"0  c #3C2C2D",
"q  c #2C332F",
"w  c #372032",
"e  c #3A2235",
"r  c #342D32",
"t  c #3C2933",
"y  c #3D253B",
"u  c #3F283C",
"i  c #2E3632",
"p  c #313232",
"a  c #3C3032",
"s  c #313B35",
"d  c #323B38",
"f  c #3F393D",
"g  c #432823",
"h  c #49252C",
"j  c #422F2F",
"k  c #51292E",
"l  c #49332D",
"z  c #5B3B29",
"x  c #432431",
"c  c #4A2532",
"v  c #402B33",
"b  c #42263C",
"n  c #432D3D",
"m  c #4D2A3D",
"M  c #502933",
"N  c #522B3D",
"B  c #5D2D3A",
"V  c #433232",
"C  c #493637",
"Z  c #473836",
"A  c #4A3837",
"S  c #4C3D3A",
"D  c #503D3A",
"F  c #632E36",
"G  c #632F3B",
"H  c #6C3135",
"J  c #66303C",
"K  c #6C313B",
"L  c #733339",
"P  c #37413D",
"I  c #39443F",
"U  c #4E403C",
"Y  c #53423E",
"T  c #634433",
"R  c #6F4B30",
"E  c #462E40",
"W  c #542D40",
"Q  c #423B42",
"!  c #4C3B40",
"~  c #5D3D40",
"^  c #633141",
"/  c #6B3342",
"(  c #723543",
")  c #3D4544",
"_  c #3E4943",
"`  c #494144",
"'  c #414B47",
"]  c #434E4C",
"[  c #4C4B4C",
"{  c #554540",
"}  c #5A4641",
"|  c #574A45",
" . c #5B4A44",
".. c #5A474A",
"X. c #5C4E49",
"o. c #5D5048",
"O. c #475350",
"+. c #4B5554",
"@. c #4E5A56",
"#. c #4E5959",
"$. c #555052",
"%. c #5A5054",
"&. c #515C5B",
"*. c #794449",
"=. c #63544C",
"-. c #68574D",
";. c #64584F",
":. c #655150",
">. c #685452",
",. c #6B5E53",
"<. c #6C5E5C",
"1. c #725D59",
"2. c #756256",
"3. c #786153",
"4. c #756459",
"5. c #76685B",
"6. c #7C6B5D",
"7. c #566262",
"8. c #5A6464",
"9. c #5E6964",
"0. c #5E6B6B",
"q. c #626D6C",
"w. c #7E6E60",
"e. c #677271",
"r. c #6B7674",
"t. c #6C7876",
"y. c #717976",
"u. c #787876",
"i. c #747D7A",
"p. c #94683F",
"a. c #813844",
"s. c #8A3C41",
"d. c #933E48",
"f. c #9C424A",
"g. c #B3494F",
"h. c #B64A50",
"j. c #B94B51",
"k. c #846A54",
"l. c #9A7C5D",
"z. c #B17F49",
"x. c #836F60",
"c. c #847162",
"v. c #897564",
"b. c #8C7867",
"n. c #8E7A68",
"m. c #907C6A",
"M. c #867F77",
"N. c #95816D",
"B. c #9A856F",
"V. c #958473",
"C. c #998674",
"Z. c #AB8761",
"A. c #778280",
"S. c #8A8A86",
"D. c #8C928F",
"F. c #979088",
"G. c #8C9693",
"H. c #949A96",
"J. c #9D9A93",
"K. c #959E9A",
/* pixels */
"% % % % % % & & % - % & & & & & - & & & & & & & & & & & % % & & ",
"% h K K F c < < < < < < < < < < < < < < < < < < < < c F K K h < ",
"% K j.j.f.G 1 1 1 1 1 1 < < 1 < 1 < < < < < 1 1 1 1 G d.h.j.K < ",
"% K j.d.( N y y e y y y 1 : : : < : : < < : > w y e m ( d.h.K 1 ",
"% F f.( m y y y y y y 1 : % % @ % % % % % @ % < e y b b / d.J 1 ",
"& c G N b y y y y y 1 > % O . o . . o O O . O % < e y y W ^ c 1 ",
"- < 1 b y y y y y 1 > @ O o o o o . o # $ + o % & < y y e b 1 1 ",
"& < 1 y y y y y 1 : % O o o o o o o o 2 i 3 + O % < 1 e 1 e 1 1 ",
"& < < y y y u y 1 % . o $ 2 2 2 2 2 q d P i $ O X : < 1 1 1 1 1 ",
"& < 1 y y y y y < @ o # 5 P d i i I @.O.P s 5 +   X > 1 1 y y 1 ",
"& < < y u y m W N @ # 4 ) +.) _ 9.r.q.@.) @.8.p X - < y y y y y ",
"& < 1 y u e N a.L , 4 ) #.7.] +.G.K.t.@.' i.K.$.- < 1 y y y y y ",
"& < 1 y e < < k F H D $.7.8.+.+.y.A.e.&.] q.y.Q > 1 y y y y E y ",
"& < 1 y e ; + @ h s.*.[ #.8.#.+.#.7.0.8.+.#.O.t - 1 y y y y y y ",
"& < < e y 1 > > x G N t ) &.7.7.8.8.0.0.8.7.#.t - 1 y y y y y y ",
"& < 1 y y y y y e e , ; r ) +.8.t.t.7.#.&.e.e.Q > 1 y y y y y y ",
"& < 1 y y y y y w > * % - 7 9 [ G.S.Q r f y.H.%.: w y u y y y y ",
"- < 1 y y b 1 1 t V V 0 V C C -.J.F...C ` V.J.<.t 7 1 y y y u u ",
"& < 1 y y y 1 < V 4.4.=.2.c.v.b.C.C.b.v.v.V.V.5.Y 8 < e y y y y ",
"& < 1 y y y 1 : V 4.c.6.b.B.B.m.3.k.Z.l.3.c.n.5.| 6 ; e y y y y ",
"& < 1 1 y y 1 : 0 X.2.c.n.m.m.6.A T Z.p.l R c.2.{ > > 1 y y y y ",
"& < 1 y y y 1 > * j S } | } } D 6 g R z = j Y A t > > 1 y y y y ",
"& < 1 y y u e : % * : 6 6 6 6 6 , : * * : 6 6 * % - > y y b y y ",
"& < 1 y y y y 7 > & 6 Z U U S U S a * 6 Z U Z 6 % > 1 y y b 1 E ",
"& < 1 b b y y y < & v -.,.=.,.,.2.Y 6 j ;.,.| 0 - w y y b y y y ",
"& < 1 1 y y y y 1 : D 6.5.,.6.n.b.-.6 S 6.5.o.0 - 1 y y u y y u ",
"& x B N y y y 1 t C =.w.w.6.n.m.5.} 6 j -.,.X.0 - w y y W ^ m u ",
"% F d.( E y 1 < V 2.6.<.w.n.N.c.Y 6 % * 8 U | 0 - w y b ^ d./ y ",
"% K h.d./ W 1 1 b >.>...:.1.1.:.0 , > : > E E e 1 1 W / d.g.( y ",
"% / j.g.d./ E 1 E E E E E E E E y e 1 y y y E y 1 E W d.g.h./ y ",
"% c / / / W 1 E y y y y y y y y y y u y y y y y y E W ^ ( ( W u ",
"% < 1 e y y y y y y y y y y y y y y y y y y y y y y y y y y y y "
};
