/* XPM */
static char *left_3_resized[] = {
/* columns rows colors chars-per-pixel */
"64 64 184 2 ",
"   c #25141A",
".  c #28151E",
"X  c #2A1721",
"o  c #271821",
"O  c #2C1A25",
"+  c #2D1D29",
"@  c #301A27",
"#  c #341D2C",
"$  c #361F30",
"%  c #381F31",
"&  c #2D212D",
"*  c #31222D",
"=  c #2E2532",
"-  c #2F2936",
";  c #2F2C39",
":  c #352233",
">  c #392135",
",  c #322A36",
"<  c #362738",
"1  c #3D253B",
"2  c #342C3B",
"3  c #3C293C",
"4  c #35313E",
"5  c #39323D",
"6  c #362E40",
"7  c #382F42",
"8  c #353344",
"9  c #393543",
"0  c #363748",
"q  c #383649",
"w  c #363A4B",
"e  c #393B4D",
"r  c #3F3A45",
"t  c #373E50",
"y  c #3A3E51",
"u  c #403746",
"i  c #403C47",
"p  c #423D4B",
"a  c #403E55",
"s  c #3A4255",
"d  c #3C465A",
"f  c #3C495D",
"g  c #3E4C62",
"h  c #3E5065",
"j  c #3E5369",
"k  c #44424C",
"l  c #434857",
"z  c #4B4A56",
"x  c #43445B",
"c  c #444C5C",
"v  c #444350",
"b  c #4C515F",
"n  c #424760",
"m  c #414D65",
"M  c #4B4F6C",
"N  c #4A4A63",
"B  c #405167",
"V  c #42546B",
"C  c #49556C",
"Z  c #4E5360",
"A  c #515561",
"S  c #555967",
"D  c #545D6B",
"F  c #585D6B",
"G  c #4D5572",
"H  c #445B73",
"J  c #4C5A77",
"K  c #465E79",
"L  c #495E7A",
"P  c #525B7B",
"I  c #59626F",
"U  c #46637D",
"Y  c #49637D",
"T  c #5C6574",
"R  c #606D7D",
"E  c #476781",
"W  c #4A6682",
"Q  c #476883",
"!  c #4A6A85",
"~  c #4C6D8B",
"^  c #526485",
"/  c #556D83",
"(  c #586B8F",
")  c #596D88",
"_  c #4C718E",
"`  c #51748E",
"'  c #5A7489",
"]  c #526F91",
"[  c #596E94",
"{  c #4D7492",
"}  c #4D7896",
"|  c #4F7A99",
" . c #517494",
".. c #587095",
"X. c #527895",
"o. c #56779B",
"O. c #587599",
"+. c #527C9D",
"@. c #587992",
"#. c #647282",
"$. c #6E7E8D",
"%. c #667888",
"&. c #547FA0",
"*. c #587FA4",
"=. c #58819E",
"-. c #6D8395",
";. c #728493",
":. c #718698",
">. c #738A9C",
",. c #7A8E9E",
"<. c #5383A4",
"1. c #5A84A3",
"2. c #5586A8",
"3. c #5B85AB",
"4. c #568AAC",
"5. c #5C8DAE",
"6. c #568EB0",
"7. c #598DB1",
"8. c #5790B3",
"9. c #5992B5",
"0. c #5B96BA",
"q. c #5B99BE",
"w. c #648EA9",
"e. c #698CA4",
"r. c #6291AF",
"t. c #7294AB",
"y. c #7B98AC",
"u. c #7891A4",
"i. c #6495B2",
"p. c #6D9DBA",
"a. c #6598B7",
"s. c #70A0BC",
"d. c #7AA3BB",
"f. c #5D9DC3",
"g. c #609EC2",
"h. c #5EA0C7",
"j. c #5FA2C9",
"k. c #64A2C5",
"l. c #61A5CC",
"z. c #69A6C8",
"x. c #67A9CE",
"c. c #6DA9CB",
"v. c #73A5C2",
"b. c #74A8C6",
"n. c #7BA9C4",
"m. c #75ADCD",
"M. c #79ADCA",
"N. c #62ABD4",
"B. c #69ACD1",
"V. c #72AFD1",
"C. c #6BB1D7",
"Z. c #72B1D4",
"A. c #7CB5D5",
"S. c #74B5D8",
"D. c #7CBADB",
"F. c #829BAC",
"G. c #869FB0",
"H. c #8FADBF",
"J. c #86A7BB",
"K. c #82A9C1",
"L. c #8DAEC1",
"P. c #90AFC1",
"I. c #8FB1C5",
"U. c #83B2CD",
"Y. c #8AB2C9",
"T. c #92B1C4",
"R. c #95B9CD",
"E. c #82B7D4",
"W. c #85B9D5",
"Q. c #85BDDC",
"!. c #88BFDD",
"~. c #90BED6",
"^. c #98BFD4",
"/. c #88C0DE",
"(. c #92C2DC",
"). c #9AC6DC",
"_. c #9FC8DE",
"`. c #99C2D7",
"'. c #A2CADF",
"]. c #93C5E0",
"[. c #96C8E2",
"{. c #9CCAE2",
"}. c #A2CEE5",
"|. c #A6D0E6",
/* pixels */
"                                                                                                                                ",
"                                                                                                                                ",
"        .     .       . .       .     .           .     .                                               o                       ",
"X X X X X X X X . . X X . X . . X X X X   . X X X X X . X X X X   X X X X X X X X X X X X X X X X X X   X X X X X X X X         ",
"# @ # @ @ # # @ # @ @ # # # @ @ + + # @ @ @ # # @ @ + # @ # @ $ # @ @ @ @ @ # # @ # @ # @ @ @ # # @ + # @ @ + @ # @ # @         ",
"# # # # : # # # # # > # * # % # $ $ $ $ $ # $ % $ $ $ $ $ $ $ $ $ $ $ $ $ $ # # # $ # # $ $ $ $ $ $ $ $ $ $ $ $ $ % # @         ",
": # : $ # # % $ > # # # > > > # $ $ $ % $ $ % % $ $ $ % $ $ $ $ # % $ # $ $ # # @ # @ $ $ $ % % $ $ $ % $ % % % $ # # @         ",
"$ $ $ $ > > > > % % > > > % > % 1 % % % % % % % $ % % % $ $ % % $ # # $ $ $ # + @ + + $ $ % % % % % % % % % % > % $ # + X       ",
"# % % # % > 1 1 1 1 1 1 1 1 > 1 1 1 1 % 1 1 1 1 1 > 1 > > > > : $ # # : > > $ = + = $ : % % < % > > 1 1 1 1 1 > % $ # # X .     ",
"% # $ > > 1 1 1 1 1 1 1 1 1 1 1 1 1 1 1 1 1 1 1 1 1 1 1 > > : * # # + # & : < 6 0 8 6 < < % % 6 1 1 1 1 1 1 1 > > $ $ @ X       ",
"# % % > 1 1 1 1 1 1 1 1 1 1 1 1 1 1 1 1 1 1 1 1 1 1 1 > % # @ X O o X O o = 8 s V j d 8 < $ $ 1 1 1 1 1 1 1 1 1 % $ # # .       ",
"% # % > > 1 1 1 1 1 1 1 1 1 1 1 1 1 1 % 1 1 % 1 > 1 > : : # & & + + + O & - s H { { j w = + $ % 1 1 1 1 1 1 1 1 > $ $ @ .       ",
"# > # % > 1 1 1 1 1 1 1 1 1 1 1 1 1 1 u % 1 1 > > > > > , , ; ; ; - ; ; ; 8 j ~ 2.<.U s = o $ % 1 1 1 1 1 1 1 1 > # # # X       ",
"# % > > 1 1 1 1 1 1 1 1 1 1 1 1 1 1 6 % 1 $ $ $ # $ : , 4 s d f f f d f d j Q <.0.4.Q d = o & $ > 1 1 1 1 1 1 1 > > % @ X       ",
"> # # > > 1 1 1 1 1 1 1 1 1 1 1 1 1 1 1 % $ + O O O + 6 f H ! { { _ { _ { =.<.8.f.8.Q s = o + > 1 1 1 1 1 1 1 1 > # $ @ .       ",
"# > # # > > > 1 > > > > 1 1 > 1 > 1 1 > : $ : + + = ; t H =.6.a.0.0.0.0.9.0.9.q.f.<.E s = O $ $ 1 1 1 1 > 1 1 1 % > : # X       ",
"# % # % % % % > > % % > > > > > > > > > < 2 9 8 s 4 s j =.w.z.V.Z.B.B.x.l.j.q.9.2.{ H e : @ $ > > 1 > % > > 1 1 : % $ @ X       ",
"% # % # > # # > % # # % # # % > > : * : 8 s m V j H U _ w.s.E./././.D.S.C.j.0.<.~ H d 8 : # : > 1 > $ $ # : > > : % $ @ X       ",
"> # # > > # # > # : $ % # % % > > # @ , e V _ | <.<.4.i.s./.(.[.).(./.D.C.h.2.! g w 8 < < > > 1 > : # @ + * > > % $ $ # X       ",
"> > % > > > > > : > > > > > > > # # @ * s U <.f.h.j.s.m./.(._.{.}.{.)./.S.z.2.Y d 8 2 , > > > > > : : : : : < : % $ # # .       ",
"1 > 1 1 > 1 > 1 1 1 1 > 1 > 1 > : # . = s Q 8.j.B.Z.A./.(.{.'.|.|.}.{.].!.m.r.` H d 0 2 : & * * < 2 0 e e 9 < : # # * # X       ",
"1 1 1 1 1 1 1 1 1 1 1 1 1 1 1 > : * o = d Q 8.x.C.A././.{.{.|.|.|.|.{.[./.E.d.r.` H f 8 = o # & , q B V V f 8 * @ # # @ X .     ",
"1 1 1 1 1 1 1 1 1 1 1 1 1 1 1 1 : # & - d Q 8.l.Z././.).)._._.'.'.'._._.).~.A.v.i.+.U s = & & = 4 d Y  .~ H 8 * @ @ # @ .       ",
"1 1 1 1 1 1 1 1 1 1 1 1 1 1 > > < < ; 0 h U <.r.s.d.J.H.H.H.H.H.I.H.H.Y.H.L.n.b.k.8._ V s ; - 4 s H =.r.=.Y e & @ @ # # .       ",
"1 1 1 1 1 3 1 1 1 1 1 1 1 > % : < q f j H U U ! ' ' $.-.-.-.%.;.;.;.-.;.;.-.e.i.q.g.=._ U j h j U =.a.s.w.R s * O @ * @ .       ",
"1 1 1 1 1 1 1 1 1 1 1 1 1 % # $ 8 d H Q U H j f c b b Z Z Z A A b b A b b S R =.0.g.0.4.=.=.=.=.=.i.n.n.t.R r * O @ @ @ . .     ",
"1 1 1 1 1 1 1 1 1 1 1 1 1 $ @ # 4 g ~ } ! V t 4 4 4 5 5 4 8 4 4 5 5 5 5 , s j ~ 4.q.g.g.q.g.q.a.s.v.U.J.u.R k * @ O @ @ .       ",
"1 1 1 1 1 1 1 1 1 1 1 1 1 % X @ ; d U ~ U j t 8 8 8 0 s 8 s s s s 0 0 8 4 s f U ` 4.0.z.B.C.S.Z.Z.M.d.u.-.I r * O @ * @ .       ",
"1 1 1 1 1 1 1 1 1 1 1 1 1 % X X = 8 s j j j g j j U U U U U U U U U U H j B B V H Y -.s.A././.W.U.d.>.R S k , O @ @ # @ @       ",
"1 1 1 1 1 1 1 1 3 1 1 1 % % @ X & = ; w f j U ~ _ =.<.2.2.4.4.4.2.<.=.X.~ Y H h f V =.t.Y.(.(.`.Y.y.#.b k , O . . @ # @ . .     ",
"1 1 1 1 1 1 1 1 1 1 1 1 % % X . . & = 8 f K _ <.6.q.q.h.h.h.h.h.h.h.q.5.2.X.Y B s l T ,.J.R._.`.H.,.I s * . . . @ @ # @ .       ",
"1 1 1 1 1 1 1 1 u 1 1 1 1 % @ . & & ; s j ! <.8.q.j.N.N.N.N.N.N.N.N.l.h.0.2.` U f l I R ;.F.H.`.H.,.A , & . . @ @ @ # * .       ",
"1 1 1 1 1 1 1 1 1 1 1 > > $ O O = 8 d H ~ &.8.f.j.j.N.N.N.N.N.N.N.N.N.l.g.f.*. .Y G C S I %.F.H.H.,.A 5 @ . @ @ # # # # X .     ",
"1 1 1 1 1 1 1 1 1 1 1 1 > $ O O < q m Q o.*.f.h.N.N.N.j.j.j.h.h.j.j.l.g.g.g.7.*. .W V l v A $.F.F.;.A 5 @ @ : > > % # # X .     ",
"1 1 1 1 1 1 1 1 1 1 1 1 > $ O O = 0 n L ~ &.7.f.h.h.h.h.f.f.f.<.8.0.f.0.f.f.7.*.o.! m y 5 k T -.;.R z 3 * @ : > : > # @ .       ",
"1 1 1 1 1 1 1 1 1 1 1 1 > $ O @ & 2 t n L ] o.7.f.h.f.f.<.~ Q _ +.1.3.3.*.3.*.*.*.~ m 0 : , z F T S i 3 : * > 3 % # # # .       ",
"1 1 1 1 1 1 1 1 1 1 1 1 > % X . o + = 0 d M ^ o.*.f.f.*.Q j j g P ^ ( ( [ [ [ O.o.~ m 0 & & < r k u 3 1 > > 1 > % % # # X       ",
"7 1 1 1 1 1 1 1 1 1 1 1 > % O . o o o & 6 a M ^ +.8.f.&.U s 8 8 a M G P ^ P ^ ( [ ~ m 0 & o O + * > 1 > > 1 1 1 % # % @ X .     ",
"1 1 1 1 1 1 1 1 1 1 1 1 > % O .       o = 6 a V } *.f.| H w - - 7 a x N a N G ^ ] ! j 8 &   X @ * * % > 1 1 1 > % > # # .       ",
"1 1 1 1 1 1 1 1 1 1 1 1 > % O .       o + < 6 n Q +.8.&.j 0 = o < 7 7 7 7 a n J ~ Q h 0 & . O + # > > 1 1 1 1 1 > > * @ X       ",
"1 1 1 1 1 1 1 1 1 1 1 1 1 > O . o     o o & - w U } 8.<.H w - o + = & = : 2 y C W W g q = X + $ > 1 1 1 1 1 1 1 > # # @ X .     ",
"1 1 1 1 1 1 1 1 1 1 1 1 1 > O . o o & - ; 6 8 d Q | 8.4.Q g w ; ; 6 ; ; - 6 y m L H d 7 + + # % 1 1 1 1 1 1 1 1 > # > @ X .     ",
"1 1 1 1 1 1 1 1 1 1 1 1 1 % O . + = 8 t d g j U } 4.q.8.} Q j j j j h g d d d g n d e 6 : + $ % 1 1 1 1 1 1 1 > > # > @ .       ",
"1 1 1 1 1 1 1 1 1 1 1 1 > % O O = 8 d j U Q { &.4.q.f.f.8.<.| } } { ~ ! K H m y e 8 6 > > % > > 1 1 1 1 1 1 1 1 > # # # .       ",
"1 1 1 1 1 1 1 1 1 1 1 1 > > + + < y j Q } &.f.f.f.f.f.f.f.f.f.f.0.8.6.&.{ W m y 2 : : > < 1 1 1 1 1 1 1 1 1 1 1 > > # # X       ",
"1 1 1 1 1 1 1 1 1 1 1 1 > > # + ; q j U { *.8.8.&.f.4.8.f.f.h.N.f.f.8.*.] K g q : + # > 1 < 1 1 1 1 1 1 1 1 1 1 # # > @ . .     ",
"1 1 1 1 1 1 1 1 1 1 1 1 > > > $ < 6 w n K { &.*.} _ E ~ | f.h.j.f.0.*._ H g q 6 : # : > 1 1 1 1 > 1 1 1 1 1 1 1 % > # @ .       ",
"1 1 1 1 1 1 1 7 1 1 1 1 1 > > > > < 2 0 f K ] } U j f j _ &.f.h.0.2._ H y 8 6 < < > > < 1 1 1 1 1 1 1 1 1 1 1 1 % # > @ X       ",
"1 1 1 1 1 1 1 1 1 1 1 1 1 1 1 1 > > % < q n W W n t 6 t K } &.*.&.] W n u % % 1 1 1 1 1 1 1 1 1 1 1 1 1 1 1 1 1 > % > @ X .     ",
"1 1 1 1 1 1 1 1 1 1 1 1 1 1 1 1 1 > $ $ 6 y n n q 1 < 6 n K Q ~ K M n e % % % % 1 1 1 1 1 1 1 1 1 1 1 1 1 1 1 1 % % # @ X .     ",
"1 1 1 1 1 1 1 1 1 1 1 1 1 1 1 1 1 1 % % 1 6 6 7 6 < < < 8 t s s t q u % % % % 1 1 1 1 1 1 u 1 1 1 1 1 1 1 1 1 1 > $ # # .       ",
"1 1 1 1 1 1 1 1 1 1 1 1 1 1 1 1 1 1 > % > : = = : : : < < - - < = = % % 1 % % 1 1 1 1 1 1 1 1 1 1 1 1 1 1 1 1 1 % % % @ X       ",
"1 1 1 1 1 1 1 1 1 1 1 1 1 1 1 1 1 1 1 1 % $ # # $ : > > $ + + + + + + % % 1 1 1 1 1 1 1 1 1 1 1 1 1 1 1 1 1 1 1 > > # # X       ",
"1 1 1 1 1 1 1 1 1 1 1 1 1 1 1 1 1 1 1 1 % $ # % : > > > $ # + + + # # % 1 1 1 1 1 1 1 1 1 1 1 1 1 1 1 1 1 1 1 1 # # > @ X .     ",
"1 1 a 1 1 1 1 1 1 1 1 1 1 1 1 1 1 1 1 1 > > 1 1 > > 1 1 > > > : $ $ $ % 1 1 1 1 1 1 1 1 1 1 1 1 1 1 1 1 1 1 1 1 % > # # .       ",
"1 1 1 1 1 1 1 1 1 1 1 1 a 1 1 1 1 1 1 1 1 1 1 1 > 1 1 1 1 1 1 > 1 1 < 1 1 1 1 1 1 1 1 1 1 1 1 1 1 1 1 1 1 1 1 1 > # # # .       ",
"1 1 1 1 1 1 1 1 1 1 a 1 1 1 1 1 1 1 1 1 1 1 1 1 1 1 1 1 1 1 1 1 1 1 1 1 1 1 1 1 1 1 1 1 1 1 1 1 1 1 1 1 1 1 1 1 > > % @ X .     ",
"1 1 1 1 1 1 1 1 1 1 1 1 1 1 1 1 1 1 1 1 1 1 1 1 1 1 1 1 1 1 1 1 1 1 1 1 1 1 1 1 1 1 1 1 1 1 1 1 1 1 1 1 1 1 1 > > # # @ X .     ",
"1 1 1 1 1 1 1 1 1 1 1 1 1 1 1 1 1 1 u 1 1 1 1 1 1 1 1 1 1 1 1 1 1 1 1 1 1 1 1 1 1 1 1 1 u 1 1 1 1 1 1 1 1 1 1 1 > % % # .       ",
"1 1 1 1 1 1 1 1 1 1 1 1 1 1 1 1 1 1 1 1 1 1 1 1 1 1 1 1 1 1 1 1 1 1 1 1 1 1 1 1 1 1 1 u 1 1 1 1 1 1 1 1 1 1 1 1 % % % @ .       ",
"1 a 1 1 1 1 1 1 1 1 1 1 1 1 1 1 1 1 1 1 1 1 1 1 1 1 1 1 1 1 1 1 1 1 1 1 1 1 1 1 1 1 1 1 1 1 1 1 1 1 1 1 1 1 1 1 % % % # . .     ",
"1 1 1 1 1 1 1 1 1 1 1 1 1 1 1 1 1 1 1 1 1 1 1 1 1 1 1 1 1 1 1 1 7 1 1 1 1 1 1 1 1 1 1 1 1 1 1 1 1 1 1 1 1 1 1 1 % % # @ X .     ",
"1 1 1 1 1 1 1 1 1 1 1 1 1 1 1 1 1 1 1 1 1 1 1 1 1 1 1 1 1 1 u 1 1 1 1 1 1 1 1 1 1 1 1 1 1 1 1 1 1 1 1 1 1 1 1 1 % % # # .       ",
"1 1 1 1 1 1 1 1 1 1 1 1 1 1 1 1 1 1 1 1 1 1 1 1 1 1 1 1 1 1 1 1 1 1 1 1 1 1 1 1 1 1 1 1 1 1 3 3 3 3 1 1 1 1 1 1 % % # @ .       "
};
