/* XPM */
static char *leftmost_wall_resized[] = {
/* columns rows colors chars-per-pixel */
"64 64 66 1 ",
"  c #231117",
". c #231218",
"X c #241218",
"o c #241219",
"O c #241319",
"+ c #251319",
"@ c #25131A",
"# c #27151D",
"$ c #2C1823",
"% c #2D1924",
"& c #2E1925",
"* c #2E1A25",
"= c #2F1A26",
"- c #38212E",
"; c #3B2335",
": c #41273D",
"> c #42273D",
", c #42283D",
"< c #42283E",
"1 c #43283E",
"2 c #43293E",
"3 c #4A2E49",
"4 c #4B2E49",
"5 c #4B2F49",
"6 c #4B2E4A",
"7 c #4C2F49",
"8 c #4C2F4A",
"9 c #4D2F4A",
"0 c #4C2F4B",
"q c #4D3041",
"w c #4F3149",
"e c #4D304A",
"r c #4D304B",
"t c #543549",
"y c #543649",
"u c #553649",
"i c #54354A",
"p c #56374A",
"a c #57374A",
"s c #57384B",
"d c #58384B",
"f c #63414A",
"g c #664348",
"h c #65434C",
"j c #68454A",
"k c #6E4A48",
"l c #6F4A48",
"z c #6F4B48",
"x c #6C484C",
"c c #6D494E",
"v c #6E494E",
"b c #6E4A4E",
"n c #704B49",
"m c #704C4A",
"M c #714C4A",
"N c #724D4B",
"B c #744E4C",
"V c #764F4D",
"C c #76504D",
"Z c #77504D",
"A c #76504E",
"S c #77514F",
"D c #79524F",
"F c #7A524F",
"G c #7A534F",
"H c #7A5250",
/* pixels */
"@@@@@@@@@@@@@@@@@@@@@@@@@@@@@@@@@@@@@@@%>00777577777400057077777",
"@@@@@@@@@@@@@@@@@@@@@@@@@@@@@@@@@@@@@..%>00055555555444455447777",
"@@@@@@@@@@@@@@@@@@@@@@@@@@@@@@@@@@@@@@.%>04454455555444455547777",
"@@@@@@@@@@@@@@@@@@@@@@@@@@@@@@@@@@@#$%%-qddatttaaaaaaaadaaatw777",
"@@@@@@@@@@@@@@@@@@@@@@@@@@@@@@@@@@@$;22qgbbxjggjjbbxbxxbxbbha555",
"@@@@@@@@@@@@@@@@@@@@@@@@@@@@@@@@@@@%2r0abFHVMkkMAFFFFHHHHHHba555",
"@@@@@@@@@@@@@@@@@@@@@@@@@@@@@@@@@@@%200abFFVMkkmAFFFFFAHHHHxa555",
"@@@@@@@@@@@@@@@@@@@@@@@@@@@@@@@@@ @%204axAABmkkkBVVVVVVVVFHka555",
"@@@@@@@@@@@@@@@@@@@@@@@@@@@@@@@@@@ %2r7tjMMzkkkkkmmmmmmmVHHxd440",
"@@@@@@@@@@@@@@@@@@@@@@@@@@@@@@@@@@@%,77tgzzzkkkkkkkkkkkmVHHcd444",
"@@@@@@@@@@@@@@@@@@@@@@@@@@@@@@@@@@@%,r0tgzzzkkkkkkkkkkkmVSHxa400",
"@@@@@@@@@@@@@@@@@@@@@@@@@@@@@@@@@@@%,05tgzzzkkkkkkkkkkkmVHHxa444",
"@@@@@@@@@@@@@@@@@@@@@@@@@@@@@@@@@@@%2r5tgzkkkkkkkkkkkkkmVSHba440",
"@@@@@@@@@@@@@@@@@@@@@@@@@@@@@@@@@@@%2r0tgzzzkkkkkkkkkkkmVHHxa457",
"@@@@@@@@@@@@@@@@@@@@@@@@@@@@@@@@@XX%,70tgzzzkkzkkkkkkkkmVHHxa557",
"@@@@@@@@@@@@@@@@@@@@@@@@@@@@@@@@@@@%207tgzzzkkkkkkkkkkkkVHHka557",
"@@@@@@@@@@@@@@@@@@@@@@@@@@@@@@@@@@X=>00tgmmkkkkkkkkkkkkmVHHxd440",
"@@@@@@@@@@@@@@@@@@@@@@@@@@@@@@@@@@X=>07tgkkkkkkkkkkkkkkmVHHbd440",
"@@@@@@@@@@@@@@@@@@@@@@@@@@@@@@@@@XX=>07tgzkkkkkkkkkkkkkmVSHxa540",
"@@@@@@@@@@@@@@@@@@@@@@@@@@@@@@@@@@X&,00tgzkkkkkkkkkkkkkmVHHxa557",
"@@@@@@@@@@@@@@@@@@@@@@@@@@@@@@@@@XX=>00tgzzzkkkkbkkkkkkmVFFxa555",
"@@@@@@@@@@@@@@@@@@@@@@@@@@@@@@@@@@@=>00tgzzzkkkkkkkkkkkmVFFba555",
"@@@@@@@@@@@@@@@@@@@@@@@@@@@@@@@@@@X=>04tgzzkkkkkkkkkkkkmVFFxa555",
"@@@@@@@@@@@@@@@@@@@@@@@@@@@@@@@@@@X=>00tgzzkkkkkkkkkkkkmVSFxa557",
"@@@@@@@@@@@@@@@@@@@@@@@@@@@@@@@@@XX=207tgzzzzzkkkkkkkkkmVHHxd440",
"@@@@@@@@@@@@@@@@@@@@@@@@@@@@@@@@@@X=200tgzzzkzkkkkkkkkkmVFHbd440",
"@@@@@@@@@@@@@@@@@@@@@@@@@@@@@@@@@@X=,77tgzkkkkkkkkkkkkkmVHHxa540",
"@@@@@@@@@@@@@@@@@@@@@@@@@@@@@@@@@X@&200thmmmzkkkmkmmmmmmVSHxa557",
"@@@@@@@@@@@@@@@@@@@@@@@@@@@@@@@@@X@=,07axSSVkkzmVVVVSVVSSHSva440",
"@@@@@@@@@@@@@@@@@@@@@@@@@@@@@@@@@@X=200abHHVmzzmVSSHSHSHSHHva407",
"@@@@@@@@@@@@@@@@@@@@@@@@@@@@@@@@@@@=2i0acHFVmzmmSSHHHHHHHHFma007",
"@@@@@@@@@@@@@@@@@@@@@@@@@@@@@@@@@@@$;222fvmkhgghxvvvxvvccxxgq>>>",
"@@@@@@@@@@@@@@@@@@@@@@@@@@@@@@@@@@@#$&$-qddiiitiaaaaaaaaads7-$==",
"@@@@@@@@@@@@@@@@@@@@@@@@@@@@@@@@@@@@XXX$>633303533333333333>$  @",
"@@@@@@@@@@@@@@@@@@@@@@@@@@@@@@@@@@@XXXX$>663344533333333333>$X X",
"@@@@@@@@@@@@@@@@@@@@@@@@@@@@@@@@@@@#$==-qdddiiitaaaaadssddsq-%%%",
"@@@@@@@@@@@@@@@@@@@@@@@@@@@@@@@@@X@$;11qfbvxjgghjmxbxbxvxbbfq>11",
"@@@@@@@@@@@@@@@@@@@@@@@@@@@@@@@@@@X=100amHHSmzzmVHHSHHHHHHHma000",
"@@@@@@@@@@@@@@@@@@@@@@@@@@@@@@@@@@X=200axHFSmzkmVSHHHSHSHHFxa700",
"@@@@@@@@@@@@@@@@@@@@@@@@@@@@@@@@@@@=100akZZBzzkmVVVVVVVSSSFxa777",
"@@@@@@@@@@@@@@@@@@@@@@@@@@@@@@@@@@X=107tjMmzkkkkmmmmmmmmSSSvs300",
"@@@@@@@@@@@@@@@@@@@@@@@@@@@@@@@@@XX=,07tgzzzkkkkkkkkkkkmVHHvs030",
"@@@@@@@@@@@@@@@@@@@@@@@@@@@@@@@@@@@$,00tgzzzkkkkkkkkkkkmVSHva357",
"@@@@@@@@@@@@@@@@@@@@@@@@@@@@@@@@@@@=,07tgzzzkkkkkkkkkkkmVHHxa377",
"@@@@@@@@@@@@@@@@@@@@@@@@@@@@@@@@@X@&107tgzkkkkkkkkkkkkkmSHHxa377",
"@@@@@@@@@@@@@@@@@@@@@@@@@@@@@@@@@@X=,00tgzzzkkkkkkkkkkkmVSHma577",
"@@@@@@@@@@@@@@@@@@@@@@@@@@@@@@@@@XX&107tgzzzkkkzkkkkkkkmVSSxa737",
"@@@@@@@@@@@@@@@@@@@@@@@@@@@@@@@@@@@=,07tgzzzkkkkkkkkkkkmSSFxa377",
"@@@@@@@@@@@@@@@@@@@@@@@@@@@@@@@@oXo=,00tgzzkkkkkkkkkkkkmVSHvs660",
"@@@@@@@@@@@@@@@@@@@@@@@@@@@@@@@@##o&,07tgzzkkmkkkkkkkkkmSSSvs630",
"@@@@@@@@@@@@@@@@@@@@@@@@@@@@@@@@XXo&,07tgzkkkkkkkkkkkkkmVSHva777",
"@@@@@@@@@@@@@@@@@@@@@@@@@@@@@@@@#oX&,00tgzkkkkkkkkkkkkkmVSSba337",
"@@@@@@@@@@@@@@@@@@@@@@@@@@@@@@@@ooo=,07thzzkkkkkkkkkkkkmSHGxa737",
"@@@@@@@@@@@@@@@@@@@@@@@@@@@@@@@@ooo&,07tgzzkkkkkkkkkkkkmVSGva377",
"@@@@@@@@@@@@@@@@@@@@@@@@@@@@@@@@o#o=,w7pgzzkkkzzkkkkkkkmVSFxa377",
"@@@@@@@@@@@@@@@@@@@@@@@@@@@@@@@@ooo=,77phMzzzkkzmmmmmmmmSSFxa737",
"@@@@@@@@@@@@@@@@@@@@@@@@@@@@@@@@#Xo=100axSSVmkzzVSVSVSSSSSHbs660",
"@@@@@@@@@@@@@@@@@@@@@@@@@@@@@@@@#Xo=2w0abHSSmkzMSSSHSSSSFGSvs060",
"@@@@@@@@@@@@@@@@@@@@@@@@@@@@@@@@Xoo=1w0abHSVmzzMVSSHHHSHSGGma000",
"@@@@@@@@@@@@@@@@@@@@@@@@@@@@@@@@ooo$;11qfbvkhgggxvvvvxxkvvvfq>>1",
"@@@@@@@@@@@@@@@@@@@@@@@@@@@@@@@@@@@#$&&-2ddatttiaaaaaaaaaaaq-&&=",
"@@@@@@@@@@@@@@@@@@@@@@@@@@@@@@@@@@@@@..%,7t07377063373377001$  @",
"@@@@@@@@@@@@@@@@@@@@@@@@@@@@@@@@@@@@@ @%,0037773737773773001&X@@",
"@@@@@@@@@@@@@@@@@@@@@@@@@@@@@@@@@@@@@@@&10777777777777777701&XX@"
};
