/* XPM */
static char *right_4_resized[] = {
/* columns rows colors chars-per-pixel */
"64 64 223 2 ",
"   c #1F161C",
".  c #241417",
"X  c #25141A",
"o  c #29151E",
"O  c #2A181F",
"+  c #26181E",
"@  c #271622",
"#  c #2A1621",
"$  c #251B23",
"%  c #2C1A25",
"&  c #251E29",
"*  c #2D1C2B",
"=  c #2E1729",
"-  c #301B26",
";  c #331E2C",
":  c #391E2E",
">  c #2D1E32",
",  c #351F31",
"<  c #381F32",
"1  c #2C212D",
"2  c #25212D",
"3  c #34202E",
"4  c #262332",
"5  c #2C2333",
"6  c #262738",
"7  c #2B253B",
"8  c #2D2C3C",
"9  c #292938",
"0  c #362132",
"q  c #3A2235",
"w  c #322B37",
"e  c #352539",
"r  c #3D253B",
"t  c #332B3C",
"y  c #3B293D",
"u  c #2F303E",
"i  c #34313F",
"p  c #402436",
"a  c #402439",
"s  c #2D2C42",
"d  c #252E42",
"f  c #3A2541",
"g  c #342D42",
"h  c #3B2B42",
"j  c #352F48",
"k  c #2C3245",
"l  c #2B3549",
"z  c #2E3A4E",
"x  c #263448",
"c  c #343344",
"v  c #3B3343",
"b  c #33364A",
"n  c #3B354B",
"m  c #343B4C",
"M  c #3A3A4C",
"N  c #3A3843",
"B  c #2D3B51",
"V  c #343E53",
"C  c #3B3C51",
"Z  c #353B56",
"A  c #453C52",
"S  c #433C59",
"D  c #42384B",
"F  c #2D4057",
"G  c #2F445B",
"H  c #354154",
"J  c #3C4255",
"K  c #34435A",
"L  c #3C455B",
"P  c #3C495C",
"I  c #33485F",
"U  c #3A4562",
"Y  c #354C64",
"T  c #3B4B63",
"R  c #3E4D69",
"E  c #3D5065",
"W  c #3D536B",
"Q  c #3D596F",
"!  c #335067",
"~  c #3E5B74",
"^  c #3D5974",
"/  c #444B5D",
"(  c #494E5C",
")  c #444459",
"_  c #434C62",
"`  c #464B67",
"'  c #445165",
"]  c #4C5465",
"[  c #42536B",
"{  c #4B566B",
"}  c #44596D",
"|  c #4C596C",
" . c #515464",
".. c #54596E",
"X. c #445672",
"o. c #4D5273",
"O. c #435B74",
"+. c #4B5B73",
"@. c #455D7A",
"#. c #4C5D7B",
"$. c #525B74",
"%. c #504C69",
"&. c #4D6075",
"*. c #46627A",
"=. c #4B637C",
"-. c #4D6A7F",
";. c #46647B",
":. c #516176",
">. c #5E6274",
",. c #55637A",
"<. c #526B7E",
"1. c #62697B",
"2. c #465F82",
"3. c #456683",
"4. c #4B6583",
"5. c #456A84",
"6. c #4C6A83",
"7. c #4E6C89",
"8. c #4A6988",
"9. c #556383",
"0. c #546C82",
"q. c #536A8A",
"w. c #586888",
"e. c #4A738E",
"r. c #47708D",
"t. c #53728C",
"y. c #5A738C",
"u. c #5C7A8E",
"i. c #556E92",
"p. c #4E7491",
"a. c #4F7C9A",
"s. c #537493",
"d. c #547A94",
"f. c #5B7E95",
"g. c #537C9A",
"h. c #5A7B9C",
"j. c #587398",
"k. c #627489",
"l. c #687E93",
"z. c #727F91",
"x. c #717B8E",
"c. c #597AA0",
"v. c #56829D",
"b. c #5C829D",
"n. c #558097",
"m. c #6D818F",
"M. c #6F8291",
"N. c #6C869B",
"B. c #63829A",
"V. c #7B8B9D",
"C. c #738C9E",
"Z. c #5482A3",
"A. c #5B84A3",
"S. c #5C89A6",
"D. c #578BAA",
"F. c #5C8CAC",
"G. c #5A87A8",
"H. c #5D8EB3",
"J. c #5E93B4",
"K. c #5E97BA",
"L. c #5F9ABA",
"P. c #5F9BB7",
"I. c #618CAB",
"U. c #638AA3",
"Y. c #6B92A9",
"T. c #6591AE",
"R. c #7995AA",
"E. c #6394B4",
"W. c #6396B9",
"Q. c #629ABC",
"!. c #689CB7",
"~. c #7399B2",
"^. c #7F9BB2",
"/. c #6C8EAB",
"(. c #6BA2BD",
"). c #64A0BE",
"_. c #74A4BD",
"`. c #7BA5B9",
"'. c #5E9DC3",
"]. c #629DC2",
"[. c #5EA6C9",
"{. c #5FADD3",
"}. c #63A2C4",
"|. c #64A4CA",
" X c #64A9CF",
".X c #6AAACC",
"XX c #6AA4C6",
"oX c #77AAC4",
"OX c #76B2CC",
"+X c #62A6D1",
"@X c #63AAD3",
"#X c #6BAED1",
"$X c #64ACD9",
"%X c #73B4D4",
"&X c #7BB9D8",
"*X c #809EB2",
"=X c #859AAD",
"-X c #8BAABA",
";X c #86A3B7",
":X c #90A5B7",
">X c #86ACC2",
",X c #83B5CE",
"<X c #89B6CA",
"1X c #94B1C5",
"2X c #98B7CB",
"3X c #85BAD5",
"4X c #94BCD3",
"5X c #9ABBD3",
"6X c #8DC3DD",
"7X c #85C0DB",
"8X c #9DC6D6",
"9X c #9DC4D9",
"0X c #9CC8DE",
"qX c #94C1D8",
"wX c #A0C3D7",
"eX c #8EC5E1",
"rX c #9ACBE4",
"tX c #97CBE4",
"yX c #A1CDE6",
"uX c #A5CFE8",
"iX c #A6D2E6",
"pX c #A6D1E8",
"aX c #A8D2E7",
/* pixels */
".   . . . O . . o X o X X X X . X X . X X . . . O O . . X o o X X o o X o X o X X X X X X X . . X X X o X o X X X @ X X X X X X ",
". X . . . O O o o o o O O o o o o O o o o o X X X O O O o # o o # o o O o o o o O O o o o o O X O X o O # # # @ @ @ # O # @ @ @ ",
"X X X X O - - - - - - - - - - - - - % % = - - % - O - - - - - - = = - - - - = = - - - % - - - - % - - - - - - - = % * % % % % % ",
"X X . $ - 3 - - - - : - ; ; ; - ; ; ; * - - ; ; 3 3 3 - ; ; ; ; : = : - : - - : - ; ; ; - : ; ; 3 ; ; - ; ; , ; * ; ; ; ; ; ; - ",
"X X X O - 3 3 3 ; ; ; ; : 3 3 3 3 0 5 0 , ; ; 3 3 3 : ; ; 3 ; , 3 ; 3 3 ; ; ; 3 3 ; ; ; , , , , 3 3 3 3 3 < , ; , ; , , ; ; ; 3 ",
"X X X O 3 3 3 3 3 : 3 q 3 3 3 q 0 0 0 0 0 q q q p 3 : 3 , q , , 3 0 3 3 : 0 q 3 0 0 q 0 , , , < q 3 3 q , q < < < , , , q < 3 3 ",
"  X X # - 3 3 : q q q q q q q q e r q e r q q q 3 q q 3 q 0 , < q q q q q q q q r q q q q q < a q q q q q q r q q q q q q , < : ",
". . X O - 3 3 q q p q r a r r y r y e r r r a a p p q q 0 q , q q r r q r r r a r r r q r r < a q a a r r q r r r r q q q q < , ",
". . o o - ; < < q r q r r r r f r y r y a a a q q r q 0 0 q , q q r r r a r r r r r r y r f a < a < a a a a < f f r r r q < < < ",
"X . X o - ; , q q r r r r a r r a y q a a a a q q q 0 0 ; , < 0 q r r r r r r r a y r r f a < D f f a a a < D r a y r q q < < < ",
"X X X O ; : , q r r a a a r r < a y a q a a a r q 0 , * ; , , q q r r q r a r r r r r D a f f a a a a a f f r r r r q < < < < , ",
". X X O ; 3 0 < r a a h f f a f q r r p a a a r 0 5 > > * , , q r r q y r a r r r r a < a f < f a f f < a f r r r r q q < , , , ",
"X X X o ; ; q q < f a f D < < a r r r a r r r e e 5 5 5 > , , , q q r r r r r r a f a a < f f a f < a a f r r r r r q q , , , , ",
". X o o - : < q f a a f < D f a r e r r q r e 0 8 7 g 8 t > > , 3 q 0 0 q r r r a r < D f a f < < D f a r r r r r q q q < , , ; ",
"X X X o - , < < < a a a D < < f r r r r q q e 8 N J / / j f > * ; ; ; , w q q r r a D < a D < f f f < < r q e q q q q < q , ; : ",
". X o o - < < < f a < a < f a a r r e q e , 5 8 J ] ,.$.` j > * * * * 0 ; q 0 q < a < a f < a a < < < < q q q q q 0 q q ; < ; ; ",
"X X X o : : : < r r f r r r a a < D e r , , * s ' <.n.k.+.V s 5 5 1 5 1 5 ; ; < : p q r q r r r < < < < 0 q ; < , q < , , , ; < ",
". X X o = : , < < r r a r a a a a < f r , > * g { u.Y.Y.t.} H m m m c i 9 1 ; ; : q q q r e f r < < < < 0 q q ; , , , 0 < , < , ",
"X X X o - , , q r f r r a a a a a a f e ; ; * i ..l.~.oXI.s.;.&.O.} E H 8 4 * % - - ; q r r r r r < e < q q q q q q q 0 0 q q q ",
"X X X o - ; < < < r r r r a a a a < < r , ; * v ..U.>X3X_.E.A.n.n.d.6.W z 6 2 & - - > e q r a r r q r r q q q q q q q q q q q q ",
"X X X # ; , q < r r < r r r r r q r q w ; ; * v 1.V.<X4X&XOX(.Q.).E.v.5.I x 9 9 5 9 w 3 e q r r r r r r r q r q r r r r r q r r ",
"X X o # - , : q < r a f r f , < w q q 0 0 - * v ..V.5XrX6X3X&X#X.X(.J.d.~ Y I F H M i u e 0 q r r r r r r r r r r r r r r r r r ",
". X X % - < , q r r r r e < > , ; , w 0 ; * * v 1.=X4XyXtX6X7X&X%X.XQ.F.a.r.5.-.-.} P c 5 0 , q q r r f r r r r r r a r r r r r ",
". X X # ; ; ; q < r r r e e > > > 0 0 0 0 0 5 D 1.R.5XpXiXtXeX7X%X.XXX}.P.J.D.S.n.t.} H 9 > ; q q r r r r r r r r r r r a r r r ",
". X X @ * , , q q q q q e t g s 7 e 0 8 0 t c / k.=X5XpXpXpXtXeX&X%X#X.XXX|.}.].W.U.#.C 7 > * , r r a r r r a y y a r r r r r a ",
". X X # ; ; , < q < 0 0 e g M C C b t 8 i m P +.B.;X9XpXaXpXyXtXeX3X%X%X#X#X@X@X].I.4.U 7 * ; , r a y r r r r r r r a r a y r r ",
"X X X = ; , , < q q , 0 e M %.| { L s s m E &.b.R.<X0XiXiXiXiXiXtXeX7X&X%X#X@X.XXXH.q.U s = > , q r r r r r r r r r a r r y r r ",
"X X X @ ; , , q q 3 * > t J ,.k.w.+.Z z P &.n.Y.`.<X4X8X8X8X9XwXqX4X3XOXXX}.}.).Q.G.4.T s > > , r r a r f a r r r r r r a r a f ",
"X X @ @ = , q < : ; % 1 t / k.N.N.t.W Y ~ e.F.(._.`.-X-X-X-X-X-X-X*X`.R.Y.D.D.S.D.d.;.E Z j t q q q r q r r r a r r r r r r r r ",
". X @ @ > , , , 3 : % 1 i ' l.~.~.U.7.-.e.Z.E.(.(.Y.N.M.m.m.m.m.m.m.m.u.t.6.6.-.5.-.;.O.R L n g w , < r r y r r r a r r r r a r ",
". . X = > , , 0 q : - 1 k ' N.-XoX_.I.A.F.P.).Q.A.q.+._ ( ( ( ( ( ( / P P K G G G ! ~ =.0.+.) j > , , r a a r r r a r r y a r r ",
". . X @ = , , , q - - 1 i ] C.>X4X,XoX!.(.Q.E.F.q.X.K b c c m m u H m c k l k k x F Q -.y.<.T b > = , q q r y r r r r r r f r a ",
". . . % - ; : : q : % 1 i ] V.1X4X4X,XoXXXW.G.g.3.W V l z V Z Z H H V V m m z z B Z Q *.6.&.J u 2 % 3 q q a a y r y r r r a f a ",
". . X @ ; ; q q q ; ; 3 i  .V.1X9XtXqX,X!.F.i.2.^ W Y Y E W X.^ ~ ~ Q ^ } Q W E Y T W ^ Q P N 2 $ % 3 q r r y a y p r r r r r r ",
". X . @ ; ; q 3 : : - 1 i  .V.1X0XyXrX<X~.h.X.U R X.#.6.e.d.c.c.Z.Z.v.v.n.n.d.t.4.@.R U H u 4 2 % % 3 q r p p r a a r r r r r r ",
". . . % * 0 3 q q : ; 3 i  .x.:X2X9X0X4X~.y.T I R #.t.b.F.E.].'.[.'.'.'.P.P.J.S.h.q.X.I x 4 2 + @ $ 3 q q y r a r r r f f r r r ",
". . . @ 1 3 3 3 q : - 3 y ) 1.V.;X1XwX5X`.u.[ Y o.q.c.F.].].+X$X@X@X+X+X{.[.).P.I.c.9.` H 8 4 * % % 3 0 q y y r r a f r a r r r ",
". + + $ 1 3 3 3 q q q q r D  .1.M.=X2X5X;XN.-.O.8.h.I.Q.].+X$X$X$X$X{.+X{.{.[.[.W.U.s.2.E H 8 1 @ % 3 0 q r p y a f a f y a r r ",
". . . O 1 3 3 q q q q q e h h A  .x.:X1X-XR.n.t.v.F.W.].+X+X@X@X.X X X@X@X{.[.|.].!.b.d.=.E m 5 $ % 3 q r r r r f a a r r y r r ",
". . X % % 3 3 0 q r q q q 0 e t A ..=X:X*X~.b.Z.G.J.W.].].].].'.Q.W.L.].|.+X|.|.}.E.A.f.-.' m e * % ; 0 q y p y a r r r r r r a ",
"X X X = * 3 3 3 w r r q r < * , a ( 1.M.C.N.b.Z.c.H.H.H.H.H.H.c.d.d.v.J.'.|.].Q.H.A.j.6.X.L c 5 = % ; q < a < a f a D < < a < a ",
"X X X # * 3 3 0 q e r r r , = = w N ( ..<.y.h.h.c.c.c.c.c.j.j.q.*.~ 5.n.K.'.'.H.c.s.#.[ J k 0 * % % ; 0 a < D f a f f r D < a a ",
"X X o # 1 w 3 0 r r r r < , = # O 2 w N ` #.y.j.j.i.w.w.w.9.$.` F F ! 5.D.K.J.G.i.+._ M 8 4 & @ @ % , q < a a a r a f f < f a f ",
"X X X # - 3 3 0 r r r r q < = % O + 2 w C o.w.j.i.9.o.o.%.%.%.n 6 d F ^ c.J.D.g.#._ M 8 & $ X X @ % , < r a < D a f f a D < f a ",
"X X o O 3 3 3 3 r y y r q q 3 3 @ @ @ 5 n ` 9.w.,.X._ S A A D t 6 6 z ~ v.F.Z.q.[ C 8 1 $   . X X % ; 0 a a f < < a a f < a a a ",
"X X X O - 3 3 3 q y r y q q 3 3 * = @ * n ` ,.9.X.U b j h y t 5 2 4 H ~ b.I.h.3.L s 5 &     X X # = ; q < a f a D < D a a a < f ",
"X o o O - - 3 3 q a y y y q 0 3 3 % # > c / $.,.E H s 6 9 9 4 4 2 9 F ~ b.I.d.*.V d & & $ $ O @ @ = ; q a f a f < a < f a a f < ",
"X X o O - 3 : p r y r a q y q q 3 ; * > v ) { ..T H l s s k l k d z P -.S.E.v.4.! l s s 8 1 * % @ % 3 q < a a < f a f f a a < D ",
". . X # - 3 q q a r r r r r r q q 0 ; 5 t N J / P P U T R W ^ ^ ~ ~ r.a.K.L.H.a.3.^ R / J m w 1 & = ; 0 q a y r r a r r r h a r ",
". . X # - 3 3 q r r r r a r r r q 0 e 0 t t c m L E X.;.6.s.d.a.a.a.Z.J.'.'.K.H.c.p.q.=.{ L m 5 = % ; q q y a r r r a r r r r r ",
". . X # - 3 ; q q r r r y r y r r r q w e 5 9 8 M %.,.y.A.I.E.W.L.L.L.L.].Q.L.L.K.H.b.u.,.] J 9 = % , q r r r r r r r a r r r r ",
". X o # ; ; 0 < r r r r r r r r r r e q , * * 5 M / +.y.l.T.Q.|.|.|.}.L.F.D.F.J.W.E.b.y.:._ M w * - q q r a r a r r r y f r r a ",
". X X % ; 3 0 q r r r r r r y a r y t t 0 3 , 0 t M U X.q.G.W.].|.}.K.Z.r.5.r.g.U.b.t.*.T M g 0 0 0 q q p a q y q r r y y r r r ",
". . X # ; 3 3 0 r a y r y q r r y r r q q q q q w g j U @.p.Z.J.'.P.D.p.^ ! ^ ;.y.t.*.Y z s e q 0 q q y a y r r r r a f a r r r ",
". . X # % 3 3 q q r a r r r y r r r q r y p q < < > 7 Z R 3.p.Z.F.S.d.@.Z B H ' &.&.T V s & , q q r r q y a r r r r r a r r r r ",
". . X @ - 3 q q q r r r r r y r r y y r a a r < , > > s V ` @.4.t.q.=.T l s c A _ / C k 5 * < < r r r r r r r r r r r a r r a h ",
". X X O ; ; ; q r r r r r r r r < D < a < a r r , , e t g m J J P _ J M g s y g n n g t 0 , q r < r a a f a a < r r r r r f a r ",
". X X # - ; 0 q r r r r r r r a a a a a a f r r q q 0 q e w w 8 8 c c t y q e q 0 w 0 w 0 0 r r D a f a a < a D r r r r r r f r ",
". . X % - 3 q q r r r r r r r r a a a < r r f f f q q q 3 - % * * 1 5 0 t q , , * * , > e e f f < a < f f a f < r r r r a f r f ",
". X X % - ; , q r r r q r r r y a a f f r r f r r f q q ; - # = @ $ * 5 q q 0 * * * , < r e f r f a a < D < < f r r r r r r r r ",
". X + + ; 3 3 q r r a r r r r r < a a a < D f f r a r < , , ; , ; ; 3 0 0 0 q w < < , > r f f a f f f a D < a a a a < D r r f r ",
". . + O - 3 0 q r r r r r r r y D a a a < < a a a f D a r q q q 0 0 q q q r q q < < f f r < a < < a a f < a a a f a a < f r f a ",
". . X O - 3 q q q r y r a r r r f < < < a f a a a a < a f f f f f e r p q p p a D < f r r a a a a f f < a f < a a f r r a < f a ",
". . X % - ; 0 q q r r r r r r y a < D D < a f a a < a a f f f f f f y a p p a a f f f f r a a a a a < D a < D f f < f f a a f f "
};
