/* XPM */
static char *right_1_resized[] = {
/* columns rows colors chars-per-pixel */
"64 64 210 2 ",
"   c #251317",
".  c #25131A",
"X  c #29151D",
"o  c #29151B",
"O  c #1E1B27",
"+  c #251622",
"@  c #2A1722",
"#  c #251A25",
"$  c #2C1924",
"%  c #261C29",
"&  c #2D1C2B",
"*  c #301B26",
"=  c #331E2C",
"-  c #381F2F",
";  c #2C1E31",
":  c #361F31",
">  c #391F32",
",  c #26202D",
"<  c #2B212D",
"1  c #35202E",
"2  c #39202F",
"3  c #242332",
"4  c #2C2433",
"5  c #2D2937",
"6  c #2D263A",
"7  c #2B2B3B",
"8  c #252737",
"9  c #352133",
"0  c #3A2335",
"q  c #342936",
"w  c #322639",
"e  c #3D253B",
"r  c #332C3C",
"t  c #3B283B",
"y  c #31303F",
"u  c #402437",
"i  c #40243A",
"p  c #2C2E42",
"a  c #272E40",
"s  c #3D2540",
"d  c #352E41",
"f  c #392E45",
"g  c #2D3344",
"h  c #2F3847",
"j  c #2C3549",
"k  c #2E3A4C",
"l  c #333344",
"z  c #3B3445",
"x  c #343549",
"c  c #343B4D",
"v  c #3B3B4D",
"b  c #3F3846",
"n  c #2E3D52",
"m  c #2E3F58",
"M  c #333D51",
"N  c #3C3E51",
"B  c #433B4C",
"V  c #403444",
"C  c #463D56",
"Z  c #3A404F",
"A  c #2F4157",
"S  c #344255",
"D  c #3C4254",
"F  c #33455B",
"G  c #3C465A",
"H  c #3C4A5D",
"J  c #32495F",
"K  c #364C63",
"L  c #3B4C63",
"P  c #3C5166",
"I  c #3B526B",
"U  c #345067",
"Y  c #3D5B74",
"T  c #3F5D79",
"R  c #444354",
"E  c #414B5D",
"W  c #464757",
"Q  c #46434F",
"!  c #434C61",
"~  c #4A4B62",
"^  c #435164",
"/  c #45556C",
"(  c #4B566A",
")  c #4B596D",
"_  c #485161",
"`  c #545668",
"'  c #435B73",
"]  c #4B5D74",
"[  c #475B76",
"{  c #515D72",
"}  c #416077",
"|  c #4C6277",
" . c #45627B",
".. c #4C647C",
"X. c #4E687F",
"o. c #51647A",
"O. c #576577",
"+. c #5F707E",
"@. c #626C7D",
"#. c #616575",
"$. c #60717F",
"%. c #446582",
"&. c #4B6782",
"*. c #4C6B84",
"=. c #4C6D8A",
"-. c #446C87",
";. c #546A83",
":. c #546D8A",
">. c #556985",
",. c #4C728D",
"<. c #54738D",
"1. c #5B748C",
"2. c #5F7185",
"3. c #4D7291",
"4. c #4F7A9B",
"5. c #4E7C97",
"6. c #537593",
"7. c #547A95",
"8. c #5A7A96",
"9. c #547C9B",
"0. c #5B7E9D",
"q. c #5A7693",
"w. c #616E80",
"e. c #627282",
"r. c #6D7888",
"t. c #737E8F",
"y. c #617A94",
"u. c #4F829E",
"i. c #53809E",
"p. c #5C819E",
"a. c #61839D",
"s. c #6D8398",
"d. c #778798",
"f. c #4F81A0",
"g. c #5384A3",
"h. c #5B83A3",
"j. c #5587A9",
"k. c #5C8CAC",
"l. c #5789A8",
"z. c #5C8DB1",
"x. c #5C92B5",
"c. c #5E95BD",
"v. c #5E9ABB",
"b. c #6285A3",
"n. c #638DAC",
"m. c #698AA6",
"M. c #748DA3",
"N. c #6490AF",
"B. c #6D93AD",
"V. c #7894AA",
"C. c #648EB1",
"Z. c #6292B3",
"A. c #6396BB",
"S. c #629ABD",
"D. c #6A9ABB",
"F. c #6C98B3",
"G. c #789CB5",
"H. c #6BA1BF",
"J. c #7BA3BD",
"K. c #5D9CC1",
"L. c #639DC3",
"P. c #689EC4",
"I. c #629EC8",
"U. c #5FA1C5",
"Y. c #63A1C6",
"T. c #6AA1C5",
"R. c #64A4CA",
"E. c #6AA5CB",
"W. c #65A9CE",
"Q. c #6AAACD",
"!. c #75A5C5",
"~. c #77A8C8",
"^. c #7BB1CE",
"/. c #64ABD2",
"(. c #68ABD3",
"). c #68A7D0",
"_. c #72ADD2",
"`. c #74B3D5",
"'. c #7AB3D4",
"]. c #7AB8D9",
"[. c #889DAF",
"{. c #839AAB",
"}. c #859DB2",
"|. c #8AA4B4",
" X c #83A3BA",
".X c #88A3B6",
"XX c #88ADC4",
"oX c #91AFC4",
"OX c #85B2CE",
"+X c #94B2C5",
"@X c #9BB9CD",
"#X c #84B8D6",
"$X c #8ABEDB",
"%X c #85B9D7",
"&X c #92BCD4",
"*X c #9ABED4",
"=X c #90B7D1",
"-X c #8BC2DE",
";X c #86C1DE",
":X c #9DC0D3",
">X c #92C3DD",
",X c #9AC6DD",
"<X c #A1C3D4",
"1X c #A4CBDE",
"2X c #91C7E1",
"3X c #9BCBE2",
"4X c #8BC3E0",
"5X c #A1CEE4",
"6X c #A8CEE4",
"7X c #A5D1E5",
/* pixels */
". . .   .     . . . . . . . .           o . . . . .       . o .           o   o . . . . .       o . .   . .     . .       . .   ",
". .     . .     . . . . . o . o . o o   . . . . . . .   . . o . . .   .     o   . . . . . .       o . . . . . . . . .       O   ",
". . . . o o o X . . . X X X X X X . . . . . # . . o . . o . . . . . . . o o o o . X + . . X . o . X X X . . . . . . . . . . .   ",
"O . . + $ X $ X # # X $ @ @ $ @ @ @ @ @ @ @ @ @ $ $ @ X $ X $ X X # @ @ @ $ $ $ @ $ $ @ # X X $ $ X $ # @ @ @ @ # @ $ $ , X # # ",
"  . @ * * = * * * = = * * * = * & = & = 1 * = * = * = $ 1 = $ 1 & & & = = = & = * * - $ = $ = & 1 1 1 $ 1 $ & * $ = = * 1 < 1 1 ",
". . @ = = - = 1 1 1 - - > - - : 4 : 1 1 1 2 2 2 - = = - * < < 1 1 1 1 - 1 9 = - - - - - 1 - = : 1 1 1 1 1 1 - 9 1 1 1 1 1 1 1 1 ",
". X $ = = 2 = - 1 9 : > : : : : 9 9 9 2 1 2 2 2 - - = & $ & & = 1 9 : 9 : > : : - - - > 1 9 > : 1 1 1 2 9 9 : : 0 9 1 - 1 1 * 1 ",
"X + $ = = 2 2 9 9 9 9 0 > > 0 9 0 0 9 2 0 9 2 2 2 2 = & & , & < 1 1 : > 9 9 > 9 - > u > > 9 9 9 1 1 q 0 0 0 0 9 0 0 2 1 1 1 1 1 ",
"o X * = : 9 9 0 e 0 e e e 0 e e > s > u u > 2 0 > w w w 5 w 5 9 9 > 1 9 1 9 9 0 u u u 0 e e e w 9 e e > w e e e 0 0 0 0 9 : - = ",
"o X * = - 9 0 e e i e i e e e e i i s i u u 0 9 : ; d z N N c d q * = = 1 1 9 0 u u i i e e e e e e e e e e e e t 0 t 0 e : = - ",
". X * = - 9 0 e e e e e s > u > > s u u u u - : ; a x E { { ! c 4 % # # & < 1 9 e i i i e e s w e t e e e e e e e e e 0 0 : - = ",
". X * = - 9 0 e e e e e s V e i V > u u u > > 9 ; a F ] y.y...! l 3 4 , 3 3 4 q 0 i i i e e e e w e e e e s e e s e e 0 0 9 9 = ",
"  @ * = = 9 0 t s > i s i s i > s e > i 9 0 w d j m T 3.m.m.8.o.^ D c x x l y 5 9 e s i > V e e 0 e e e e e s s t t e e : - - 1 ",
"  X * = : 9 0 t s s s s s i s s s > s > 9 9 d c U T 3.0.D.P.C.b.1.X.| ] ( H Z y 6 : > i i i e s e 0 e 0 e e e e i 0 0 0 9 - 1 1 ",
"  X * = : : > s > V s i s s s s s e e : & 4 x ! &.9.z.K.P.E.!.!.J.V.V.s.8.O.H h 4 ; > > i i i s 0 q 0 t t 0 e t e e 0 9 1 1 1 1 ",
"X X * = : > e > i s s s s > V > s > : & & % x / q.C.L.E._._.'.%X&X=XOXJ.B.p.' D p 6 : w > > > > 0 0 0 0 0 0 0 0 0 0 9 2 1 1 1 1 ",
"X X * - - - > > s s s s i > s w : : = % + 3 n Y i.D.E.`.`.].;X2X,X,X;X^.H.k.,.' G x r 9 > > > 0 9 9 9 : 9 9 > w > > : : : : = = ",
"X X @ = - - > > i s s i s > > w : ; % # + % k Y h.H._.'.%X-X2X3X1X,X-X`.Q.S.g.,.| ! c r 4 : > > > : - : : : > : : : : > : : = : ",
". + @ = - > > V s i s s s > > : ; ; % # O 8 M ' p.T.^.;X2X3X3X7X5X3X;X].Q.Y.L.z.9.X.K p 6 ; 9 > : - : : > > > : : > > : - > : : ",
". + @ = - > > i s i > i > s s : 6 6 7 7 7 k P =.n.~.'.-X3X7X7X7X7X3X;X].`.Q.(.P.Z.9.T F j 7 q 9 : : 9 9 > w > : : w : : 9 0 9 9 ",
". X $ = - : > > > V i s 9 0 w z Z H H P U / X.p.G.OX>X,X7X7X7X7X7X5X2X;X].`.`.).Y.z.3.T K S y 9 : : 0 e 9 e e e e e 0 e 0 0 0 0 ",
". X $ = - : e > i > > > 9 0 r v ^ | <.,.5.i.l.F.~.%X>X:X1X1X1X7X1X,X3X-X$X].'._.T.c.j.4.X.P l q 9 = 9 0 e e e e e e e e e e e e ",
". X $ 1 : > > e e e e e 6 7 x E *.p.k.H.x.F.H.~.OX:X:X:X:X<X<X<X<X<X:X:X&X=X_.!.P.L.L.z.p.| Z 5 & ; 9 e e e e e e e e e t 0 e e ",
". X $ & : > > e w e 9 r z N ! | i.v.H.Q.Q.Q.Q.J.J.J. X[.|.|.|.|.|.|.|.J.}.G.B.n.C.x.L.A.h.*.S 5 & & > e e e e e e e e e e e e e ",
"X @ * - : 9 9 0 9 9 w z W O.e.a.Z.U.W.W.W.E.S.n.p.1.2.e.@.@.2.2.+.+.+.+.+.+.O. .-.4.z.A.0.:.S 7 ; & > e s s > s e e e e i e e e ",
". X $ = 4 9 9 9 : & 9 v O.r.{.J.~.W.W.W.W.S.k.7. .P E E E E E E E H H H H W D J I %.9.h.0.>.S 8 % & > > > > V i e e e s t e s e ",
"o X * - 9 9 9 9 & & 4 R r.{.oX=X].^.Q.H.H.Z.9. .K n j g x c c c h Z h h h h h h m I :.q.<.] c 8 % & : w s i i s t t e e e e e e ",
"o X $ = 9 9 0 9 $ & q R r.|.:X5X>X#X~.H.k.7.&.Y F n M M S F F F J S S S S S S S F U ' [ ] L g 3 & & > e e i i s e i e e e e e e ",
"o X * - : : 0 9 = & 0 W r.|.<X6X,X>XOXB.,.} I P / / [ %.&.>.=.=.,.,.-.-.X.X.| } Y I I K F j ; % + & > > s i i > > V e e e e e e ",
"o X @ - 9 > 0 9 * = 9 Q r.|.@X1X<X:X.XM.| K J P [ :.q.0.0.b.k.z.k.x.k.k.l.u.i.,.*.' K n p 6 % @ + = > > > V > V i e e e i e e e ",
"  o * = 9 9 w : = * 9 B #.d.|.@X<X:X.XM.X.P K Y =.0.z.A.I.I.I.R.Y.Y.U.U.U.U.N.l.9.&.I S p 3 @ @ @ & > > i > > e s e e e e e e e ",
"  o * - & 9 e > : - 9 V ~ @.d.[.+X:X+XG.<.} Y -.9.z.L.I.).(.(.(././././.W.U.H.x.l.7.} H v r ; & @ & > > > > V i e e e e e i e e ",
"  o $ 1 1 9 0 w 0 0 q t V W ` r.[.@X+X X0.4.4.4.z.L.I.E././.(.(./././.U././.U.R.A.l.q.o._ v 5 & & & 1 0 e e e t i t e e e e e i ",
". o * 1 1 0 0 0 q q 2 q q q Q ` d.[. X XC.0.0.C.z.L.L.I.).R.R.K.U.U.U.U./.U.W.U.S.k.8.;.( R r < @ & 9 0 e e 0 0 e i i e e e e e ",
". X * 1 1 9 0 t 0 0 q 1 < < r R #.t.M.t.t.0.0.0.z.C.C.A.c.z.j.0.u.j.v.U.R.R.K.K.z.p.<.| _ v q & & $ 9 0 t t e e e e e e e e e e ",
". X $ 1 1 9 0 e t t q 1 # < & t C ` w.r.y.0.0.0.0.0.0.0.0.4.3.=. .-.u.x.K.I.K.z.i.,.| E Z y < & + & 9 0 0 e e e e t e e e e e e ",
". @ $ 1 1 1 0 0 i e 0 9 & % + & i V C ( >.:.q.q.6.:.>.>.>.] / I A U -.g.K.K.0.9.*./ G h 8 , # + @ & : 9 0 t e e e e s e e e e e ",
"  . < 1 - 1 0 e t e 0 9 & % + + * : d G { >.:.>.] { { ` ` ~ N x a A } 4.z.c.0.=./ R y 4 # . . . @ * : e 0 e e e e e e e e e t i ",
"  X $ 1 - 9 9 e e e 0 w > : & @ + % 7 D ( >.&.&./ ~ C C C B d 6 3 g ' 6.z.z.3.[ D y 5 # O   . . @ = : 0 t t e e i e e e e i i e ",
". o X 1 - 1 e e e e e e > > = & + % 7 M ~ >.&.[ G m f f f d w 3 , g / 4.z.0.=.K x 4 < X O   . . @ & : > t t e e e e e e e e e e ",
". . 1 1 1 1 2 t s i > i i > > > % & 6 M ( ..] ^ n a 6 6 6 6 8 3 8 j Y u.z.g.-.J 7 3 , , # . . X $ & 1 0 0 t e e e e e e e e e e ",
". X X 1 1 1 q 0 > i s s i i > > & ; 6 x ! ( / L c g p g j j j j k U -.u.x.l.-.U A 7 y 5 4 & @ @ @ & 1 0 t t e e e e e e i e e e ",
"  . < 1 1 2 0 i > V s e > i i > > > > d v G H H H H L ! / / Y Y } -.u.x.v.v.g.=.] / P G N d , & & & 9 0 t t e i e e e e e e e e ",
"  X < 1 1 0 0 t V t e i s i > i u > > w r x c G ^ ) | ;.6.6.4.4.u.g.l.v.S.S.k.h.8.:.o.] ! N w & @ = 1 0 t i e e i e e e e s e i ",
"  o $ 1 1 0 0 t e s e e e e e i V > w : 4 6 l N ( o.1.a.m.C.A.L.v.v.v.S.S.A.Z.Z.n.b.q.>.) C r 4 & & 9 0 e t e i i e i e e e e i ",
"  o $ 1 1 q 0 t e e e e e e e i i e > > ; 9 d N ~ ] :.y.C.L.P.E.W.R.x.l.l.h.n.N.C.b.q.&.( C r q = = 9 0 t e e e e e s e e e e e ",
"o X * 1 1 9 0 t e s s e e e e e > > 9 9 : : w d c G ' 3.0.Z.L.I.E.S.i.=. . .7.p.0.q.[ L M l q 9 9 9 0 e e t e i e e e e e e e e ",
". X $ 1 1 9 0 e e e e e i e e e e s e e w e w w 6 x K [ 3.h.C.A.S.l.,.Y J K } ;.1.&.I k p 9 9 9 0 w 0 e e e e e e e e e e e e e ",
"  X * 1 1 1 q e e e i s t e e e t w e e t w 9 : ; a k L [ 6.8.0.p.6.' F j j ! ( ) _ M 7 4 < 2 0 e e 0 e e e i e e e e e e e e t ",
"  X * 1 1 1 e e e e e e e s e e t e e e e e 0 : ; ; p N L / [ &...] F x a 7 v D W Z z 5 ; - 9 0 e e e e e e e e e e e e e e e i ",
"  o * 1 2 0 0 0 e e e s s e e e e t s e e e 0 > > ; w d x x M S D c x a 6 6 d d z r w w 9 9 e e u e e e e e e e i e e e e i i e ",
"  o $ 1 2 q 0 t e e e e e s e t t t t e e e e e s s > ; 4 8 8 7 5 7 6 w w w : : q 4 4 9 w q 0 u e e e e e e e i e e e e e e e e ",
"  o * 1 1 2 0 0 e e s e s e e e e e e e > i i s e > > > & & & & , , 9 9 0 0 : = & ; 4 9 e e i i u e e u e e e e e e e e e e e e ",
"  o X 1 1 2 0 0 s s e e e e e e e s e e s > V i s e > - = = * * & 1 : w u u > - = = 9 9 > > i u u e e e e e e e s e e e e e e e ",
". X < 1 1 q 0 e e e s e e e s e > s > i s i V i s e e > > > - 2 9 0 e 0 u u 2 0 9 0 0 0 i i u i e e e i e e e e e e e i e e e e ",
"  X * 1 1 1 e e t e e e s e e e i > V s > s > V e s e u 0 u u u u 0 i i u u u u e e e t V > i e e e e e e e e e e e e e e i e e ",
"  o $ 1 1 9 0 e V e s s s V > s u e u u t t s e s s > i i > i s e e e e e e e e e e e e e u i i i s V > e e e i e i i e e e e i ",
"  o * 1 1 9 0 e e i s > i > s i 0 e e 0 e e e s s s s s V i s > e e t e e e e e e e e e e e e i s > i i e e e e e e e e e e e e ",
"  o * = 1 9 0 e e e s s V > i > e u e 0 u e e s s s s s s > s s t t t t e s e e e s e e e i s e > V e e e e e e e e e e e e e e ",
"  X * 1 1 9 w e s e > V s i s s e e e e t e e e s s s s s s s > t 0 t e s e e e s i e e e e e s > i e e e e e i e e e e e e e e ",
"o X * 1 : 9 0 0 s s i s > s i i e e e e i s s > i s s i > s s V s V e e t t e e e e e e e e e s s > V i e e e e e e e e e e e e ",
"  o * 1 : > e 0 s > s V s s V > e e t e s > i i > s V > V > > s > > e e t t e w e e u e e e e s s i s > e e e e i e s e e e e i ",
"  o $ 1 : > > > i s s > > s s > e e e e e e V i i i > i s i i i s i V e e e e e e i i e e e i > > i s i e e e e e e e e e e e e ",
"  o * 1 > > s i s > i s s i s s s e e e e e > u i i i > > s i i i i i i i e e e i i u i e e s > V s s > e e e e i e e e e e e i "
};
