/* XPM */
static char *rightmost_wall_resized[] = {
/* columns rows colors chars-per-pixel */
"64 64 66 1 ",
"  c #231117",
". c #231218",
"X c #241218",
"o c #241219",
"O c #241319",
"+ c #251319",
"@ c #25131A",
"# c #27151D",
"$ c #2C1823",
"% c #2D1924",
"& c #2E1925",
"* c #2E1A25",
"= c #2F1A26",
"- c #38212E",
"; c #3B2335",
": c #41273D",
"> c #42273D",
", c #42283D",
"< c #42283E",
"1 c #43283E",
"2 c #43293E",
"3 c #4A2E49",
"4 c #4B2E49",
"5 c #4B2F49",
"6 c #4B2E4A",
"7 c #4C2F49",
"8 c #4C2F4A",
"9 c #4D2F4A",
"0 c #4C2F4B",
"q c #4D3041",
"w c #4F3149",
"e c #4D304A",
"r c #4D304B",
"t c #543549",
"y c #543649",
"u c #553649",
"i c #54354A",
"p c #56374A",
"a c #57374A",
"s c #57384B",
"d c #58384B",
"f c #63414A",
"g c #664348",
"h c #65434C",
"j c #68454A",
"k c #6E4A48",
"l c #6F4A48",
"z c #6F4B48",
"x c #6C484C",
"c c #6D494E",
"v c #6E494E",
"b c #6E4A4E",
"n c #704B49",
"m c #704C4A",
"M c #714C4A",
"N c #724D4B",
"B c #744E4C",
"V c #764F4D",
"C c #76504D",
"Z c #77504D",
"A c #76504E",
"S c #77514F",
"D c #79524F",
"F c #7A524F",
"G c #7A534F",
"H c #7A5250",
/* pixels */
"7777555777777777ee5e5ew2*oo+@@@@@@@@@@@@@@@@@@@@@@@@@@@@@@@@@@@@",
"7777555555575555555555t2* oo@@@@@@@@@@@@@@@@@@@@@@@@@@@@@@@@@@@@",
"777755575555555555555e52* oo+@@@@@@@@@@@@@@@@@@@@@@@@@@@@@@@@@@@",
"777wpspppppppppptttstds2-**$#@+@@@@@@@@@@@@@@@@@@@@@@@@@@@@@@@@@",
"755phccccccccccxjjfjvmbfq>2;$o+@@@@@@@@@@@@@@@@@@@@@@@@@@@@@@@@@",
"755scDDDHHHHHHHAnzknSHHcs5r2*o+@@@@@@@@@@@@@@@@@@@@@@@@@@@@@@@@@",
"755pcDDDSHDADHHVczzNAHHcs5r2*o+@@@@@@@@@@@@@@@@@@@@@@@@@@@@@@@@@",
"755pcDDDVVVVVVVVzzzmNAAzp502*oo+@@@@@@@@@@@@@@@@@@@@@@@@@@@@@@@@",
"755pcDDVNzzmmmmzkkkkznnjp052*++@@@@@@@@@@@@@@@@@@@@@@@@@@@@@@@@@",
"755pcDDVmzkkkkzzkkkkkkzgi572*+++@@@@@@@@@@@@@@@@@@@@@@@@@@@@@@@@",
"755pcDDVmzzkkkzzkkzzkkzgi572*o++@@@@@@@@@@@@@@@@@@@@@@@@@@@@@@@@",
"755pcDDVmzxkkkxzkkxzkzzgi552*+++@@@@@@@@@@@@@@@@@@@@@@@@@@@@@@@@",
"755pcDDVzkkkkkkkkzzzkzzgp552*o++@@@@@@@@@@@@@@@@@@@@@@@@@@@@@@@@",
"755pcDDVmkkkkkkkkkzzkkzgi552*+++@@@@@@@@@@@@@@@@@@@@@@@@@@@@@@@@",
"755pcDDVmkkkkkkkkkkkkzzgp772*++@@@@@@@@@@@@@@@@@@@@@@@@@@@@@@@@@",
"757pcDDVmkkkkkkkkkkkkzzfi552*+++@@@@@@@@@@@@@@@@@@@@@@@@@@@@@@@@",
"775pcHHVmkkkkkkkkzkkkkkgi572*o++@@@@@@@@@@@@@@@@@@@@@@@@@@@@@@@@",
"755pcHHVmkkkkkkkzzkkkkkgp572*o++@@@@@@@@@@@@@@@@@@@@@@@@@@@@@@@@",
"755pxHHVmkkkkkkkzxkkkzkgi572*oo+@@@@@@@@@@@@@@@@@@@@@@@@@@@@@@@@",
"755pcHSVmkkkkkkkzzkkkkzgi07>*o++@@@@@@@@@@@@@@@@@@@@@@@@@@@@@@@@",
"555pcHHVmkkkkkkkkkkkkkzgi552*++@@@@@@@@@@@@@@@@@@@@@@@@@@@@@@@@@",
"555pcHSVmkkkkkkkkkkkkzzgp572*+++@@@@@@@@@@@@@@@@@@@@@@@@@@@@@@@@",
"755pcHHVmkkkkkkkkzkkkzzgi572*+++@@@@@@@@@@@@@@@@@@@@@@@@@@@@@@@@",
"755pcHSVzkkkkkkkkkkkkzzgp77>*o++@@@@@@@@@@@@@@@@@@@@@@@@@@@@@@@@",
"755pcHHVzzzzzxkkkkkkkzzjt772*o++@@@@@@@@@@@@@@@@@@@@@@@@@@@@@@@@",
"755pxHSVmzjzzzkkkkkkkzzgt772*+++@@@@@@@@@@@@@@@@@@@@@@@@@@@@@@@@",
"055pcHHVzzzzzzzzkkkkkkkgp772*+++@@@@@@@@@@@@@@@@@@@@@@@@@@@@@@@@",
"775pcHHVNmmmmmmckkkmnnnji572*+++@@@@@@@@@@@@@@@@@@@@@@@@@@@@@@@@",
"755pvHHVAVAVVAANnkzzVADcp502*o++@@@@@@@@@@@@@@@@@@@@@@@@@@@@@@@@",
"070pcHHHHHHSHSHAnkznDDHcp57>*o++@@@@@@@@@@@@@@@@@@@@@@@@@@@@@@@@",
"077dvHHHHHHHHHSAnkznZDDcd00>*oo+@@@@@@@@@@@@@@@@@@@@@@@@@@@@@@@@",
"2>>qfvccxvxvccvxjjgjzccfq23-*oo+@@@@@@@@@@@@@@@@@@@@@@@@@@@@@@@@",
"=$$-qssppppipppiitttpsde-**$#@@@@@@@@@@@@@@@@@@@@@@@@@@@@@@@@@@@",
"ooo$;55555555555555555w;%   o@@@@@@@@@@@@@@@@@@@@@@@@@@@@@@@@@@@",
"ooo$35555355335555555552$  o@@@@@@@@@@@@@@@@@@@@@@@@@@@@@@@@@@@@",
"*$$-qpsspippppssttiippse-**$#@@@@@@@@@@@@@@@@@@@@@@@@@@@@@@@@@@@",
"3;2qfcccccccccccjggjcccfq22;$++@@@@@@@@@@@@@@@@@@@@@@@@@@@@@@@@@",
"330scDHHDDDDDDDAzkknAHHNse52*o+@@@@@@@@@@@@@@@@@@@@@@@@@@@@@@@@@",
"r55scHHHAHDADDHAnkknAHHcs0e2*o+@@@@@@@@@@@@@@@@@@@@@@@@@@@@@@@@@",
"555pcHHSAAAAAAANnkknNAAxp552*o+@@@@@@@@@@@@@@@@@@@@@@@@@@@@@@@@@",
"555pcSHAnnnnnnzzzzkkznnji5e2% o@@@@@@@@@@@@@@@@@@@@@@@@@@@@@@@@@",
"e55scHHVnkzzzzkkkzkkkkzgtee2*o+@@@@@@@@@@@@@@@@@@@@@@@@@@@@@@@@@",
"555pcHSAnkkkzzzxzzzkzzzgi552*o+@@@@@@@@@@@@@@@@@@@@@@@@@@@@@@@@@",
"555scSHVnkkkzzzzzzxkzzzgi552*o+@@@@@@@@@@@@@@@@@@@@@@@@@@@@@@@@@",
"555scHSAnzkkkkzzkkkkkzzgt5w2*o+@@@@@@@@@@@@@@@@@@@@@@@@@@@@@@@@@",
"555pcHSVnkkkkxzzkkkkkzzgi552*o+@@@@@@@@@@@@@@@@@@@@@@@@@@@@@@@@@",
"555pcHHAnkkkkkzzkzkkkkzgie52*oo@@@@@@@@@@@@@@@@@@@@@@@@@@@@@@@@@",
"e55pcHSVzkkkkkkkkkkkkzzgi5e2*o+@@@@@@@@@@@@@@@@@@@@@@@@@@@@@@@@@",
"555pcDDAnzkkkkkkkkkkkkzgt5w2*o+@@@@@@@@@@@@@@@@@@@@@@@@@@@@@@@@@",
"e55scDDAzzkxkkkkkkkkkkzgtw52*o+@@@@@@@@@@@@@@@@@@@@@@@@@@@@@@@@@",
"555pcDAVnzzzkkkkkkkkkkzgi552*o+@@@@@@@@@@@@@@@@@@@@@@@@@@@@@@@@@",
"555pcDDVnzzzkkkkkkkkkkzgi552*oo@@@@@@@@@@@@@@@@@@@@@@@@@@@@@@@@@",
"e55pcDDVzkzzkkkkzzzkkkkgi5e2* +@@@@@@@@@@@@@@@@@@@@@@@@@@@@@@@@@",
"555scDDVnkxzkkkkzzxkkkkgie52*o+@@@@@@@@@@@@@@@@@@@@@@@@@@@@@@@@@",
"555pcDDVnkzzzzkkzzzkkkzjtee2*oo@@@@@@@@@@@@@@@@@@@@@@@@@@@@@@@@@",
"e55pcDDAnnnnznnzzkkznnnjt552*o++@@@@@@@@@@@@@@@@@@@@@@@@@@@@@@@@",
"555pcDDAAAAAAAVNnzknZADcp5w;*o+@@@@@@@@@@@@@@@@@@@@@@@@@@@@@@@@@",
"050scDDDHHDDDDDAnzknADHcs003*o+@@@@@@@@@@@@@@@@@@@@@@@@@@@@@@@@@",
"r55scHDDDDDDDDDAnzznAHHcs05;*o+@@@@@@@@@@@@@@@@@@@@@@@@@@@@@@@@@",
"222qfNccccccccccjgfjzccfq23;$++@@@@@@@@@@@@@@@@@@@@@@@@@@@@@@@@@",
"***-qpspspppspsppiippppq-$*$#@@@@@@@@@@@@@@@@@@@@@@@@@@@@@@@@@@@",
"ooo$2555555555555555550>*ooo+@@@@@@@@@@@@@@@@@@@@@@@@@@@@@@@@@@@",
"ooo$25555555555555555002*ooo@@@@@@@@@@@@@@@@@@@@@@@@@@@@@@@@@@@@",
"+oo*25we55e5e55577775752*ooo@@@@@@@@@@@@@@@@@@@@@@@@@@@@@@@@@@@@"
};
