/* XPM */
static char *right_2_resized[] = {
/* columns rows colors chars-per-pixel */
"64 64 182 2 ",
"   c #241317",
".  c #25141A",
"X  c #29161F",
"o  c #27181F",
"O  c #2A1721",
"+  c #271921",
"@  c #2C1A24",
"#  c #2D1E29",
"$  c #301A26",
"%  c #331E2C",
"&  c #361F30",
"*  c #381F32",
"=  c #2E2127",
"-  c #2D212D",
";  c #32212E",
":  c #2E2632",
">  c #2E2935",
",  c #2F2E3B",
"<  c #362132",
"1  c #392235",
"2  c #322936",
"3  c #352638",
"4  c #3D253B",
"5  c #332C3B",
"6  c #3C293D",
"7  c #33303E",
"8  c #3A303C",
"9  c #372E41",
"0  c #353344",
"q  c #3A3443",
"w  c #3D3944",
"e  c #3B364A",
"r  c #363A4B",
"t  c #393B4D",
"y  c #3A3E51",
"u  c #413745",
"i  c #433F49",
"p  c #413A46",
"a  c #413F55",
"s  c #374556",
"d  c #3A4255",
"f  c #3C465A",
"g  c #3C4A5D",
"h  c #3E4D62",
"j  c #3E5166",
"k  c #3F5369",
"l  c #40404C",
"z  c #434554",
"x  c #464957",
"c  c #44465E",
"v  c #434B5C",
"b  c #4B4D5C",
"n  c #4A4554",
"m  c #504F5E",
"M  c #414D64",
"N  c #4A4C66",
"B  c #474F68",
"V  c #415167",
"C  c #4B5361",
"Z  c #42546B",
"A  c #4A546B",
"S  c #43586E",
"D  c #4C5C6F",
"F  c #535563",
"G  c #555C6D",
"H  c #455770",
"J  c #435A73",
"K  c #4B5B74",
"L  c #455F79",
"P  c #4B5D79",
"I  c #525F7F",
"U  c #46627C",
"Y  c #49627D",
"T  c #556171",
"R  c #5C6573",
"E  c #5C6C7E",
"W  c #626C7B",
"Q  c #476780",
"!  c #4A6682",
"~  c #476983",
"^  c #4B6985",
"/  c #4C6D8A",
"(  c #536484",
")  c #536C8D",
"_  c #526D83",
"`  c #4C718E",
"'  c #587289",
"]  c #556F91",
"[  c #4D7593",
"{  c #4E7996",
"}  c #4F7798",
"|  c #4F7B9A",
" . c #527494",
".. c #527997",
"X. c #5D7B92",
"o. c #547798",
"O. c #527C9C",
"+. c #5A789D",
"@. c #58759A",
"#. c #66798B",
"$. c #597FA3",
"%. c #5B829E",
"&. c #688296",
"*. c #63839A",
"=. c #6C8A9F",
"-. c #798D9D",
";. c #738797",
":. c #5483A4",
">. c #5A83A2",
",. c #5D89A6",
"<. c #5686A9",
"1. c #5985A9",
"2. c #568AAC",
"3. c #5A8BAD",
"4. c #578EB1",
"5. c #5B8EB3",
"6. c #5791B3",
"7. c #5A91B5",
"8. c #5B95BA",
"9. c #5C99BE",
"0. c #638DA9",
"q. c #748EA1",
"w. c #6591AF",
"e. c #6893AE",
"r. c #7794A7",
"t. c #7B92A2",
"y. c #629ABC",
"u. c #6D9EBB",
"i. c #6B99B7",
"p. c #749BB3",
"a. c #6EA0BE",
"s. c #7DA0B7",
"d. c #7CA4BC",
"f. c #5D9DC3",
"g. c #629EC2",
"h. c #5DA1C7",
"j. c #5FA3CA",
"k. c #63A2C5",
"l. c #6CA2C1",
"z. c #61A5CD",
"x. c #6CAACD",
"c. c #74A6C3",
"v. c #73A8C7",
"b. c #7EB1CE",
"n. c #62AAD2",
"m. c #6CABD0",
"M. c #73AFD1",
"N. c #71B1D6",
"B. c #7BB5D4",
"V. c #74B4D8",
"C. c #78B5D9",
"Z. c #79B8DB",
"A. c #809AAC",
"S. c #859EB0",
"D. c #86AABF",
"F. c #88A4B6",
"G. c #80AEC6",
"H. c #89ABC0",
"J. c #84B2CC",
"K. c #8CB4CA",
"L. c #91B2C5",
"P. c #95B9CD",
"I. c #98BBCF",
"U. c #82B8D6",
"Y. c #8CBBD5",
"T. c #83BCDB",
"R. c #8EBFD9",
"E. c #94BCD2",
"W. c #98BDD2",
"Q. c #87C0DF",
"!. c #8BC1DD",
"~. c #93C0D7",
"^. c #91C3DD",
"/. c #9BC8DF",
"(. c #9AC3D8",
"). c #8EC4E0",
"_. c #96C8E2",
"`. c #9BCBE3",
"'. c #A2CEE5",
"]. c #A6D0E7",
"[. c #A8D1E7",
"{. c #A8D1E8",
/* pixels */
"          . . .     . . . . . .         .     .   .   .               . . . .     . .   .   . . . . . . .       .       .   . . ",
"      .     .   . . . . . . . .       . . . .   . .   . . . . .   X . . . . . . . . . . . . .   . . . . . . . . . . . . . . . . ",
"    . .   X .   . . . . . . . . X X . X . . .   . . . . . . . . . X . . . .   .   .   X . . . . . . . . . . X . . . . . . . . . ",
". .   X O O O X @ O @ O O O O O O X X X @ O @ O . O . . X X X X O O O O @ O O O O O O O @ O @ @ O O O O O X X X @ O @ O @ O O @ ",
"  . . O @ # % % $ % % % $ # $ $ % % $ % % % $ # $ @ + + # $ $ % % $ % $ $ $ $ % # % % % $ % $ $ $ % # % # $ % % $ % % % % $ % $ ",
". . . O # & % ; < & % % * * ; * & % % ; % % % - : 3 2 > < % % $ % % % % % * % * % & % % * & * * % * * % < % & ; ; % % % % * * % ",
". . . @ $ % * % & < % < 1 % * * % 1 1 % % % % < 9 y g s r 2 # @ O $ $ % % * * < & & & & * & * * * & * & * ; * % < 1 & < & & % & ",
".   . @ $ * * * < 1 1 1 1 1 < 1 1 1 1 ; % % # > y H Q L f 9 - @ @ @ # # * * < < 1 < 1 1 * * * * * 1 1 1 < 1 1 1 1 1 1 < & & & & ",
"  . X O % ; & 1 1 1 4 4 4 1 1 4 1 4 1 1 & # # 5 h ~ %.{ D d 2 = - ; ; 2 3 1 1 1 1 1 1 1 * 9 4 4 4 4 4 4 4 4 4 4 1 1 1 1 1 1 % % ",
"      O $ % < 1 1 4 4 4 4 4 4 4 4 4 4 1 & % @ , k [ 4.4.' D x d t t 0 5 3 1 1 * * < 1 4 * 9 4 4 4 4 4 4 4 4 4 4 4 4 4 1 1 ; * ; ",
"  . X X % % & 1 1 4 4 4 4 4 4 4 4 4 4 1 & $ # 5 k [ 8.a.0.*.#.E _ U Z d 5 ; $ @ # # * 1 4 4 4 4 4 4 4 4 4 4 4 4 4 4 4 4 * ; * % ",
"    . X % % & * 4 4 4 4 4 4 4 4 4 4 4 4 & # @ , k { y.x.c.d.s.p.e.%.` Z r 2 = = # # & < * 4 4 4 4 4 4 4 4 4 4 4 4 4 4 1 * ; % * ",
". . X O $ % * 1 4 4 4 4 4 4 1 1 1 4 4 1 < # + , k { y.N.B.!.~.Y.J.l.,.^ g 0 7 , 2 5 1 1 1 1 4 4 4 4 4 4 4 4 4 4 4 4 4 4 1 ; * * ",
". . . O % % * 1 1 4 4 4 4 1 1 1 * * 4 1 < = + , k { f.V.Q._.`.`.!.B.a.%.Y Z g g f y e 5 3 < * 4 4 4 4 4 4 4 4 4 4 4 4 1 * * * ; ",
"  . . $ % % ; < 4 4 4 4 1 1 % $ $ * 1 1 % $ = > j { f.V.Q./.'.'.`.Q.J.a.,.{ [ [ ` Q h r : % & * 4 4 4 4 4 4 4 4 4 4 4 1 * $ * * ",
". .   O % ; < 1 4 4 4 4 1 1 ; ; : < 1 3 < < - r S :.a.B.!.(.'.'.]._.!.b.a.a.8.8.4.O.L y : # % * 1 1 4 4 1 4 1 1 1 4 1 * * < * % ",
"  . . X $ ; * 1 1 4 1 1 1 3 8 0 0 5 3 3 5 9 r g Y 0.v.Q.!./.'.[.].'./.!.B.M.x.n.h.4.Q s < @ # & * * * * * * * ; * 1 * * ; * < < ",
"  . X O % ; * ; 4 1 * < 3 q f g f t 8 3 q d V ~ %.a.b.!./.`.].[.].].`._.!.Q.Z.N.n.6.Q s : @ # & * * * * * * * * * * * ; * * * $ ",
"  . X O $ * * * 1 1 % ; 2 d J / ~ V 0 5 y Z [ ,.a.b.~.(.`.'.].].].].].`./.!.U.B.x.6.Q s : @ % & < < * * * * ; ; ; * * * * * * * ",
". . . O % ; * * 1 1 $ # 5 f / %.%.~ f t j ^ 1.g.v.b.K.P.~.P.P.~.I.~.I.P.P.K.b.c.y.<.Q h 0 : : & < * * * 1 1 1 * 1 * 1 1 1 * * * ",
"  . . O $ < < * 1 1 $ = , v X.q.w.%.U J ~ | 8.k.a.i.r.t.t.t.t.t.t.t.t.t.t.q.=.*...` U Z g r 0 > < < 1 4 4 4 4 4 4 4 4 4 4 4 4 1 ",
". . X O % * ; * 1 < % = 7 C &.A.d.i.%...:.3.h.9.0.X.E R T R R R R R R R R T T D S S J J U k y 9 ; < * 4 4 4 4 4 4 4 4 4 8 4 4 4 ",
"  . . O $ < * * 1 < @ = 7 F A.S.J.b.l.y.9.9.h.6.[ K z w u w r q w w w 8 w w w 0 0 d J ~ [ ~ h 0 = $ ; * 1 4 4 4 4 4 4 4 4 4 4 4 ",
".   . O = * * * 1 < $ = 8 F A.D.~.Q.B.M.k.y.6.O.U h r 7 7 8 0 0 0 0 0 0 0 0 , , 7 d Z ~ { ~ g , = $ * * 4 4 4 4 4 4 4 4 4 4 4 4 ",
"  . . O % * * * * 1 $ = 8 F A.F.(._.Q.b.u.0. .U J j g f h j k k k S k k k k j g f g V J J k r : $ $ * 1 4 4 4 4 4 4 4 4 4 4 4 4 ",
". . . O = ; * * 4 * $ ; 8 F A.S.(./.^.J.p.X.K h j Z J Y / ` [ } { { [ :.{ [ ` ~ L H Z h d r > - O $ * 1 4 4 4 4 4 4 4 4 4 4 4 4 ",
"  . X O $ * * * 1 1 $ ; 8 m ;.S.L.(.~.D.q.E x d h P [ O.2.7.f.f.9.9.9.f.9.9.4.:. ./ H d 0 > # + O $ 1 4 4 4 4 4 4 4 4 4 4 4 4 4 ",
"  . . O = < 1 * 1 * $ ; 1 n W A.A.F.S.t.#.T z d H / >.7.f.f.z.n.n.n.j.n.n.j.h.8.5.O.Y h 0 > - + O $ 1 4 4 4 4 4 4 4 4 4 4 4 4 4 ",
"  .   O % * * * 4 1 < ; 4 p m G W W W W T G V J / $.5.f.g.z.n.n.n.n.n.n.n.n.j.h.9.5. .Y V d 7 ; $ $ * * 4 4 4 4 4 4 4 4 4 4 4 4 ",
"  . X O $ % * 1 1 4 1 1 1 6 u i p p l l v C P / | 2.f.f.j.z.z.z.j.n.j.j.j.n.j.j.g.7.1.[ U M 0 ; $ O < 1 4 4 4 4 4 4 4 4 4 4 4 4 ",
".   X O $ * * * 4 4 4 4 1 1 ; = = = = > d V Y O.<.5.9.g.f.g.f.f.f.9.9.f.j.j.n.j.f.7.1. .U C p 2 $ $ = 1 4 4 4 4 4 4 4 4 4 4 4 4 ",
"  X   O % ; ; * 1 4 4 4 1 ; = .       = 0 V / %.1.3.5.5.5.5.5.1.:.| :.4.h.j.j.f.8.1.o.! J f 8 = $ O * 1 4 4 4 4 4 4 4 4 4 4 4 4 ",
". . . O @ & * * 4 4 4 4 * & @ + . . . - r M ) } +.+.+.+.@.@.] ( k k U [ 6.f.f.4.$.) ( M y 9 : + + @ & * 4 4 4 4 4 4 4 4 4 4 4 4 ",
". . X O # & * * 1 4 4 1 * & & + . . . # 9 M ) } ] ) ( ( ( ( L B y r h Q 2.8.5.$.) K c 9 3 # + o O @ & 4 4 4 4 4 4 4 4 4 4 4 4 4 ",
". . . O & & * & 4 4 4 4 1 * # # o o o # r j / ] ( ( N N N c M e 5 2 y L :.8.2.o.P c e > # o . . X @ & 1 4 4 4 4 4 4 4 4 4 4 4 4 ",
". . . O @ & * & 4 4 4 4 4 1 & & @ o o # r M ! ) ( N a a e e 9 3 - - 0 k :.5.$.^ h e : - o . . . X @ & 1 4 4 4 4 4 4 4 4 4 4 4 4 ",
". . . o * * & * 1 4 4 4 4 4 1 * # # + # r M ! ) B d 9 1 : : : - + - r k :.4.| L r > - + . . . . X @ & * 4 4 4 4 6 4 6 6 4 4 4 4 ",
". . . O @ * & * 4 4 4 4 4 4 1 1 1 # @ & 9 h L L M y 9 & : > : : : , s U :.6.| U r , : - - + + + O @ & 1 4 4 4 4 4 4 4 4 4 4 4 4 ",
". . . O @ * * 1 4 4 4 4 4 4 4 4 1 & # & 9 d M k h d r r y d f d s h k { 4.8.2.[ k h y r 0 9 - + O @ & * 4 4 4 4 4 4 4 4 4 4 4 4 ",
". . . O # & * 1 4 4 4 4 4 4 4 4 3 3 & & 3 9 r d f h k k L L ! ! ~ ~ { <.9.f.6.:.[ ~ U k j r 9 - @ @ & 1 4 4 4 4 4 4 4 4 4 4 4 4 ",
". . . O & & & * 4 4 4 4 4 4 4 4 4 4 1 1 & 3 : 9 d Z ! ] } <.<.5.6.6.8.f.f.f.f.8.6.<.| [ ! Z e : $ $ 4 4 4 4 4 4 4 4 4 4 4 4 4 4 ",
". . . O # & * * 4 4 4 4 4 4 4 4 4 4 4 1 1 # - : r M L } <.6.f.j.j.j.h.f.8.8.f.f.f.6.<.| ! Z t 9 % * 4 4 4 4 4 4 4 4 4 4 4 4 4 4 ",
". . . O # & * * 4 4 4 4 4 4 4 4 4 4 4 4 1 & & 3 9 d h L } <.6.j.j.h.f.2.| } } $.5.2.} Q k y 0 5 * * 4 4 4 4 4 4 4 4 4 4 4 4 4 4 ",
". . . o # & * 1 4 4 4 4 4 4 4 4 4 4 4 4 3 1 & 3 3 9 r h ! } <.9.h.f.6.| Q k k /  .} Q k t 9 9 3 * * 4 4 4 4 4 4 4 4 6 4 4 4 4 4 ",
". . . O # & & * 4 4 4 4 4 4 4 4 4 4 4 4 4 1 1 1 : 3 3 r Z ! } $.6.6.| ~ h r h B / Q Z y 5 ; & * 1 4 4 4 4 4 4 4 4 4 6 6 4 4 4 4 ",
". . X O # * * * 4 4 4 4 4 4 4 4 4 4 4 4 4 4 4 1 & & - 9 d k ! / { { ~ k 0 > 0 y Z Z f 9 & # & 4 4 4 4 4 4 4 4 4 4 4 4 6 4 4 4 4 ",
". . . O # & * * 4 4 4 4 4 4 4 3 4 4 4 4 4 4 4 4 1 < * 3 9 y d c k k g r 9 : 5 9 t t 9 5 & & 3 * 4 4 4 4 4 4 4 4 4 4 6 6 4 4 4 4 ",
". . . O # * * * 4 4 4 4 4 4 4 9 4 4 4 4 4 4 4 4 1 1 1 1 3 3 4 4 0 0 0 , 3 3 * 5 3 5 5 1 1 1 * 4 4 4 4 4 4 4 4 4 4 4 4 4 4 4 4 4 ",
". . . X # & & * * 9 4 4 4 4 4 4 4 4 4 4 4 4 4 4 4 4 4 4 * * $ & & $ * * * * * * * * 4 4 4 4 4 4 4 4 4 4 4 4 4 4 4 4 4 4 4 4 4 4 ",
". . . X # & & * 4 4 4 4 4 4 4 4 4 4 4 4 4 4 4 4 4 4 4 4 * * $ $ O $ $ * 4 4 * * * 4 4 4 4 4 4 4 4 4 4 4 4 4 4 4 4 4 4 4 4 4 4 4 ",
". . . O % & * 1 * 4 4 4 4 4 4 4 4 4 4 4 4 4 4 4 4 4 4 4 4 * 4 4 * * * * 4 4 4 * * * 4 4 4 4 4 4 4 4 4 4 4 4 4 4 4 4 4 4 4 4 4 4 ",
". . X O # < * * 4 4 4 4 4 4 4 4 4 4 4 4 a 4 4 4 4 4 4 4 4 4 4 4 1 * 4 * 4 4 4 4 * 4 4 4 4 4 4 4 4 4 4 4 4 4 4 4 4 4 4 4 4 4 4 4 ",
". . . O % & * * 4 4 4 4 4 4 4 4 4 4 4 4 a 4 4 4 4 4 4 4 4 4 4 4 4 4 4 4 4 4 4 4 4 4 4 4 4 4 4 4 4 4 4 4 4 4 4 4 4 4 4 4 4 4 4 4 ",
". . . O @ & * * 4 4 4 4 4 4 4 4 4 4 4 4 4 4 4 4 4 4 4 4 4 4 4 4 4 4 4 4 4 4 4 4 4 4 4 4 4 4 4 4 4 4 4 4 4 4 4 4 4 4 4 4 4 4 4 4 ",
". . . X % & & * 4 4 4 4 u 4 4 4 4 4 4 4 4 4 4 4 4 4 4 4 4 4 4 4 4 4 4 4 4 4 4 4 4 4 4 4 4 4 4 4 4 4 4 4 4 4 4 4 4 4 4 4 4 4 4 4 ",
"  . . X # & & * 4 4 4 4 4 4 4 4 4 4 4 4 4 4 4 4 4 4 4 4 4 4 4 4 4 4 4 4 4 4 4 4 4 4 4 4 4 4 4 4 4 4 4 4 4 4 4 4 4 4 4 4 4 4 4 4 ",
". . . O $ & * * * 4 4 u 4 4 4 4 4 4 4 4 4 4 4 4 4 4 4 4 4 4 4 4 4 4 4 4 4 4 4 4 4 4 4 4 4 4 4 4 4 4 4 4 4 4 4 4 4 4 4 4 4 4 4 4 ",
". . . O % * * * 4 4 4 4 4 4 4 4 4 4 4 4 4 4 4 4 4 4 4 4 4 4 4 4 4 4 4 4 4 4 4 4 4 4 4 4 4 4 4 4 4 4 4 4 4 4 4 4 4 4 4 4 4 4 4 4 ",
". . . O $ * * * 4 4 4 4 4 4 4 4 4 4 4 4 4 4 4 4 4 4 4 4 4 4 4 4 4 4 4 4 4 4 4 4 4 4 4 4 4 4 4 4 4 4 4 4 4 4 4 4 4 4 4 4 4 4 4 4 ",
"  .   O $ & * * * 4 4 4 4 4 4 4 4 4 4 4 4 4 4 4 4 4 4 4 4 4 4 4 4 4 4 4 4 4 4 4 4 4 4 4 4 4 4 4 4 4 4 4 4 4 4 4 4 4 4 4 4 4 4 4 ",
"  . . O $ & & * 4 4 4 4 4 4 4 4 4 4 4 4 4 4 4 4 4 4 4 4 4 4 4 4 4 4 4 4 4 4 4 4 4 4 4 4 4 4 4 4 4 4 4 4 4 4 4 4 4 4 4 4 4 4 4 4 ",
". . . O $ * & * 4 4 4 4 4 4 4 4 4 4 4 4 4 4 4 e 4 4 4 4 4 4 4 4 4 4 4 4 4 4 4 4 4 4 4 4 4 4 4 4 4 4 4 4 4 4 4 4 4 4 4 4 4 4 4 4 ",
". . . @ % * * * 4 4 4 4 4 4 4 4 4 4 4 4 4 4 4 4 4 4 4 4 4 4 4 4 4 4 4 4 4 4 4 4 4 4 4 4 a 4 4 4 4 4 u 4 4 4 4 4 4 4 4 4 4 4 a 4 ",
". . . O % * * 4 4 4 4 4 4 4 4 4 4 4 4 4 4 4 4 4 4 4 4 4 4 4 4 4 4 4 4 4 4 4 4 4 4 4 4 4 4 4 4 4 4 4 4 4 4 4 4 4 4 4 4 4 4 4 4 4 "
};
