/* XPM */
static char *start_resized[] = {
/* columns rows colors chars-per-pixel */
"64 64 163 2 ",
"   c #1E0C14",
".  c #1E0D15",
"X  c #1F0D15",
"o  c #1F0E15",
"O  c #1F0D16",
"+  c #1F0E16",
"@  c #200E15",
"#  c #200E16",
"$  c #200F16",
"%  c #210F16",
"&  c #210F17",
"*  c #211016",
"=  c #211017",
"-  c #221017",
";  c #221117",
":  c #221018",
">  c #221118",
",  c #231118",
"<  c #251319",
"1  c #25131A",
"2  c #26141B",
"3  c #26141D",
"4  c #27141E",
"5  c #28151E",
"6  c #28161E",
"7  c #29161F",
"8  c #281520",
"9  c #291521",
"0  c #291620",
"q  c #291621",
"w  c #2A1620",
"e  c #2A1621",
"r  c #2A1721",
"t  c #2B1722",
"y  c #2D1925",
"u  c #2E1A26",
"i  c #2F1A27",
"p  c #2F1B28",
"a  c #311C2A",
"s  c #311D2A",
"d  c #321D2A",
"f  c #321D2B",
"g  c #331E2D",
"h  c #351F2F",
"j  c #37232D",
"k  c #36202F",
"l  c #3D2928",
"z  c #3D2A29",
"x  c #3E2A29",
"c  c #3E2B29",
"v  c #3F2C2A",
"b  c #3D292C",
"n  c #362030",
"m  c #362031",
"M  c #372031",
"N  c #372131",
"B  c #372032",
"V  c #372132",
"C  c #372033",
"Z  c #372133",
"A  c #392331",
"S  c #382132",
"D  c #382133",
"F  c #3B2533",
"G  c #382134",
"H  c #392235",
"J  c #3A2336",
"K  c #3A2337",
"L  c #3B2438",
"P  c #3B2439",
"I  c #3C2439",
"U  c #3D253A",
"Y  c #3D253B",
"T  c #3D253C",
"R  c #3E253C",
"E  c #3E263C",
"W  c #3E263D",
"Q  c #402C2A",
"!  c #412E2C",
"~  c #422F31",
"^  c #433033",
"/  c #453231",
"(  c #453232",
")  c #453332",
"_  c #463332",
"`  c #463333",
"'  c #463433",
"]  c #473533",
"[  c #533F36",
"{  c #554139",
"}  c #59453D",
"|  c #5B4740",
" . c #5F4C44",
".. c #654F42",
"X. c #604E47",
"o. c #77604C",
"O. c #77614C",
"+. c #78614C",
"@. c #78614D",
"#. c #78624D",
"$. c #79624D",
"%. c #79634E",
"&. c #7B644E",
"*. c #7E6751",
"=. c #7D6854",
"-. c #776358",
";. c #806953",
":. c #846E58",
">. c #86705A",
",. c #8C7459",
"<. c #937B5D",
"1. c #937B5E",
"2. c #947B5D",
"3. c #947B5E",
"4. c #947C5E",
"5. c #957C5E",
"6. c #957D5E",
"7. c #957C5F",
"8. c #957D5F",
"9. c #967D5F",
"0. c #967E5F",
"q. c #8A7563",
"w. c #8F7C6A",
"e. c #917A60",
"r. c #977E60",
"t. c #977F60",
"y. c #907B67",
"u. c #927D69",
"i. c #907C6A",
"p. c #907D6A",
"a. c #907D6B",
"s. c #917D6B",
"d. c #917E6B",
"f. c #927E6C",
"g. c #978167",
"h. c #988061",
"j. c #998061",
"k. c #998161",
"l. c #9B8467",
"z. c #9C8467",
"x. c #93806C",
"c. c #96826E",
"v. c #9C8568",
"b. c #9D8668",
"n. c #9D8669",
"m. c #9D886F",
"M. c #978470",
"N. c #A38F76",
"B. c #AC977B",
"V. c #A9957D",
"C. c #AC977C",
"Z. c #AD987C",
"A. c #B39F84",
"S. c #B39F85",
"D. c #B4A085",
"F. c #B4A086",
"G. c #B5A186",
"H. c #B6A287",
"J. c #B7A388",
"K. c #B8A489",
"L. c #B9A489",
"P. c #B9A589",
"I. c #BAA68A",
/* pixels */
"1 1 1 7 s n n n n n n n n n n n h h V D I ^ R I C h h G I R R R I R I R R R R I Y Y Y Y Y Y Y Y Y Y Y Y Y Y Y Y Y Y Y Y Y Y Y Y ",
"1 1 1 7 s D n n n n k n k n n k V h h D H R W H C h h G H R R R R R R R R I R R Y Y Y Y U Y Y Y Y U Y Y Y Y U Y Y Y Y Y Y Y Y Y ",
"1 1 1 7 s n n n n n n k n k k n h h C G R R R R V C V G I R R R I I R I R R R I Y Y U W Y Y Y Y Y Y Y Y Y Y Y Y Y Y Y U Y Y Y Y ",
"1 1 1 7 s n n n D D D D D D D D V C C G I R R H G V V G I I R I R R R R R I R R Y U U U Y Y Y Y Y Y Y Y Y Y Y Y Y Y Y Y Y Y Y U ",
"1 1 1 7 s h n D G L Y L L L L L H I I I I R R I I K I I I R R R R R R I I I R R U U U U W U W U U Y Y U Y Y U Y Y Y Y Y Y Y Y Y ",
"1 1 1 7 s n n D Y Y Y R Y Y Y Y R R R R R I R R ^ I R R R R R R R I R R R R I R W U W U U U U U Y Y Y Y Y Y Y Y Y U Y Y Y Y Y Y ",
"1 1 1 7 s n n D L Y Y Y Y Y Y Y I R R R R R R R W R I R R W R W I R R R I R R R Y Y Y U U U W U Y Y Y Y Y Y Y Y Y Y Y Y Y Y Y U ",
"1 1 1 7 s n n G L Y Y Y Y Y Y Y R R I R R I I R R R R I C C C C I R I R R R R I Y Y Y U U W I W Y Y Y Y Y Y Y Y Y Y Y Y Y Y Y Y ",
"1 1 1 7 s n n D L Y Y Y Y Y Y Y I R R R R I R R R R W H a e e a C W R R R R I I R I R R I W I U Y Y Y Y Y Y Y Y Y Y Y Y Y Y Y U ",
"1 1 1 7 s n n D L Y Y Y Y Y Y Y R R I R R R I R R W W C 8 : : 8 C W R R R I R R R R W I W I W U Y Y Y Y Y Y Y Y Y Y Y Y Y Y Y Y ",
"1 1 1 7 s D n D L Y Y Y Y Y Y Y I R I R I R I R R R ^ C 8 & : 8 C W W R R R R R I W R I U W Y Y Y Y Y Y Y Y Y Y Y Y Y Y Y Y Y Y ",
"1 1 1 7 s n n D L Y Y Y Y Y Y Y R R R R R R R I C C V D b Q Q Q C C C C I I R I W I R R Y Y Y Y Y U Y Y U Y Y U Y U Y Y Y Y Y Y ",
"1 1 1 7 s D n D L Y Y Y Y Y Y Y R I R I I R R G p e 8 A ..*.%...A 8 8 p H ^ R R R I W W I W Y Y Y Y Y Y Y Y Y Y Y Y Y Y Y Y U Y ",
"1 1 1 7 s n n D L Y Y Y Y Y Y Y R R R R R R R G 8 & @ Q %.t.t.%.Q @ : 8 C W W R I W I W W I Y Y Y Y Y Y Y Y Y Y Y Y Y Y Y Y Y Y ",
"1 1 1 7 s n n D L Y Y Y Y Y Y Y R I R R R R R G 8 & @ l +.t.t.+.Q @ @ 8 C W W W W I W I I W I Y Y Y Y Y Y Y Y U Y Y Y U Y Y Y Y ",
"1 1 1 7 s n n n Y Y Y Y Y Y Y Y R I R I G G G D b Q l [ ;.2.0.;.[ l l b H C C H I R I W W I W U Y U Y Y Y Y Y Y Y Y Y Y Y Y Y Y ",
"1 1 , 7 s n k D P Y Y Y Y Y R R R R R G a w w b ..%.+.;.,.2.e.,.;.%.+...A e e p C W Y Y Y Y Y Y Y Y Y Y Y Y Y Y Y Y Y Y Y Y Y U ",
"1 1 1 7 s n n D P Y Y Y Y R R R R R R G w & O c +.t.t.2.2.2.2.2.r.t.t.%.Q & & e C Y W Y Y Y Y Y Y Y Y Y Y Y Y Y Y Y Y Y Y Y Y Y ",
"1 1 1 7 s n n D P Y R R R R R R R R R n w O O c +.0.2.2.2.e.2.r.r.r.t.*.Q & & e C W Y Y Y U Y Y Y Y Y Y Y U Y Y Y Y Y Y Y Y Y Y ",
"1 1 1 7 s n n D P Y R Y G C n C C C C D b c c [ :.v.v.e.;.+.+.+.+.$.%...Q e 8 p C W Y Y Y Y Y Y Y Y U Y Y Y Y Y Y U Y Y Y Y Y Y ",
"1 1 1 7 s n k D P R R G a w w w w 8 w c ..+.+.:.N.V.B.y.} l b Q Q Q Q b C C C H I W I W Y Y Y Y Y Y Y Y Y Y Y Y Y Y Y Y Y Y U Y ",
"1 1 1 7 h k n D I R R C w : 1 : : : & l -.6.6.z.C.K.H.i.~ @ & : : : : 8 C W W R W Y W I Y Y Y U Y Y Y Y Y Y Y Y Y Y Y Y Y Y Y Y ",
"1 1 1 7 s k n D Y R R C w : : : : : & l +.6.2.l.C.K.I.f.] @ & : : : : 8 C W W Y Y Y U Y Y Y Y Y Y Y Y Y Y Y Y Y Y Y U Y Y Y Y Y ",
"1 1 2 7 s D n n n G C D b c c ! ~ ) ] } :.z.l.g.i.s.f.-.~ 8 8 e t t t p C W Y Y Y Y Y Y Y Y Y Y Y Y Y U Y Y U Y Y Y Y Y Y Y Y Y ",
"1 1 1 7 s D k f u w w b ..@.@.=.q.i.i.c.N.C.C.i.X.! ] ~ G G C G G G C C I U W I Y Y Y Y U Y Y U Y Y Y Y U Y Y Y Y U Y Y U Y Y Y ",
"1 1 1 7 s n D s 7 ; & Q *.t.t.n.C.H.H.S.S.K.K.i.)   @ w C E R R W ^ W W W W I W Y Y Y Y Y Y Y Y Y U Y Y Y Y Y Y Y Y Y Y Y Y Y Y ",
"2 , 1 7 s D n s 7 & ; v *.t.t.n.C.S.S.S.S.K.K.f.)   @ 8 C E E R W W W W W Y W I Y Y U Y Y Y Y Y Y Y Y Y Y Y Y Y Y Y Y Y Y Y Y Y ",
"1 1 1 7 s D n h u w w b ..@.@.:.N.S.A.V.M.i.f.-.~ 8 8 a H R R I C C C H I Y U W Y Y Y Y Y Y Y Y Y Y Y Y Y Y Y Y Y Y Y Y U Y Y Y ",
"1 1 2 7 s k n n n C G D b c c } c.H.H.c.X.) ) ~ F G C C I W R H p e e p C W W I Y Y Y Y Y Y U Y Y Y Y Y Y U Y Y Y Y Y Y Y Y Y Y ",
"1 1 , 7 s k n G Y R R C w & O ) i.K.I.s.)     8 C ^ W W I W E C e : : e C W W W Y Y Y Y Y Y Y Y Y Y U Y Y Y Y Y Y Y Y Y Y Y Y Y ",
"1 1 , 7 s k k D P R R C w O O ` s.I.I.f.) @ & 4 C W W W W W W C 8 & : 8 C W W I Y Y Y Y Y Y Y Y Y Y Y Y Y Y Y Y U Y Y Y Y U Y Y ",
"1 1 2 7 f D j D P R R G p w w ~ -.f.f.-.~ w 8 a C W W I C C C G Q Q Q A C C C C I Y Y Y Y Y Y Y Y Y Y Y Y Y Y Y Y Y Y Y Y Y Y Y ",
"1 1 1 7 f A h G K Y Y Y K G G G ^ ] ] ^ H G G K I Y Y G p 0 8 h ..%.*...Q 8 8 p H W W R R R I R R R R I I R R R R I R I R I R R ",
"1 1 1 7 f h h G Y Y Y Y Y Y Y C 4 & & 8 G Y Y Y Y W W C 0 & & Q %.t.t.%.l & & 8 C W W R R I R R R I R R R R R I R R R I R R R I ",
"1 1 1 7 f h h G K Y Y Y Y Y R C e & & 8 C Y Y Y W W I G e & # Q %.t.t.+.l & & 8 C W W ^ R R R I R R R I R I R R R R I R R I R I ",
"1 1 2 7 g h h G I Y Y Y Y Y Y C a 0 e a H Y Y I G C C C Q Q Q [ ;.e.r.;.[ l b Q C C C G H W R R R I R R R R I I I R R R R R R R ",
"1 1 1 7 a C h C I Y Y Y Y Y Y U H C C K Y Y Y G a 0 e Q ..@.@.;.,.<.<.,.;.o.+...b 8 8 p H R R R I R R R R R R R R I R I I R I R ",
"1 1 1 7 a m C C K Y Y Y Y Y Y Y I ^ Y Y Y Y Y G 8 & & Q ;.t.r.e.r.<.<.2.e.r.r.%.Q @ & 8 C W W W R R R R R I R I R R R R R R I R ",
"1 1 1 7 a C h G Y Y Y Y Y Y Y Y Y R Y Y Y Y Y G 8 : & Q ;.t.t.r.e.0.r.e.e.r.r.o.Q @ @ e C W ^ W R R R R R R R R I R I R I R R R ",
"1 1 1 7 a m m G K Y Y Y U Y Y Y Y Y Y Y Y Y Y G a 8 8 Q ..@.@.@.+.+.%.;.e.t.v.:.[ l Q A C C V V C C C C H R R R R R R R R R I R ",
"1 1 1 7 s h h F K Y Y Y Y Y Y Y Y Y Y Y Y Y Y U K C C G Q Q Q Q Q Q l [ i.C.C.N.:.+.%...A e e e e e e p H Y Y Y I R R I R I R R ",
"1 1 1 7 s h h F U Y Y Y Y Y Y Y Y Y Y Y Y Y Y U R R R C 8 # : : : @ & ] s.K.S.Z.t.r.r.+.Q @ & & : : : e C W W Y R R R R R R I R ",
"1 1 1 7 a F C C K Y Y Y Y Y Y Y Y Y Y Y U Y Y Y R R R C 8 : : : : & & ` f.I.K.Z.v.r.0.+.l @ @ : : : : 8 C W ^ Y R R R W R W R R ",
"1 1 1 6 a h h C U Y Y Y Y Y Y Y Y Y Y Y Y Y Y Y Y R R C p 8 y 8 e 8 8 ~ -.f.y.y.u.t.v.>.| ` ` / ! Q Q A C C G G H I I H I H I I ",
"1 1 1 7 a C h F K Y Y Y U Y Y Y Y Y Y Y Y Y Y Y Y Y Y U C C C C g a a h ~ ] / X.y.Z.C.N.f.y.s.q.;.+.%...b 8 e p g V V V C C C C ",
"1 1 1 7 a h h C U Y Y Y Y Y Y Y Y Y Y Y Y Y Y Y Y Y Y Y R U U U G m V a 2 @ @ ~ f.I.K.S.S.S.S.C.b.r.r.*.Q & : 4 a m m m h h C h ",
"1 1 1 7 a C C F K Y Y Y Y Y Y Y U Y Y Y Y U Y Y Y Y Y Y R R R U V V V a 4 @ @ ] f.I.S.S.S.A.A.C.v.r.r.*.Q & : 4 a V h m h m m h ",
"1 1 2 7 a h h C U Y Y Y Y Y Y Y Y Y Y Y Y Y Y Y Y Y Y Y Y Y U U H V V g y e 4 ~ -.f.f.M.A.A.A.N.>.+.+...Q e e p g V G G m m m m ",
"1 1 1 7 a A h G P T T T T T T T U R U Y Y U U Y Y Y U R U Y Y U R K R K K C C H ~ ~ / X.N.S.S.f.| l Q A C C C C K R K H C m m m ",
"1 1 1 7 a G h G P T T P T P P T R U Y Y U R R U Y Y R U R U Y Y Y Y Y Y Y R Y C e # # / w.I.I.y./ @ @ 7 C W R R R R R R C m h m ",
"1 1 1 6 a h h G P P T T T P T T Y Y Y Y R U U R Y Y U Y U R Y Y Y Y Y Y Y Y R C e @ # ` w.I.I.f.] @ @ e C W R R R R R K m m m m ",
"1 1 1 7 a A h G P T T T T T T T Y Y Y Y U R R U Y Y Y Y Y Y Y Y Y Y Y Y Y Y R C p 8 e ~ -.f.f.-.~ e e y C R R R R R K K G m h m ",
"1 1 1 6 s h h G L T T P T P T T Y Y Y Y R U U R Y U U U R U U Y Y Y Y Y U R U U H C C K ~ ] ] ^ A G C H I R R U U U R U m m h m ",
"1 1 1 7 g h h G L T T T T T T T U U R U Y Y R R Y R U U Y R U U Y Y Y Y R R R U Y ^ R C 8 & & 8 C ^ W R R U R R R R R H G m h m ",
"1 1 1 7 f A h G P T T T T T T P U U U U R U I ^ R U U U Y U U U Y Y Y Y R R R R R R R C e & : 8 C W W R U U R W R R W U V h m h ",
"1 1 1 6 f h h F F L P P P P P P U K U K U U I I U U K U U U U K Y K K K K K U K K U U C y 8 4 y C U I I I I I H U K ~ H V V h V ",
"< < < 6 a C h G C G G C G G G A Q G G G G m C C G G G C G G G Q C G C G G G G G G G G h h f a m C Q G G G G G G C C C C m m m m ",
"< < < 6 a h A h h h A h h h h h h h m m m m m m h h m m m m m h m m m m h h h h V h h h G h Q h m h h A h h h h m h m m m m m m ",
"2 < < 6 g A A h h A h G h G A h G h h h m m m m h G m m m m h h m m m m h h h G V m m h h h G h m m h h h G V h m C m m m m m m ",
"< < < 6 i a g a g a a a g a a a f f f f a a a a f a a a a a s s a a a a f f f f a a a a f f f f a a f f f f a a p a a a a a a a ",
"< < < 6 6 6 6 6 6 6 6 6 6 6 6 6 7 7 7 7 7 7 7 7 7 7 7 7 7 7 7 7 7 7 7 7 t 7 7 7 7 7 7 7 7 7 7 4 e e 7 7 7 7 7 7 7 7 7 7 7 7 7 7 ",
"2 < < < < < 2 < 2 < 2 < 2 < < 2 < < < < < < < 1 1 < < < < < < < < < < 1 2 1 1 1 1 1 1 1 1 1 1 1 1 1 1 1 1 1 : 1 1 1 1 1 1 1 1 1 ",
"< < < < < < < < < < < < < < 2 < 1 1 1 1 1 < 1 1 1 1 1 < 1 1 1 1 1 1 1 1 1 1 1 1 1 1 1 1 1 1 1 1 1 1 1 1 1 1 1 1 1 1 1 1 1 1 1 1 ",
"< 2 < < < < 2 < < 2 2 < < 2 < < 1 1 1 1 1 1 1 1 1 1 1 1 1 1 1 1 1 1 1 1 1 1 1 1 1 1 1 1 1 1 1 1 1 1 1 1 1 1 1 1 1 1 1 1 1 1 1 1 "
};
