/* XPM */
static char *torch_resized[] = {
/* columns rows colors chars-per-pixel */
"64 64 176 2 ",
"   c #1D0E16",
".  c #1F1017",
"X  c #200F16",
"o  c #201017",
"O  c #241219",
"+  c #2A161C",
"@  c #2A1721",
"#  c #2D1A22",
"$  c #2F1B28",
"%  c #311D23",
"&  c #331E29",
"*  c #372024",
"=  c #3C2323",
"-  c #35212C",
";  c #3A232A",
":  c #3F2A2C",
">  c #372033",
",  c #3B2634",
"<  c #3E2834",
"1  c #3D253B",
"2  c #3E2A39",
"3  c #3D313A",
"4  c #4B2C17",
"5  c #461F26",
"6  c #481F27",
"7  c #472026",
"8  c #492027",
"9  c #49242B",
"0  c #442A2E",
"q  c #4E282C",
"w  c #40272D",
"e  c #50292E",
"r  c #4F312C",
"t  c #442E36",
"y  c #492E36",
"u  c #40273E",
"i  c #432C3C",
"p  c #482F3C",
"a  c #41313A",
"s  c #4D333E",
"d  c #5F3C33",
"f  c #52353E",
"g  c #583638",
"h  c #5C3D3D",
"j  c #652B31",
"k  c #603D35",
"l  c #7F363C",
"z  c #693628",
"x  c #6A473A",
"c  c #714738",
"v  c #724A3B",
"b  c #472C43",
"n  c #492D45",
"m  c #4C2F49",
"M  c #4D3540",
"N  c #453D46",
"B  c #4F314C",
"V  c #543740",
"C  c #533841",
"Z  c #5D3D44",
"A  c #543649",
"S  c #57384B",
"D  c #563553",
"F  c #593756",
"G  c #5E3B52",
"H  c #603F48",
"J  c #603F42",
"K  c #544345",
"L  c #584A4E",
"P  c #634242",
"I  c #664448",
"U  c #69454B",
"Y  c #6E4A48",
"T  c #6B4746",
"R  c #724D4B",
"E  c #77504E",
"W  c #79524F",
"Q  c #795345",
"!  c #7A5350",
"~  c #775C54",
"^  c #7E645D",
"/  c #655E68",
"(  c #76737E",
")  c #80373C",
"_  c #A76919",
"`  c #AC622A",
"'  c #CC7729",
"]  c #CD7929",
"[  c #C86D34",
"{  c #963D42",
"}  c #993F44",
"|  c #875742",
" . c #875843",
".. c #8C5B45",
"X. c #8F5E48",
"o. c #965F47",
"O. c #A04247",
"+. c #B3494E",
"@. c #BE4C4E",
"#. c #BD474E",
"$. c #BD4C52",
"%. c #BA4752",
"&. c #B75344",
"*. c #95644F",
"=. c #8A695C",
"-. c #936E5F",
";. c #B26A4A",
":. c #BF6D4B",
">. c #A77C45",
",. c #9B5B62",
"<. c #927367",
"1. c #947568",
"2. c #AF7A63",
"3. c #BA6871",
"4. c #C15944",
"5. c #C05648",
"6. c #C35C47",
"7. c #C24E53",
"8. c #C65054",
"9. c #C06D4A",
"0. c #C86940",
"q. c #CB6A54",
"w. c #CC6D58",
"e. c #D0774D",
"r. c #C67D6C",
"t. c #CF8319",
"y. c #D28619",
"u. c #D48417",
"i. c #DC992E",
"p. c #D68937",
"a. c #E5A73E",
"s. c #BB836D",
"d. c #D29D4F",
"f. c #CF8853",
"g. c #CF8752",
"h. c #CA9549",
"j. c #EAB04C",
"k. c #E9AF58",
"l. c #C89169",
"z. c #EFB564",
"x. c #F0BD62",
"c. c #F0B760",
"v. c #E2A865",
"b. c #F4C357",
"n. c #F6C559",
"m. c #FFD76A",
"M. c #FFDA6B",
"N. c #FCD065",
"B. c #767480",
"V. c #797682",
"C. c #847F8A",
"Z. c #83818A",
"A. c #89868B",
"S. c #AD9B97",
"D. c #B1A696",
"F. c #8D99A6",
"G. c #8E9BA8",
"H. c #9597A4",
"J. c #9599A6",
"K. c #999BA2",
"L. c #A399A4",
"P. c #9BA2AE",
"I. c #A4A8AE",
"U. c #A6ABB0",
"Y. c #A8ACB1",
"T. c #B1A9B4",
"R. c #B2B0B4",
"E. c #B6B5A7",
"W. c #A7B9C9",
"Q. c #AFC5D5",
"!. c #AEC8D7",
"~. c #ADC7D9",
"^. c #ADC8D8",
"/. c #B0C8D7",
"(. c #B3CAD9",
"). c #B0C6D5",
/* pixels */
"m m B m m m m m m m m m m m m m m m m m D F F D m m m m m m m A D F F F F F F F F F F F F F F F F F F F B m m m m m m m m m m m ",
"m m m m m m m m m m m m m m m m m m m m D F F D B m m m m m m B D F F F F F F F F F F F F F F F F F F D B m m m m m m m m m m m ",
"n B m m m m m n m m m m m n m m m m m A D F F D m m m m n m m B D F F F F F F F F F F F F F F F F F F D B m m m m m m m m m m m ",
"B m m B A A A A A A A A A A A A A A A S G G G G D A A A A A A S D G G G G G G G G G G G G G G G G G G G A A A A A A A A B m m m ",
"n B m A Z I I I I I I I I I I I I I I I U U T I T I I I I I I I U T U U T U U U T T U U U U U I T U I T U I I I I I I Z A m m m ",
"B n m A I Y Y Y Y Y Y Y Y Y Y Y Y Y Y Y Y Y Y Y Y Y Y Y Y Y Y Y Y Y R Y R R Y Y Y Y Y Y Y Y Y Y Y Y Y Y Y Y Y Y Y Y R I A m m m ",
"n B m A I R Y Y Y Y Y Y Y Y Y Y Y Y Y Y Y Y Y Y Y Y Y Y Y Y Y Y Y R R Y Y R R Y Y Y Y Y Y Y Y Y Y Y Y Y Y Y Y Y Y Y Y I A m m m ",
"B n m A I Y Y Y Y Y Y Y Y Y Y Y T Y Y Y Y Y Y Y Y Y Y Y Y Y Y T Z h h h h h Z k I Y Y Y Y Y Y Y Y Y Y Y T Y Y Y Y Y Y I A m m m ",
"m m m A I R Y U Y Y Y Y Y Y Y Y Y Y Y Y Y Y Y Y Y Y Y Y Y Y Y P 0 * * * * * * 0 P Y Y Y Y Y Y Y Y Y Y Y Y Y Y Y Y Y Y I S B B n ",
"m m m A I Y Y Y Y Y Y Y Y Y Y Y Y Y Y T Y Y Y Y Y Y Y Y Y Y E h % o o o o o . % h R Y Y Y Y Y Y Y Y Y Y Y Y Y Y Y Y Y I S b n B ",
"m m m A I Y Y Y Y Y Y Y Y Y Y Y Y Y R U T Y Y Y T Y Y Y Y Y Y h % X . o o . . % h R R Y Y Y Y Y T Y Y Y T Y Y Y Y Y Y I A m B n ",
"m m m A I R R R Y Y Y Y Y Y Y Y R Y R Y R Y R Y Y Y Y U x h h g q 6 8 9 8 8 8 0 g h h P T R Y R R Y Y R R Y Y Y Y Y R I A m n B ",
"m m m A R W W R E E E E Q W R W E E E E R E R R E E E I t % * 9 ) O.O.{ { O.O.l q * * 0 I E E R E E E R E R E E E E ! U A n m B ",
"m m m A U ! ! W W W E ! W W W W ! ! E W ! ! ! W ! ! ! P *     7 } 7.7.8.$.$.$.O.7 . . * P W ! ! W W W ! W ! ! W W ! ! R S B m m ",
"m m m S U ! ! ! W W ! ! ! ! W W ! ! W W ! ! W W ! ! ~ P * .   = { 8.7.$.$.8.8.{ 7 . . * P ! ! ! ! ! ! W ! ! ! ! W ! ! U A m m m ",
"n n n A U R R U R U Y Y Y Y Y R R U Y R Y R R Y I P I k q 7 5 j O.$.$.+.O.O.O.l 9 # @ : P R R Y Y R U Y R R U R U Y Y I A n n n ",
"u u u i V Z Z Z J H J J Z Z V J J Z H V J J J V : * * q l O.O.O.+.7.7.O.j 7 7 9 0 p y f V Z Z Z Z Z Z Z Z Z Z Z Z Z Z V b u u u ",
"1 1 1 i V V V V V V V V V V V V V V V V V V V i @ . . 7 O.$.8.$.$.$.$.{ 7   . # p Z V V V V V V A V V V V V f V V V V s i 1 1 1 ",
"1 1 1 u s V V V V V V V V V V V V V V V V V V y # . . = O.$.$.$.@.$.7.} 7     @ y V Z V V V V V V V V f V V V V V V V s u 1 1 1 ",
"1 1 1 1 f V V V V V V V V V V V V V V M y p p e 9 7 7 j O.$.$.$.$.$.7.O.e 7 5 w y y y y f V V V V V V V V V V V V V V f i u u u ",
"1 1 1 i p V V V V V V V V V V V C C f s ; % @ 9 l O.O.O.+.$.$.%.$.$.$.+.O.O.{ l 8 % # ; f f h V V V V V V V V V V V V V n n n n ",
"1 1 1 u V V V V V V V V V V V V h C C y % X   6 O.8.+.$.$.$.$.$.$.$.$.@.$.7.8.O.6 X . # y C V V V V V V V V V V V V V V m m m m ",
"1 1 1 i M V V V V V V V V V V V V V V y #     6 O.$.8.$.$.$.%.$.$.@.$.$.$.8.7.} 7     # y C C V V V V V V V C V V V V V m m m m ",
"1 1 u i b V V V V V V V V V V g s y y y 9 8 6 j O.$.$.@.@.6.0.&.@.$.$.$.$.$.$.O.j 6 6 9 y y y p f V V V V V h V V V f f b m n m ",
"1 1 1 u i M M M V V V V V V V y ; % @ 9 l O.{ O.+.$.$.&.[ ' ' [ &.$.$.$.$.$.$.+.O.} } ) 9 # # ; y V V V V V V M b V M b u u u u ",
"1 1 1 u i b b M M V V V V V A y % X X 6 O.$.$.$.@.$.$.6.' y.y.' 6.$.$.$.$.$.$.$.$.7.7.} 8 X X % y V V V V V V V s b M a 1 1 1 1 ",
"u u 1 u i M b p V V V V V V g y % o o 9 O.$.8.$.$.$.$.&.' y.y.' &.$.$.$.$.$.@.$.$.7.7.} 8 o o # y Z V V V V V V M b s b 1 1 1 1 ",
"& > > & i b p p b s M f V M M y % o O 6 O.$.$.@.$.$.%.0.p.i.i.p.0.6.5.5.@.$.$.$.$.$.7.} 9 X O % i V M M s f V y i b i u i 1 1 1 ",
"@ @ @ $ , u u u i i i i u i u > @ o o 8 } 7.$.$.$.%.%.q.k.b.n.j.p.' ] [ &.$.%.$.$.$.7.} 6 X O # w u u u u u t u i u u 1 1 1 1 1 ",
"O O O @ > u 1 1 1 u > 1 1 u u > @ o o 8 } 7.8.$.$.%.%.w.z.M.M.b.i.t.u.] 0.%.$.$.$.7.7.{ 6 X O @ > 1 u u 1 1 1 1 1 1 1 , 1 1 1 1 ",
"O O O @ > u 1 , 1 1 1 1 1 w 1 & @ o o 8 O.7.7.$.$.%.%.w.z.M.M.b.i.t.] ] &.$.$.$.7.7.7.} 6 O X + > 1 1 1 1 1 , 1 1 1 1 1 1 1 1 1 ",
"@ @ @ $ > u u u u i u u u u u u & % # 9 l { } O.&.6.5.e.z.M.M.n.a.i.i.p.9.$.$.+.O.} } ) 9 % @ % u t u u i u u i u 1 u 1 1 1 1 1 ",
"> > > 1 t b b p b f M f s V s f s y y y 9 6 & z ` ] ] p.b.m.m.N.b.b.b.k.q.%.$.O.j 5 5 9 y y y f y V f V f V f p b p i b 1 1 1 1 ",
"1 1 2 1 b i b M g V V V V V V V h C C y @     4 _ u.y.i.b.m.m.m.m.M.M.z.q.%.#.{ 5     + y C C C V V V V V V V V M b M i 1 1 1 1 ",
"1 1 1 1 i M b s V V V V V V V V V V V p %     4 _ u.y.i.b.m.m.m.m.M.M.z.q.#.#.{ 6     # y C Z f V V V V V V V V b b i b 1 1 1 1 ",
"1 1 1 1 b M M b V V V V V V V f y y y y a 2 3 x h.h.h.d.k.x.x.x.x.x.n.v.r.3.3.,.K 2 3 a y y y s f V V V V V V V V M M i 1 > > , ",
"1 1 1 u p V V V V V V V V V V y ; % @ t / B.B.Z.K.E.E.D.l.g.g.g.g.g.g.l.D.T.T.L.C.( B./ t % + ; y V V V V V V V V V V p - + @ @ ",
"1 1 1 i V V V V V V V V V V Z p % X X 3 B.J.H.P.W.Q.Q.Y.s.9.9.9.:.:.:.s.T.(.).W.P.H.H.B.3 X X # y V V V V V V V V V V y # O O O ",
"1 1 1 i f V V V V V V V V V Z y % X X 3 B.J.H.P.W.^.Q.R.s.9.9.9.:.:.:.s.R.~.(.W.P.H.J.V.3 X X % y C Z V V V V V V V V y % o O O ",
", > > , b V V V V V V V V V V y ; # # a / ( ( Z.K.U.I.S.2.;.;.;.;.;.;.2.S.U.U.H.C.( B./ t # # ; p V V V V V V V V V V y & @ @ @ ",
"@ @ @ & i M M M V V V V V V V f y y y p a < 3 K ^ 1.1.-.*.o.*.o.o.o.o.*.-.<.<.^ K < 3 a s y y p V V V V V V V V M M M i , > > > ",
"O O O # , b b b V V V V V V V V C V V y % X X * c ....| | | | | | |  . .......c =   o + y C h V V V V V V V V V s b M b u 1 1 1 ",
"O O X # 2 M s M V V V V V V C Z C Z V y # X X = v .... .| | | |  . .|  .....o.c = X o % p C V V V V h V V V V V M b a a b 1 1 u ",
"@ @ @ & 1 i b i p V f p p y y y y y y t # O O * d v v Q =.1.1.1.<.<.<.=.Q c c k * O O + 0 y p y y y p y s s f s i b b u , > > > ",
"> > > , 1 i 1 u i u i , & % % % % % % # + O O + * = = K A.Y.I.I.I.U.U.A.K = = % + O O + # % % % % % % & , i u u 1 b 1 , $ @ @ @ ",
"u 1 1 1 1 1 1 1 1 1 1 > @ o X O o O O o O O O O O . . N G.(.(.Q.).)./.F.N X X O O O O O O o O O O O X @ > 1 1 1 1 1 1 > @ X O o ",
"1 1 1 1 1 1 1 1 1 1 1 > @ o o O O O O O O O O O O .   K P.!.(.Q.Q.).(.F.N o o o O O O O O O O o O X O @ > 1 1 1 1 1 1 > @ O O O ",
"> > > , 1 , u 1 u i u , & % % # % # # % % % % + O . . 3 ( F.F.J.P.U.Y.A.a O O + # % % # % # # % % # % & < u u u 1 1 1 , & @ @ @ ",
"# @ @ & , i u b a M s a s a a y 3 a t a t t a w # O O # 3 N N K =.1.1.~ w O o # < t a 3 t a a a t t t a a M M a a i u 2 , > > , ",
"O O O @ , i t a M V C M f C M f C M f C f C f t * O O O o     = x ....c = o o $ t f f K f C f M V M C C s s C s a i t u 1 1 1 1 ",
"O O O @ , a i a M M M C M C C M K s s K C M K a # O O O . . . = c ....c = O O % t C C s C C s C M C M C M K K s b i i 2 1 1 1 u ",
"O O O # < b a a M M M M K M C s s C s M M C s a % O O + * = = r v ....v = O o % a C s K M s s K C M M M C s s M a a s i 1 > > > ",
"O O O # y s s M s s M M s K s s M K s M M C M y $ O O * d v v v  ...X.x = o O # t C C M M M s s M C K s s s M s M M M t & @ @ # ",
"O O O # t M C C K s K C s s M C M M s C C C M y # . O = v X.X.X...X.X.v = o o % t f C M C M K s C M M C s K M C M M C t # o O O ",
"+ O O $ a M C M s s C M C C K s M C C M M C M a % . O = v X.X.....X.X.x = o o # a C M K C M C M M f f M s M K C M C M t % O O O ",
"O O O % y s M s s s M M a s M a M C a M C a M t - + @ ; k v v v v v v k : @ @ * a M s a s M s s s N s s s M a s s M M t # O O O ",
"O O O # i a a b a a a a b i a b a i a i a b b a < , , , ; = * : = = = : , , , < t a a i a i a b a b a i p a a i a a a < $ O O O ",
"O O O # , i i 2 b a i i t i t i i i i i i t 2 t i i t , @ O o o O o o @ , i i t i i b i i i i 2 i i i t i i i i i b i , @ O O O ",
"O O O # , i a i a i i 2 i i i i i i i t i i i i i a i < # O o O O o O @ 2 a i i i i i a i i t i i i i i i i t i i t 2 , # O O + ",
"O O O @ - , , , , , , < < , , , , , , , , < , , , , , - + O + O + O O @ - , , , , , , , < , , , < , , , , , , , < < 2 - @ O O O ",
"O O O + @ # # # # # # # @ # # @ # # # @ # # # $ $ # # @ + o O o + O O + @ @ $ @ @ # # @ # @ # # @ @ # # $ # # # @ # $ @ + o O + ",
"+ O + O O O O O O O O O O O O O O O O O O O O O O O O o + o O + O O O O O O O O O O O O O O O O O O O O O O o O O O o O o + + o ",
"o + o + O O O O O O O O O O O O O O O O O O O O O O O O O + + O O O O O O O O O O O O O O O O O O O O O O O O O O O O O O O o O ",
"+ o + o O O + O O O O O + O O O + O O O O O O O O + O O O O O O O + O + O O O O O + O O O + O O + O O O O O + O O O + O O O O + "
};
