/* XPM */
static char *bottommost_wall_resized[] = {
/* columns rows colors chars-per-pixel */
"64 64 81 1 ",
"  c #231218",
". c #241218",
"X c #241219",
"o c #241319",
"O c #251319",
"+ c #25131A",
"@ c #26141C",
"# c #291620",
"$ c #2A1721",
"% c #2A1722",
"& c #2B1722",
"* c #2B1822",
"= c #2E1A26",
"- c #2F1B28",
"; c #331D2D",
": c #341E2F",
"> c #372133",
", c #382133",
"< c #382134",
"1 c #392235",
"2 c #3C2439",
"3 c #3D253B",
"4 c #3D253C",
"5 c #3E253C",
"6 c #3E263C",
"7 c #3E263D",
"8 c #3F263D",
"9 c #3F263E",
"0 c #41273E",
"q c #482D46",
"w c #4A2D49",
"e c #4A2E49",
"r c #4B2E49",
"t c #4B2F49",
"y c #4C2F49",
"u c #4E3149",
"i c #4F3149",
"p c #523449",
"a c #543549",
"s c #543649",
"d c #553649",
"f c #54354A",
"g c #56374A",
"h c #57374A",
"j c #57374B",
"k c #5E3D4B",
"l c #5F3D4C",
"z c #603F48",
"x c #664348",
"c c #664448",
"v c #65434C",
"b c #68454A",
"n c #6D4A48",
"m c #6E4A48",
"M c #6F4A48",
"N c #6F4B48",
"B c #6C484C",
"V c #6E494D",
"C c #6D494E",
"Z c #6E494E",
"A c #704B48",
"S c #704B49",
"D c #704B4B",
"F c #704C4A",
"G c #714C4A",
"H c #724D4B",
"J c #704B4E",
"K c #744E4C",
"L c #764F4D",
"P c #754F4F",
"I c #76504D",
"U c #77504D",
"Y c #76504E",
"T c #77514F",
"R c #78514F",
"E c #79514F",
"W c #79524F",
"Q c #7A524F",
"! c #7A534F",
"~ c #7A5250",
"^ c #7A5350",
/* pixels */
"yyyyyyyyyyyyyyyyyyyyyyyyyyyuyyyyyyyyyyyyyyyyyyyyyyyyyyyyyyyuyyyy",
"yyyyyyyyyyyyyeyyeeyyyeyyyeyeyeyeyyyyyeyyyyyeyyyeyyyeyyeyyyyyyyyy",
"yyyyyyyyyeeeyeeeeeeeeeyyyeeeeeeeeyyeyeeeeeeeeeeyyyeyyyeeyyyyyyyy",
"uyyyyyyusjjjjjjjjjjjjjsjjjjjjjjjsjjjsjjjjjjsjjjjjjjssjjsuyyyyyyy",
"yyyyyyysvZZZZZZZCCCZZZZZZZZZZCZZCCZZZZZZCCCCZZCZZZZZZZZvseyyyyyy",
"yyyyyeyjZ~~~~~~R~~~RQUQQ~~~~~R~~~~R~~~~~~~R~QQUQ~~~~R~~Zjeeyyyyy",
"yyyyeyesZ~~~~~R~~~~~U~QQ~~~~R~~~RR~~~~~R~~~~U~QQ~~~~R~~Zjeyyyyyu",
"yyyussslZKRKPKKKKRKUKKUKKKKPKKKPKKPKKRKKRKKUKKUKKKKPP~~Zljssuyey",
"yyejvZZZDGDGGmGGGDGmGGDAGDGDGGGGHDDGDGGDDGDGDAGGGDDHKRRPJZZvpyyy",
"yeejZQQUGmmmmmmmmmmmmmmmmmmmmmmmmmmmmmmmmmmmmmmmmmmGKRR~~~~Zsyey",
"yeyjZQQUDmmmmmmmmmmmmmmmmmmmmmmmmmmmmmmmmmmmmmmmmmmDR~~~R~~Zjeyy",
"yyesmUUKDmmmmmmmmmmmmmmmmmmmmmmmmmmmmmmmmmmmmmmmmmmDKKKUP~~Cjeyy",
"yyesbGGGmmmmmmmmmmmmmmmmmmmmmmmmmmmmmmmmmmmmmmmmmmmmmGGGKR~Zjyyy",
"yyyscmmmmmmmmmmmmmmmmmmmmmmmmmmmmmmmmmmmmmmmmmmmmmmmmmmDK~~Zjeey",
"yyyscmmmmmmmmmmmmmmmmmmmmmmmmmmmmmmmmmmmmmmmmmmmmmmmmmmDU~~Zjeyy",
"yyescmmmmmmmmmmmmmmmmmmmmmmmmmmmmmmmmmmmmmmmmmmmmmmmmmmDKUUZseyy",
"yyescAmmmmmmmmmmmmmmmmmmmmmmmmmmmmmmmmmmmmmmmmmmmmmmmmmmGGGbaryy",
"yeysvmmmmmmmmmmmmmmmmmmmmmmmmmmmmmmmmmmmmmmmmmmmmmmmmmmmmmmxaryr",
"yyyscmAmmmmmAmmmmmmmmmmmmmmmmmmmmmmmmmmmmmmmmmmmmmmmmmmmmmmcaeru",
"yyescAmmmmmmmmmmmmmmmmmmmmmmmmmmmmmmmmmmmmmmmmmmmmmmmmmmAGGbsyey",
"yyescAmmmmmmmmmmmmmmmmmmmmmmmmmmmmmmmmmmmmmmmmmmmmmmmmmGKPPBjyyy",
"yyyscmAmDmmmAmmmDmmAAmmAAmmAmDmmGmmmmmAmmmmGmDmGmmmmmAmGU~~Jjeqy",
"yeyscAAmmmmmmAmAmAmmmmAmmmmmAmmmmmAAmmAmmmmmmmmmDmmmAmmGU~~Jsyuy",
"yyypzcccccccccvccccccccccccccccccccccccccccccccccccccccbBJDvseyy",
"yyeupsssssssssssaaaassssssssssssssssssssssssssssssssssssjjjsuyyy",
"uyuyeyyyyeyyyeeyryeyyyeyyeyyeeyyyeeyyyyeeyyyyeyetyyeyyyeeeeyyyyu",
"yyyyyyyyyeyyyyyeyyyyyyyyyyyyeeeeyyyyyyyyeettyeyyyyyyyyeyyeeyyyyy",
"qqqqqqqqqqqeqqqqqqqqqqqqeqqqqqqqqqqqqqqqqqeqeqqqqeqqqqqqeqqqqqqe",
"0000000000000000000000004q4q444qq4q4q4q49q44q4q44q44000000000000",
"3333333344333433333333332233444422232222332322244444333332334333",
"3333334344444444333333333344444423444444333323444444444433332333",
"3332<>>>>>>>>>>>,,,,,,,,>>>>>>>>>>>>>>>>>>>>>>>>>>>>>>><23333333",
"444>-$$*$******$**********$*****$$********************$->4333333",
"444>$XXXX+XXXXXXXXXXXXXXXXXXXOXOXXOOOOOXOOOOXXOOXXXXOXX$>4433333",
"444>$XX+@XXX+XXXOOXXOOOOXXXXXOOOOOOOOOOOOOOOOOOOOOOOOOX*>4433333",
"444>*XX+@XX@X@@+X@@OX@X@#*$#@@OOOOOOOOOOOOO@OO@O@OOOOOX#:>>22333",
"444>*XXXX+++X+++OO@XXXO$;>>:$XXXO@O@@O@OO@OO@O@OOOOO@OO@$$$->444",
"444>*X+@++@+@X++@XOO@OX*>49>*OO@OOOOOOOOOOOOOOOO@OOOOO@OXXX$>444",
"444>$XX@++XX@X++@O@XXOO*>94>*XOOOOOOO@@OO@OOOOOOO@O@@O@OXXX$>444",
"<><;$XX+++X@+++XXX@O@OX*>94>*XOXO@@OOOOOOO@OO@@OOOOOOOOOX@X$>444",
"**$$@+++X++@X+X@OO@XOOO*>44>*@X@OOOOOOO@OOO@OO@O+++++++++XX*>444",
"++XXXX++@XX+XXX@OOOOOXX*>99>$XXXO@@OOOOOOOOOOOOOX+++++X+@XX$>444",
"XXXXX+++XXX@XX+XOXXXXXX$>44>$XXXO@OOOXXOXXOOOOOOX++XXXX+X+X*<444",
"***$@++@$******$****$$$-:>>:-$$#@OO@#************$$*$*$$@XX$:<>>",
"><>;$XX$:>>>>>>>>>>>>>>:***-::<;#OX#;>>>>>>>>>>>>>>><<<:$++@$**$",
"494>$XX$<94449444494449>$XX$>q4<*XX*>999444944444444449<$XX+XXXX",
"494>$XX*>49449499494449>$XX*>44<*XX*>944494494494444494>$XX+XXXX",
"><>;$XX$:>>>>>>>>>>>>>>:#XX$:>>;#OX#:>>>>>>>>>>><><<>>>;$+X@$*$*",
"***$@++@$$*$****$*$$$*$$@++@$$$$@++@$$$$$$$$$$$$*$$*$$*$@X+$;>>>",
"++XX++++XX+XXXXXXX++X+XX+++++X+X++++X++X+X+X+++X@++++X+++XX$>444",
"+X++++++++X++X+++++++++++++++++++++++X+++++++++XX+X++X+++XX$<494",
"+++++++++++++++++++++++++++++++++++++++++++++++++++++++++++$:<<<",
"+++++++++++++++++++++++++++++++++++++++++++++++@+++++++++++@$$$$",
"+++++++++@+++++++++++++++++++++++++++@++++++++++++++++++++++++++",
"+++++@+++++++++++++++@++++++++++++++++++++++++++++++++++++++X+++",
"+++++++++++++++++++++++++++++++++++++++++++++++++++@++++++++++++",
"+++++++++++++++++++++++++++++++++++++++++++@+++++++++++++++@++++",
"+++++@++++++++++++@+++++++++++++++@+++++++++++++++++++++++++++++",
"++++++++++++++@++++++++++@++++++++++++++++++++++++++++++++++++++",
"++++++++++++++++++++++++++++++++++++++++++++++++@+++++++++++++++",
"+++++++++++++++++++++++++++++++++++++++++++++++++++++++@++++++++",
"+++++++++@++++++++++++++++++++@+++++++++++++++++++++++++++++++++",
"++@++++++++++++++++++@+++++++++++++++@++++++++++++++++++++++++++",
"++++++++++++++++++++++++++++++++++++++++++++@+++++++++++++++@+++"
};
