/* XPM */
static char *collectible_resized[] = {
/* columns rows colors chars-per-pixel */
"64 64 208 2 ",
"   c #1E0D18",
".  c #1F0E18",
"X  c #200F19",
"o  c #211019",
"O  c #221119",
"+  c #231119",
"@  c #23121A",
"#  c #241319",
"$  c #24121A",
"%  c #24131A",
"&  c #25131A",
"*  c #2E1A1C",
"=  c #2B1722",
"-  c #372133",
";  c #3E263C",
":  c #412A22",
">  c #483023",
",  c #493123",
"<  c #493124",
"1  c #4A3224",
"2  c #4B3224",
"3  c #4B3324",
"4  c #6A4D2E",
"5  c #6A4F34",
"6  c #7E5D32",
"7  c #9A7338",
"8  c #9A7439",
"9  c #9B743A",
"0  c #9C7539",
"q  c #9C753A",
"w  c #9C763A",
"e  c #9D763B",
"r  c #BC8D3B",
"t  c #BD8E3D",
"y  c #BC8E3F",
"u  c #BE903F",
"i  c #C2923F",
"p  c #AF8843",
"a  c #BC8E40",
"s  c #BD8F40",
"d  c #BD8F41",
"f  c #BC8F42",
"g  c #BD8F42",
"h  c #BE9040",
"j  c #BE9041",
"k  c #BE9042",
"l  c #BE9043",
"z  c #AF8D55",
"x  c #C19341",
"c  c #C29341",
"v  c #C19342",
"b  c #C19343",
"n  c #C39542",
"m  c #C29443",
"M  c #C39543",
"N  c #C49440",
"B  c #C49542",
"V  c #C49543",
"C  c #C59642",
"Z  c #C69642",
"A  c #C69743",
"S  c #C19344",
"D  c #C39544",
"F  c #C49544",
"G  c #C59744",
"H  c #C59645",
"J  c #C59745",
"K  c #C69745",
"L  c #C69844",
"P  c #C69845",
"I  c #CDA14A",
"U  c #CDA14B",
"Y  c #CEA14B",
"T  c #CDA14C",
"R  c #CEA14C",
"E  c #CEA24C",
"W  c #CFA24C",
"Q  c #CFA34C",
"!  c #CEA24D",
"~  c #CFA24D",
"^  c #CFA34D",
"/  c #D0A34B",
"(  c #D0A34D",
")  c #D1A54C",
"_  c #D1A44D",
"`  c #D1A54D",
"'  c #D2A54D",
"]  c #D1A54E",
"[  c #D2A54E",
"{  c #D2A64E",
"}  c #CFA553",
"|  c #CFA85F",
" . c #D7AB52",
".. c #DBAF54",
"X. c #DBB257",
"o. c #DBB159",
"O. c #E8BD5B",
"+. c #CDA761",
"@. c #CEA761",
"#. c #CDA762",
"$. c #CEA762",
"%. c #CEA862",
"&. c #CEA863",
"*. c #CEA963",
"=. c #CEA964",
"-. c #CFA964",
";. c #CEA965",
":. c #CFAA65",
">. c #D0AA63",
",. c #D1AB65",
"<. c #D2AB65",
"1. c #D0AA66",
"2. c #D1AB66",
"3. c #D1AC66",
"4. c #D2AC66",
"5. c #D2AD67",
"6. c #DBB466",
"7. c #D7B576",
"8. c #DBBB7E",
"9. c #EFC45D",
"0. c #EFC45E",
"q. c #EFC65F",
"w. c #F0C45D",
"e. c #F0C55E",
"r. c #F0C55F",
"t. c #F1C65F",
"y. c #EFC560",
"u. c #EFC660",
"i. c #EFC661",
"p. c #F0C560",
"a. c #F0C660",
"s. c #F1C660",
"d. c #F0C760",
"f. c #F0C661",
"g. c #F1C661",
"h. c #F0C761",
"j. c #F1C761",
"k. c #F2C760",
"l. c #F2C761",
"z. c #F3C962",
"x. c #F3CB68",
"c. c #FBD167",
"v. c #FFD666",
"b. c #FFD667",
"n. c #FFD568",
"m. c #FFD668",
"M. c #FFD768",
"N. c #FFD669",
"B. c #FFD769",
"V. c #FFD66A",
"C. c #FFD76A",
"Z. c #FFD76F",
"A. c #FFD869",
"S. c #FFD86A",
"D. c #FFD86B",
"F. c #F0CA72",
"G. c #F3CE74",
"H. c #FBD679",
"J. c #FFDA7B",
"K. c #DBC290",
"L. c #FFDD82",
"P. c #FFDD83",
"I. c #FFDE83",
"U. c #FFDF83",
"Y. c #E8CF9A",
"T. c #F0D599",
"R. c #F3D99B",
"E. c #EFDAAA",
"W. c #EFDBAB",
"Q. c #EFDAAC",
"!. c #EFDBAC",
"~. c #EFDAAD",
"^. c #EFDCAE",
"/. c #F0DAAB",
"(. c #F0DBAB",
"). c #F0DAAC",
"_. c #F0DBAC",
"`. c #F1DBAC",
"'. c #F0DBAD",
"]. c #F0DCAD",
"[. c #F1DCAD",
"{. c #F2DCAD",
"}. c #F0DCAE",
"|. c #F1DCAE",
" X c #F1DDAE",
".X c #F0DCAF",
"XX c #F1DDAF",
"oX c #F2DDAE",
"OX c #F2DDAF",
"+X c #FBE1A0",
"@X c #FFE5A2",
"#X c #F3E0B3",
"$X c #FFECB8",
"%X c #FFEDB8",
"&X c #FFEEB8",
"*X c #FBECC4",
"=X c #FFF3CE",
"-X c #FFF3CF",
";X c #FFF4D0",
":X c #FFF4D1",
">X c #FFF5D1",
",X c #FFF5D2",
"<X c #FFF5D3",
"1X c #FFF6D3",
"2X c #FFF5D4",
"3X c #FFF5D5",
"4X c #FFF6D5",
"5X c #FFF6D6",
/* pixels */
"& & & = - ; ; - = # # & & & & & & & & & & & & & * & & & & & & & & & & & & & & & & & & & & & & & & & & & & & & & & & & & & & & & ",
"& & & = - ; ; - = # & & & & & & & & & & & & & & & & & & & & & & & & & & & & & & & & & & & & & & & & & & & & & & & & & & & & & & ",
"& & & = - ; ; - = # & & & & & & & & & & & & & & & & & & & & & & & & & & & & & & & & & & & & & & & & & & & & & & & & & & & & & & ",
"& & @ = - ; ; - = # # & & & & & & & & & & & & & & & & & & & & & & & & & & & & & & & & & & & & & & & & & & & & & & & & & & & & & ",
"& # # = - ; ; - = # & & & & & & & & & & & & & & & & & & & & & & & & & & & & & & & & & & & & & & & & & & & & & & & & & & & & & & ",
"& & # = - ; ; - = # # & & & & & & & & & & & & & & & & & & & & & & & & & & & & & & & & & & & & & & & & & & & & & & & & & & & & & ",
"& # # = - ; ; - = # & & & & & & & & & & & & & & & & & & & & & & & & & & & & & & & & & & & & & & & & & & & & & & & & & & & & & & ",
"& # # = - ; ; - = # & & & & & & & & & & & & & & & & & & & & & & & & & & & & & & & & & & & & & & & & & & & & & & & & & & & & & & ",
"& # # = - ; ; - = # & & & & & & & & & & & & & & & & & & & & & & & & & & & & & & & & & & & & & & & & & & & & & & & & & & & & & & ",
"& & # = - ; ; - = # # & & & & & & & & & & & & & & & & & & & & & & & & & & & & & & & & & & & & & & & & & & & & & & & & & & & & & ",
"& & # = - ; ; - = # # & & & & & & & & & & & & & & & & & & & & & & & & & & & & & & & & & & & & & & & & & & & & & & & & & & & & & ",
"& # # = - ; ; - = # & & & & & & & & & & & & & & & & & & & & & & & & & & & & & & & & & & & & & & & & & & & & & & & & & & & & & & ",
"& # # = - ; ; - = # # & & & & & & & & & # # # # & & & & @ & & % & & @ @ & & @ & & & & & & & & & & & & & & & & & & & & & & & & & ",
"& & # = - ; ; - = # # & & & & & & & & & # # # # @ @ @ @ @ @ @ @ @ @ @ @ @ @ @ @ & & & & & & & & & & & & & & & & & & & & & & & & ",
"& # # = - ; ; - = # & & & & & & # & # # # # # # @ @ X @ X X @ X @ @ . @ @ @ . @ @ & & & & & & & & & & & & & & & & & & & & & & & ",
"& & # = - ; ; - = # & & & & & & # # * # # # # * - 1 1 1 1 1 1 1 1 1 1 1 , 1 1 : * & & & & & & & & & & & & & & & & & & & & & & & ",
"& # # = - ; ; - = # # & & & & & & & & & & @ @ : 6 0 w w w 8 w w 8 w w w w 0 0 6 : @ @ @ & & & & & & & & & & & & & & & & & & & & ",
"& & # = - ; ; - = # & & & & & & & & & & @ . . , w L Z n l n n n n n v n D P P 0 , . X @ & & & & & & & & & & & & & & & & & & & & ",
"& & # = - ; ; - = # & & & & & & & & & & o X . : w n n n n l n l l v v v S D P w : X . @ @ & & & & & & & & & & & & & & & & & & & ",
"& # # = - ; ; - = # # & & & & & & & @ * : , , 5 z <.<.:.:.:.:.:.:.:.:.%.} ) ) p 4 1 , : * & & & & = & & & & & & & & & & & & & & ",
"& & # = - ; ; - = # & & & & & & & @ @ : 6 0 7 z K.XXXX/././././.W.!.!.T.F.e.p.X.p w w 6 : @ @ @ & & & & & & & & & & & & & & & & ",
"& # # = - ; ; - = & # & & & & @ @ . . , 0 Z i <.XX:X-X-X:X:X:X:X:X:X3X&XU.b.D.p.) n Z w , . @ @ & & & & & & & & & & & & & & & & ",
"& # # = - ; ; - = @ & & & & & & @ . . , 0 i i >.XX-X-X-X:X:X:X:X:X:X3X&XU.N.N.e./ v n 7 , . . @ & & & & & & & & & & & & & & & & ",
"& & # = - ; ; - = & & & & & & * : , , 5 z <.>.8.#X-X-X*X#XW.W./.'.!.!.R.H.b.N.x.6.1.1.z 5 : , : * @ & & & & & & & & & & & & & & ",
"& # # = - ; ; - = # & & & @ @ : 6 0 7 z K.XX'.#X*X-X-X#X8.%.%.:.:.:.&.6.x.N.b.H.R.XXXXK.z 7 w 6 : @ @ & & & & & & & & & & & & & ",
"& # # = - ; ; - = # # & @ @ X 1 0 L Z <.XX:X:X-X-X-X:XW.+.r t l a a y Q y.N.b.U.%X3X3XXX<.Z P 0 1 @ @ & & & & & & & & & & & & & ",
"& # # = - ; ; - = # # & & @ @ 3 w H n <.'.:X;X-X-X:X:X^.%.r t t l t a E y.N.N.U.%X3X3XXX<.n Z w 1 X @ & & & & & & & & & & & & & ",
"& & # = - ; ; - = # & & @ @ @ , w n v :.W.;X-X*X#X/.XXY.7.%.:.| } Q E  .O.e.0.G.+X%X%XT.%.v n w 1 @ & & & & & & & & & & & & & & ",
"& & # = - ; ; - = # # & & @ @ , w n n :.W.:X:X#X8.%.%.7.Y.XXXXT.F.e.p.O. .E E o.G.U.U.F.} S D 9 1 X @ & & & & & & & & & & & & & ",
"& # # = - ; ; - = # # & & o @ , 8 n l :.!.:X:XW.%.r r %.^.3X3X%XU.D.D.y.E a f E 0.N.M.e.} S D 9 1 X @ & & & & & & & & & & & & & ",
"& # # = - ; ; - = # # & & @ X , 8 D v :.!.3X3X!.%.t t %.^.3X3X%XU.b.D.y.E l f E p.N.N.p.E S D 9 1 X @ & & & & & & & & & & & & & ",
"& & # = - ; ; - = # & & & @ o , w l n | T.&X&XT.| u l | T.%X%X@XJ.b.N.p.E l l E p.D.N.p.E S D 9 1 X @ & & & & & & & & & & & & & ",
"& # # = - ; ; - = # & & @ @ @ , 8 D v } F.U.U.F.} l l } F.U.U.J.Z.N.N.p.^ l l E p.Z.D.p.E D D w 1 @ @ @ & & & & & & & & & & & & ",
"& & # = - ; ; - = & @ & & @ @ , 8 D S ( w.b.b.w.E l l E 0.b.N.b.N.N.D.p.^ l l E p.D.D.e.E S D 8 1 . @ @ & & & & & & & & & & & & ",
"& & # = - ; ; - = # & & & @ @ , w D v E w.b.b.0.Q f a E 0.N.N.N.N.N.D.p.E f f E y.D.D.p.E S D 8 1 . @ & & & & & & & & & & & & & ",
"& # # = - ; ; - = # & & @ @ @ 3 8 D v } F.U.U.G.o.Q E  .O.p.p.y.p.p.p.O. .E E ..z.N.D.p.) S D w 1 @ @ & & & & & & & & & & & & & ",
"& & o = - ; ; - = # & & & @ o , 8 D v | T.&X&X+XF.e.e.O. .E E } E E E  .O.y.y.x.c.N.N.p.( S H 0 1 @ @ @ & & & & & & & & & & & & ",
"& # # = - ; ; - = # # & & o o , 0 H Z 1.XX3X3X%XU.N.D.y.E a g l l f f E y.D.D.N.N.D.D.p.) D H 0 1 . @ & & & & & & & & & & & & & ",
"& # # = - ; ; - = # & & & @ o , 0 Z Z 3.XX3X3X%XU.N.D.0.E a l l l l f E y.D.N.N.D.D.D.p.} H H 0 1 @ @ & & & & & & & & & & & & & ",
"& & # = - ; ; - = # # & & @ @ : 6 w 8 z K.XX'.R.H.b.N.z...E E E E E E ..z.N.N.c.z.p.p.X.p 0 0 6 : @ @ @ & & & & & & & & & & & & ",
"& & # = - ; ; - = # & & & & & * : 1 , 5 z 1.1.6.x.N.N.c.z.y.p.p.y.y.y.x.c.N.N.z.X.( ) p 5 , , : = & & & & & & & & & & & & & & & ",
"& # # = - ; ; - = # # & & & & & @ . X : 8 Z v / p.D.D.N.N.D.D.D.D.D.N.N.N.D.D.p.( v D w :   X @ & & & & & & & & & & & & & & & & ",
"& & # = - ; ; - = o & & & & & & @ . . 1 0 Z Z ( z.D.N.N.D.D.N.D.D.D.D.N.D.D.D.z.) H H 0 1 . X @ & & & & & & & & & & & & & & & & ",
"& # # = - ; ; - = & & & & & & & & @ @ : 6 0 8 p o.p.p.p.p.p.p.p.p.p.p.p.p.p.p.o.p 8 0 6 : @ @ & & & & & & & & & & & & & & & & & ",
"& & # = - ; ; - = & & & & & & & & & @ * : 1 : 4 p } ) ( ^ ^ E ( E ) E E E } ) p 4 > 1 : * @ @ & & & & & & & & & & & & & & & & & ",
"& # # = - ; ; - = & @ & & & & & & & & & @ . . 1 9 J H S S S S S S S D l n H D w : . . @ & & & & & & & & & & & & & & & & & & & & ",
"& # # = - ; ; - = @ & & & & & & & & & & @ . . 1 w P J D D D D D D D D D D D P w 3 . X @ & & & & & & & & & & & & & & & & & & & & ",
"& & # = - ; ; - = & & & & & & & & & & & & @ @ : 6 w w 9 9 9 9 9 w 8 8 w w w 0 6 : & @ & & & & & & & & & & & & & & & & & & & & & ",
"& & # = - ; ; - = # & & & & & & & & & & & & & = : 3 3 1 3 1 1 1 1 1 1 1 1 1 1 : * & & & & & & & & & & & & & & & & & & & & & & & ",
"& # # = - ; ; - = # # & & & & & & & & & & & & & & X X @ X X X @ @ X X X @ X X @ & & & & & & & & & & & & & & & & & & & & & & & & ",
"& # # = - ; ; - = # & & & & & & & & & & & & & & @ @ @ @ @ @ X @ @ @ @ @ @ @ & & & & & & & & & & & & & & & & & & & & & & & & & & ",
"& # # = - ; ; - = # # & & & & & & & & & & & & & & & & & & & & & & & & & & & & & & & & & & & & & & & & & & & & & & & & & & & & & ",
"& & # = - ; ; - = # # & & & & & & & & & & & & & & & & & & & & & & & & & & & & & & & & & & & & & & & & & & & & & & & & & & & & & ",
"& # # = - ; ; - = # & & & & & & & & & & & & & & & & & & & & & & & & & & & & & & & & & & & & & & & & & & & & & & & & & & & & & & ",
"& # # = - ; ; - = # & & & & & & & & & & & & & & & & & & & & & & & & & & & & & & & & & & & & & & & & & & & & & & & & & & & & & & ",
"& & # = - ; ; - = # & & & & & & & & & & & & & & & & & & & & & & & & & & & & & & & & & & & & & & & & & & & & & & & & & & & & & & ",
"& # # = - ; ; - = # # & & & & & & & & & & & & & & & & & & & & & & & & & & & & & & & & & & & & & & & & & & & & & & & & & & & & & ",
"& & # = - ; ; - = # & & & & & & & & & & & & & & & & & & & & & & & & & & & & & & = & & & & & & & & & & & & & & & & & & & & & & & ",
"& & # = - ; ; - = # # & & & & & & & & & & & & & & & & & & & & & & & & & & & & & & & & & & & & & & & & & & & & & & & & & & & & & ",
"& # # = - ; ; - = # # & & & & & & & & & & & & & & & & & & & & & & & & & & & & & & & & & & & & & & & & & & & & & & & & & & & & & ",
"& & # = - ; ; - = # & & & & & & & & & & & & & & & & & & & & & & & & & & & & & & & & & & & & & & & & & & & & & & & & & & & & & & ",
"& # # = - ; ; - = # # & & & & & & & & & & & & & & & & & & & & & & & & & & & & & & & & & & & & & & & & & & & & & & & & & & & & & ",
"& & # = - ; ; - = # & & & & & & & & & & & & & & & & & & & & & & & & & & & & & & & & & & & & & & & & & & & & & & & & & & & & & & ",
"& # # = - ; ; - = # & & & & & & & & & & & & & & & & & & & & & & & & & & & & & & & & & & & & & & & & & & & & & & & & & & & & & & "
};
