/* XPM */
static char *exit_resized[] = {
/* columns rows colors chars-per-pixel */
"64 64 91 1 ",
"  c #170611",
". c #190712",
"X c #1D0B16",
"o c #1E0D18",
"O c #200E16",
"+ c #200F18",
"@ c #221017",
"# c #25131A",
"$ c #2E1A1C",
"% c #321E1F",
"& c #2B1722",
"* c #2F1B28",
"= c #331D2D",
"- c #322024",
"; c #372133",
": c #382134",
"> c #3E263C",
", c #432C22",
"< c #482F22",
"1 c #4A3224",
"2 c #4D3729",
"3 c #563F2B",
"4 c #4D3C3B",
"5 c #57402C",
"6 c #5A422D",
"7 c #5A4333",
"8 c #56433D",
"9 c #5A473F",
"0 c #67492C",
"q c #725533",
"w c #755A37",
"e c #7E5D32",
"r c #554543",
"t c #574846",
"y c #594946",
"u c #695342",
"i c #725B45",
"p c #876435",
"a c #8B6A3D",
"s c #997237",
"d c #9B743A",
"f c #A57D3D",
"g c #826A4E",
"h c #827166",
"j c #A48246",
"k c #AF8E4C",
"l c #B78C42",
"z c #BF9A4F",
"x c #A68553",
"c c #C39543",
"v c #C69845",
"b c #C99A46",
"n c #C39848",
"m c #C39D5A",
"M c #D0A44D",
"N c #D6A84F",
"B c #CAA655",
"V c #CBA957",
"C c #CCAA59",
"Z c #D0AC58",
"A c #CFAA65",
"S c #CAAB68",
"D c #D3AD67",
"F c #D4AF68",
"G c #D7B360",
"H c #F2C75F",
"J c #F4C860",
"K c #F8CC63",
"L c #FFDD6B",
"P c #F1CD74",
"I c #FFE16E",
"U c #A29380",
"Y c #AC9A83",
"T c #BFAA88",
"R c #CAB58E",
"E c #CABCA3",
"W c #D7C294",
"Q c #FFDE83",
"! c #F0D599",
"~ c #FFE385",
"^ c #CCC0A6",
"/ c #D7C8AB",
"( c #F1DCAD",
") c #F4E2B1",
"_ c #FFEFB9",
"` c #FFF2BA",
"' c #F2E4C2",
"] c #FFF4CF",
"[ c #FFF6D1",
"{ c #FFF9D4",
"} c #FFFED9",
/* pixels */
"################################################################",
"####$###################$#######################################",
"################################################################",
"############################$#############$################$####",
"################################################################",
"################################################################",
"######################################$##########$##############",
"#############$#######$###################################$######",
"################################################################",
"################################################################",
"############$###################################################",
"#######$#################################&#####$##&#############",
"################$###############################################",
"###########################&#######$############################",
"#############################$##################################",
"##########################################################$#####",
"#####################$##########################################",
"#$#######################################OO#+#++################",
"########################################OOOO+#O+##$#############",
"#######################################-4yyr21<,$###############",
"###$#######$##########################X4U^^Rxfse,+##############",
"#####################################XXt^}}(Dvvf1++#######$#####",
"#####################################XXt^}})Dvvd1+++############",
"##########################$########$,1<uYEETxddp6<1,$###########",
"###################################-pfdauyy43<<0pddp,+##########",
"######################+##++#+&++##o1dbbd<XXO+++<dbbd2+##########",
"###################+#+++#+#+++++Xoo<dbbd<O+#+++<dbbd<++#########",
"###############%,111111<111111111<<0fvvd2++##++2dbbd1+##########",
"###############-edsdddsddddddddddddflvvd1+####+1dvvd1+##########",
"###############1dvcccccccccccnvvvvvcclcd1++###+1dnnd1+##########",
"#####$########o1dcccccclccccvvvvvvcccccs2+###++2dvvd1+##########",
"##########$###o2xDDDAACABMMnfdddddsjmDDx2++###+<dvvd2+########$#",
"#############@@8T((((((!PHHmq<<11<,iR))R8O@####1dvvd1###########",
"######$######@XyE[[][{[_ILLB5Xoo#XXyE{{EyO@##@+1dvcd1X##########",
"#############@@yE{[][[}`QLLV5oo#+OXtE{{EtO####O1dcvd1#o#########",
"#############@XyE[]'/EEWPLLB6o###OO9R``RyX+###+2fNNf2o##########",
"#############@OyE[{/hrriDLLB6o###oo7S~~S7+####o3zKKz3+##########",
"#############@OyE[{Er  3BLLB5#o###o6VLLV3XX++oX5VIIC7oo#########",
"#############@@tE}{Er.X5CILC5o####o6VIIV3XX+oXX3VIIC6o##########",
"#############@+9R``RyXX2jZCj2o#####2jCVkw336755wkCCj2###########",
"##############+7S~IS8Xo%2662$######$265wkVVBVVVkw352-##########$",
"##############+6BIIV6####oo#########oXX5CIILLLIV3XX#############",
"#############++6BIIV6o###o###########XX6CILLLIIC5XX#############",
"###$##########o2jZZj2oo###############o2jVVVVVCj2o@#############",
"###############$2662%##################%27666662%###############",
"#################+++####################oooooooo################",
"################+#########################o###o######$##########",
"#$##########################&###################################",
"####################$###########################################",
"#######################################&########################",
"###########################################$####################",
"####################################################$###########",
"################################################################",
"############################$####$##############################",
"##############################################################$#",
"$&&&$&&&$#######################################################",
";:::;:;=&#####################$##############$##################",
">>>>>>>:&##############$########################################",
">>>>>>>:&#######################################################",
";;:::>>;&######################################################$",
"&$&*:>>;&############$################$###############$#########",
"###&;>>:&#######################################################",
"#@#&;>>:&#######################################$###############",
"###&:>>:$#######################################################"
};
