/* XPM */
static char *left_1_resized[] = {
/* columns rows colors chars-per-pixel */
"64 64 210 2 ",
"   c #251317",
".  c #25131A",
"X  c #29151D",
"o  c #29151B",
"O  c #1E1B27",
"+  c #251622",
"@  c #2A1722",
"#  c #251A25",
"$  c #2C1924",
"%  c #261C29",
"&  c #2D1C2B",
"*  c #301B26",
"=  c #331E2C",
"-  c #381F2F",
";  c #2C1E31",
":  c #361F31",
">  c #391F32",
",  c #26202D",
"<  c #2B212D",
"1  c #35202E",
"2  c #39202F",
"3  c #242332",
"4  c #2C2433",
"5  c #2D2937",
"6  c #2D263A",
"7  c #2B2B3B",
"8  c #252737",
"9  c #352133",
"0  c #3A2335",
"q  c #342936",
"w  c #322639",
"e  c #3D253B",
"r  c #332C3C",
"t  c #3B283B",
"y  c #31303F",
"u  c #402437",
"i  c #40243A",
"p  c #2C2E42",
"a  c #272E40",
"s  c #3D2540",
"d  c #352E41",
"f  c #392E45",
"g  c #2D3344",
"h  c #2F3847",
"j  c #2C3549",
"k  c #2E3A4C",
"l  c #333344",
"z  c #3B3445",
"x  c #343549",
"c  c #343B4D",
"v  c #3B3B4D",
"b  c #3F3846",
"n  c #2E3D52",
"m  c #2E3F58",
"M  c #333D51",
"N  c #3C3E51",
"B  c #433B4C",
"V  c #403444",
"C  c #463D56",
"Z  c #3A404F",
"A  c #2F4157",
"S  c #344255",
"D  c #3C4254",
"F  c #33455B",
"G  c #3C465A",
"H  c #3C4A5D",
"J  c #32495F",
"K  c #364C63",
"L  c #3B4C63",
"P  c #3C5166",
"I  c #3B526B",
"U  c #345067",
"Y  c #3D5B74",
"T  c #3F5D79",
"R  c #444354",
"E  c #414B5D",
"W  c #464757",
"Q  c #46434F",
"!  c #434C61",
"~  c #4A4B62",
"^  c #435164",
"/  c #45556C",
"(  c #4B566A",
")  c #4B596D",
"_  c #485161",
"`  c #545668",
"'  c #435B73",
"]  c #4B5D74",
"[  c #475B76",
"{  c #515D72",
"}  c #416077",
"|  c #4C6277",
" . c #45627B",
".. c #4C647C",
"X. c #4E687F",
"o. c #51647A",
"O. c #576577",
"+. c #5F707E",
"@. c #626C7D",
"#. c #616575",
"$. c #60717F",
"%. c #446582",
"&. c #4B6782",
"*. c #4C6B84",
"=. c #4C6D8A",
"-. c #446C87",
";. c #546A83",
":. c #546D8A",
">. c #556985",
",. c #4C728D",
"<. c #54738D",
"1. c #5B748C",
"2. c #5F7185",
"3. c #4D7291",
"4. c #4F7A9B",
"5. c #4E7C97",
"6. c #537593",
"7. c #547A95",
"8. c #5A7A96",
"9. c #547C9B",
"0. c #5B7E9D",
"q. c #5A7693",
"w. c #616E80",
"e. c #627282",
"r. c #6D7888",
"t. c #737E8F",
"y. c #617A94",
"u. c #4F829E",
"i. c #53809E",
"p. c #5C819E",
"a. c #61839D",
"s. c #6D8398",
"d. c #778798",
"f. c #4F81A0",
"g. c #5384A3",
"h. c #5B83A3",
"j. c #5587A9",
"k. c #5C8CAC",
"l. c #5789A8",
"z. c #5C8DB1",
"x. c #5C92B5",
"c. c #5E95BD",
"v. c #5E9ABB",
"b. c #6285A3",
"n. c #638DAC",
"m. c #698AA6",
"M. c #748DA3",
"N. c #6490AF",
"B. c #6D93AD",
"V. c #7894AA",
"C. c #648EB1",
"Z. c #6292B3",
"A. c #6396BB",
"S. c #629ABD",
"D. c #6A9ABB",
"F. c #6C98B3",
"G. c #789CB5",
"H. c #6BA1BF",
"J. c #7BA3BD",
"K. c #5D9CC1",
"L. c #639DC3",
"P. c #689EC4",
"I. c #629EC8",
"U. c #5FA1C5",
"Y. c #63A1C6",
"T. c #6AA1C5",
"R. c #64A4CA",
"E. c #6AA5CB",
"W. c #65A9CE",
"Q. c #6AAACD",
"!. c #75A5C5",
"~. c #77A8C8",
"^. c #7BB1CE",
"/. c #64ABD2",
"(. c #68ABD3",
"). c #68A7D0",
"_. c #72ADD2",
"`. c #74B3D5",
"'. c #7AB3D4",
"]. c #7AB8D9",
"[. c #889DAF",
"{. c #839AAB",
"}. c #859DB2",
"|. c #8AA4B4",
" X c #83A3BA",
".X c #88A3B6",
"XX c #88ADC4",
"oX c #91AFC4",
"OX c #85B2CE",
"+X c #94B2C5",
"@X c #9BB9CD",
"#X c #84B8D6",
"$X c #8ABEDB",
"%X c #85B9D7",
"&X c #92BCD4",
"*X c #9ABED4",
"=X c #90B7D1",
"-X c #8BC2DE",
";X c #86C1DE",
":X c #9DC0D3",
">X c #92C3DD",
",X c #9AC6DD",
"<X c #A1C3D4",
"1X c #A4CBDE",
"2X c #91C7E1",
"3X c #9BCBE2",
"4X c #8BC3E0",
"5X c #A1CEE4",
"6X c #A8CEE4",
"7X c #A5D1E5",
/* pixels */
".                     .   . . . .     .     . .               . . .               +                     . . .     .           . ",
". .     . .   O     . . . . . o . . . . . . . . o .           . o . .     o     . .   +   . . o o o . X . . . . . . . .   + . . ",
"X . O   . X . . + . . . . o o . o o X . . o . o X o X X . . . . . o . . o o X X . + X . . . . . X X @ . o X o o . . . . . . . O ",
"$ $ + + X $ $ $ + + + $ # $ $ X X X $ X # $ $ # $ $ $ $ $ + $ $ $ X $ $ X @ @ $ $ $ # X # + $ $ @ @ $ @ $ X $ X $ X $ $ + .     ",
"< 1 = * 1 * = = = = & = 1 < * 1 = * * = = = = * = = = * = = & & < & * = = * = * * = * 1 & & = & = * = = * = * = * * = * # @ X   ",
"1 1 1 1 1 1 1 = = = = = 1 1 1 1 : = 1 1 = = - - = 1 9 : 9 : 1 1 1 < 1 = = = = - 2 2 2 1 1 9 9 ; : : = - = - 1 1 1 1 1 - & $ @   ",
"1 1 1 1 1 9 9 : 9 : = 0 0 1 1 1 : : - > - - - > 9 : : : : = 0 9 * & % & = = - - - 2 = 1 0 9 9 : : : : : > : : - 2 1 = = * $ X . ",
"* 1 1 1 9 0 0 0 0 0 0 9 0 q 2 2 0 > 0 > > > > : : 0 9 : : - = = 1 < % & & = : 2 2 0 0 2 0 0 > > 0 : > 0 : > 0 0 0 2 > = = $ @ X ",
"- = = : 0 0 0 e 0 e e e > > e e w e e e > e 0 u 0 0 1 q 2 2 2 1 q 5 q 7 6 : w > : e > e > e e e s > e > e 0 e e 0 0 : = = * X o ",
"= - : 0 w e e e e e e e e e e t e e t e i i i i 0 9 = 1 < 1 < 1 r x D v f d 6 : : > u u u i i e i e i i e e e t 0 0 0 = = * @   ",
"= : 9 0 e e e e e e e e e e e e e e e e i i i e 0 1 < % # # # 5 v E { { ! x 8 ; = 2 u u u u i s e e e s e e e e e 0 9 = - * X . ",
"= - 9 9 0 e e t e e e s e e e w t t e e i i e > 9 4 4 4 , , 8 h H | y.y.[ K p 8 9 0 > u i i e > V > e e e e e e e 0 0 1 = * X . ",
"1 1 - 0 0 e e e t t e e e e e w e e e e e e 0 0 7 y g c h Z Z ^ ..8.m.m.6.T m j g w 0 0 0 e s s i s s s s e e e e e 0 : = * X . ",
"1 1 = - 0 e 0 e e e e e e 0 0 e e e e 0 > : : 5 y v H / ] o.O.1.a.Z.D.D.h.3.T L v y 9 = > > > s s > i s s e s e t 0 : = = * o   ",
"1 1 2 1 9 0 e e e e e e 0 0 0 e e e e e > > & 6 h H o.y.a.V.V.G.!.!.E.P.A.k.9.&.L l q & > e e s s > s i s s e t e 0 : = - * X o ",
"1 1 1 2 9 9 9 0 e e w 0 0 q 0 0 e > e : e s 5 y S ) p.B.J.XX=X>X%XOX_._.E.L.C.q./ x < # ; > > s s s V > e s s t t 0 : > * * o . ",
"1 1 = : : : > > : : w > 9 : : : > > > > w r x G ' ,.k.H.^.;X,X,X2X4X].`.`.E.D.p.Y k 3 + @ = : 0 > s > s s s s i > > - = = * X . ",
"1 = = = : : : : : : > : : : : : > > > ; 7 c ! ] ,.u.v.Q.^.-X3X3X3X2X4X%X].Q.H.h.Y k 3 O + & & : > > : s s s s i V > > - = * X X ",
"2 = - = : : > > : : : > : : : = > > ; 8 g H &.p.x.H.U.Q.`.;X3X7X5X3X3X2X%X`.H.h.' A 8 O # % % < ; : s e > s s e > > > > = @ X . ",
"0 0 0 0 e > 9 0 e : e > 0 : : : e w 7 j J Y 9.Z.Y.Q.Q.`.].-X3X7X7X7X5X3X-X#XH.n.*.P k a 7 7 7 q w e s > i V > s i > > > = @ + . ",
"0 0 0 e e : e e e e e > e 0 : : 9 y M P T 3.z.I.Q.`.`.'.;X2X7X7X7X7X7X5X>X-XOXG.p.*.} P P E H Z f w 0 > > e > e e 0 : : & @ X . ",
"e 0 e e e e e e e e e e e > : : q x P %.4.j.c.R._.].;X;X>X2X1X1X6X6X1X1X,X:X=X~.F.p.u.<.<.,.../ N d 6 9 > > > e > 0 : = - @ X X ",
"e e e e e e e w e e e e > > & ; 5 v | 8.z.L.L.P.H.^.OX>X:X:X<X<X<X<X<X:X:X>X>X=X^.H.H.N.Z.N.p.X.L x 7 9 s e e e e > > : & * X . ",
"0 e e e e e e e e e e w e : & ; 7 S ;.b.A.S.c.z.N.B.V.|.G.|.|.|.|.|.|.[.|..X XJ.H.H.Q.Y.Q.T.v.i.| ! D z s e w e e 0 > : = * X . ",
"t e e e e s e t e t i e s : ; % 8 S :.b.Z.z.4.-.&.o.O.2.+.+.+.$.2.$.$.$.@.2.q.p.n.S.E.W.W.W.Y.x.s.$.O.W z 9 : > > 0 9 & 1 * X . ",
"e e e e e e i s e s e e > : & ; 8 S X.p.b.9.%.I L N G W H H H E ^ E E E W E ^  .7.k.L.E.W.W.Q.Q.J.V.d.O.v 5 ; : 9 0 9 9 = & X X ",
"e e e e e s i e e e e e e : & % 8 S | <.q.=.I m j y h h Z h Z h Z k h c g j A K  .7.N.H.T.Q.'.#X&X+X{.@.R 4 & * 9 0 9 : - * X . ",
"e e e e e t s s i e e e > > & & 3 y H ] &.[ U F A S S S S A A F A J S S M c M J Y -.7.k.D.~.#X>X,X:X|.r.R q & & 9 0 9 4 = * o o ",
"e e e e e e e e e e e 0 0 2 * @ , , h S J P I I Y } X.*.*.*.,.=.=.=.>.&.] [ / I I I Y ,.m.XX&X1X6X<X|.t.R q & = : 0 w : = * X o ",
"e e e e e e e e e e e e e 1 & @ X , 8 g A K [ &.<.7.h.l.k.x.z.z.k.k.k.b.0.9.:.[ I K K ..m.XX*X1X1X@X[.r.R 0 * * : 0 9 : = * o   ",
"e e e e e e e i e i e e 0 - * $ X & < y S I &.9.l.x.v.K.U.U.U.W.P.I.I.L.A.z.0.=.Y K P ..M.oX*X<X@X|.d.#.B 9 * = 0 w > : = * o o ",
"e e e i e e e e e e e 0 0 = $ $ # < y v H } 5.l.A.I.R./././././.(.(.).).I.L.C.4.%.Y } <.V.oX@X+X[.d.#.` z > : : 0 > > = = * o o ",
"e e i e e e e t e 0 e 0 > : & @ & q Z _ o.6.l.A.K.U.U././././././.(.(.(.).I.S.z.4.3.4.0. X@X+X[.r.` W V r q 9 9 e 0 1 1 = $ X   ",
"i e e e e e e i t e t e e : & & < r Q ( ;.8.n.A.I.W././.U.U.U.U.K.R.R.R.I.L.L.x.z.0.0.m.}.}.[.d.` B i u 9 q 0 t t 0 0 1 1 * X o ",
"e e i t e e e e e e e e 0 : & & % w v _ | <.i.z.K.I.U.U.K.x.j.g.j.z.z.z.Z.Z.C.k.C.0.0.t.M.M.t.#.Q q < < 1 0 0 e 0 0 q 1 1 $ X . ",
"e e e e e e e e e e e w 0 : & $ # < y Z ! | <.i.z.K.U.U.x.u.-. .-.3.9.0.0.0.0.h.0.0.0.y.y.#.` W q < < < q 0 w e t 9 2 = 1 & X . ",
"e e e e e e e e e e e 0 0 9 & @ $ # , 8 x G / &.4.z.L.K.u.-.U A L / &.>.>.>.:.:.q.q.1.>.( R z w < X # & 9 0 w e 0 0 9 1 1 < o   ",
"e e e e e e e e e e t t 0 9 * @ . . O # 3 r D / =.9.z.z.u.} S 7 x C ~ ~ ` ] ] >.:.:.>.] G l : @ # X & & 9 e 0 e e 0 0 1 1 $ X   ",
"e e e s e e u e 0 e t e 0 : & +       . % q d D [ 3.k.z.,.Y h 8 6 f C C C C C / ] >.o.] D 7 % + $ & = : 0 e e e e 0 2 = 1 $ o . ",
"i i e e e e e u t e t e 0 = * @ .     O # & 5 x L &.j.k.u.Y y O ; ; f f f f M G [ o.o.) M 8 # + $ 1 1 0 e e e e e 0 1 1 1 & .   ",
"e e e e e e e i e t i t 9 2 = $ . . . # % % , g J %.j.x.u.Y k 3 ; 8 8 8 6 6 a k P ] o.( c 6 % & = > > s i s i > 0 0 1 1 = * o   ",
"e e e i e e e e e e t t 0 1 & $ + $ & 4 7 l p k I -.j.x.f. .U n n j j j g l g M L / ( ! x 6 ; = > > s i i > s i t 0 0 1 1 * .   ",
"e e e e e e e e e e t 0 0 9 & $ % 4 d N G ! / ' =.f.x.v.x.u.-.} Y Y Y / L L H H H H G v d 0 > > > i i i s > > V e 0 q = 1 & X . ",
"e e e e s e e e e i t e 0 1 & & & 7 v ~ ] >.:.q.h.k.v.H.v.x.u.u.4.4.6.:.;.| ) ! G v x 7 w e > > > i i > i V V t t 0 0 = 1 < .   ",
"e i e e e e i e e e e t 0 : & & ; d R ( >.q.b.m.Z.Z.A.S.v.S.L.v.L.A.C.n.y.1.o.( D l 6 6 : : 0 i i i i > e e t e t 0 0 1 1 < o   ",
"e e e e e e e e u e t e e 9 = = 9 d C ( &.q.m.C.Z.n.h.l.l.x.Y.E.I.I.L.C.y.1.{ ! v r ; ; : e 0 e s i > V e s s e e 0 1 1 1 X o   ",
"e e e e e e e i e e t e e 0 9 1 1 q d N L &.6.0.0.6.%. .,.g.A.E.P.P.C.h.=.[ L v d w 9 : : e e e i > s i e e e e e 0 q = 1 * o o ",
"e e e e e e e e e e e e e w 0 9 : q 4 p M L &.:.;.' K J Y =.k.D.L.C.0.3.[ K j 6 w e e w e e e w > V > s s e e e t 0 1 1 1 * X   ",
"e s e e e e e e e e e t e e e e 0 1 < 4 7 v _ { ( E k j F ' 6.p.0.q.>.%.L x a ; : q 0 0 w e e e V s i s > s s > V > 9 1 = $ o . ",
"e i e e e e e e e e i e e e e e e 2 1 4 4 l Z R R v a 7 j H ] | &.%./ L M p ; ; : 0 e e t e t e > s s > s i s i s > 9 9 1 & X   ",
"i e e e s e e e i e e e e e e e i e q q 5 w r l d r w 6 p g c S M M j x f 6 s : 0 e e e e t t e s V s s s s V > > > > > 1 * o   ",
"e e e e e e i i e e e e e e e u u u 9 9 9 4 5 9 9 9 w w 6 7 7 7 a ; 6 6 ; > > > e e e e e e t e > > i s > s i s V > > > 1 * o   ",
"e e i e e e e e e e e e u e i i u e e q 0 4 ; & ; : > e : w ; & ; & & ; > > > i e t e e e t t t s s s s i s s s e t 2 1 1 * o   ",
"e e e e e e e e e e e e e e i 0 u u e 0 0 9 : * = > > u : > : * = * & = > > > V e e e e e e e t > i > V > s > s e 9 1 1 1 $ o   ",
"e e i e e e e e e e e e i e e e u u e e 0 0 0 0 > u u u e e : : > > > > > i > i V i e e e e e t V s i > s i s i e 9 2 1 1 * o   ",
"e e e e e e e e e e e e e e e e e u e e e t 0 e i u u u i i e 0 u u u > i i s V > e e e u t 0 t > s i s s s > V t 0 1 1 1 & X . ",
"e e i e e e i e e e e e e e e e i i i e e e e e e e e e e e t e i > e > i e s s s e e e e e 0 u e e e s s e s e e 0 q = = * o   ",
"i e e e e e e e e i e e i e e i e e e e e e e e e e e e e e t e s i e e s s s s s e e e e e e u e e e e e s e e e 0 1 1 = * o   ",
"e e e e e e e e e e e e e e e e e e e e e s e s e e s e t t t t e s e s s s s s s e e e e u 0 e e e e e e s s e t e 2 1 1 * o   ",
"e e e e e s e e e i e e e e e e e e e e e i s e e e t s t e s s s e s e s s s s e e e e e e u u e e s e e e e e e 9 2 1 1 * o o ",
"e e e e e e e e e e e i e e e e e e e e e e e e w e t t > s s > t e e e e e e e i e e e e e e e e e s e s e s s e 0 9 1 1 * o   ",
"e e e e e e e i e e s e i e e e e e e e i i e e e e t e i s i s e e e e e e e e e e e e e t e e e e e s e e e e e 0 2 1 1 $ o   ",
"e e e e e e e i e e e e e e e e e e e e i i i e e e e e i i i > e e e e e e i i i e e e t e e e e e e s e s e e e 0 0 1 1 * o   ",
"i i e e e e e e e e e e e e e e e 0 e e e i i i e e e e i V i i i i e i 0 > i i i e t e t e s e e e e e e e e e e 0 1 1 1 & o   "
};
