/* XPM */
static char *right_3_resized[] = {
/* columns rows colors chars-per-pixel */
"64 64 184 2 ",
"   c #25141A",
".  c #28151E",
"X  c #2A1721",
"o  c #271821",
"O  c #2C1A25",
"+  c #2D1D29",
"@  c #301A27",
"#  c #341D2C",
"$  c #361F30",
"%  c #381F31",
"&  c #2D212D",
"*  c #31222D",
"=  c #2E2532",
"-  c #2F2936",
";  c #2F2C39",
":  c #352233",
">  c #392135",
",  c #322A36",
"<  c #362738",
"1  c #3D253B",
"2  c #342C3B",
"3  c #3C293C",
"4  c #35313E",
"5  c #39323D",
"6  c #362E40",
"7  c #382F42",
"8  c #353344",
"9  c #393543",
"0  c #363748",
"q  c #383649",
"w  c #363A4B",
"e  c #393B4D",
"r  c #3F3A45",
"t  c #373E50",
"y  c #3A3E51",
"u  c #403746",
"i  c #403C47",
"p  c #423D4B",
"a  c #403E55",
"s  c #3A4255",
"d  c #3C465A",
"f  c #3C495D",
"g  c #3E4C62",
"h  c #3E5065",
"j  c #3E5369",
"k  c #44424C",
"l  c #434857",
"z  c #4B4A56",
"x  c #43445B",
"c  c #444C5C",
"v  c #444350",
"b  c #4C515F",
"n  c #424760",
"m  c #414D65",
"M  c #4B4F6C",
"N  c #4A4A63",
"B  c #405167",
"V  c #42546B",
"C  c #49556C",
"Z  c #4E5360",
"A  c #515561",
"S  c #555967",
"D  c #545D6B",
"F  c #585D6B",
"G  c #4D5572",
"H  c #445B73",
"J  c #4C5A77",
"K  c #465E79",
"L  c #495E7A",
"P  c #525B7B",
"I  c #59626F",
"U  c #46637D",
"Y  c #49637D",
"T  c #5C6574",
"R  c #606D7D",
"E  c #476781",
"W  c #4A6682",
"Q  c #476883",
"!  c #4A6A85",
"~  c #4C6D8B",
"^  c #526485",
"/  c #556D83",
"(  c #586B8F",
")  c #596D88",
"_  c #4C718E",
"`  c #51748E",
"'  c #5A7489",
"]  c #526F91",
"[  c #596E94",
"{  c #4D7492",
"}  c #4D7896",
"|  c #4F7A99",
" . c #517494",
".. c #587095",
"X. c #527895",
"o. c #56779B",
"O. c #587599",
"+. c #527C9D",
"@. c #587992",
"#. c #647282",
"$. c #6E7E8D",
"%. c #667888",
"&. c #547FA0",
"*. c #587FA4",
"=. c #58819E",
"-. c #6D8395",
";. c #728493",
":. c #718698",
">. c #738A9C",
",. c #7A8E9E",
"<. c #5383A4",
"1. c #5A84A3",
"2. c #5586A8",
"3. c #5B85AB",
"4. c #568AAC",
"5. c #5C8DAE",
"6. c #568EB0",
"7. c #598DB1",
"8. c #5790B3",
"9. c #5992B5",
"0. c #5B96BA",
"q. c #5B99BE",
"w. c #648EA9",
"e. c #698CA4",
"r. c #6291AF",
"t. c #7294AB",
"y. c #7B98AC",
"u. c #7891A4",
"i. c #6495B2",
"p. c #6D9DBA",
"a. c #6598B7",
"s. c #70A0BC",
"d. c #7AA3BB",
"f. c #5D9DC3",
"g. c #609EC2",
"h. c #5EA0C7",
"j. c #5FA2C9",
"k. c #64A2C5",
"l. c #61A5CC",
"z. c #69A6C8",
"x. c #67A9CE",
"c. c #6DA9CB",
"v. c #73A5C2",
"b. c #74A8C6",
"n. c #7BA9C4",
"m. c #75ADCD",
"M. c #79ADCA",
"N. c #62ABD4",
"B. c #69ACD1",
"V. c #72AFD1",
"C. c #6BB1D7",
"Z. c #72B1D4",
"A. c #7CB5D5",
"S. c #74B5D8",
"D. c #7CBADB",
"F. c #829BAC",
"G. c #869FB0",
"H. c #8FADBF",
"J. c #86A7BB",
"K. c #82A9C1",
"L. c #8DAEC1",
"P. c #90AFC1",
"I. c #8FB1C5",
"U. c #83B2CD",
"Y. c #8AB2C9",
"T. c #92B1C4",
"R. c #95B9CD",
"E. c #82B7D4",
"W. c #85B9D5",
"Q. c #85BDDC",
"!. c #88BFDD",
"~. c #90BED6",
"^. c #98BFD4",
"/. c #88C0DE",
"(. c #92C2DC",
"). c #9AC6DC",
"_. c #9FC8DE",
"`. c #99C2D7",
"'. c #A2CADF",
"]. c #93C5E0",
"[. c #96C8E2",
"{. c #9CCAE2",
"}. c #A2CEE5",
"|. c #A6D0E6",
/* pixels */
"                                                                                                                                ",
"                                                                                                                                ",
"        . .   .       .   .                             .     .       .   .     .           .   .         .   o                 ",
"        . X X X   . X X . . . . X X X X . X X X O X X X X X . . . . X X . . . . X X X X   . X X X X . . X X o o   X X X X X X X ",
"      X O # # @ @ @ @ @ # @ @ @ + @ @ + @ @ @ @ @ @ # @ # @ # # @ # # # # @ @ # @ # @ @ # @ @ # # @ # # @ # # # + # # @ @ @ @ # ",
"      . # # # % > # > % * % * > $ $ % % % # $ $ # % # % # # # % % % # # * % > # $ $ $ $ $ $ $ $ $ $ $ $ $ $ $ $ # # % # $ $ # $ ",
"        @ # # % # > % # % # % % $ $ $ $ # @ @ @ @ # % # : % # # # % > # % # # % $ $ $ $ $ $ % % $ $ $ % $ $ $ $ % % % # % % $ # ",
"        # # * % % > > % > > % > : % % % % # + + # # % : # : # % # > # % > > > > < % % % $ $ % % $ $ % % $ $ $ % < % % % % % # $ ",
"    . . @ # # % > > 1 1 > 1 > 1 > > > > < & & & + % % < % * * * > > > > > 1 > % 1 > 1 > 1 1 1 1 > 1 1 1 1 1 > 1 > > > > % % % % ",
"    . . # # % > > 1 1 1 1 1 1 1 1 % > > < 7 8 q 6 < < # # @ * & # > > > < 1 1 6 u > 1 1 1 1 1 1 1 1 1 1 1 1 1 1 1 1 1 > % % % % ",
"    . . @ > % > 1 1 1 1 1 1 1 1 > < $ : q d j j d 8 : O X X   o O # # % > 1 1 1 1 1 1 1 1 1 1 1 1 1 1 1 1 1 1 1 1 1 1 1 % % # % ",
"    . . @ # # > 1 1 1 1 1 1 1 > % $ + = e V _ _ H y , O + + & & + + + : > > 1 > 1 1 1 1 1 1 1 1 1 1 1 1 1 1 1 1 1 1 1 > < % % # ",
"      . @ > # > 1 1 1 1 1 1 1 1 > $ O = s U <.<.~ j 0 - - - - - 2 2 2 : : : > > % > 6 1 1 1 1 1 1 1 1 1 1 1 1 1 u 1 1 > % % # # ",
"      . @ % % > 1 1 1 1 1 1 1 1 % + o = s Q 8.0.&.Q j d f f f f f s t 9 , : % # % % % % 1 1 1 1 1 1 1 1 1 1 1 1 % 1 1 1 % % # % ",
"      . @ % % > 1 1 1 1 1 1 1 1 : + o = s Q 8.f.9.2.| { ` { { { { ~ H d 8 + O O @ @ $ $ % 1 1 1 1 1 1 1 1 1 1 1 1 1 > > : % % % ",
"    . O @ % % > 1 1 1 1 > 1 1 1 : = o = s E 2.f.q.q.9.9.0.0.9.0.0.5.| U e 2 = + # # $ $ 1 1 1 1 1 > 1 1 1 > > 6 % % % < % # % # ",
"      . * > # % 1 < 1 > > > 1 > > % + = t V { 4.8.q.j.j.B.B.C.Z.V.v.r.` V s w 8 0 7 6 6 < < % < % % % % % % % % % % $ $ $ % % % ",
"    . . * # > % < > % # # % > % > % $ : 8 d H ~ <.9.j.C.S.D.Q././.E.b.r.` U H V j g y 7 % $ % $ % % % % $ % $ $ % % $ $ $ $ % # ",
"      . @ # > % > > * # @ # % < 1 > > : < 7 w g ! 4.k.C.D./.[.[.[./.E.b.i.2.<.<.&.~ j y - # $ $ % % % % $ $ % % % % % $ $ $ $ $ ",
"        @ % # % : : : : , : : < > > > < < 2 8 d U 1.z.A./.(.{.}.|.{.).W.m.z.k.h.f.2.E y = o : $ 6 % % % % % % % % % 6 $ % % $ % ",
"      X @ > @ * : , 8 e e 0 5 , $ $ $ : 6 w d H @.i.m./.(.{.}.|.|.}.).(.Q.A.C.B.j.6.Q d = o # $ % 1 % 1 1 1 1 1 1 1 1 1 6 % 1 % ",
"    . X @ > @ @ : 4 d V H B 0 , + + + , 0 d H ` w.s.W./.{.'.}.|.|.}.}.[.(./.D.Z.l.8.Q s = o # $ % 1 1 1 1 1 1 1 1 1 1 1 1 1 1 7 ",
"    . X @ > @ @ * 0 V _ { W s ; & + + - s H +.i.v.A.(.).)._.'.'.'._._.).)./.W.Z.l.4.Q f - + & $ 1 1 1 1 u 1 1 1 1 1 1 1 1 1 1 1 ",
"      X @ @ @ @ * e Y =.5.=.D s 8 2 2 w j { 8.k.b.n.J.H.I.H.H.H.I.H.H.I.H.J.d.p.8.<.E g 0 6 < < % 1 1 1 % 1 1 1 1 1 1 1 1 1 1 1 ",
"        @ * @ X * i T r.s.a.=.Y j j j K _ <.q.q.a.e.-.;.;.$.;.;.$.$.-.;.%.-.#.' ! E K j j g w ; % % > 1 1 1 1 1 1 1 1 1 1 1 1 1 ",
"      . @ @ @ @ * k ' t.d.n.r.=.+.} } &.4.9.h.0.=.' I Z A A b Z Z Z A b A b b c g g H E Q H s 6 % % % 1 1 1 1 1 1 1 1 1 1 1 1 1 ",
"    . X @ @ X @ * i R u.Y.U.c.s.g.q.f.f.k.q.q.4./ B s , 4 4 9 9 9 9 9 5 4 4 4 4 8 t j Q } Q g 8 # @ > 1 1 1 1 1 1 1 1 1 1 1 1 1 ",
"      X @ * @ @ * r S ;.y.d.M.Z.S.S.S.V.z.a.4._ U d s 4 0 0 w w e w s w s s 0 4 8 y j W ~ E d 6 @ X > 1 1 1 1 1 1 1 1 1 1 1 1 1 ",
"      X * @ @ @ . , k S R ,.d.U.W./.!.A.s.=.! H j h B V H U U U U U U U U U H j j g j j j t 8 = O O $ % 1 1 1 1 1 1 1 1 1 1 1 1 ",
"    . X * @ @ X . * , k b R y.Y.(.).(.L.t.%.C d h H Y _ X.+.<.2.4.<.4.4.<.<.=.{ ! K j g w 6 & + X O % % 1 1 1 1 1 1 1 1 1 1 1 1 ",
"      . @ # @ X . . O * k I ,.H.^.`.R.J.:.T c s h U X.1.8.0.h.h.h.h.h.h.h.f.8.6.&._ j g 0 = + X X O $ % 1 1 1 1 1 1 1 1 1 1 1 1 ",
"      . @ # # @ O . . O 5 A ,.H.R.T.J.;.#.D c f U ` 2.0.h.l.N.N.N.N.N.N.N.N.j.f.f.&.~ j t 8 = O X @ % % 1 1 1 u 1 1 1 1 1 1 1 1 ",
"    . X # # # # # @ . O 3 S ,.P.P.F.%.F G M H L O.*.0.j.l.N.N.N.N.N.N.N.N.N.j.j.f.f.o.~ j n 8 = O O $ % 1 1 1 1 1 1 1 1 1 1 1 1 ",
"    . X @ % % # % * @ + 3 S $.G.F.$.S v g j W } *.*.f.f.j.l.l.l.j.j.h.h.N.N.N.j.h.f.*.} W j q = O O $ 1 1 1 1 1 1 1 1 1 1 1 1 1 ",
"      . # # % > > > # # 3 z #.:.$.T p 6 e m ! o.*.f.f.f.f.f.f.*.8.4.8.8.h.j.j.h.f.*.o.~ W n q = O O # % 1 1 1 1 1 1 1 1 1 1 1 1 ",
"    . X @ % # : > > > * 3 p S F F z 2 : q m ] o.*.*.3.*.*.*.*..._ _ =.<.q.h.h.q.7.o.] W g y 6 + O O # 1 1 1 1 1 1 1 1 1 1 1 1 7 ",
"      . # # : > 1 1 > > 6 u u u 9 , * * q j ~ o.........( ( ^ W g g j _ 6.q.0.4.o.^ G d 8 - & o o O $ % 1 1 1 1 1 1 1 1 1 1 1 u ",
"      . # # # > > 1 1 < 1 % % # * O . & 0 n ! ..( ^ ^ ^ ^ G M a 8 8 s U 2.q.4.=.^ M y 6 & o o o . O $ 1 1 1 1 1 1 1 1 1 1 1 1 1 ",
"      . @ # % > 1 1 1 1 1 % % # & O . & q j W ( ^ G n a n n y 8 = = w j <.9.2.{ j a 6 = o       . O $ % 1 1 1 1 1 1 1 1 1 1 1 1 ",
"    . . # # % > > 1 1 1 % % % % @ .   & q n W ^ ^ N u u 6 6 6 = + & 0 H <.7.&.W n 8 = + o       . O $ % 1 1 1 1 1 1 1 1 1 1 1 1 ",
"    . . * # > > 1 1 1 1 1 1 1 % * @ O + 0 m W W j a 6 = = = & + O = w H <.6.} H s - & o o     o . @ % 1 1 1 1 1 1 1 1 1 1 1 1 1 ",
"    . . @ * % % > 1 1 1 1 1 1 1 > # O * 8 f H J m t 6 - 2 2 6 6 ; w g E 4.8.<.U s 8 ; - = & o o . X % 1 1 1 u 1 1 1 1 1 1 1 1 1 ",
"      . @ # % > 1 1 1 1 1 1 1 1 > # # * 3 e d n n d d d g j j j j j E } 8.f.6.} U j h d t 0 = + . @ 1 1 1 1 1 1 1 1 1 1 1 1 1 1 ",
"      . # # % % 1 1 1 1 1 1 1 1 > > > : < 2 8 e d g H L Q ~ _ { | | <.6.q.f.q.4.| { Q U j d 8 & X @ 1 1 1 1 1 1 1 1 1 1 1 1 1 1 ",
"    . . @ > # > 1 u > 1 1 1 1 1 1 1 1 > < : = 2 t j W ] &.&.*.f.f.q.f.f.f.f.h.f.f.6.&.| Q j w 6 @ @ % % 1 1 1 1 1 1 1 1 1 1 1 1 ",
"    . X # # # > % 1 1 1 1 1 1 1 1 1 1 > % # + : w n L ] &.f.f.f.N.j.h.q.4.2.8.8.f.8.*.{ W j q < # @ % 1 1 1 1 1 1 1 1 1 1 1 1 1 ",
"      . # # % > > 6 1 1 1 1 1 1 1 1 1 1 % < # : 6 q d H _ &.f.f.j.j.q.<.Q E _ } <.&.{ K g y 6 < % % % 1 1 1 1 1 1 1 1 1 1 1 1 1 ",
"    . . # % # > 1 1 1 1 1 1 1 1 1 1 1 1 > > < > < 6 6 s K { &.f.f.q.2._ j g j U { _ K g q < < < % 1 % 1 1 1 1 1 1 1 1 1 1 1 1 1 ",
"      . @ > > > > 1 1 1 1 1 1 1 1 1 1 1 1 1 1 1 1 1 > 1 n K ] &.*.&.} K t 8 t n W ^ n a 1 % 1 1 1 1 1 1 1 1 1 1 1 1 1 1 1 1 1 1 ",
"      . @ % # > > 1 1 1 1 1 1 1 1 1 1 1 1 1 1 1 1 1 % 1 y n j L _ Q K n 6 < 6 y a n a 1 % 1 1 1 1 1 1 1 1 1 1 1 1 1 1 1 1 1 1 1 ",
"      . @ > # > 1 1 1 1 1 1 1 1 1 1 1 1 1 1 1 1 > > > > 6 6 q y d s t 8 < < < 6 1 6 1 1 % % 1 1 1 1 1 1 1 1 1 1 1 1 1 1 1 1 1 1 ",
"  . . . @ # % > 1 1 1 1 1 1 1 1 1 1 1 1 1 1 1 1 > > > > > = = : - ; = < < : : : : $ % % % 1 1 1 1 1 1 1 1 1 1 1 1 1 1 1 1 1 1 1 ",
"      . @ > # > 1 1 1 1 1 1 1 1 1 1 1 1 1 1 1 1 1 1 1 > % $ + + + + & : > > > $ + + $ $ 1 1 1 1 1 1 1 1 1 1 1 1 1 1 1 1 1 1 1 1 ",
"    . . @ * # > 1 1 1 1 1 1 1 1 1 1 1 1 1 1 1 1 1 1 1 > $ $ @ @ + + $ $ > > > $ $ # $ > 1 1 1 1 1 1 1 1 1 1 1 1 1 1 1 1 1 u 1 1 ",
"      . @ > # % 1 1 1 1 3 1 1 1 1 1 1 1 1 1 1 1 1 1 1 1 % > % > : : $ > > 1 1 > : : > > 1 1 1 1 1 1 1 1 1 1 1 1 1 1 1 1 1 1 1 1 ",
"      . @ > > > 1 1 1 1 1 1 1 1 1 1 1 1 1 1 1 1 1 1 1 1 > > > 1 1 > 1 1 1 1 1 > 1 1 1 1 1 1 1 1 1 1 1 1 1 1 1 1 1 1 1 1 1 1 1 1 ",
"    . X @ % % 1 1 1 1 1 1 1 1 1 1 1 1 1 1 1 1 1 1 1 1 1 1 1 1 1 1 < 1 1 1 1 1 1 1 1 1 1 1 1 1 1 1 1 1 1 1 1 1 1 1 1 1 1 1 1 1 1 ",
"      X @ % % % 1 1 1 1 1 1 1 1 1 1 1 1 1 1 1 1 1 1 1 1 1 1 1 1 1 1 1 1 1 1 1 1 1 1 1 1 1 1 1 1 1 1 1 1 1 a 1 1 1 1 1 1 1 1 1 1 ",
"      . @ % % % 1 1 1 1 1 1 1 1 1 1 1 1 a 1 1 1 1 1 1 1 1 1 1 1 1 1 1 1 1 1 1 1 1 1 1 1 1 1 1 1 1 1 1 1 1 1 1 1 1 1 1 1 1 1 1 1 ",
"    . X @ % % % 1 1 1 1 1 1 1 1 1 1 1 1 1 1 1 1 1 1 1 1 1 1 1 1 1 1 1 1 1 1 1 1 1 1 1 1 1 1 1 1 1 1 1 1 1 1 1 1 1 1 1 1 1 1 1 1 ",
"      . @ % % % 1 1 1 1 1 1 1 1 1 1 1 1 1 1 1 1 1 1 1 1 1 1 1 1 1 1 1 1 1 1 1 1 1 1 1 1 1 1 1 1 1 1 1 1 1 1 1 1 1 1 1 1 1 1 1 1 ",
"      . @ % % % 1 1 u 1 1 1 1 1 1 1 1 1 1 1 1 1 1 1 1 1 1 1 1 1 1 1 1 1 1 1 1 1 1 1 1 1 1 1 1 a 1 1 1 1 1 1 1 1 1 1 1 1 1 1 1 1 ",
"      X @ % % % 1 1 1 1 1 1 3 1 7 1 1 1 1 1 1 1 1 1 1 1 1 1 1 1 7 1 1 1 1 1 1 1 1 1 1 1 1 1 1 1 1 1 1 1 1 1 1 1 1 1 1 1 1 1 1 1 ",
"    . X @ % % % 1 1 1 1 1 1 3 3 1 1 1 1 1 1 1 1 1 1 1 1 1 1 1 1 7 1 1 1 1 1 1 1 1 1 1 1 1 1 1 1 1 1 1 1 1 1 1 1 1 1 1 1 1 1 1 u "
};
