/* XPM */
static char *left_2_resized[] = {
/* columns rows colors chars-per-pixel */
"32 32 169 2 ",
"   c #0F090B",
".  c #160D11",
"X  c #141314",
"o  c #1A1216",
"O  c #161718",
"+  c #1B1619",
"@  c #1B1D1D",
"#  c #25151C",
"$  c #28161D",
"%  c #22181C",
"&  c #2C1B1E",
"*  c #321E1E",
"=  c #2A1721",
"-  c #271B24",
";  c #2D1A24",
":  c #2E1C2A",
">  c #321C24",
",  c #3F1F24",
"<  c #331D2C",
"1  c #361F31",
"2  c #1D2120",
"3  c #212524",
"4  c #2F2329",
"5  c #252A2A",
"6  c #282E2C",
"7  c #322225",
"8  c #3C2123",
"9  c #35232C",
"0  c #39242B",
"q  c #3C2B2D",
"w  c #322C2D",
"e  c #2B332F",
"r  c #362032",
"t  c #3A2235",
"y  c #342D32",
"u  c #3E2C33",
"i  c #3D253B",
"p  c #2E3633",
"a  c #323132",
"s  c #3F3030",
"d  c #313B35",
"f  c #323B38",
"g  c #462427",
"h  c #432824",
"j  c #49242C",
"k  c #412F2F",
"l  c #442429",
"z  c #44312F",
"x  c #4C342C",
"c  c #5A3C2C",
"v  c #442331",
"b  c #4A2531",
"n  c #432B3D",
"m  c #4D2A3D",
"M  c #43263C",
"N  c #512B3D",
"B  c #5D2D3B",
"V  c #443233",
"C  c #4A3737",
"Z  c #4A3837",
"A  c #41393D",
"S  c #4D3D3A",
"D  c #5D3135",
"F  c #513E3A",
"G  c #612D35",
"H  c #6A2F34",
"J  c #632E39",
"K  c #65303D",
"L  c #6C313B",
"P  c #753339",
"I  c #37413D",
"U  c #3A453F",
"Y  c #51413E",
"T  c #6F4B31",
"R  c #644332",
"E  c #452E40",
"W  c #542D40",
"Q  c #433C41",
"!  c #4D3A41",
"~  c #533E42",
"^  c #633141",
"/  c #6B3342",
"(  c #723543",
")  c #3C4442",
"_  c #3D4943",
"`  c #404546",
"'  c #494145",
"]  c #414C47",
"[  c #414C49",
"{  c #4E4A4D",
"}  c #564541",
"|  c #5A4641",
" . c #5B4A44",
".. c #5A474A",
"X. c #5D4B4A",
"o. c #45504F",
"O. c #5E524A",
"+. c #475350",
"@. c #4A5454",
"#. c #4D5955",
"$. c #4F5758",
"%. c #4E5959",
"&. c #565153",
"*. c #515C5B",
"=. c #5B5254",
"-. c #624F47",
";. c #614D4F",
":. c #64544C",
">. c #69574D",
",. c #655151",
"<. c #685352",
"1. c #675A50",
"2. c #6C5D53",
"3. c #6C5E5C",
"4. c #725E59",
"5. c #6D6054",
"6. c #726256",
"7. c #786255",
"8. c #756559",
"9. c #786558",
"0. c #75685A",
"q. c #7B6A5C",
"w. c #555F60",
"e. c #566262",
"r. c #5A6464",
"t. c #5D6864",
"y. c #5E6B6B",
"u. c #626E6C",
"i. c #68706F",
"p. c #667271",
"a. c #6B7674",
"s. c #6C7876",
"d. c #717977",
"f. c #787976",
"g. c #737D7A",
"h. c #82383E",
"j. c #803841",
"k. c #8F3D48",
"l. c #933E47",
"z. c #933F48",
"x. c #9C414A",
"c. c #B5494F",
"v. c #B64A50",
"b. c #BA4B51",
"n. c #936840",
"m. c #806D5E",
"M. c #846A55",
"N. c #9C7C5C",
"B. c #AF7D48",
"V. c #826F60",
"C. c #847262",
"Z. c #897565",
"A. c #8C7967",
"S. c #8E7B69",
"D. c #917D6A",
"F. c #877E76",
"G. c #95816D",
"H. c #9A856F",
"J. c #958373",
"K. c #9A8775",
"L. c #AA8660",
"P. c #788280",
"I. c #989088",
"U. c #8C9591",
"Y. c #939995",
"T. c #9C9890",
"R. c #969E9A",
"E. c #868A87",
"W. c #A09D96",
/* pixels */
"# # # # # # $ $ # $ $ $ $ $ $ $ $ $ $ $ $ $ $ $ $ $ # # # # $ $ ",
"# j L L G b < < 1 < < < < < < < < < < < < < < < < < b G L L b ; ",
"# L b.c.x.J 1 1 1 1 1 1 1 1 < < 1 1 < 1 1 1 1 1 1 1 J x.c.b.( 1 ",
"# L b.x.( N i i t i i i < ; ; ; ; ; ; ; ; ; : 1 1 i m ( l.c./ < ",
"# J x.( m M i i i i i 1 ; # # + # # # # # o $ < 1 i M E ( z./ 1 ",
"# b J N i i i i i i 1 : % o . X o o X X o o o $ 1 1 i i m J b 1 ",
"$ < t i i i i i i 1 : # . X X X . X X O + O O + = 1 i i M v 1 1 ",
"$ < 1 i i i i i 1 = # X X X X X . X X 2 p 3 X + = < 1 1 1 1 1 1 ",
"$ < 1 i i i i i 1 # X X @ 2 2 @ @ 3 6 f U e @ o o = < 1 1 1 1 1 ",
"$ < 1 t i i i M : + X O 6 ) f p p U %.+.I d 6 O   o 1 1 1 1 i i ",
"$ < 1 i i i i i : + @ 5 ) @.) _ t.i.u.%.U %.t.y . # < 1 i i i M ",
"$ < 1 t i i i M 1 + 3 ) *.e.[ @.U.R.s.%.] g.Y.&.= < 1 i i i i i ",
"$ < 1 i i i N ( B % 5 [ *.t.@.@.g.P.a.*.o.y.s.Q : 1 i i i i i i ",
"$ < 1 t i t N ( P 8 w ` %.r.*.@.#.e.y.e.$.$.@.y = 1 E i i i i i ",
"$ < 1 M t : - l D P D q ` *.w.w.e.r.u.y.w.r.%.i = 1 i i i i i i ",
"$ < 1 t t - + % g h.H > y ) @.r.s.s.e.%.w.p.p.Q = 1 1 i E i i i ",
"= < 1 i t r 1 < 0 j 8 & - 7 9 { U.E.' y f f.R.=.; 1 i i i i i i ",
"= < r t i i t 1 t V V q V Z Z :.T.I.X.C ' J.W.4.q r r i i i i i ",
"% < 1 i i i t < V 7.0.>.6.C.Z.A.K.K.A.C.C.G.J.0.Y 9 ; t i i i i ",
"# < r i i i 1 ; V 9.C.q.Z.H.H.D.7.M.L.N.7.C.S.q. .9 ; t n i i i ",
"# < 1 t i i t ; q  .8.C.S.S.G.q.Z R L.n.x T V.6.} 9 : t i i i i ",
"$ < 1 t i i t = ; q Y Y | | Y Y 7 h T c * s Y S u = - t i i i i ",
"$ < t t i i r ; $ $ 7 0 9 7 7 7 > ; & & & 7 7 - % $ : t i i i i ",
"$ < r i i i t 9 > $ z -. .Y S Y S s & 7 Z Y V 7 # : t i i i n i ",
"$ < 1 i M i i t r q  .m.9.1.2.5.5.} 7 z 1.1.X.q = 1 i i i i i i ",
"$ < 1 t i i 1 < V 2.9.6.5.2.q.Z.Z.>.7 S q.0.O.u = 1 i i i i i i ",
"# v B m M i t = Z C.Z.5.5.0.S.D.q.| & z >.6.2.S 0 9 1 i W W W t ",
"# J x.( M i 1 ; C C.C.2.q.S.G.C.F 7 & & q :.C.2.Y 0 < i / x./ i ",
"# L v.z./ m t 1 n <.<...<.4.4.<.u ; ; ; < ~ <.;.! 1 M ^ z.v.( i ",
"= L v.v.x./ i t i E E E E E E E i t t i i E E E M i B x.v.v.( i ",
"# b / ( / W i i i i i i i i i i i i i i i i i i i i E / ( ( W i ",
"# < 1 t i i i i i i i i i i i i i i i i i i M i i i i i i i i i "
};
