/* XPM */
static char *left_enemy_4_resized[] = {
/* columns rows colors chars-per-pixel */
"32 32 160 2 ",
"   c #130B0F",
".  c #141313",
"X  c #1A1216",
"o  c #1B1518",
"O  c #171919",
"+  c #191B1B",
"@  c #26141C",
"#  c #28171D",
"$  c #211819",
"%  c #2B191F",
"&  c #321D1F",
"*  c #1D211F",
"=  c #37221F",
"-  c #2A1721",
";  c #2D1924",
":  c #2E1C2A",
">  c #261C25",
",  c #321D23",
"<  c #321C2B",
"1  c #381F2F",
"2  c #351F30",
"3  c #381F32",
"4  c #202524",
"5  c #232827",
"6  c #252A2A",
"7  c #2B2D2D",
"8  c #342325",
"9  c #35242B",
"0  c #3A272D",
"q  c #312A2E",
"w  c #3C2B2C",
"e  c #29302E",
"r  c #372033",
"t  c #3A2336",
"y  c #352F34",
"u  c #3F2836",
"i  c #3D253B",
"p  c #3D283B",
"a  c #2C3331",
"s  c #2F3835",
"d  c #373133",
"f  c #3E3132",
"g  c #303936",
"h  c #393238",
"j  c #343D3A",
"k  c #4A2F24",
"l  c #46222D",
"z  c #49242E",
"x  c #51272F",
"c  c #402334",
"v  c #4B2530",
"b  c #4F2831",
"n  c #41263B",
"m  c #442B3D",
"M  c #4F2A3C",
"N  c #532B34",
"B  c #532C3D",
"V  c #453533",
"C  c #483634",
"Z  c #453835",
"A  c #4B3937",
"S  c #4A3738",
"D  c #40383C",
"F  c #4D3B3C",
"G  c #503931",
"H  c #513E3A",
"J  c #642D35",
"K  c #642F3C",
"L  c #6A3034",
"P  c #6C313C",
"I  c #753438",
"U  c #39433F",
"Y  c #52423D",
"T  c #6A462D",
"R  c #6B4B36",
"E  c #462E40",
"W  c #443D42",
"Q  c #523A43",
"!  c #603141",
"~  c #6C3342",
"^  c #703442",
"/  c #3A4442",
"(  c #3E4A44",
")  c #404747",
"_  c #414B49",
"`  c #49484A",
"'  c #544542",
"]  c #574A43",
"[  c #5B4B44",
"{  c #59454B",
"}  c #524B4D",
"|  c #5C4D49",
" . c #45504D",
".. c #5E5149",
"X. c #534F50",
"o. c #475350",
"O. c #4B5654",
"+. c #4D5957",
"@. c #4E5A58",
"#. c #5F5556",
"$. c #545957",
"%. c #525D5C",
"&. c #604C4E",
"*. c #64534C",
"=. c #69574E",
"-. c #65584E",
";. c #6B584F",
":. c #665353",
">. c #6B5C52",
",. c #735F54",
"<. c #725E59",
"1. c #54605F",
"2. c #6D6055",
"3. c #726257",
"4. c #756559",
"5. c #796659",
"6. c #7B6A5C",
"7. c #565F60",
"8. c #556161",
"9. c #596464",
"0. c #5D6A6A",
"q. c #626D6C",
"w. c #677372",
"e. c #6B7573",
"r. c #6C7877",
"t. c #747776",
"y. c #767F7B",
"u. c #845A35",
"i. c #813944",
"p. c #8A3B42",
"a. c #9F424B",
"s. c #A3444B",
"d. c #986C41",
"f. c #89705B",
"g. c #987B5F",
"h. c #826F60",
"j. c #867363",
"k. c #897665",
"l. c #8E7B69",
"z. c #927E6B",
"x. c #837D79",
"c. c #BA874D",
"v. c #97826E",
"b. c #98836F",
"n. c #918375",
"m. c #998470",
"M. c #97887A",
"N. c #9B8B7C",
"B. c #A78663",
"V. c #7B8684",
"C. c #808785",
"Z. c #888C88",
"A. c #86908E",
"S. c #8E928E",
"D. c #94918D",
"F. c #8D9793",
"G. c #979B97",
"H. c #9E9A93",
"J. c #98A29E",
"K. c #A2A19B",
/* pixels */
"@ @ @ @ @ @ @ @ @ @ @ @ @ @ @ @ @ @ @ @ @ @ @ @ @ @ @ @ @ @ @ @ ",
"< z J z < < < < : ; - - - - - - - - - ; : : ; < < < < < z J l @ ",
"< K s.K 3 3 1 1 ; @ @ $ @ @ @ @ @ @ @ ; < 2 2 2 2 2 2 c I s.J @ ",
"2 N ^ B i 3 2 ; - X . X X X   X X X X @ : 2 t i 3 i 3 n ! P z @ ",
"2 3 n i i i 3 - $ X . + . . . .   . . . @ : 3 i i i i i 3 3 2 @ ",
"2 2 i i i i 2 - X . 4 7 * . . . . . . . . - : 3 i i i i 3 3 < @ ",
"2 2 i i i 3 : @ . + e / a 4 + + O O + O . . - 3 i i E i 3 2 < @ ",
"2 1 3 3 3 ; X   O 6 s / _  .j e 7 s j 6 O . X : i i 3 E 3 2 < @ ",
"1 3 3 2 2 ; o   7 $.O.U @.0.q.%./ / o.U 5 O + : i i i i 3 3 < @ ",
"3 3 3 i 3 3 < - X.G.y.( O.r.J.F.O.( 7.@./ 4 o 8 i i i i i 3 < @ ",
"i i i i i i 3 ; } V.e.` @.w.A.V.O.o.0.7.( 6 o x ! M i i 3 2 : @ ",
"i i i i i i 3 - y O.@.O.8.0.0.@.o.@.9.%.) 7 & I i.E i i i 2 < @ ",
"i i n i i i 2 > y O.7.7.0.0.9.%.8.7.@.) u N L J b : : i 3 2 < @ ",
"i i i n i i 2 ; D q.w.7.7.9.w.w.9.@.( d , I a.0 @ o > 3 i 3 < @ ",
"i i i i i i 2 ; X.S.t.W y ` C.Z.X.d y > - b ! 3 : : 2 i 3 2 < @ ",
"i i i i i i 2 : #.K.x.S u ' D.H.| w w 0 9 2 3 i i i n n 3 2 < @ ",
"i i i i i i 9 ; ] n.v.h.5.h.M.N.j.5.4.=.Y w , 2 i i i i i 1 : @ ",
"i i i i i r 9 w [ j.j.5.g.B.f.h.z.m.m.k.4.[ C u r i i i i 1 < @ ",
"i i i p t : 9 Y 3.k.=.G d.c.R Y h.m.m.z.z.k.3.V ; t i i i 2 , @ ",
"i i i i r ; 9 ] =.*.C = T u.k 8 ] =.=.=.;.5.4.V - r i i t 2 < @ ",
"i i i i t ; 8 ' Y w , ; = = % % , 0 8 9 w Y [ w ; 3 i i t < < @ ",
"i i n i r ; - w V V Z V 8 # w Z V V Z Z Z Z f ; ; 3 i i i 1 < @ ",
"i i i n t < # # f ] -...V % Y ;.>.-.*.-...V $ # : 3 i i t 1 < @ ",
"i i i i t r < $ w ..4.4.A 8 -.j.k.6.>.4.6.A # ; 3 3 i i t 1 < @ ",
"i i p p i i 3 : w ..6.j.Y w ,.v.m.j.2.6.h.[ w u 3 i i i i 2 : - ",
"n i i i i i 2 > w ..6.l.Y 9 ,.v.m.j.2.>.3.5.;.m : 3 n i i 2 : @ ",
"i i i i i r 2 r H >.4.;.V = Y 6.l.l.6.2.>.j.j.S ; 3 i i 3 2 : @ ",
"i i p n t : 9 Q >.j.*.0 # # 8 H 6.v.z.6.>.j.h.E ; 3 i p i 2 < @ ",
"i B ~ B i < t Q { <.Q < ; ; ; p :.3.<.:.Q :.:.E 2 3 i i B P l @ ",
"i ~ s.~ i r i p E E p i i t i i m E E E E E E E 3 i i i ^ s.J @ ",
"i E ~ E p i i i i i i i i i i p i i i i i i i i n i 3 E M P l @ ",
"i n i i i i i i i i i i i i i i i i i i i i i i i i E i 3 2 < @ "
};
