/* XPM */
static char *left_enemy_2_resized[] = {
/* columns rows colors chars-per-pixel */
"32 32 168 2 ",
"   c #0F080B",
".  c #170D11",
"X  c #1C0F15",
"o  c #141314",
"O  c #191115",
"+  c #1B1619",
"@  c #171819",
"#  c #1B1D1D",
"$  c #25151D",
"%  c #28151E",
"&  c #22181C",
"*  c #2C1A1E",
"=  c #311D1F",
"-  c #291721",
";  c #2D1A24",
":  c #2E1B28",
">  c #311D22",
",  c #3B1D23",
"<  c #331D2C",
"1  c #361F31",
"2  c #1F2322",
"3  c #232727",
"4  c #2F252A",
"5  c #252B2A",
"6  c #282E2C",
"7  c #332225",
"8  c #3D2023",
"9  c #35232C",
"0  c #39252C",
"q  c #332A2D",
"w  c #3C2C2E",
"e  c #2C332F",
"r  c #372032",
"t  c #3A2235",
"y  c #342C31",
"u  c #3E2C33",
"i  c #3D253B",
"p  c #2E3633",
"a  c #353133",
"s  c #313A35",
"d  c #333C39",
"f  c #422922",
"g  c #452329",
"h  c #49242D",
"j  c #412F2F",
"k  c #43302F",
"l  c #4E342F",
"z  c #452330",
"x  c #4A2633",
"c  c #42263C",
"v  c #432B3D",
"b  c #4C293C",
"n  c #512B3E",
"m  c #5E2D3C",
"M  c #5A2C35",
"N  c #433232",
"B  c #4A3737",
"V  c #453837",
"C  c #493936",
"Z  c #40393C",
"A  c #4D3D3A",
"S  c #5E3035",
"D  c #503E3B",
"F  c #583829",
"G  c #622D35",
"H  c #632F3C",
"J  c #6B2F34",
"K  c #67303E",
"L  c #6C313A",
"P  c #733337",
"I  c #773439",
"U  c #36403D",
"Y  c #38413F",
"T  c #4F403C",
"R  c #52423E",
"E  c #634431",
"W  c #714C31",
"Q  c #452E40",
"!  c #473042",
"~  c #423E42",
"^  c #4D3B41",
"/  c #523D43",
"(  c #643041",
")  c #6C3342",
"_  c #733543",
"`  c #7F3841",
"'  c #3D4543",
"]  c #3D4843",
"[  c #494144",
"{  c #434D4B",
"}  c #484A49",
"|  c #554540",
" . c #584640",
".. c #5B4A44",
"X. c #5A474A",
"o. c #5B4A4B",
"O. c #46514F",
"+. c #5D5048",
"@. c #4B5554",
"#. c #4D5957",
"$. c #4F5758",
"%. c #4E5A59",
"&. c #545250",
"*. c #5A5155",
"=. c #515B5A",
"-. c #624E4B",
";. c #64534C",
":. c #6A574E",
">. c #65594F",
",. c #665251",
"<. c #685553",
"1. c #6C5D53",
"2. c #6A5E5B",
"3. c #725E59",
"4. c #6D6055",
"5. c #736256",
"6. c #756559",
"7. c #79665A",
"8. c #77685A",
"9. c #7A6A5C",
"0. c #796355",
"q. c #555F60",
"w. c #566262",
"e. c #596463",
"r. c #5D6865",
"t. c #5E6B6B",
"y. c #626C6B",
"u. c #7E6F60",
"i. c #64706F",
"p. c #68706F",
"a. c #667171",
"s. c #6B7674",
"d. c #6E7978",
"f. c #767976",
"g. c #737C7A",
"h. c #80373D",
"j. c #92673F",
"k. c #923E48",
"l. c #9C424A",
"z. c #A0424A",
"x. c #B4494F",
"c. c #B64A50",
"v. c #BA4B51",
"b. c #806D5E",
"n. c #846A55",
"m. c #9C7C5C",
"M. c #B17F49",
"N. c #826F60",
"B. c #857262",
"V. c #8A7665",
"C. c #8D7967",
"Z. c #8E7A68",
"A. c #907C6A",
"S. c #887F76",
"D. c #95806D",
"F. c #99846F",
"G. c #958473",
"H. c #9A8773",
"J. c #AB8760",
"K. c #778181",
"L. c #8C928F",
"P. c #979087",
"I. c #9E978D",
"U. c #8C9591",
"Y. c #949A96",
"T. c #9F9D97",
"R. c #979F9A",
"E. c #878A88",
/* pixels */
"% % $ $ $ $ % % % % % % % % % % % % % % - % % % % % % % % % % $ ",
"< x L L G h < : < < < < < < < < < < < < < < < < < < h G J K h $ ",
"< ) v.x.k.m t 1 1 1 < < < < 1 < 1 1 < 1 1 1 1 1 1 1 H l.c.v.J % ",
"< L x.l._ b i i 1 : < ; > : : : ; - ; 1 1 i i i i i n _ k.x.J $ ",
"1 K z.) b i i t < $ $ $ $ $ $ + $ X $ : 1 i i i i i i b _ k.H % ",
"< x ( ! i i 1 < $ O o O o O . o X X O + ; 1 i i i i i c ( m z % ",
"1 1 i c i i 1 - $ . @ @ o o o o o . . o $ : 1 i i i i i c 1 < % ",
"1 1 1 1 1 1 < % + o 3 p 3 o o o o o o o o $ : 1 i i i i i 1 < % ",
"1 1 1 1 1 : ; X X # p ' d 6 2 # # 2 2 # o o # 1 i i i i i 1 < - ",
"t t t t 1 : X   o 6 s d O.#.' p p d Y 6 @ . + < i i i i i 1 < - ",
"i i c c 1 1 - . a r.%.Y #.i.s.t.' ' @.' 5 # + : i i i i 1 1 < % ",
"i i i i i i : - &.Y.g.{ @.d.R.U.%.] w.=.' 3 + 9 c c i i i 1 < % ",
"i i i i i i 1 ; T d.y.{ =.a.K.g.@.@.e.w.] 6 $ M ) b i i i 1 < % ",
"i i i i i i 1 ; a O.$.$.e.t.w.%.@.%.e.%.' q 8 P k.c i i i 1 < % ",
"c i i i i i 1 ; a $.w.e.t.t.e.w.w.q.%.] u S P S , - : i 1 1 < % ",
"i i i i c i 1 ; ~ p.a.=.=.w.s.s.w.@.' y , J h.g + + : 1 c 1 < % ",
"c i i i i i < : *.Y.f.Z y [ E.L.@.r 4 ; % f g 0 < < 1 i i 1 < - ",
"c i i i i t 9 w 2.T.S.R C +.P.I.,.B C u w k N t r i i i i 1 < % ",
"i i i i t : 7 R 6.G.G.V.B.C.F.H.Z.B.B.5.;.6.6.N > i i i 1 1 < % ",
"i i i i t ; q ..9.A.N.0.m.J.n.0.A.F.F.C.u.B.6.k ; 1 i i i 1 < % ",
"i i i i i ; < | 5.N.-.l j.J.E l 9.A.D.A.B.0...w ; 1 i i i 1 < % ",
"i i i i 1 ; - w C | j = F W f = A ..R ..R A k ; ; i i i i 1 < % ",
"i i i i t : % % * 7 7 ; * * * = 7 7 7 7 w = % % : 1 i c i 1 < % ",
"i v i i i 9 < & 7 V T C 7 * N T A A R ..-.k % > 1 1 i i 1 1 < % ",
"i i i i i i 1 : w ..1.>.k 7 R 5.4.4.>.8.N...j t 1 Q i i i 1 1 : ",
"i i c i i i 1 - w +.8.9.A 7 :.V.C.9.4.1.3.0.1.N < 1 i i 1 1 < % ",
"i ! ( Q i t 1 t A 1.0.:.k 7 R 7.Z.Z.9.4.1.B.B.B : 1 1 i b ( z % ",
"i ) l.) t : 9 ^ 3.B.;.0 * & 7 R u.D.Z.9.1.B.B.b : 1 c Q _ k.G $ ",
"i _ x.l.( z r ^ o.2./ < ; ; : u ,.5.3.,./ <.<.Q 1 1 ! ) k.c.L $ ",
"i ) x.x.l.H i i Q Q c i i i i i v ! Q Q c Q ! c 1 c ) z.x.v.L $ ",
"i ! _ _ _ ! i i i i i i i i i i i i i i i i i i c c ! _ _ L x $ ",
"i c i i i i i i i i i i i i i i i i i i i c i i i i i i 1 1 < % "
};
