/* XPM */
static char *left_enemy_1_resized[] = {
/* columns rows colors chars-per-pixel */
"32 32 166 2 ",
"   c #0E080B",
".  c #170D11",
"X  c #1D0F15",
"o  c #141214",
"O  c #1A1115",
"+  c #1B1519",
"@  c #171818",
"#  c #1A1D1C",
"$  c #25151C",
"%  c #28161E",
"&  c #2C1B1E",
"*  c #321E1E",
"=  c #271720",
"-  c #291720",
";  c #2D1A24",
":  c #2F1C29",
">  c #261B24",
",  c #351E20",
"<  c #331D2C",
"1  c #361F31",
"2  c #1E2220",
"3  c #212524",
"4  c #2F252B",
"5  c #272C2B",
"6  c #292D2C",
"7  c #332225",
"8  c #35252A",
"9  c #382629",
"0  c #33282E",
"q  c #3C2C2D",
"w  c #2A312D",
"e  c #372032",
"r  c #3A2235",
"t  c #342D31",
"y  c #3C2C33",
"u  c #3D253B",
"i  c #2E3631",
"p  c #333334",
"a  c #313B35",
"s  c #333B39",
"d  c #3F393C",
"f  c #412922",
"g  c #49252D",
"h  c #402F2F",
"j  c #45232E",
"k  c #50272F",
"l  c #4D342E",
"z  c #5B362A",
"x  c #452430",
"c  c #492532",
"v  c #422F37",
"b  c #44273C",
"n  c #442C3D",
"m  c #4D2A3D",
"M  c #512932",
"N  c #522B3D",
"B  c #5E2D3A",
"V  c #443232",
"C  c #493637",
"Z  c #473836",
"A  c #493936",
"S  c #4C3D3A",
"D  c #503D3A",
"F  c #632E36",
"G  c #632F3D",
"H  c #6A3035",
"J  c #66303C",
"K  c #6C313A",
"L  c #753439",
"P  c #36403C",
"I  c #38403F",
"U  c #4F403C",
"Y  c #54433E",
"T  c #6F4930",
"R  c #624533",
"E  c #452E40",
"W  c #5E2F41",
"Q  c #423D41",
"!  c #4C3C40",
"~  c #5B3D40",
"^  c #643141",
"/  c #6C3342",
"(  c #723543",
")  c #3C4543",
"_  c #3E4944",
"`  c #434344",
"'  c #4A4145",
"]  c #414A46",
"[  c #424D49",
"{  c #4D4C4C",
"}  c #554540",
"|  c #5A4641",
" . c #5A4C45",
".. c #5B4B4A",
"X. c #45504D",
"o. c #4A5553",
"O. c #4D5957",
"+. c #4E5A59",
"@. c #525354",
"#. c #5A5054",
"$. c #525C57",
"%. c #515C5B",
"&. c #644F4C",
"*. c #64544D",
"=. c #69574D",
"-. c #64584F",
";. c #655351",
":. c #685452",
">. c #675B51",
",. c #6C5E53",
"<. c #6A5E5A",
"1. c #725E59",
"2. c #784649",
"3. c #746257",
"4. c #786355",
"5. c #756559",
"6. c #77685B",
"7. c #7C6B5D",
"8. c #555F60",
"9. c #566162",
"0. c #596464",
"q. c #5D6864",
"w. c #5E6A6B",
"e. c #616C6B",
"r. c #7E6E60",
"t. c #64706F",
"y. c #667171",
"u. c #6A7473",
"i. c #6E7A78",
"p. c #757977",
"a. c #717B79",
"s. c #787F7A",
"d. c #813A45",
"f. c #8F3D48",
"g. c #8A3B42",
"h. c #933F49",
"j. c #9C424B",
"k. c #A0434B",
"l. c #B4494F",
"z. c #B64A50",
"x. c #BA4B51",
"c. c #936640",
"v. c #836A55",
"b. c #9C7C5C",
"n. c #B17E49",
"m. c #846F61",
"M. c #847162",
"N. c #897564",
"B. c #8C7867",
"V. c #8E7A69",
"C. c #917C69",
"Z. c #877E77",
"A. c #95816D",
"S. c #99846F",
"D. c #958474",
"F. c #998673",
"G. c #AB8760",
"H. c #778180",
"J. c #8C928F",
"K. c #979087",
"L. c #9F988E",
"P. c #8C9591",
"I. c #949A96",
"U. c #979F9A",
"Y. c #878A88",
"T. c #A19E96",
/* pixels */
"% % % $ $ % % % $ % % % % % % % % % % % % % % % % % % $ $ % $ $ ",
"< c K K F j < < < < < < < < < < < < < < < < < < < < c F K K g $ ",
"< / x.z.j.B 1 1 1 1 1 < < < < 1 1 1 < 1 1 1 1 1 1 1 G k.z.x.K $ ",
"< K z.h./ N r u 1 < ; : < ; < ; ; - ; 1 1 u u u u r N ( h.l.K $ ",
"1 J j./ b u u r < = $ $ $ $ $ + $ X $ : 1 u u u u u b b ( k.F % ",
"1 c ^ m b u 1 : - O . O O . o o X X o $ : 1 u u u b 1 u N J x % ",
"1 e b u u u 1 - O o @ # o o o o o   o o $ : 1 u u u u b u 1 < % ",
"< 1 1 1 1 1 < - O @ 3 a 2 o o o o o o o o $ : 1 u u u u u 1 < % ",
"1 e 1 1 1 : - X O # i ) a 6 2 # # 3 3 # o o $ < u u u u u 1 1 = ",
"u r u r 1 ; X   @ 6 a s o.+.) i i s s 6 o o + 8 E u u b u 1 < = ",
"u b u u u : = . p q.%.) +.y.u.q._ ) o.) 6 # $ M W b u 1 1 1 < = ",
"u u u u u u < = @.I.s._ o.i.U.P.o.[ 9.%.) 5 * L d.m 1 E u 1 < % ",
"u u u u u u 1 ; S a.e.[ 8.y.H.a.O.o.0.8.X.~ H F c 1 : E u 1 < % ",
"u u u u u u 1 ; t X.o.O.9.w.9.+.o.%.0.+.{ 2.g.g $ + > 1 u 1 < % ",
"u u u u u u e ; y +.9.0.w.w.0.0.8.8.+.) y N G e : : 1 1 u 1 < % ",
"u u u b u u e ; Q y.y.8.%.0.u.u.0.o.] t - < 1 u u u u b 1 1 < % ",
"u u u u u u e ; #.I.p.d t ' Y.P.{ t 4 - $ % : r u u u u u 1 < - ",
"u u u u u 1 8 q <.U.D.Y A ..K.L.;.C C V q V Z 8 1 u u u u 1 < % ",
"u u u u r : 8 Y 5.D.A.N.N.B.S.F.B.N.M.3.-.4.4.Z ; r u b u 1 < % ",
"u u u u r ; 8  .6.V.M.4.b.G.v.4.C.F.S.B.7.M.4.V ; 1 u u u 1 < $ ",
"u u u n u - 8 } 3.M.&.l c.G.R l 7.C.C.B.N.3. .q ; r u u r 1 < % ",
"u u u u e ; - q S Y q & z T f * D | |  .| S q ; ; r u u u 1 < % ",
"u u u u r : % $ & 7 7 ; & & * * , 7 7 8 7 ; % % ; 1 u u r 1 < % ",
"u u u u u 8 < $ 7 Z U A 7 & q S S S S S Z 7 % ; 1 u u u u 1 < % ",
"u u u u u u 1 ; q  .,.-.V * Y 3.,.>.-.>.*.V % 1 u u u u u 1 < % ",
"u u E u u u 1 - q ..6.7.U 9 =.B.V.r.,.7.7.D - 1 u u u u u 1 < % ",
"u E ^ E u u 1 - q  .,.=.q 7 Y 7.C.V.7.7.7.*.C r 1 u u u N G g % ",
"u / k./ b u 1 ; y } Y 8 & $ 7 U M.A.C.7.3.7.4.n < 1 u b ( h.F $ ",
"u ( l.f.^ E u 1 y ! v : ; : : u ;.1.1.;...;.:.E 1 1 E ( h.z.K $ ",
"u ( x.l.h.^ b 1 u E u u r r r b n E E E E E E u 1 b / h.l.z.K $ ",
"u m ( ( / E b u u u u u u u u u u u u u u u u u u E W ^ ( K c % ",
"u u u u u u u u u u u u u u u u u u u u u u u u u u u u 1 1 < % "
};
