/* XPM */
static char *left_enemy_3_resized[] = {
/* columns rows colors chars-per-pixel */
"32 32 161 2 ",
"   c #120B0E",
".  c #140B10",
"X  c #131313",
"o  c #1A1216",
"O  c #1C1418",
"+  c #171919",
"@  c #191B1B",
"#  c #24141B",
"$  c #29161E",
"%  c #2A191E",
"&  c #2A1721",
"*  c #2D1A25",
"=  c #2F1C2A",
"-  c #251A23",
";  c #311C26",
":  c #331D2C",
">  c #361F30",
",  c #1E2322",
"<  c #212625",
"1  c #252B2A",
"2  c #2B2D2D",
"3  c #332225",
"4  c #3A2526",
"5  c #3F2825",
"6  c #35232C",
"7  c #392629",
"8  c #31292F",
"9  c #3C2B2C",
"0  c #2A312E",
"q  c #372031",
"w  c #3A2236",
"e  c #3C2832",
"r  c #3D253B",
"t  c #3D283B",
"y  c #332E33",
"u  c #2D3532",
"i  c #363034",
"p  c #3C3133",
"a  c #303836",
"s  c #3A3238",
"d  c #343D3A",
"f  c #452026",
"g  c #46222C",
"h  c #49242C",
"j  c #402B2E",
"k  c #52262D",
"l  c #41263B",
"z  c #432B3E",
"x  c #4F2A3D",
"c  c #512933",
"v  c #532B3D",
"b  c #443433",
"n  c #493635",
"m  c #443835",
"M  c #4B3A36",
"N  c #44303F",
"B  c #4B373A",
"V  c #44393B",
"C  c #4C3C3A",
"Z  c #563032",
"A  c #553B31",
"S  c #513E3B",
"D  c #632C34",
"F  c #6B3035",
"G  c #67303C",
"H  c #6C313D",
"J  c #743338",
"K  c #39423F",
"L  c #5A4134",
"P  c #55443E",
"I  c #60412F",
"U  c #694A35",
"Y  c #775336",
"T  c #462E40",
"R  c #5F2F40",
"E  c #4C3B40",
"W  c #453E42",
"Q  c #523C42",
"!  c #6B3342",
"~  c #703341",
"^  c #3A4442",
"/  c #3F4845",
"(  c #4C4749",
")  c #424C4A",
"_  c #4F484A",
"`  c #524344",
"'  c #584640",
"]  c #5A4A44",
"[  c #574548",
"{  c #584748",
"}  c #5D4B4C",
"|  c #45504E",
" . c #524E50",
".. c #475250",
"X. c #4A5553",
"o. c #4E5857",
"O. c #4E5A59",
"+. c #555051",
"@. c #535957",
"#. c #525E5D",
"$. c #614D4D",
"%. c #63534B",
"&. c #69564E",
"*. c #66594F",
"=. c #69594F",
"-. c #7C5D47",
";. c #695552",
":. c #675B51",
">. c #6B5C52",
",. c #655E5C",
"<. c #725E54",
"1. c #735D58",
"2. c #54605F",
"3. c #6D6054",
"4. c #726156",
"5. c #75665A",
"6. c #79665A",
"7. c #77685B",
"8. c #7B6A5C",
"9. c #565E60",
"0. c #556160",
"q. c #596464",
"w. c #5E6A6A",
"e. c #626D6C",
"r. c #677371",
"t. c #697472",
"y. c #6D7978",
"u. c #757775",
"i. c #767F7B",
"p. c #86393F",
"a. c #8B623C",
"s. c #813944",
"d. c #9E424B",
"f. c #A2434B",
"g. c #826E5F",
"h. c #B07D48",
"j. c #A17B55",
"k. c #826F60",
"l. c #857363",
"z. c #897565",
"x. c #8B7867",
"c. c #8F7C69",
"v. c #917D6B",
"b. c #857D79",
"n. c #96826E",
"m. c #98836F",
"M. c #918172",
"N. c #9A8570",
"B. c #988A7A",
"V. c #7C8785",
"C. c #828785",
"Z. c #818986",
"A. c #888C89",
"S. c #86908D",
"D. c #8C928F",
"F. c #94928C",
"G. c #8D9794",
"H. c #979C98",
"J. c #9D9A93",
"K. c #97A19D",
"L. c #A3A39D",
/* pixels */
"# # # # # # # # # # # # # # # # # # # # # # $ $ # # # # # # # # ",
"= h D g * * ; ; = $ $ $ $ $ $ $ $ $ & & * * * * * * ; ; h D f # ",
": H f.G > > > > = # # # # # # # # # # & : > > > > : > > H f.D # ",
": c ! v l > > = $ o o o o o X o o o o # * > w w r r r w v ~ h # ",
"> > r T l r > & # X X + X X X X . o X o # = w r r r r r r g ; # ",
"> > > r r r > & O X < 2 , X X X X X X X o - = q r r r r > > = # ",
"> > r r > > = # + @ 0 ^ u , @ @ + @ @ + X + # > r r > T > > = # ",
"> > r > > = #   X 1 a K ) | d 0 1 a d 1 X X o : r r l l r > ; # ",
"> > > > > = O . 8 @...^ O.e.w.#.^ ^ ..^ 1 + @ = r r r r > > = # ",
"r > > l > > = &  .H.i./ X.y.K.G.X./ 9.O.^ < O 3 T r r r r > = # ",
"r r T > r r > * _ C.t.) O.t.S.V.X.X.q.0./ 1 # k R l > r > > = # ",
"r r r T r r > & i o.O.X.9.w.q.#.X.O.q.#./ 2 ; J ~ R r T r > = # ",
"r r r r r r > * i ..9.0.w.w.q.#.2.0.O./ b Z F D k : = r > > : # ",
"r r r r r r > & W e.r.9.9.q.r.r.q.O.) y ; F p.h # O & > r > = # ",
"r r r r r T > *  .A.u.W s _ C.A.+.i 8 - $ f k 6 = = : r w > = # ",
"r r r r r > > > ,.L.b.B 9 ` F.J.} e 9 9 3 9 j q > r r l w > = # ",
"r t t l r ; 1 P 5.B.m.8.6.g.B.B.l.6.6.&.] >.>.b ; w r r r > ; # ",
"r r r r > = 3 ] 7.v.l.6.z.n.8.6.c.m.m.z.6.l.5.b & w r r w : ; # ",
"r r r r > * 3 ' 5.z.&.n <.z.L L g.m.m.n.x.8.%.9 = w r r r > ; # ",
"r r r l > = * b ' %.n 4 -.j.A 5 ] &.*.&.%.' b 3 & q r r r > * # ",
"r r r r q * $ $ ; 3 ; f a.m.I % 3 4 7 3 3 3 % $ = > r r > > ; # ",
"r r r r r 6 * & 3 p p L U Y I A m m m m b 3 $ & > r r r r : ; # ",
"r r r r r r 6 % i ] *.%.b 4 P >.>.&.*.*.%.p % : > T r r r > * # ",
"r l r r r t 6 % 9 ] 5.5.M 3 %.l.l.6.:.5.5.M % : r r > T > > ; # ",
"r l r r r > > > m >.l.z.S 7 <.m.N.l.3.7.k.] e q > r r r r > = # ",
"r r r r r > > W :.l.v.z.S 7 <.m.N.l.3.:.5.6.>.b > > r r w > * # ",
"r r r r w * 3 { 6.v.z.;.b 3 P 8.c.c.8.3.>.8.8.} z w > r r > ; # ",
"r l l r w * 3 { 6.x.&.9 % $ 3 A 8.m.c.8.:.>.1.8.;.9 ; r w > * # ",
"l T ! T t 6 q C $.;.Q : = = = r ;.4.1.;.Q [ [ ;.$.w > > v G g # ",
"r ! d.! r w r t z T T r > w w t z T T T T r T T T T > T J f.D # ",
"r v ! R t r r r r r t r r r r r r r r r r r r r > r r l v G g # ",
"r r r r t r r r r r r r r r r r r r r r r T r r r r r l > > = # "
};
