/* XPM */
static char *right_enemy_4_resized[] = {
/* columns rows colors chars-per-pixel */
"32 32 161 2 ",
"   c #120B0E",
".  c #140C10",
"X  c #141313",
"o  c #1A1216",
"O  c #161817",
"+  c #1A1519",
"@  c #171818",
"#  c #191C1B",
"$  c #26141C",
"%  c #28161E",
"&  c #20181B",
"*  c #2B191E",
"=  c #311E1F",
"-  c #37211F",
";  c #2A1721",
":  c #271B25",
">  c #2D1925",
",  c #2F1C2A",
"<  c #311D24",
"1  c #321C2B",
"2  c #351E31",
"3  c #381F31",
"4  c #1E2323",
"5  c #212525",
"6  c #252A2A",
"7  c #2A2E2D",
"8  c #342325",
"9  c #392526",
"0  c #35242B",
"q  c #38272A",
"w  c #312A2E",
"e  c #3C2B2D",
"r  c #28302D",
"t  c #372033",
"y  c #3A2235",
"u  c #342F33",
"i  c #3F2B33",
"p  c #3D253B",
"a  c #3C283A",
"s  c #2D3432",
"d  c #2F3836",
"f  c #373135",
"g  c #3A3238",
"h  c #333C3A",
"j  c #3C3336",
"k  c #47232E",
"l  c #4A242D",
"z  c #4F282D",
"x  c #4B3024",
"c  c #41302F",
"v  c #4B2530",
"b  c #41263B",
"n  c #432C3E",
"m  c #48293C",
"M  c #422432",
"N  c #502734",
"B  c #532B3D",
"V  c #443534",
"C  c #493636",
"Z  c #463835",
"A  c #4B3936",
"S  c #40393D",
"D  c #4B3939",
"F  c #543034",
"G  c #503932",
"H  c #513E3A",
"J  c #632D35",
"K  c #642F3B",
"L  c #6A3034",
"P  c #6B313D",
"I  c #703237",
"U  c #743339",
"Y  c #39433F",
"T  c #52423D",
"R  c #694431",
"E  c #6D4B33",
"W  c #462E40",
"Q  c #4D3A40",
"!  c #453D42",
"~  c #533E43",
"^  c #613141",
"/  c #6C3343",
"(  c #713442",
")  c #3A4441",
"_  c #3F4A45",
"`  c #49474B",
"'  c #424B49",
"]  c #544543",
"[  c #5A4741",
"{  c #5B4B44",
"}  c #5A474B",
"|  c #524A4D",
" . c #5D4D4D",
".. c #45504D",
"X. c #5D5049",
"o. c #574F53",
"O. c #475351",
"+. c #4B5654",
"@. c #4D5956",
"#. c #4E5A59",
"$. c #505051",
"%. c #5F5357",
"&. c #535957",
"*. c #525E5D",
"=. c #63544B",
"-. c #6A574D",
";. c #66594F",
":. c #6A584E",
">. c #665251",
",. c #6C5C53",
"<. c #725E54",
"1. c #735D59",
"2. c #54605F",
"3. c #6D6055",
"4. c #736256",
"5. c #756659",
"6. c #796659",
"7. c #7C6A5C",
"8. c #556161",
"9. c #5A6464",
"0. c #5E6B6A",
"q. c #636D6C",
"w. c #7E6E60",
"e. c #677372",
"r. c #6A7573",
"t. c #6C7877",
"y. c #757876",
"u. c #767F7B",
"i. c #835B36",
"p. c #813942",
"a. c #893B41",
"s. c #9F434C",
"d. c #A3444B",
"f. c #986C45",
"g. c #886F5B",
"h. c #99795B",
"j. c #826F60",
"k. c #857363",
"l. c #8A7665",
"z. c #8E7B69",
"x. c #927E6B",
"c. c #827D77",
"v. c #BC874C",
"b. c #96826E",
"n. c #98836F",
"m. c #918274",
"M. c #968779",
"N. c #98897C",
"B. c #A68664",
"V. c #7C8784",
"C. c #808684",
"Z. c #818986",
"A. c #868E8B",
"S. c #86908C",
"D. c #95918A",
"F. c #8C9391",
"G. c #8E9894",
"H. c #979B98",
"J. c #9C9A93",
"K. c #97A19C",
"L. c #A1A29D",
/* pixels */
"$ $ $ $ $ $ $ $ $ $ $ $ $ $ $ $ $ $ $ $ $ $ $ $ $ $ $ $ $ $ $ $ ",
"$ k L z 1 1 , 1 , , 1 1 > ; ; ; ; ; ; ; ; ; ; : 1 1 1 1 v J v , ",
"$ J d.P 3 3 1 3 2 2 2 2 > $ $ $ $ $ $ $ $ $ $ > 1 2 2 3 K d.P 1 ",
"$ k P B b p 3 p p 3 2 > $ o . + . o o o o o + $ 1 3 y y B ( N 1 ",
"$ 1 3 b p b p p y y , & X X X X X X X X @ X X $ ; 3 p p b b 3 2 ",
"$ 1 3 3 p p p p y : ; o X X X X X . X 4 s 4 X o ; 2 p p p p 3 1 ",
"$ 1 2 p p p p p 2 ; X X X # # @ O # 5 d ) 7 # X $ , 3 p p p 3 3 ",
"$ 1 2 p p p p p 1 + X O 6 h d 7 r h ..' Y d 6 O . o , 2 3 3 2 2 ",
"$ < 3 3 p p p p 2 + + 6 ) ..) ) 2.q.q.@.Y +.&.6 . $ ; 2 2 3 2 3 ",
"$ 1 3 p p p p p , # 4 ) #.8._ #.G.K.t.@.' u.H.o.; , y 3 3 y y p ",
"$ 1 2 3 p p m ^ N & 6 _ 8.9.O.@.V.S.r.@.' r.C.| ; 2 p p p p p p ",
"$ 1 3 p p y B p.U > s _ &.9.#.+.2.2.q.2.O.&.+.a ; 2 p p p p p p ",
"$ 1 2 p 3 1 1 v J L F j ` &.*.*.2.2.0.0.8.2.+.u : 2 p p p p p p ",
"$ 1 3 p 3 : + # k a.U < u ' @.9.e.e.2.2.8.q.q.S , 2 p p p p p p ",
"$ < 2 p p 2 , , M K v * : w f $.S.Z.` j ! y.F.| > 2 p p p p p p ",
"$ 1 2 3 p p a p y y 0 0 q e c } J.D.T c D c.L.%., 2 p p p p p p ",
"; 1 3 y p p p p t , e T -.6.6.j.N.M.j.5.7.b.m.[ ; 0 a p p p p p ",
"$ , 3 y b p y 2 i C { 5.l.n.n.b.g.g.B.h.7.l.l.X.i 0 y y p p p p ",
"$ , 2 y p p 3 , V 6.l.z.b.b.n.k.H E v.f.G =.l.3.T 0 > y a p p p ",
"$ , 2 p p p 3 ; V 4.7.:.-.-.:.T 9 x i.R - G =.;.] 0 : y p p p p ",
"$ 1 3 3 p p y : q [ T e q q q 8 > * - - * 8 e T ] 1 , 3 p p p p ",
"$ , 3 p p p y ; > c V Z Z Z Z Z Z e * 8 j Z Z Z e > , p W p p p ",
"$ 1 1 p p p y > $ * c X.;.X.;.:.:.T 8 e X.;.{ f $ $ , 3 p p p p ",
"$ 1 3 3 p p a t > * D 6.5.3.7.k.k.=.8 A 6.5.X.e % , 2 p p p p p ",
"$ 1 1 p p p p 3 t e { j.6.3.k.n.n.4.9 T l.w. .e ; 2 p p p p p p ",
"$ 1 3 p b p 3 1 V ,.6.4.,.3.l.m.n.<.9 T k.7.X.i ; t p p p p p p ",
"$ 1 3 p p p 3 , C k.k.,.3.7.z.z.6.T 8 c :.5.,.~ e 0 3 p p p p p ",
"$ 1 3 3 p p y ; D k.k.,.7.z.b.k.H 9 % * e =.j.,.T 0 , y p p p p ",
"$ k P B b p y 2 W >.>.} >.1.1.>.c > > > 2 Q >.%.Q 2 2 p W / W W ",
"$ J d./ b p p y p W W W W W W W b y 3 p p n W W b p 3 b ( s.( 3 ",
"$ k / B p p p p p p p p p p p p p p p p p p p p b p p b W / ^ p ",
"$ , 2 p p p p p p p p p p p p p p p p p p p p p p p p p p p p p "
};
