/* XPM */
static char *right_enemy_3_resized[] = {
/* columns rows colors chars-per-pixel */
"32 32 157 2 ",
"   c #120B0F",
".  c #141313",
"X  c #1A1216",
"o  c #1B1519",
"O  c #171919",
"+  c #191B1B",
"@  c #24141B",
"#  c #28161E",
"$  c #2A181E",
"%  c #2A1721",
"&  c #271C25",
"*  c #2E1A25",
"=  c #2E1C2A",
"-  c #301C26",
";  c #341E2D",
":  c #3C1F29",
">  c #361F31",
",  c #381F32",
"<  c #1E2222",
"1  c #202423",
"2  c #232728",
"3  c #252A2A",
"4  c #2A2E2D",
"5  c #342326",
"6  c #3A2525",
"7  c #36232A",
"8  c #392729",
"9  c #322A2E",
"0  c #3D2B2D",
"q  c #2A312F",
"w  c #372031",
"e  c #3A2236",
"r  c #342F33",
"t  c #3D253B",
"y  c #3C283B",
"u  c #2E3633",
"i  c #373134",
"p  c #3B3336",
"a  c #303836",
"s  c #343D3A",
"d  c #452026",
"f  c #46222C",
"g  c #49232C",
"h  c #52252C",
"j  c #5E3F2F",
"k  c #402A33",
"l  c #40263B",
"z  c #422A3E",
"x  c #4B293C",
"c  c #532B34",
"v  c #542B3D",
"b  c #443433",
"n  c #4A3634",
"m  c #473835",
"M  c #4A3A36",
"N  c #44303F",
"B  c #40383E",
"V  c #4B3B39",
"C  c #533A31",
"Z  c #513E3B",
"A  c #632C34",
"S  c #672F3C",
"D  c #6B3034",
"F  c #6C313D",
"G  c #743239",
"H  c #38433F",
"J  c #584235",
"K  c #53403B",
"L  c #684934",
"P  c #745136",
"I  c #452E40",
"U  c #542D40",
"Y  c #443E42",
"T  c #4D3940",
"R  c #543D42",
"E  c #603040",
"W  c #6B3342",
"Q  c #703442",
"!  c #3A4441",
"~  c #3F4A45",
"^  c #4A474A",
"/  c #424B4A",
"(  c #554543",
")  c #594741",
"_  c #5A4B44",
"`  c #55454A",
"'  c #524C4F",
"]  c #5C4C4D",
"[  c #45504D",
"{  c #504E50",
"}  c #475351",
"|  c #4B5654",
" . c #4D5957",
".. c #4E5A59",
"X. c #565052",
"o. c #545957",
"O. c #525E5D",
"+. c #644D4E",
"@. c #62534A",
"#. c #6A564D",
"$. c #66594E",
"%. c #6A594E",
"&. c #645152",
"*. c #6B5654",
"=. c #6A5B51",
"-. c #675E5B",
";. c #745F54",
":. c #735D59",
">. c #54605F",
",. c #6E6055",
"<. c #736155",
"1. c #76665A",
"2. c #796659",
"3. c #77685A",
"4. c #7B6A5C",
"5. c #556161",
"6. c #596564",
"7. c #5E6B6A",
"8. c #636E6C",
"9. c #677271",
"0. c #6A7573",
"q. c #6D7977",
"w. c #757877",
"e. c #767F7B",
"r. c #853E3D",
"t. c #8F653E",
"y. c #813943",
"u. c #9C424B",
"i. c #815D48",
"p. c #A2434B",
"a. c #826E5F",
"s. c #B07E49",
"d. c #A07B57",
"f. c #816F61",
"g. c #857363",
"h. c #897565",
"j. c #8B7867",
"k. c #8E7B69",
"l. c #917D6B",
"z. c #847D79",
"x. c #96816E",
"c. c #98836F",
"v. c #918172",
"b. c #978778",
"n. c #978A7C",
"m. c #98897B",
"M. c #7D8784",
"N. c #808785",
"B. c #828885",
"V. c #868E8B",
"C. c #85908C",
"Z. c #95928A",
"A. c #8D9490",
"S. c #8F9894",
"D. c #9A9A95",
"F. c #96A09C",
"G. c #A3A39D",
/* pixels */
"@ @ @ @ @ @ @ @ @ @ @ @ @ @ @ @ @ @ @ @ @ @ @ @ @ @ @ @ @ @ @ @ ",
"@ d A g - - = = * = - - % % % @ # @ # % % # % % = * - - f A f * ",
"@ A p.W , , ; , > > > ; * @ @ @ @ @ @ @ @ @ @ * ; > > , S u.F > ",
"@ f G v l l , , e e > & @ X X X X X X X X X X # - > e e v Q c ; ",
"@ - , e l t t t t y = @ . . . .   . . . O . X o * , t t l l , , ",
"@ - : t t t t t w = @ X . . . .   . . < u < . o % > t t t , , , ",
"@ = , e t t t t ; @ . . . + + + O + < u ! q O . @ * , t t t , ; ",
"@ = , , l t t t ; o . O 3 s u q q s [ [ ! u 3 O   @ - , , e ; , ",
"@ = ; t t t t t > O + 2 ! [ ! ! >.8.8. .H | o.4   @ = > > , , , ",
"@ * , , t t t l = o 2 ! | 5.~ ..A.F.q.| / e.D.{ % = , , , , t , ",
"@ - ; t t t U U c @ 3 ~ 5.6.} | M.C.0.../ 0.B.` % > , t t t t t ",
"@ * ; l t e x y.G * 4 / O.6...} O.6.8.>.} o.| r % > t y t t t t ",
"@ - , e t - = h A A c b / o.>.>.O.>.8.7.6.O.| r & > t t t t t t ",
"@ * ; t , * + o g r.D 5 r / o.6.9.9.6.>.6.8.8.B % , t t t t t t ",
"@ * , , t > = = : h d $ & 9 i { V.N./ p Y w.A.{ * , t t t t t t ",
"@ - , e t t e e w k 6 6 8 0 k _ D.Z.( 0 N z.G.-.> > t t y t t t ",
"@ * , e t t , = b =.$.@.%.3.4.4.m.b.a.2.4.x.n.<.K 5 = e t t t t ",
"@ = > e t t , * b 3.a.4.h.c.c.x.4.a.l.h.2.h.x.1.K 9 * e y t t t ",
"@ = > e t t , * 8 @.4.k.x.x.c.f.Z ) h.;.m #.x.3._ 6 * e y t t t ",
"@ * , t t t , * - m J @.%.%.=.K 6 C d.i.6 m _ K b 2 % e t t t t ",
"# * ; , t t w & $ $ 5 5 9 5 8 5 - J c.t.d $ 5 5 % % = , t t t t ",
"@ * , l t t e > * @ * b m b m m n J P L J C 0 5 % * > e t t t y ",
"@ = , e t y t t 7 $ 0 @.$.$.$.=.%.J 8 m L $.J 0 % > t t t t t t ",
"@ - , , t t t t w $ M 3.<.,.4.g.g.@.5 M 1.1.@.u % > t t t t t I ",
"@ * , e l l l , w k _ a.3.,.g.c.x.<.8 K h.g.$.V - > e e t t t t ",
"# * , e l , , ; b ;.2.<.,.,.g.x.x.<.8 K h.l.g.$.V ; ; t t t t t ",
"@ = ; e t , e k ] 4.4.=.,.4.k.x.4.J 5 0 =.h.k.4._ 5 * e t t t t ",
"@ - , e t - 8 ;.4.,.$.=.3.k.x.a.Z 5 # % 0 *.j.3.( 7 & e t l t t ",
"# d S v t > e +.*.` R ` &.:.:.+.k * * * > R *.] T w ; t U W U t ",
"@ A p.W l e t l I I I y I I I I t t e t t z I z y t e t W u.W t ",
"@ f F v l t t t t t t t t t t y t y t t t t y y t t y t U W U t ",
"@ * w e t t t t t t y t t t t t t t t t t t t t t t t t t t t t "
};
