/* XPM */
static char *collectible1710261609[] = {
/* columns rows colors chars-per-pixel */
"32 32 6 1 ",
"  c #25131A",
". c #3D253B",
"X c #C09344",
"o c #FFF1CC",
"O c #FFD569",
"+ c white",
/* pixels */
"  ..                            ",
"  ..                            ",
"  ..                            ",
"  ..                            ",
"  ..                            ",
"  ..                            ",
"  ..                            ",
"  ..                            ",
"  ..        XXXXXXXX            ",
"  ..        XXXXXXXX            ",
"  ..      XXooooooOOXX          ",
"  ..      XXooooooOOXX          ",
"  ..    XXooooXXXXOOooXX        ",
"  ..    XXooooXXXXOOooXX        ",
"  ..    XXooXXooOOXXOOXX        ",
"  ..    XXooXXooOOXXOOXX        ",
"  ..    XXOOXXOOOOXXOOXX        ",
"  ..    XXOOXXOOOOXXOOXX        ",
"  ..    XXooOOXXXXOOOOXX        ",
"  ..    XXooOOXXXXOOOOXX        ",
"  ..      XXOOOOOOOOXX          ",
"  ..      XXOOOOOOOOXX          ",
"  ..        XXXXXXXX            ",
"  ..        XXXXXXXX            ",
"  ..                            ",
"  ..                            ",
"  ..                            ",
"  ..                            ",
"  ..                            ",
"  ..                            ",
"  ..                            ",
"  ..                            "
};
