/* XPM */
static char *dummy[]={
"32 32 382 2",
".# c #241318",
"Qt c #241319",
"cw c #24141a",
".e c #25131a",
"cL c #25151c",
".c c #26141b",
".b c #26141c",
"#L c #26151c",
".d c #26151d",
"cI c #26161e",
"bB c #27141c",
".a c #27151d",
".Z c #271720",
"cd c #271820",
"dB c #28151d",
"bC c #28161f",
"cr c #281820",
".I c #281821",
"cM c #281921",
"cK c #29151f",
"bk c #29161f",
".J c #291721",
"## c #291722",
"#M c #291822",
"cS c #291d27",
"cN c #291e29",
"aZ c #2a1620",
".3 c #2a1721",
"cX c #2a1823",
"bl c #2a1924",
"#x c #2a1a24",
"bh c #2a1b23",
"ce c #2a1f2a",
"#5 c #2a202b",
"aG c #2b1721",
"af c #2b1f2a",
".2 c #2c1824",
".K c #2c1925",
"ag c #2c1c28",
"cT c #2c202b",
"a0 c #2c232e",
".H c #2d1823",
"da c #2d1824",
"al c #2d1924",
"bi c #2d1925",
"cZ c #2d2632",
"aL c #2d2732",
"aP c #2d2733",
"d0 c #2e1926",
".s c #2e1a26",
"#K c #2e1b27",
"dm c #2e1c28",
".E c #2e2633",
"aQ c #2e2935",
"bm c #2e2a36",
"bD c #2f1a26",
".4 c #2f2532",
"cO c #2f2937",
"aM c #2f2b37",
"aK c #2f2b38",
"dU c #2f2b39",
"dZ c #301b28",
"#p c #301c29",
".O c #301d29",
"cs c #30242b",
"ak c #302633",
"dG c #302634",
"dP c #302836",
"aO c #302a38",
"aN c #302b39",
"dC c #311a29",
"cc c #311d2b",
"c. c #31232e",
"cx c #312332",
"bW c #312a38",
".r c #321c2a",
".G c #321c2b",
"d1 c #321c2c",
"#Z c #321d2c",
"#Y c #321e2e",
"aE c #322835",
"dS c #322d3c",
"bF c #322e3c",
".V c #323442",
".u c #331d2b",
"cJ c #331d2d",
"d# c #331e2d",
".B c #331f2e",
".D c #332333",
"#3 c #332534",
"dV c #332737",
"#I c #333140",
"dT c #333141",
"db c #333342",
".U c #333443",
"am c #341d2c",
"dL c #341d2d",
".g c #341e2d",
".1 c #341e2e",
"cY c #341e2f",
".i c #341f2d",
"dn c #341f2f",
"#a c #342030",
"#J c #342636",
"#0 c #342a3a",
".T c #343443",
".f c #351e2d",
".j c #351e2e",
".q c #351e2f",
".k c #351f2e",
".0 c #351f2f",
"#u c #35202f",
"#4 c #352132",
".F c #352435",
"dQ c #352436",
"aY c #352932",
"ct c #352a37",
".S c #352e3e",
"ck c #353445",
"a1 c #353c4d",
".h c #361e2e",
"dY c #361e2f",
".t c #361f2f",
".l c #361f30",
".n c #361f31",
"#r c #362031",
"#d c #362032",
"#c c #362131",
".R c #362233",
"dR c #362235",
"do c #362538",
"dz c #362c3e",
"aH c #363e4f",
".v c #371e2f",
"#t c #371f31",
".m c #371f32",
"#s c #372031",
".o c #372032",
".p c #372033",
"#q c #372133",
"dO c #372336",
"d4 c #372337",
"d. c #372e3f",
"#e c #373041",
"dp c #373547",
"an c #373647",
"#X c #373748",
"#v c #381e30",
"d7 c #382033",
"dM c #382133",
".P c #382134",
"#w c #382135",
"dA c #382336",
"cC c #383144",
"bv c #383845",
"ah c #383b4a",
"dN c #391f32",
"#b c #392033",
"bE c #392134",
".Q c #392135",
".A c #392236",
"cu c #392337",
"cv c #392438",
"dF c #39394d",
"cH c #394255",
"dW c #3a2034",
"dX c #3a2136",
".C c #3a2237",
".z c #3a2338",
"d3 c #3a2437",
"d2 c #3a253a",
"dD c #3a3a4f",
"dy c #3a4053",
"#f c #3a4153",
"#g c #3a4256",
"cB c #3a4457",
"aF c #3b2236",
".y c #3b2439",
"d6 c #3b263a",
"c9 c #3b4053",
"cW c #3b4055",
"cq c #3b4156",
"b9 c #3b4256",
".N c #3b4356",
".L c #3b4357",
".w c #3c2338",
"bV c #3c273a",
"#2 c #3c4357",
"c0 c #3c475b",
"#1 c #3c495e",
".x c #3d253b",
"bj c #3d293d",
"cD c #3d3b4f",
"cR c #3d4a60",
"d5 c #3e2b41",
"cb c #3e3340",
"cf c #3e3d53",
"c8 c #3e495d",
"cy c #3f3e54",
"cU c #3f455a",
"ba c #3f4d63",
"a2 c #3f4d64",
"#y c #3f4f65",
"cj c #3f5167",
"dt c #3f5268",
".Y c #3f556b",
"bA c #403c47",
"bg c #403d47",
"dK c #404d63",
"b# c #405267",
"#h c #40546a",
"#. c #40566c",
"c7 c #415168",
"#6 c #41586e",
"ae c #41586f",
"bU c #423c48",
"bn c #42546c",
"aR c #42556c",
"aq c #42566e",
"cE c #433b4e",
"#W c #43586e",
"ao c #435e77",
"bX c #44526b",
"c1 c #445771",
"dq c #445c76",
"bR c #454f61",
"ap c #456077",
"aA c #456681",
"a3 c #465a74",
"c6 c #465f79",
"bu c #466179",
".5 c #46627c",
"aJ c #46637d",
"ds c #46657f",
"c5 c #466882",
"dH c #476580",
"bG c #485b76",
".W c #486984",
"az c #486985",
"b. c #495f7a",
"dc c #496380",
"cP c #496d88",
"a4 c #4a6c87",
".M c #4a6d8a",
"dE c #4b5977",
"bQ c #4b6885",
"a9 c #4c6f8c",
"#H c #4c718e",
"cF c #4d5673",
"cV c #4d6a88",
"dx c #4d718e",
"aj c #4e7492",
"#o c #4e7695",
"a7 c #4e7996",
"a5 c #4e7997",
"a6 c #4e7a97",
"bS c #4f515c",
"cl c #4f5372",
"dJ c #4f6b8b",
"a8 c #4f7998",
"c4 c #4f7c9a",
"bY c #507191",
"ar c #516071",
"cG c #517294",
"dl c #517394",
"b3 c #517e9d",
"aI c #5181a0",
"dI c #5282a2",
"cp c #537699",
"cg c #546284",
"b8 c #54779a",
"bH c #5481a2",
"ay c #5485a5",
"du c #5488a9",
"cz c #55799b",
"b2 c #5588aa",
".6 c #5589ab",
".7 c #558aac",
"#z c #558eb1",
"cn c #566589",
"dr c #5681a5",
"c2 c #568daf",
"cm c #576286",
"co c #576e92",
"aB c #577b95",
"ai c #5785a6",
"bo c #5785a8",
"dd c #5786a9",
"bP c #5786aa",
"cA c #5894b8",
"b7 c #5986ab",
"bt c #5989ad",
"aS c #5991b4",
"#n c #5994b8",
"cQ c #5995b9",
".8 c #5997bb",
"ch c #5a8ab0",
"b4 c #5a8bb0",
"dk c #5a90b5",
"dg c #5a9abe",
"bZ c #5b8eb4",
"dw c #5b96bb",
"#A c #5b97bc",
"ci c #5c99bd",
".X c #5c9abf",
"#7 c #5c9bbf",
"df c #5c9ec4",
"as c #5d6673",
"b5 c #5d90b7",
"bp c #5d9dc3",
"de c #5d9ec5",
".9 c #5da0c7",
"c3 c #5da1c7",
"at c #5e6673",
"au c #5e6774",
"aw c #5e839d",
"b6 c #5e90b7",
"ad c #5e9abf",
"bI c #5e9fc6",
"dj c #5ea1c8",
"dh c #5ea3ca",
"av c #5f6875",
"bf c #5f6b7b",
"b0 c #5f9fc7",
"bs c #5fa0c6",
"ax c #5fa4ca",
"c# c #606a78",
"bO c #60a0c8",
"b1 c #60a3cb",
"di c #60a6ce",
"#N c #61a4ca",
"dv c #61a5ce",
"bJ c #61a9d1",
"bK c #61aad3",
"bL c #61abd2",
"bN c #62a9d1",
"bq c #62aad3",
"br c #62abd4",
"#m c #62acd3",
"#V c #6390ab",
"#i c #6392af",
"#B c #639ec0",
"aT c #63a5c9",
"bM c #63acd4",
"bw c #646f7e",
"aD c #67869c",
"#G c #68aed4",
"bb c #698ea6",
"aU c #69add2",
"ca c #6a7887",
"aX c #6f8091",
"aV c #71aed0",
"#l c #71b4d8",
"#O c #72b4d8",
"aC c #79acca",
"#k c #7bb9db",
"#j c #7cb9da",
"#8 c #7eb4d1",
"ac c #80b5d1",
"be c #83abc3",
"#U c #85bcda",
"#P c #85bede",
"bT c #86a1b3",
"#C c #8abbd6",
"bz c #8ba7b8",
"#F c #8bc0dc",
"aW c #8cb5cd",
"bx c #8daabc",
"bc c #8fc2dd",
"bd c #91c4df",
"#9 c #99c2d7",
"#T c #9bcae3",
"#Q c #9bcbe3",
"a. c #9cc3d8",
"by c #9dc3d7",
"ab c #9dc4d8",
"#D c #9dcbe3",
"a# c #9ec4d9",
"#E c #9ecce4",
"aa c #9fc5d9",
"#R c #a6d1e6",
"#S c #a7d1e7",
"QtQt.#Qt.#QtQtQt.#Qt.#QtQtQt.#.#QtQtQtQtQtQtQtQtQt.#QtQtQt.#QtQt",
".a.a.a.a.a.a.a.a.a.a.b.a.a.a.a.a.b.a.a.a.a.a.c.a.a.a.a.d.a.a.e.#",
".f.f.f.g.h.f.f.f.f.f.g.h.f.g.f.h.h.f.h.i.f.f.f.j.f.f.f.f.h.f.d.#",
".k.l.l.m.n.n.o.n.p.n.n.n.n.m.n.n.q.k.l.r.s.r.n.n.n.n.m.n.t.u.dQt",
".v.n.w.x.x.x.x.x.x.x.x.x.x.y.z.A.B.g.C.D.E.F.A.y.y.x.x.x.n.f.aQt",
".h.o.y.x.x.x.x.x.x.x.x.y.x.z.G.H.I.J.K.L.M.N.O.P.x.x.x.x.m.f.a.#",
".h.n.x.x.x.x.x.x.x.x.C.Q.p.R.S.T.U.V.U.W.X.Y.Z.n.x.x.x.x.l.f.aQt",
".l.0.w.y.y.y.x.y.x.x.1.2.3.4.5.6.6.6.7.8.9#.###a.x.x.x.x#b.h.a.#",
".h.v.l.n.l.v.l#c.A#d#e#f#g#h#i#j#k#l#m#n#o.L#p.P.y.p#q.y.n.f.aQt",
"#r.m#s#t#u#q#v#w.n#x#y#z#A#B#C#D#E#F#G#H#I#J.A.y.P#K.O.A.m.h#LQt",
".y.x.x.x.x.x.x.y.l#M.Y#N#O#P#Q#R#S#T#U#V#W#X#Y#Z#0#1#2#3.r.f.aQt",
".x.x.x.x.x.x.x.w#4#5#6#7#8#9a.a#aaab#9acadaeafagahaiajakal.f.a.#",
".x.x.x.x.x.x.wamanaoapaqarasasatauatavawaxayazaAaBaCaDaEal.u.d.#",
".x.x.x.x.x.xaFaGaHaIaJaKaLaMaMaNaOaPaQaRaSaTaUaUaVaWaXaYal.u.aQt",
".x.x.x.x.x.x.oaZa0a1a2a3a4a5a6a7a8a9b.b#babbbcbdbebfbgbhbi.f.aQt",
".x.x.x.xbj.x.QbkblbmbnbobpbqbrbrbrbsbtbubvbwbxbybzbAbBbCbD.u.aQt",
".x.x.x.x.x.xbE.3bFbGbHbIbJbKbLbMbrbNbObPbQbRbSbTbzbUaZ.n.h.h.a.#",
".x.xbV.x.x.x.p.3bWbXbYbZb0b1b2b3b4b5b6b7b8b9c.c#cacbcc.z#r.f.aQt",
"bj.x.x.x.x.xbEaZcdcecfcgchcicjckclcmcncocpcqcrcsctcucv.x.n.f.a.#",
".x.x.x.x.x.x#baZQtcwcxcyczcAcBblcCcDcEcFcGcHcIbicJaF.x.x.n.f.aQt",
".x.x.x.x.xbjaFcKcLcMcNcOcPcQcRcSafafcTcUcVcWcXcY.x.x.x.x.n.g.aQt",
".x.x.x.x.x.xaFaZcZc0c1azc2c3c4c5aAc6c7c8c9d.d##w.x.x.x.x.m.f.aQt",
".x.x.x.x.x.xaFdadbdcdddedfdgdhdidjdkdlc0dmdn.x.x.x.x.x.x.n.f.b.#",
".x.x.x.x.x.xaF#bdodpdqdrdsdtdudvdwdxdydz#ddA.x.x.y.x.x.x.n.qdBQt",
".x.x.x.x.x.x.x.x.wdCdDdEdFdGdHdIdJdKdLdM.x.x.x.x.x.x.x.x#r.h.aQt",
".x.x.x.x.x.x.x.x.xdNdOdPdQdRdSdTdUdVdWdX.x.x.x.x.x.x.x.x.n.f.aQt",
".xbj.x.x.x.x.x.x.x.xdYdZ.maF.G.Kd0d1.w.x.x.x.x.x.x.x.x.x.m.f.aQt",
".x.x.x.x.x.x.x.x.x.xd2d3.wbV.wcv.Cd4.x.x.x.x.x.x.x.x.x.x.n.f.a.#",
".x.x.x.x.xd5.x.x.x.x.x.x.x.x.xd6.x.x.x.x.x.x.x.x.x.x.x.xd7.f.aQt",
".x.x.x.x.x.x.x.x.x.x.x.x.x.x.x.x.x.x.x.x.xbj.x.x.x.x.x.xdN.f.bQt",
".x.x.x.x.x.x.x.x.x.x.x.x.x.x.x.x.x.x.x.x.x.x.x.x.x.x.x.x.v.h.a.#",
".x.x.x.x.x.x.x.x.x.x.x.x.x.x.xbj.x.x.x.x.x.x.x.xbj.x.x.xdNam.aQt"};
