/* XPM */
static char *dummy[]={
"32 32 372 2",
".a c #241317",
"Qt c #241318",
".# c #241319",
".1 c #241417",
"cS c #24141a",
"#f c #251319",
".b c #25131a",
".L c #251418",
"cR c #25151c",
"b7 c #25151d",
"bR c #25161b",
"cL c #25181f",
"dW c #26141a",
"cB c #26141b",
".g c #26151b",
".c c #26151c",
".i c #26151d",
"co c #26161f",
".d c #27141c",
".f c #27151b",
".e c #27151d",
"cQ c #271a23",
"ci c #271b23",
".h c #28151d",
".M c #28161c",
"bz c #281922",
"cE c #291721",
"#l c #291c26",
"cK c #291e27",
"cj c #2a1620",
"cC c #2a1721",
"#C c #2a1d26",
"bA c #2b1720",
"cT c #2b1721",
"#a c #2b1822",
".E c #2b1823",
".4 c #2b1b26",
".p c #2b1c26",
".R c #2b1d28",
"cJ c #2b1e2a",
".F c #2c1823",
"aK c #2c1a24",
"dH c #2c1b27",
"da c #2c202c",
"d. c #2c222d",
"by c #2c232e",
"a1 c #2d1822",
"dl c #2d1824",
"ap c #2d1924",
"bi c #2d1a25",
"#b c #2d1a26",
"#L c #2d1b26",
"cv c #2d1d29",
"aW c #2d242f",
"bg c #2d2733",
"a2 c #2e1924",
"cP c #2e2632",
"#z c #2f1b26",
".G c #2f1b27",
".o c #2f1d29",
"cI c #2f1e2c",
".A c #2f1f2a",
"dA c #2f2433",
"#8 c #301a26",
"#A c #301b29",
".q c #301d2a",
"aT c #302630",
"aV c #302631",
"aU c #302733",
".W c #302834",
"ch c #302837",
"aa c #302937",
"aX c #302b38",
"dS c #311b2a",
"cW c #311d2c",
".X c #312734",
"dF c #312a39",
"bO c #312b38",
"cn c #321b2b",
"#B c #321d2c",
"dz c #321d2f",
".n c #321f2c",
"dm c #32202f",
"## c #322533",
"cA c #322635",
"aS c #322933",
"dT c #331c2b",
".z c #331d2a",
".Q c #331d2d",
".j c #331e2c",
"#k c #331e2d",
".u c #331f2d",
".t c #331f2e",
"b4 c #341d2c",
".r c #341e2b",
"#P c #341e2c",
".2 c #341e2d",
"#g c #341e2e",
"#c c #341e2f",
".v c #341f2d",
".m c #341f2e",
"am c #341f2f",
"aH c #342030",
"dQ c #342434",
"#u c #343242",
"#9 c #343342",
"#t c #343645",
".s c #351e2e",
".k c #351f2d",
".l c #351f2e",
".w c #351f2f",
".H c #351f30",
"#d c #352030",
"#6 c #352031",
"#y c #352131",
"dx c #35293a",
".V c #352a33",
"b3 c #352c3b",
"dk c #353142",
"dy c #361e2f",
"b6 c #361e30",
"#e c #361f2f",
".K c #361f30",
".J c #361f31",
"#M c #361f32",
"dI c #361f33",
".x c #362031",
".I c #362032",
"dL c #362134",
"#U c #362637",
"dR c #36293a",
"dM c #362d3f",
"aG c #362f41",
".D c #363243",
"bo c #363342",
"dP c #363949",
"a0 c #363f50",
"ck c #371e31",
".3 c #371f30",
"#Q c #371f31",
"#7 c #371f32",
".y c #372032",
"b5 c #372033",
"cD c #372034",
"bP c #372132",
".N c #372133",
"#w c #372134",
"bQ c #372334",
"#v c #37293b",
"#V c #373042",
"dn c #373043",
"cX c #373143",
"c9 c #373d4e",
"#h c #381f32",
"an c #382133",
"#i c #382235",
".Y c #382337",
"#R c #382636",
"aq c #383845",
"#T c #383847",
"bh c #392034",
"dU c #392135",
".0 c #392136",
"cV c #392237",
"aJ c #392336",
"ao c #392337",
"cm c #392438",
"bB c #392938",
"dN c #393448",
"#S c #393d4f",
"dO c #394154",
"bS c #394355",
"cw c #394356",
"#O c #3a2236",
"#j c #3a2237",
".Z c #3a2338",
"#x c #3a2438",
"cb c #3a3e52",
"cF c #3a4255",
"c0 c #3a4458",
"cM c #3a4558",
"#N c #3b2338",
".O c #3b2439",
"d# c #3b253a",
"cl c #3b273a",
"dK c #3b273c",
"cp c #3b4255",
"#s c #3b4456",
".B c #3b4457",
"aI c #3c263b",
"cU c #3c293c",
"dV c #3c293f",
"b8 c #3c4257",
"cZ c #3c475c",
"#W c #3c4a5e",
".P c #3d253b",
"dX c #3d2b40",
"#K c #3d495e",
"do c #3d4960",
"c8 c #3d4b60",
"bf c #3d4c61",
"dJ c #3e2a3e",
"bj c #3e3443",
"cu c #3e384b",
"aL c #3e3c47",
"cH c #3e465c",
"db c #3e4b61",
"aF c #3e4e64",
"c1 c #3e4f64",
"c3 c #3e566b",
"cY c #3f4b61",
"bx c #3f4d63",
"ab c #3f4f65",
"#5 c #3f566b",
"a9 c #405169",
"b. c #405268",
"c2 c #40566b",
"bd c #415167",
"be c #415369",
"a3 c #423a47",
"dB c #42546c",
"#. c #425770",
"cc c #425a71",
"c7 c #425a72",
".U c #435368",
"bN c #435369",
".C c #435c74",
"aE c #435d75",
"cz c #44445c",
"cg c #44475f",
"bp c #445871",
"aR c #445b73",
"a8 c #445c73",
"cs c #45425a",
"b# c #455f78",
"ct c #46435a",
"bF c #465c76",
"dt c #46637e",
"aY c #46647f",
".S c #46657f",
".5 c #466680",
"ba c #466781",
"#m c #466882",
"bb c #476781",
"#D c #476881",
"bc c #476984",
"bC c #484452",
"aD c #486781",
"at c #49667f",
"dG c #496782",
"cO c #496c88",
"dw c #4a6581",
"dj c #4b6582",
"dE c #4b6e89",
"a# c #4b6f8b",
"c4 c #4b718e",
"cr c #4d5d7a",
"du c #4d6f8d",
"bD c #4f505d",
"bE c #4f5768",
"ca c #4f5f7e",
"cG c #4f6f8d",
"a. c #507a99",
"au c #507d9b",
"dC c #517799",
"dp c #517897",
"cq c #527394",
"dc c #527395",
"bM c #527899",
"#J c #5281a1",
"aZ c #5285a6",
"b9 c #537698",
"bG c #537fa0",
"c6 c #5386a7",
"bT c #547899",
"bw c #547d9f",
"cf c #556c8f",
"b2 c #557c9e",
"#I c #558aab",
"di c #5687a8",
"cy c #577c9f",
"bX c #578db0",
"dD c #578eb3",
"ds c #5790b3",
"c# c #586c90",
".9 c #58809b",
"bq c #5884a8",
"dv c #5889ab",
"bY c #5893b7",
"c. c #597195",
"cN c #5995b9",
"#r c #5a88a6",
"dd c #5a90b4",
"cx c #5a94b8",
".T c #5a95b9",
"bU c #5b8db1",
"ac c #5b91b4",
"aQ c #5b9abe",
"dh c #5b9cc1",
"#X c #5c849f",
"ce c #5c8fb4",
"bv c #5c97bc",
"dq c #5c97bd",
"cd c #5c9bc1",
"c5 c #5c9dc3",
"aC c #5d7589",
"b1 c #5d96bc",
"bW c #5d96bd",
"br c #5d9bc2",
"dg c #5da0c6",
"#H c #5e90b0",
"bV c #5e99c0",
"bL c #5e9abf",
"de c #5e9ec6",
"df c #5ea2c8",
"bH c #5f9dc2",
"aP c #60a2c8",
"av c #60a3c9",
"bK c #60a3cc",
"b0 c #60a4cc",
"dr c #60a5cd",
"bZ c #60a5ce",
"bu c #60a7cf",
"al c #61a1c6",
"#4 c #61a4c9",
"bI c #61a6ce",
"bt c #61a7cf",
"bs c #61a8d0",
"bJ c #62abd3",
"bn c #667687",
"aw c #6792ac",
".6 c #67a5c9",
"a7 c #6990ab",
"as c #6a99b8",
"#n c #6aacd3",
"aO c #6ba9cc",
"az c #6c7c8b",
"aB c #6c7c8c",
"aA c #6d7d8b",
"ay c #6d7d8c",
"ax c #6d7e8d",
"ar c #6f94ad",
"#3 c #6fb2d8",
".8 c #708da2",
".7 c #7399b2",
"#q c #7db9d9",
"ad c #7eb3d0",
"#Y c #7fb7d7",
"#2 c #7fbadb",
"bk c #8097a7",
"#G c #81b4d0",
"ak c #82b9d6",
"a6 c #89c0dd",
"aM c #8aa6b7",
"a4 c #8daabb",
"aN c #8ec1dc",
"#o c #90c5e0",
"bm c #93b3c6",
"bl c #94b8cd",
"#Z c #98c9e2",
"aj c #9bc7dd",
"#F c #9bcbe4",
"ae c #9cc7dd",
"#p c #9ccbe3",
"a5 c #9fcbe1",
"af c #a1cce2",
"ai c #a1cce3",
"ag c #a4cce2",
"#E c #a4cfe6",
"ah c #a5cee4",
"#1 c #a7d0e7",
"#0 c #a7d1e7",
"QtQt.#.#Qt.#.#Qt.#.#QtQt.#.#QtQt.#.#.#.a.#.#.#Qt.#.#.#.#.#Qt.#.#",
"Qt.b.c.d.e.e.e.e.e.f.e.e.b.#.d.g.e.e.e.e.d.h.e.e.e.e.d.h.e.e.e.e",
".#.i.j.k.l.l.k.k.m.l.k.n.o.p.q.r.k.s.r.s.l.k.k.t.k.l.u.l.v.k.k.k",
".#.e.k.w.x.y.x.x.y.y.z.A.B.C.D.E.F.G.H.x.x.x.I.J.x.y.x.x.y.x.K.l",
".L.M.u.N.O.P.P.O.P.O.Q.R.S.T.U.V.W.X.Y.Z.0.O.P.P.P.P.P.P.P.O.x.l",
".1.M.2.3.P.P.P.P.O.P.j.4.5.6.7.8.9#.###a#b#c.P.P.P.P.P.P.P.O#d#e",
"#f.e#g#h.P.P.P#i#j.P#k#l#m#n#o#p#q#r#s#t#u#v#w#x.P.P.P.P.P.P.x#e",
".#.e.2#y.P.P#i#z#A.Z#B#C#D#n#o#E#F#G#H#I#J#K#L#M.P.P.P#N.P#O.w#e",
".#.e#P#Q.O.x#R#S#T#U#V#W#X#Y#Z#0#1#Z#2#3#4#5.E.m#6#e#7.w.y#e#e.l",
".#.d.k.y.Z#8#9a.a#aaabacadaeafagahaiajakal#5#lam.Jan#h#6.x.N.y.y",
".#.e.l.xaoapaqarasatauavawaxayazaAaBayaCaDaEaFaGaH#N.P.P.P.PaI.P",
"Qt.f.k.yaJaKaLaMaNaOaPaQaRaSaTaUaUaVaVaWaXaYaZa0a1.J.P.P.P.P.P.P",
".#.e.l.x.Za2a3a4a5a6a7a8a9b.b#babbbcbaaEbdbebfbga1bh.P.P.P.P.P.P",
".#.e.l.x.ZbibjbkblbmbnbobpbqbrbsbtbtbubvbwbxbybzbA#N.P.P.P.P.P.P",
"Qt.e.k.y.O.IbBbCbDbDbEbFbGbHbIbJbJbJbJbKbLbMbNbOa1bP.P.P.P.P.P.P",
".#.e.k.x.P.PbQa1.1bRbSbTbUbVbVbWbXbYbZb0b1b2bFb3bAbP.P.P.P.P.P.P",
".#.eb4b5.P.Pb6a1.#b7b8b9c.c#c#cacbcccdcecfcgchcicj.0.P.P.P.P.P.P",
".#.e.lckcl.PcmcncjcocpcqcrcsctcucvcwcxcyczcAcB.#cCcD.P.P.P.P.P.P",
".#.e.s#e.P.P.P#O#kcEcFcGcHcIcJcKcLcMcNcOcPcQcRcScTb5.PcU.P.P.P.P",
".#.e.s#h.P.P.P.PcVcWcXcYcZc0c1c2c3c4c5c6c7c8c9d.cT.y.P.P.P.P.P.P",
".#.e.2.x.P.P.P.Pd##N#cdadbdcdddedfdfdgdfdhdidjdkdl#O.P.P.P.P.P.P",
"Qt.e.l.y.P.P.P.P.P.PcVdmdndodpdqdrdsdtdudvdwcbdxdy.P.P.P.P.P.P.P",
".#.d.u.x.P.P.P.P.P.P.P.ZdzdAdBdCdDdEdFcbdGcbdHdI.P.P.P.P.PdJ.P.P",
".#.h.l.x.P.P.PcldK.P.P.PdLdLdMdNdOdPdQdxdkdRbP#j.P.P.P.P.P.P.P.P",
".#.e.v.x.P.P.P.P.P.P.P.P.P.Pcn.FcTdS#NdydT#O.P.P.P.P.P.P.P.P.P.P",
"Qt.e.l.x.O.P.P.P.P.P.P.P.P.P#N.PcDdU.P.Pbh.P.P.P.P.P.P.P.P.P.P.P",
".#.e.k.y.P.P.P.P.PdV.P.P.P.P.P.P.P.P.P.P#N.P.P.P.P.P.P.P.P.P.P.P",
".#.e.k.x.PdJ.P.P.P.P.P.P.P.P.P.P.P.P.P.P.P.P.P.P.P.P.P.P.P.P.P.P",
".#.h.l.y#N.P.P.P.P.P.P.P.P.P.P.P.P.P.P.P.P.P.P.P.P.P.P.P.P.P.P.P",
"QtdW.k.y.P.P.P.P.P.P.P.P.P.P.P.P.P.P.P.P.P.P.P.P.P.P.P.P.P.P.P.P",
".#.e.k.K.P.P.P.P.P.P.PdV.P.P.P.P.P.P.P.P.P.P.P.P.P.P.P.P.P.P.P.P",
".#.e.kbh.P.P.P.P.P.P.P.P.P.P.P.P.P.P.P.P.P.PdX.P.P.P.P.P.P.P.PdV"};
