/* XPM */
static char *bottommost_wall1710261609[] = {
/* columns rows colors chars-per-pixel */
"32 32 6 1 ",
"  c #4C2F49",
". c #78514F",
"X c #6E4A48",
"o c #3D253B",
"O c #25131A",
"+ c white",
/* pixels */
"                                ",
"                                ",
"    ........................    ",
"    ........................    ",
"  ..XXXXXXXXXXXXXXXXXXXXXX....  ",
"  ..XXXXXXXXXXXXXXXXXXXXXX....  ",
"  XXXXXXXXXXXXXXXXXXXXXXXXXX..  ",
"  XXXXXXXXXXXXXXXXXXXXXXXXXX..  ",
"  XXXXXXXXXXXXXXXXXXXXXXXXXXXX  ",
"  XXXXXXXXXXXXXXXXXXXXXXXXXXXX  ",
"  XXXXXXXXXXXXXXXXXXXXXXXXXX..  ",
"  XXXXXXXXXXXXXXXXXXXXXXXXXX..  ",
"                                ",
"                                ",
"oooooooooooooooooooooooooooooooo",
"oooooooooooooooooooooooooooooooo",
"ooOOOOOOOOOOOOOOOOOOOOOOOOOOoooo",
"ooOOOOOOOOOOOOOOOOOOOOOOOOOOoooo",
"ooOOOOOOOOOOooOOOOOOOOOOOOOOOOoo",
"ooOOOOOOOOOOooOOOOOOOOOOOOOOOOoo",
"OOOOOOOOOOOOooOOOOOOOOOOOOOOOOoo",
"OOOOOOOOOOOOooOOOOOOOOOOOOOOOOoo",
"ooOOooooooooOOooOOooooooooooOOOO",
"ooOOooooooooOOooOOooooooooooOOOO",
"OOOOOOOOOOOOOOOOOOOOOOOOOOOOOOoo",
"OOOOOOOOOOOOOOOOOOOOOOOOOOOOOOoo",
"OOOOOOOOOOOOOOOOOOOOOOOOOOOOOOOO",
"OOOOOOOOOOOOOOOOOOOOOOOOOOOOOOOO",
"OOOOOOOOOOOOOOOOOOOOOOOOOOOOOOOO",
"OOOOOOOOOOOOOOOOOOOOOOOOOOOOOOOO",
"OOOOOOOOOOOOOOOOOOOOOOOOOOOOOOOO",
"OOOOOOOOOOOOOOOOOOOOOOOOOOOOOOOO"
};
