/* XPM */
static char *dummy[]={
"32 32 593 2",
"bs c #1e212d",
"a6 c #1f1724",
"fp c #1f2535",
"e1 c #201319",
".G c #20131b",
"#0 c #201d32",
"#V c #211824",
"eD c #211a25",
"fk c #212130",
".# c #221317",
".i c #221318",
"Qt c #221319",
".a c #22131a",
"eC c #22141c",
"fd c #221420",
"bt c #231c29",
"#W c #231d2a",
"fo c #232e3f",
"bz c #24121d",
"eS c #241520",
"#b c #241824",
"ex c #241a24",
"eJ c #243347",
".l c #251216",
".k c #251218",
".e c #251316",
".m c #251317",
".b c #251318",
".c c #251319",
".f c #25131a",
"d# c #251926",
"#U c #251c2a",
"bg c #252233",
"gw c #25283b",
"cM c #252b3b",
"fs c #252c40",
"e0 c #261216",
"hf c #261318",
".o c #261319",
"#7 c #26131a",
".z c #26151c",
".s c #26151e",
".D c #26151f",
".q c #26161e",
".t c #26161f",
".C c #261620",
"fi c #261924",
"aB c #261d31",
"fq c #262539",
"cV c #262a3e",
".h c #271216",
"at c #271219",
"g# c #271319",
".Y c #27131a",
"cl c #27131b",
"#n c #27131c",
".g c #271418",
".d c #27141a",
".F c #27141b",
".x c #27151e",
".w c #27171e",
"aL c #271827",
"e7 c #271f2d",
"fr c #272336",
"dT c #281119",
".n c #281216",
"#M c #28121b",
".j c #28131b",
".A c #28151c",
".u c #28151d",
".r c #28161e",
".p c #28161f",
"gC c #281a2d",
"fB c #281e2f",
"fj c #28212f",
"cQ c #282e41",
"gO c #283041",
"co c #283241",
"cR c #283243",
"cS c #283445",
"c7 c #291119",
".v c #29151a",
".E c #29151c",
".y c #29161f",
"gs c #291b2c",
"bu c #291f2f",
"gP c #29283b",
"cT c #293649",
".B c #2a151d",
"eg c #2a1826",
"dV c #2a1927",
"eT c #2a1b2a",
"e2 c #2a1c28",
"f7 c #2a1c2f",
"eh c #2a1e2c",
"da c #2a3042",
"dx c #2b1622",
"d. c #2b1626",
"cL c #2b1828",
"fw c #2b1829",
"dw c #2b1924",
"eZ c #2b1927",
"cn c #2b1929",
"b1 c #2b3040",
"gN c #2b3140",
"cW c #2b394e",
"eB c #2c1925",
"a7 c #2c1926",
"fA c #2c1928",
"b0 c #2c1a29",
"gM c #2c2a3e",
"cU c #2c3345",
"cP c #2c3e58",
"g0 c #2d1a26",
"fh c #2d1b26",
"gX c #2d1b2b",
"cg c #2d2a3d",
"gt c #2d2b3b",
"eE c #2d2e3e",
"fv c #2d2e40",
"fc c #2d3343",
"dr c #2e1a28",
"#a c #2e1c29",
"dW c #2e2333",
"dy c #2e2a37",
"gd c #2e2e3d",
"ak c #2e425d",
"fe c #2f1a27",
"#m c #2f1b28",
"eR c #2f1e2b",
"gL c #2f2537",
"gJ c #2f2836",
"ad c #2f313f",
"gn c #2f3346",
"bh c #2f4258",
".X c #301c27",
"bW c #301d28",
".V c #302030",
".R c #30212e",
".Q c #30212f",
"gQ c #302236",
"fU c #302636",
"db c #30445c",
"#c c #311c2c",
"ck c #311d29",
"gI c #312435",
"e8 c #312436",
"cG c #312939",
"#C c #312d3c",
"al c #313040",
"bc c #321d2a",
"as c #321d2b",
"cH c #321d2f",
"#L c #321e2a",
"dt c #321f2a",
"eW c #32212d",
"#T c #322131",
"dS c #322132",
"gW c #322333",
"gK c #322438",
"ew c #322935",
"c6 c #331d2a",
"fz c #331e29",
"aN c #331e2a",
"gU c #331e2b",
"cJ c #331e2c",
".M c #331f2b",
".K c #331f2c",
"bC c #332936",
"#E c #33293d",
"aV c #332b39",
"c3 c #332d3b",
"#D c #333041",
"gB c #333a51",
"dQ c #341a29",
"aU c #341d30",
".L c #341e2d",
"aO c #341e2e",
"aS c #341e30",
".J c #341f2d",
"#N c #341f2e",
".O c #341f2f",
".Z c #341f30",
".I c #34202d",
".U c #34202e",
".P c #34202f",
"ar c #342030",
".5 c #342033",
"c5 c #342133",
"#F c #342236",
"ds c #342433",
"gH c #342636",
"fO c #34374a",
"a5 c #34495d",
"dl c #344960",
"ge c #344b62",
".W c #351d2d",
"bf c #351d2f",
"#6 c #351e2a",
".S c #351e2d",
"#K c #351e2f",
"aP c #351e31",
".N c #351f2d",
"eV c #351f2e",
"ho c #351f30",
"bB c #352030",
"bT c #352031",
".H c #35212d",
".4 c #35212e",
"hb c #352130",
"am c #352131",
"#h c #352134",
"a8 c #352435",
"fP c #352437",
"go c #35273a",
"gh c #354f65",
"fl c #35566d",
"gY c #361b2d",
"#o c #361e2d",
"aR c #361f2f",
".0 c #361f31",
".9 c #361f32",
"f8 c #361f35",
".T c #36202d",
"ez c #36202e",
"#B c #36202f",
"#5 c #362030",
"fS c #362031",
"aQ c #362032",
"#z c #362130",
"gc c #362230",
"eU c #362235",
"av c #362334",
"ey c #362535",
"ec c #362634",
"dq c #362c3b",
"bS c #362c3e",
"f6 c #363347",
"gx c #36455a",
"dz c #364b5e",
"## c #371f2f",
"#. c #371f30",
"#j c #371f31",
"#i c #371f32",
"au c #37202d",
"be c #372031",
"#k c #372032",
".2 c #372033",
"#A c #37212f",
"#1 c #372130",
"#l c #372131",
".3 c #372133",
"#g c #372232",
"fg c #372233",
"gp c #372336",
"c4 c #372436",
"#R c #37263b",
"eb c #37303c",
"e3 c #373140",
"by c #381e2e",
".8 c #381e30",
"#d c #381f2f",
"#f c #381f31",
"bb c #38202d",
"bd c #382031",
".1 c #382134",
"ef c #382234",
"eA c #382335",
"fT c #382336",
"cK c #382435",
"gR c #382437",
"dP c #382737",
"ae c #384253",
"aC c #384556",
"br c #385064",
"dJ c #38536d",
".7 c #391e31",
".6 c #392031",
"eY c #392033",
"aA c #392135",
"bZ c #392136",
"dU c #392235",
"dR c #392237",
"cI c #392335",
"aw c #392439",
"ed c #392537",
"gE c #39253a",
"ax c #392636",
"cf c #394456",
"g1 c #3a2031",
"dv c #3a2132",
"c9 c #3a2135",
"#G c #3a2231",
"ba c #3a2237",
"#y c #3a2335",
"ch c #3a2337",
"ay c #3a2436",
"gq c #3a2437",
"ee c #3a2538",
"#Q c #3a253a",
"#p c #3a2639",
"gT c #3a263b",
"hg c #3a263e",
"hh c #3a283b",
"eQ c #3a3d4f",
"eK c #3a4258",
"fN c #3a4658",
"dm c #3a556b",
"fQ c #3b1e33",
"#e c #3b2130",
"cj c #3b2237",
"g6 c #3b2335",
"#J c #3b2438",
"bA c #3b2538",
"gb c #3b2539",
"fy c #3b2638",
"#t c #3b2639",
"aq c #3b2739",
"#Z c #3b465e",
"a9 c #3c2138",
"bx c #3c2236",
"gr c #3c2334",
"du c #3c2337",
"#s c #3c2339",
"hn c #3c2436",
"#8 c #3c2437",
"#q c #3c2439",
"a# c #3c2539",
"gV c #3c2638",
"ga c #3c263b",
"gD c #3c263c",
"hi c #3c263e",
"aa c #3c273b",
"#u c #3c273c",
"eX c #3c283b",
"ci c #3c283c",
"ff c #3c293b",
"bD c #3c5369",
"aT c #3d1f36",
"bU c #3d1f39",
"an c #3d2038",
"ac c #3d2039",
"h. c #3d2233",
"g3 c #3d223a",
"fx c #3d223b",
"#3 c #3d233a",
"#P c #3d233c",
"aM c #3d233f",
"hj c #3d2439",
"bX c #3d2539",
"bY c #3d253a",
"#r c #3d253b",
"#O c #3d253c",
"a. c #3d253e",
"ap c #3d253f",
"hc c #3d2541",
"g5 c #3d2639",
"#9 c #3d263a",
"bv c #3d263c",
"cm c #3d263d",
"c8 c #3d273a",
"ei c #3d4251",
"aK c #3d4354",
"f# c #3d445b",
"af c #3d475a",
"aW c #3d485a",
"bV c #3e2039",
"h# c #3e2136",
"bw c #3e233b",
"fR c #3e2438",
"gF c #3e2439",
"#v c #3e243a",
"ha c #3e243c",
"he c #3e2537",
"hd c #3e2538",
"gS c #3e253a",
"b# c #3e253d",
"ao c #3e273d",
"b. c #3e2841",
"dK c #3e566b",
"#H c #3f2234",
"g9 c #3f2334",
"g7 c #3f2335",
"hk c #3f2336",
"gZ c #3f2339",
"#I c #3f2438",
"g4 c #3f2439",
"ab c #3f243a",
"#4 c #3f243c",
"gG c #3f2538",
"g. c #3f253a",
"f. c #3f334e",
"fC c #3f3f54",
"#X c #3f4d62",
"cr c #3f6180",
"hm c #402239",
"az c #402438",
"f9 c #402439",
"#w c #40243a",
"hl c #40283d",
"g2 c #40293e",
"cs c #404f61",
"gm c #405b76",
"#2 c #412436",
"#x c #412437",
"g8 c #412439",
"#S c #41243a",
"e9 c #42334b",
"bR c #435165",
"fM c #435264",
"e4 c #435e78",
"dc c #445c76",
"gv c #454a5b",
"ft c #45586c",
"gi c #456b86",
"eF c #465569",
"fn c #46738d",
"ag c #475668",
"fL c #475b70",
"bP c #47677d",
"fJ c #486f89",
"fI c #48738e",
"fD c #495870",
"dk c #495e77",
"cz c #49657d",
"en c #497494",
"dX c #4a5060",
"aj c #4a718f",
"eI c #4a758f",
"bE c #4a7597",
"bQ c #4b627b",
"cX c #4b6783",
"aX c #4b6f8b",
"gu c #4c5263",
"cu c #4c5867",
"cv c #4c5a68",
"cw c #4c5a6b",
"gA c #4c5f7a",
"cy c #4d5668",
"ct c #4d5762",
"fa c #4d6380",
"ej c #4d657a",
"fK c #4d6883",
"fV c #4e5166",
"cx c #4e5666",
"e6 c #4e6c84",
"dd c #4f6d87",
"ea c #50515d",
"fu c #506275",
"cN c #50697c",
"d8 c #507fa2",
"eN c #516480",
"eo c #517b9d",
"f5 c #525f75",
"eL c #535b73",
"fE c #536683",
"gg c #53708c",
"dA c #53799b",
"fb c #54637c",
"cO c #54718a",
"eG c #547b9d",
"eM c #555e79",
"dj c #556d8c",
"eP c #566b84",
"gz c #56718e",
"fF c #5680a2",
"ek c #5681a3",
"df c #56839f",
"gf c #587796",
"dh c #58819d",
"ce c #5885a5",
"gl c #5885a6",
"em c #5893b5",
"eO c #59728f",
"gy c #59778d",
"ah c #597c99",
"dI c #597ea1",
"dg c #5984a2",
"fH c #5995b3",
"fW c #5a7695",
"de c #5a7e98",
"ep c #5a89aa",
"fm c #5a96b6",
"b2 c #5b7c95",
"dY c #5c778f",
"di c #5c7d9a",
"bO c #5c849d",
"cA c #5c8bad",
"cp c #5d7d9a",
"d9 c #5d82a2",
"cF c #5e6878",
"aJ c #5e82a0",
"es c #5e82a3",
"bi c #5e849f",
"el c #5e99c3",
"er c #5f89aa",
"dB c #5f95bb",
"eq c #608aab",
"e5 c #6095b3",
"f0 c #6099bc",
"dC c #60a7ce",
"cq c #618fb1",
"fZ c #6194b3",
"d7 c #619cc1",
"bF c #619cc5",
"aY c #61a0bf",
"fG c #61a0c3",
"d2 c #61aace",
"eH c #629ac1",
"d3 c #62a8ce",
"dD c #62abd1",
"ev c #636675",
"#Y c #63768c",
"a4 c #6394b7",
"cY c #6395b2",
"dZ c #6396bc",
"dH c #639ac1",
"cD c #63a4c8",
"cC c #63aace",
"aD c #64839b",
"b4 c #649ac2",
"d0 c #64a2cd",
"d6 c #64a5cb",
"dF c #64abd3",
"et c #657e9c",
"f4 c #658099",
"bj c #65a3c9",
"d1 c #65aace",
"bk c #65abcc",
"gk c #669cc6",
"aI c #669dc1",
"d4 c #66aad1",
"dE c #66aad3",
"f2 c #67a2ca",
"cc c #67a5c5",
"dO c #686f81",
"gj c #689ec5",
"b3 c #68a0c6",
"f1 c #68a7cc",
"dG c #68a8d1",
"cB c #68a9cf",
"d5 c #68aad3",
"bq c #6998b8",
"fY c #6999bb",
"fX c #6b93b3",
"f3 c #6b9bba",
"cd c #6ba5c6",
"cZ c #6ca3c6",
"aH c #6da7ce",
"a3 c #70afd5",
"eu c #718193",
"ai c #719cbc",
"bG c #73b1d6",
"b5 c #74a2c3",
"cE c #7592a5",
"cb c #76accd",
"dn c #7da0b6",
"aG c #7db1d2",
"bl c #7dbcdb",
"bH c #7ebadc",
"a2 c #7fbbdc",
"c2 c #8093a1",
"aE c #80a1bd",
"dp c #8294a5",
"bN c #82aeca",
"bp c #82bad9",
"c0 c #82bcdb",
"aZ c #82bdda",
"dL c #87a4ba",
"dN c #89a5b9",
"aF c #8db3cd",
"e# c #90a7b9",
"b6 c #90b6ce",
"ca c #90b9d3",
"bI c #90c6e1",
"e. c #91afc5",
"a1 c #92c5e0",
"c# c #99b9cf",
"bM c #99c7df",
"b7 c #9abccc",
"c. c #9cbaca",
"b9 c #9cbdcd",
"bo c #9dcfe6",
"b8 c #9ebac9",
"c1 c #9fc7dc",
"bm c #a0cee4",
"a0 c #a2cbe1",
"dM c #a3c4d6",
"bJ c #a3d1e5",
"bL c #a4d0e3",
"bn c #a5d1e7",
"bK c #a7d1e2",
"do c #adcfe4",
"Qt.#.#.a.b.b.c.d.e.c.a.f.g.h.e.i.j.k.l.c.a.f.m.n.o.f.f.fQtQtQt.f",
".p.q.r.r.s.s.t.u.v.w.p.x.p.y.x.z.A.u.A.B.C.t.D.r.y.y.u.E.E.u.F.G",
".H.H.I.I.J.K.I.H.L.M.N.N.O.O.P.Q.R.H.M.S.T.I.U.V.J.W.S.H.M.H.X.Y",
".M.Z.0.1.2.2.3.4.5.6.7.8.9.2#.###a#b#c#d#e#f#g#h#i#j#k#l##.T#m#n",
"#o#j#p#q#r#r#s#t#u#v#w#x#y#z#A#B#C#D#E#F#G#H#I#r#v#v#r#q#J#K#L#M",
"#N.1#q#O#O#P#r#Q#R#O#S#v#T#U#V#W#X#Y#Z#0#1#2#2#3#3#4#O#r#q#5#6#7",
".I#.#8#9a.#r#qa#aaabac#hadaeafagahaiajakalaman#O#Paoap#Oaqarasat",
".Hauava#a#awaxay#JazaAaBaCaDaEaFaGaHaIaJaKaL.1aMa.#Oap#Oaa#NaN#7",
".JaOaPaP.9aQaRaSaTaUaVaWaXaYaZa0a1a2a3a4a5a6a7aPa8a9b.b#babbbc#n",
"bdbe.9.2.2.2aQbf.1bgbhbibjbkblbmbnbobpbqbrbsbtbu#hbvbwb#bxby#mbz",
"bAa##q#r#r#q#JbBbCbDbEbFbGbHbIbJbKbLbMbNbObPbQbRbSbTbUbVbx#zbW.f",
"bXbY#r#r#r#rbZb0b1b2b3b4b5b6b7b8b9c.c#cacbcccdcecfcgchcicjbBckcl",
"#r#r#O#Ocm#rbZcncocpcqcrcsctcucvcwcxcyczcAcBcCcDcEcFcGcHcI#TcJcl",
"#r#r#Oao#v#rcKcLcMcNcOcPcQcocRcScTcUcVcWcXcYcZc0c1c2c3a7c4c5c6c7",
"#3#r#r#rbYc8c9d.d#dadbdcdddedfdgdhdidjdkdldmdnc1dodpdqdr#ydsdtc7",
"#r#v#r#r#vdudvdwdxdydzdAdBdCdDdEdFdGdHdIdJdKdLdMdNdOdPdQdRdS#LdT",
"#v#r#r#rbY#tdUdVdWdXdYdZd0d1d2d3d4d5d6d7d8d9e.e#eaebecedee#5dt.o",
"#r#r#r#rbYaaefegeheiejekeld0emeneoepeqereseteuevewexey#teeez#L.f",
"#r#r#r#r#v#teAeBeCeDeEeFeGeHeIeJeKeLeMeNeOePeQeReSeTeU#r#qeVeW.f",
"#v#r#r#vbYeXeYeZe0e1e2e3e4e5e6e7e8e9f.f#fafbfcfdfe.9a##r#J.0bW.b",
"#r#v#r#rbYfffgfh#nfifjfkflfmfnfofpfqfrfsftfufvfw.6#v#vfxfy.Hfz.f",
"#r#r#r#r#vaafgfAfBfCfDfEfFfGfHfIfJfKfLfMfNfOfPfQfRab#raoa#fSeW.#",
"#v#r#r#v#veXfTdrfUfVfWfXfYfZf0f1f2f3f4f5f6f7f8f9g.bY#O#O#p#z#Lg#",
"#r#r#r#r#vgagb#ggcgdgegfggghgigjgkglgmgngogpgq#ta##rb##Oa#.P#L.o",
"#r#r#r#r#r#rbXbYgrgsgtgugvgwgxgygzgAgBgC.9a#gDgE#r#O#O#O#q.4.M.o",
"gF#r#r#v#v#r#r#vgGgHgIgJgKgLgMgNgOgPgQgR#qgSgTci#ra.#O#O#t#zgU.m",
"#r#r#r#r#r#r#v#v#2gVgWgXgYgZ.5eTg0b0g1gFg2g3#reX#r#O#Oa.du.HgU.m",
"#r#v#r#r#r#r#r#rg4g4g5g6g7#2g8g6g9h.h#aoha#r#rbA#r#O#O#Oa#hb#L.o",
"#v#r#r#v#r#3#v#r#w#v#r#r#r#3aaga#r#v#Ohca.gahdhe#r#Oa.ao#q.Udthf",
"#r#3#r#rgF#r#r#ra.#r#ra.#rhgaahhhia.hcapa.bYhjhk#r#r#P#Ogb#BaNhf",
"#r#r#r#r#r#r#v#raa#r#v#r#Qffg3a.gD#q#O#r#v#rga#r#ra.#Oa.#J#z.M.o",
"#v#r#r#v#r#r#r#r#qa#f9#w#r#vhlhmab#rhnaz#IgagagD#r#O#Oha#qhogU.e"};
