/* XPM */
static char *dummy[]={
"32 32 611 2",
"fj c #1e171b",
"eZ c #211e29",
"ga c #221417",
".u c #221418",
".v c #221419",
"fI c #22232d",
"fL c #222536",
"dt c #222939",
"fU c #23131d",
".N c #231519",
"fb c #23181d",
"fJ c #232635",
"cJ c #23374c",
"bC c #241318",
".d c #241319",
"aJ c #24131a",
"eY c #24131d",
".n c #241417",
".s c #24141b",
".b c #24141f",
"hg c #241623",
"hu c #24171e",
"gL c #241b2e",
"aN c #242739",
"e5 c #242d42",
"eW c #25121a",
"#P c #251318",
"aY c #25131a",
".O c #25131b",
"Qt c #25131d",
".o c #25141a",
".# c #25141b",
"bY c #25141f",
"fv c #251424",
"dN c #25151e",
"cD c #251521",
"do c #25161c",
"fo c #251a29",
"bE c #251a2d",
"ds c #251b22",
"fE c #252c44",
".l c #261318",
".r c #261319",
".g c #26131b",
"at c #26141b",
".a c #26141e",
".e c #26151a",
"gs c #26151e",
"cg c #26151f",
"h. c #26161e",
"bZ c #261930",
"fD c #26202c",
"c# c #26293e",
"gP c #262c42",
".f c #27131b",
".c c #27131c",
"#3 c #27141a",
".h c #27141b",
".j c #27141d",
"ff c #27141e",
"ew c #27151b",
"fz c #27151c",
"hG c #27151d",
"bB c #27151f",
"c1 c #271520",
".m c #27161a",
"dQ c #271822",
"aM c #271926",
"gp c #27202d",
"fK c #272336",
"a3 c #272e43",
".p c #281118",
".q c #28111a",
".k c #28111e",
".i c #28131c",
"ac c #28141d",
".t c #28151a",
"aI c #28151d",
"#r c #28161c",
"ec c #281621",
"fV c #281625",
"c3 c #281723",
"ak c #28182e",
"cA c #281923",
"fO c #281927",
"#8 c #282333",
"gU c #28243c",
"cK c #283246",
"dc c #283b51",
"fT c #29141a",
"fi c #291620",
"dr c #291722",
"eC c #291723",
"fC c #291e27",
"aC c #291e2d",
"bi c #291f2f",
"fk c #29232d",
"fW c #292939",
"fB c #2a1322",
"bx c #2a1a30",
"dR c #2a202e",
"fa c #2a232c",
"#9 c #2a2437",
"hh c #2b161f",
"eT c #2b1628",
"gc c #2b1724",
"hd c #2b1926",
"dk c #2b1a26",
"cY c #2b1c28",
"hf c #2b202c",
"ao c #2b2234",
"aw c #2b2a36",
"fc c #2c1323",
"cF c #2c182c",
"fw c #2c1924",
"ax c #2c2637",
"ay c #2c273c",
"a2 c #2c2f3a",
"cL c #2c3245",
"dK c #2d1a27",
"bt c #2d1f30",
"av c #2d212e",
"a4 c #2d4157",
"aL c #2e1826",
"cd c #2e1d2c",
"bw c #2e1d2d",
"#X c #2e1e2f",
"b# c #2e1f2c",
"gq c #2e1f31",
"aU c #2e202c",
"a1 c #2e2a35",
"aj c #2f1a29",
"gV c #2f1c2f",
".H c #2f1f29",
"dE c #2f3a56",
"c7 c #2f3e57",
"e4 c #2f4d65",
"hi c #301a26",
"ai c #301c2e",
".w c #301d28",
".J c #301d2a",
"#W c #301d2e",
".z c #301e2a",
".I c #301f2a",
"g. c #30202f",
"ev c #30212d",
"#7 c #302133",
"gw c #30384a",
"dS c #303c4d",
".E c #311c2a",
".x c #311d29",
".y c #311d2a",
"bu c #311e2c",
".B c #311f2b",
"eD c #312236",
"et c #312437",
"bR c #312638",
"bS c #312d41",
"c4 c #313241",
".M c #321c27",
".L c #321d29",
".G c #321d2a",
"ba c #321d2c",
"fP c #321e29",
"hc c #321f2f",
"c0 c #321f31",
"ea c #32212d",
"dM c #32212e",
".5 c #322132",
"gM c #323e54",
".D c #331d29",
".F c #331d2a",
"aD c #331d30",
".C c #331e29",
".A c #331e2b",
"bD c #331e2c",
"d9 c #331e2e",
"cC c #331f31",
"g0 c #332737",
"bQ c #332b3d",
"cc c #332d42",
"ed c #333142",
"bT c #333148",
"g6 c #333343",
"cM c #333645",
"db c #334358",
"#O c #341d2b",
"dn c #341d2d",
"aH c #341e2d",
"cf c #341e2e",
".K c #341f2b",
"bg c #341f2e",
".U c #341f2f",
".Z c #34202d",
".X c #34202e",
".V c #342030",
"#Y c #342031",
"fe c #342330",
"g8 c #342336",
"bU c #34293c",
"cz c #34394a",
"c8 c #344254",
".8 c #351e2d",
".2 c #351e2f",
".R c #351e30",
"#q c #351f2b",
"ab c #351f2d",
".0 c #351f2e",
".W c #351f2f",
".1 c #351f31",
".4 c #352031",
"#6 c #352032",
".T c #35212d",
".Y c #35212e",
".6 c #352130",
"hr c #352131",
"gZ c #352134",
"ap c #352135",
"hn c #352138",
"g3 c #35253c",
"g7 c #352e3c",
"f9 c #352e3e",
"gd c #353343",
"cN c #353848",
"cQ c #353950",
"aV c #361d2e",
".3 c #361e30",
"gH c #361f2f",
"ad c #361f30",
".S c #361f31",
".7 c #36202d",
".P c #36202e",
".Q c #362030",
"bX c #362032",
"e# c #362130",
"bh c #362131",
"fh c #362132",
"gv c #362733",
"gG c #362b3f",
"cP c #363643",
"cO c #363847",
"cj c #363c54",
"cX c #363d4e",
"c9 c #364556",
"d# c #36475f",
"#p c #371f2f",
"ho c #371f32",
"fy c #37202e",
"#h c #372032",
"#E c #372130",
"eB c #372131",
"gX c #372132",
"ht c #372133",
"aG c #372231",
"ah c #372232",
"#i c #372234",
"ch c #372235",
"by c #372438",
"g2 c #37263a",
"bb c #372838",
"ci c #37293e",
"fp c #372b3b",
"g1 c #372d3c",
"e0 c #373748",
"g5 c #373c4d",
"fH c #374d61",
"gA c #375670",
"#D c #381f30",
"as c #381f32",
"dm c #382031",
"bA c #382032",
"#N c #382033",
"g9 c #382034",
"#V c #382133",
"bV c #382134",
"#F c #382234",
"a0 c #382337",
"bv c #382434",
"he c #382539",
"aW c #382639",
"a. c #38263a",
"#n c #38273b",
"aE c #38283c",
"eS c #383642",
"fl c #383b52",
"cG c #383d53",
"f8 c #383e51",
"gF c #38405b",
"d3 c #384e65",
"#s c #391f33",
"bf c #392031",
"hs c #392135",
".9 c #392234",
"cE c #392236",
"ag c #392336",
"aK c #392337",
"bd c #392338",
"gI c #392533",
"eV c #392539",
"#m c #39253a",
"hD c #392544",
"fQ c #392633",
"al c #392f49",
"g4 c #393347",
"bP c #393f52",
"d. c #39455c",
"du c #394862",
"gK c #3a1f32",
"cB c #3a202f",
"ae c #3a2035",
"cZ c #3a212f",
"gb c #3a2232",
"g# c #3a2235",
"#. c #3a2236",
"eU c #3a2237",
"a# c #3a223a",
"#5 c #3a2334",
"#j c #3a2335",
"#4 c #3a2336",
"#g c #3a2337",
"af c #3a2338",
"#K c #3a233e",
"hq c #3a2435",
"hE c #3a2541",
"hp c #3a2635",
"ha c #3a2641",
"hb c #3a273b",
"gW c #3a283b",
"d8 c #3a3043",
"gO c #3a3c50",
"bj c #3a4556",
"cw c #3a526b",
"#Q c #3b1f32",
"dL c #3b2031",
"#M c #3b2036",
"ce c #3b2233",
"bW c #3b2234",
"bc c #3b2335",
"#R c #3b233a",
"hk c #3b233d",
"#G c #3b2436",
"#b c #3b2438",
"gu c #3b2536",
"#d c #3b2538",
"fR c #3b2539",
"aq c #3b253a",
"hl c #3b2540",
"hz c #3b2542",
"fx c #3b263e",
"dP c #3b2738",
"gr c #3b273a",
"fr c #3b3451",
"da c #3b435c",
"dl c #3c2132",
"gY c #3c2238",
"ey c #3c223a",
"#o c #3c2336",
"#a c #3c2337",
"be c #3c2339",
"eX c #3c233e",
"eu c #3c2438",
"## c #3c2439",
"hv c #3c2440",
"aZ c #3c2539",
"#l c #3c253a",
"#A c #3c253c",
"hw c #3c253e",
"#U c #3c2638",
"#J c #3c263a",
"fd c #3c263b",
"#t c #3c263c",
"gJ c #3c263e",
"fS c #3c273b",
"ez c #3c2840",
"fN c #3c3e50",
"c. c #3c4960",
"e. c #3d2233",
"hj c #3d2336",
"ex c #3d233a",
"#w c #3d233c",
"#f c #3d2438",
"#z c #3d243c",
"#S c #3d243e",
"eA c #3d2538",
"#e c #3d2539",
"#B c #3d253b",
"dO c #3d253e",
"dq c #3d2638",
"fA c #3d263a",
"fg c #3d283c",
"hA c #3d2944",
"dj c #3d3c49",
"eE c #3d4659",
"f7 c #3d4b5f",
"dd c #3d5873",
"#1 c #3e223a",
"#k c #3e2338",
"eb c #3e233c",
"#c c #3e2437",
"hy c #3e2439",
"#y c #3e243a",
"dp c #3e243c",
"#v c #3e243e",
"hC c #3e2539",
"#C c #3e253b",
"#T c #3e253c",
"#0 c #3e2635",
"ar c #3e263c",
"aa c #3e2840",
"#u c #3e293e",
"dJ c #3e3d4c",
"gT c #3e4f6a",
"az c #3e526d",
"c6 c #3e5c74",
"#H c #3f2338",
"hB c #3f2438",
"bz c #3f2439",
"#x c #3f243a",
"gt c #3f253a",
"c2 c #3f2639",
"h# c #3f263a",
"#L c #3f273c",
"#2 c #3f293e",
"gx c #3f5f76",
"au c #401f31",
"hF c #40243a",
"an c #404456",
"fX c #404a60",
"aF c #412238",
"hx c #412435",
"hm c #412437",
"aX c #41243a",
"#I c #412539",
"#Z c #41253a",
"fu c #413e5a",
"f6 c #41546f",
"fq c #423249",
"go c #42445a",
"aO c #42576b",
"ck c #425a73",
"f# c #444966",
"dD c #444c6c",
"bF c #44536e",
"b0 c #445575",
"gz c #446c85",
"fs c #45576f",
"f5 c #45647d",
"f3 c #456b86",
"cv c #476f8a",
"fY c #485976",
"cI c #48677a",
"eK c #486b81",
"f4 c #486d88",
"e6 c #494863",
"fZ c #496c8c",
"dT c #4a5f7f",
"e1 c #4b5c77",
"fF c #4b6f8d",
"c5 c #4d687a",
"ee c #4d687b",
"aB c #4d697b",
"gQ c #4e647f",
"eF c #4e6482",
"gE c #4f7392",
"ca c #505d77",
"cR c #506589",
"aQ c #507289",
"gS c #507391",
"bl c #507d97",
"eJ c #507e97",
"gN c #515c72",
"d2 c #516787",
"aP c #517188",
"f2 c #5180a3",
"e8 c #525b7d",
"de c #52739a",
"fm c #537695",
"cl c #537c99",
"ep c #537e97",
"am c #545e6f",
"dv c #546a8b",
"bk c #54788c",
"ge c #556275",
"cm c #557e99",
"es c #565567",
"e9 c #566b92",
"gB c #5688a9",
"e7 c #575a7a",
"dC c #57728d",
"eL c #577e9f",
"a5 c #5781a0",
"bm c #5786a7",
"f0 c #578db2",
"fM c #586679",
"eO c #597ea5",
"cn c #59809c",
"e2 c #5989ad",
"eP c #5a7f9f",
"gR c #5b85a4",
"dw c #5b86a1",
"dB c #5b8aa5",
"dz c #5b97bc",
"cb c #5c687e",
"gn c #5c7288",
"eG c #5c82a5",
"eN c #5c84aa",
"dy c #5c93b8",
"ft c #5d6b8b",
"f. c #5d7397",
"cH c #5d798d",
"b9 c #5d8299",
"eM c #5d85ab",
"ef c #5d88a3",
"eo c #5d91ad",
"dV c #5da3c6",
"dW c #5daed2",
"aT c #5e7184",
"e3 c #5e94b7",
"gD c #5e94b9",
"eQ c #5f7d95",
"dx c #5f97b0",
"gy c #60839e",
"eH c #609ac0",
"gi c #609bbb",
"eR c #61687a",
"aR c #618eac",
"d1 c #618fae",
"dA c #6193b7",
"gh c #619bba",
"d0 c #61a2cb",
"dZ c #61acdb",
"dX c #61add6",
"dF c #6284a0",
"fn c #6292af",
"cT c #629cb9",
"gC c #62a7cb",
"gf c #63849f",
"dU c #638cb0",
"bn c #6399be",
"eI c #63a1c5",
"eh c #63a7ce",
"ei c #63abd4",
"b2 c #63accd",
"cS c #64a1c0",
"en c #64a1c4",
"f1 c #64a1c8",
"gj c #64a2c2",
"em c #64a6cf",
"bH c #64aad2",
"dY c #64adda",
"gk c #65a6c7",
"el c #65a8d0",
"cx c #668ba4",
"ej c #66a3c8",
"d7 c #676f81",
"cU c #6796af",
"b1 c #679dc0",
"ek c #68a4c6",
"gm c #698eac",
"bG c #699abd",
"gg c #699dc0",
"df c #699eba",
"gl c #69a3c6",
"a6 c #69abc6",
"fG c #6a91b0",
"eg c #6a9dc2",
"cu c #6aa2bf",
"bI c #6aabd1",
"b3 c #6bafce",
"a7 c #6cadc7",
"aA c #6d94a9",
"bJ c #6dafd2",
"bo c #6dafd3",
"b. c #6f7b8f",
"bs c #717c8e",
"bO c #728aa2",
"cy c #738da4",
"co c #7492a3",
"ct c #74a5bc",
"d4 c #7692a7",
"bK c #7bbad9",
"cr c #809ba8",
"cp c #819ba9",
"a8 c #81bfd8",
"cs c #829aab",
"cW c #82a3b7",
"eq c #82a4b7",
"cq c #839cab",
"aS c #83b4cd",
"dg c #83b8d0",
"d6 c #859db0",
"b8 c #85b0c4",
"cV c #85b6d2",
"bp c #85c0df",
"b4 c #87bfd7",
"dI c #8ca1b4",
"di c #8fa7b8",
"bq c #97cce5",
"er c #98b0c2",
"b5 c #98cbe2",
"dG c #9ac9df",
"dh c #9bc7df",
"bL c #9bc9e5",
"a9 c #a0c9e4",
"dH c #a3cee2",
"b7 c #a3d0e1",
"b6 c #a4d2e3",
"br c #a5cce6",
"d5 c #a6c6da",
"bN c #a6cee5",
"bM c #a8d2e8",
"Qt.#.a.bQt.c.c.d.e.f.g.h.i.c.i.j.k.i.l.m.n.o.p.q.r.s.c.c.g.t.u.v",
".w.x.y.z.A.A.y.B.C.C.x.D.E.D.C.F.F.G.C.C.H.I.J.A.x.K.D.L.M.H.N.O",
".P.Q.R.R.S.S.Q.T.U.V.W.X.Y.X.Z.0.1.1.2.P.3.4.5.4.6.7.8.8.T.T.e.O",
".R.9#.#####a#b#c###a#d#e#f###g#b#h#i#j#a#k#l#m#n#d###b#o#p#q#r.n",
"#s#s#t#u#v#w#x#y#z#A#t#B#B#C#B#b#D#E#F#G#H#I#B#J#K#L#M###N#O.f#P",
".S.S#Q#d#R#S#B#B#S#z#T#B#B#C#U#d#V#W#X#Y#x#Z#0#B#1#t#2#y#h.7#3.r",
".R.S#4#B#B#B#B#B#A#A#B#B#y#B#d#5#6#7#8#9a.#y#y#da#aa#S#B#Vabac.d",
"abad.9#F#g#gaeaf#A#B#B#xagahaiajakalamanaoap#Baqar#d#1##as#qat.d",
".R.3.S.S.S.S.S.S#K#m#0au.8avawaxayazaAaBaCaDaE#xaF#y#A#BaGaHaIaJ",
"#j#F#F#j.9#5aK#.ar#B.VaLaMaNaOaPaQaRaSaTaUaVaW#yaX#x#A#R#haHaY.O",
"#BaZ#B#BaZ#e#B#B#Ha0a1a2a3a4a5a6a7a8a9b.b#babbbcbd#Bbebebfbg.iaY",
"#y#B#C#B#B#B#BaZbhbibjbkblbmbnbobpbqbrbsbtbubvbwbxby#BbzbAaHbBbC",
"#B#B#y#B#B#B#B#BbDbEbFbGbHbIbJbKbLbMbNbObPbQbRbSbTbUbVbWbX.UbYbC",
"#B#B#B#B#B#B#y#C.0bZb0b1b2b3b4b5bNb6b7b8b9c.c#cacbcccdcebAcfcgbC",
"#B#B#B#y#B#B#gchcicjckclcmcncocpcqcrcsctcucvcwcxcyczcAcB#hcCcDbC",
"#y#BaZ#BaZ#CcEcFcGcHcIcJcKcLcMcNcOcPcQcRcScTcUcVcWcXcYcZbXc0c1bC",
"#B#B#z#B#Bc2ahc3c4c5c6c7c8c9d.d#dadbdcdddedfdgdhdidjdkdldmdndo.n",
"#B#B#Adp#ydqaGdrdsdtdudvdwdxdydzdAdBdCdDdEdFdGdHdIdJdKdL#hdMdN.n",
"#B#BdO#z#BdPaGdQdRdSdTdUdVdWdXdYdZd0d1d2d3d4d5d6d7d8d9e.e#eado.n",
"#e#B#Beb#B#eaGecedeeefegeheiejekelemeneoepeqereseteu#g#4e#evew.n",
"exeyezeb#BeAeBeCeDeEeFeGeHeIeJeKeLeMeNeOePeQeReSeTeU#yeV.YeacgeW",
"#B#BeXar#BdqeBdreYeZe0e1e2e3e4e5e6e7e8e9f.f#fafbfcbV#Afdfeeaff.O",
"#y#B#Tfg#B#xfhfi.dfjfkflfmfnd#fofpfqfrfsftfufvfw.7#Gfx#Bfy.Kfz.g",
"aZ#B#AebeyfAaGeCfBfCfDfEfFfGfHfIfJfKfLdbfMfNfOfPfQfRfS#A#p#qfTfU",
"#B#B#C#B#B#edmfVfWfXfYfZf0f1f2f3f4f5f6f7f8f9g.g####B#B#B.9.Kffga",
"#B#B#B#B#B#Bgbgcgdgegfggghgigjgkglgmgngogpgqa.fRgr#B#B###h.Kgs.n",
"#B#Afg#MaZgtgu#hgvgwgxgygzgAgBgCgDgEgFgGgHgI#mgJ#B#B#B#BbX.TffbC",
"#B#B#y#t#B#BaZ#BgKgLgMgNgOgPgQgRgSgTgUgV#a#IfRgW#J#B#B##gX.Kdoga",
"areXeAar#B#e#B#ygYgZg0g1g2g3g4g5g6g7g8g9#B#e#ybz#B#B#B#B#V.Ah..n",
"#Kh##teyaZ#B#B#Ahahbhchdd9hehfhghhhihjhkhlfS#yhmfd#Bbe#B#V.Kff.n",
"ar#Keyar#y#B#z#A##fdhnhohphq#hhreBhs#1ar#Bfd#B#CaZ#B#B#Bht.Khu.n",
"hv#1#t#B#B#BhwdphxhyhzhAhBhxhChzhDhEh##1hFaZfdfdfd#B#B###V.AhG.n"};
