/* XPM */
static char *leftmost_wall1710261609[] = {
/* columns rows colors chars-per-pixel */
"32 32 5 1 ",
"  c #25131A",
". c #4C2F49",
"X c #78514F",
"o c #6E4A48",
"O c white",
/* pixels */
"                    ............",
"                    ............",
"                  ..XXooXXXXXX..",
"                  ..XXooXXXXXX..",
"                  ..ooooooooXX..",
"                  ..ooooooooXX..",
"                  ..ooooooooXX..",
"                  ..ooooooooXX..",
"                  ..ooooooooXX..",
"                  ..ooooooooXX..",
"                  ..ooooooooXX..",
"                  ..ooooooooXX..",
"                  ..ooooooooXX..",
"                  ..ooooooooXX..",
"                  ..XXooXXXXXX..",
"                  ..XXooXXXXXX..",
"                    ..........  ",
"                    ..........  ",
"                  ..XXooXXXXXX..",
"                  ..XXooXXXXXX..",
"                  ..ooooooooXX..",
"                  ..ooooooooXX..",
"                  ..ooooooooXX..",
"                  ..ooooooooXX..",
"                  ..ooooooooXX..",
"                  ..ooooooooXX..",
"                  ..ooooooooXX..",
"                  ..ooooooooXX..",
"                  ..XXooXXXXXX..",
"                  ..XXooXXXXXX..",
"                    ..........  ",
"                    ..........  "
};
