/* XPM */
static char *dummy[]={
"32 32 382 2",
".# c #241318",
"Qt c #241319",
"cJ c #24141a",
".a c #25131a",
"cX c #25151c",
".d c #26141b",
".e c #26141c",
"#r c #26151c",
".c c #26151d",
"cx c #26161e",
"bl c #27141c",
".b c #27151d",
".Q c #271720",
"cv c #271820",
"do c #28151d",
"bk c #28161f",
"ch c #281820",
".N c #281821",
"cW c #281921",
"cY c #29151f",
"bC c #29161f",
".M c #291721",
".2 c #291722",
"#3 c #291822",
"cQ c #291d27",
"cV c #291e29",
"bi c #2a1620",
"#. c #2a1721",
"cL c #2a1823",
"bB c #2a1924",
"#F c #2a1a24",
"a0 c #2a1b23",
"cu c #2a1f2a",
"ak c #2a202b",
"aX c #2b1721",
"a. c #2b1f2a",
"## c #2c1824",
".L c #2c1925",
"#9 c #2c1c28",
"cP c #2c202b",
"bh c #2c232e",
".O c #2d1823",
"dn c #2d1824",
"#4 c #2d1924",
"aZ c #2d1925",
"d# c #2d2632",
"aS c #2d2732",
"aO c #2d2733",
"dZ c #2e1926",
".p c #2e1a26",
"#s c #2e1b27",
"db c #2e1c28",
".z c #2e2633",
"aN c #2e2935",
"bA c #2e2a36",
"bj c #2f1a26",
".9 c #2f2532",
"cU c #2f2937",
"aR c #2f2b37",
"aT c #2f2b38",
"dQ c #2f2b39",
"d0 c #301b28",
"#d c #301c29",
".H c #301d29",
"cg c #30242b",
"#5 c #302633",
"dI c #302634",
"dV c #302836",
"aP c #302a38",
"aQ c #302b39",
"dM c #311a29",
"bV c #311d2b",
"bZ c #31232e",
"cI c #312332",
"cb c #312a38",
".o c #321c2a",
".P c #321c2b",
"dY c #321c2c",
"#Q c #321d2c",
"#R c #321e2e",
"am c #322835",
"dS c #322d3c",
"bT c #322e3c",
".V c #323442",
".k c #331d2b",
"cw c #331d2d",
"cZ c #331e2d",
".C c #331f2e",
".A c #332333",
"#M c #332534",
"dP c #332737",
"#u c #333140",
"dR c #333141",
"dm c #333342",
".U c #333443",
"aE c #341d2c",
"dD c #341d2d",
".j c #341e2d",
"#a c #341e2e",
"cK c #341e2f",
".i c #341f2d",
"da c #341f2f",
".1 c #342030",
"#t c #342636",
"#P c #342a3a",
".W c #343443",
".f c #351e2d",
".h c #351e2e",
".s c #351e2f",
".r c #351f2e",
"#b c #351f2f",
"#I c #35202f",
"al c #352132",
".y c #352435",
"dU c #352436",
"aF c #352932",
"cf c #352a37",
".X c #352e3e",
"co c #353445",
"bg c #353c4d",
".g c #361e2e",
"d1 c #361e2f",
".l c #361f2f",
".q c #361f30",
".m c #361f31",
"#L c #362031",
"#p c #362032",
"#q c #362131",
".Y c #362233",
"dT c #362235",
"dB c #362538",
"dq c #362c3e",
"aW c #363e4f",
".F c #371e2f",
"#J c #371f31",
".n c #371f32",
"#K c #372031",
".u c #372032",
".t c #372033",
"#c c #372133",
"dW c #372336",
"d2 c #372337",
"c0 c #372e3f",
"#o c #373041",
"dA c #373547",
"aD c #373647",
"#S c #373748",
"#H c #381e30",
"d5 c #382033",
"dC c #382133",
".G c #382134",
"#G c #382135",
"dp c #382336",
"cD c #383144",
"br c #383845",
"#8 c #383b4a",
"dX c #391f32",
".0 c #392033",
"bU c #392134",
".Z c #392135",
".x c #392236",
"ce c #392337",
"cd c #392438",
"dJ c #39394d",
"cy c #394255",
"dO c #3a2034",
"dN c #3a2136",
".B c #3a2237",
".D c #3a2338",
"d3 c #3a2437",
"d4 c #3a253a",
"dL c #3a3a4f",
"dr c #3a4053",
"#n c #3a4153",
"#m c #3a4256",
"cE c #3a4457",
"aY c #3b2236",
".w c #3b2439",
"d6 c #3b263a",
"c1 c #3b4053",
"cM c #3b4055",
"ci c #3b4156",
"b0 c #3b4256",
".I c #3b4356",
".K c #3b4357",
".E c #3c2338",
"cc c #3c273a",
"#N c #3c4357",
"d. c #3c475b",
"#O c #3c495e",
".v c #3d253b",
"bD c #3d293d",
"cC c #3d3b4f",
"cR c #3d4a60",
"d7 c #3e2b41",
"bW c #3e3340",
"ct c #3e3d53",
"c2 c #3e495d",
"cH c #3f3e54",
"cO c #3f455a",
"a7 c #3f4d63",
"bf c #3f4d64",
"#E c #3f4f65",
"cp c #3f5167",
"dw c #3f5268",
".R c #3f556b",
"bm c #403c47",
"a1 c #403d47",
"dE c #404d63",
"a8 c #405267",
"#l c #40546a",
".3 c #40566c",
"c3 c #415168",
"aj c #41586e",
"a# c #41586f",
"bE c #423c48",
"bz c #42546c",
"aM c #42556c",
"aA c #42566e",
"cB c #433b4e",
"#T c #43586e",
"aC c #435e77",
"ca c #44526b",
"c9 c #445771",
"dz c #445c76",
"bH c #454f61",
"aB c #456077",
"aq c #456681",
"be c #465a74",
"c4 c #465f79",
"bs c #466179",
".8 c #46627c",
"aU c #46637d",
"dx c #46657f",
"c5 c #466882",
"dH c #476580",
"bS c #485b76",
".T c #486984",
"ar c #486985",
"a9 c #495f7a",
"dl c #496380",
"cT c #496d88",
"bd c #4a6c87",
".J c #4a6d8a",
"dK c #4b5977",
"bI c #4b6885",
"b. c #4c6f8c",
"#v c #4c718e",
"cA c #4d5673",
"cN c #4d6a88",
"ds c #4d718e",
"#6 c #4e7492",
"#e c #4e7695",
"ba c #4e7996",
"bc c #4e7997",
"bb c #4e7a97",
"bG c #4f515c",
"cn c #4f5372",
"dF c #4f6b8b",
"b# c #4f7998",
"c6 c #4f7c9a",
"c# c #507191",
"az c #516071",
"cz c #517294",
"dc c #517394",
"b6 c #517e9d",
"aV c #5181a0",
"dG c #5282a2",
"cj c #537699",
"cs c #546284",
"b1 c #54779a",
"bR c #5481a2",
"as c #5485a5",
"dv c #5488a9",
"cG c #55799b",
"b7 c #5588aa",
".7 c #5589ab",
".6 c #558aac",
"#D c #558eb1",
"cl c #566589",
"dy c #5681a5",
"c8 c #568daf",
"cm c #576286",
"ck c #576e92",
"ap c #577b95",
"#7 c #5785a6",
"by c #5785a8",
"dk c #5786a9",
"bJ c #5786aa",
"cF c #5894b8",
"b2 c #5986ab",
"bt c #5989ad",
"aL c #5991b4",
"#f c #5994b8",
"cS c #5995b9",
".5 c #5997bb",
"cr c #5a8ab0",
"b5 c #5a8bb0",
"dd c #5a90b5",
"dh c #5a9abe",
"c. c #5b8eb4",
"dt c #5b96bb",
"#C c #5b97bc",
"cq c #5c99bd",
".S c #5c9abf",
"ai c #5c9bbf",
"di c #5c9ec4",
"ay c #5d6673",
"b4 c #5d90b7",
"bx c #5d9dc3",
"dj c #5d9ec5",
".4 c #5da0c7",
"c7 c #5da1c7",
"aw c #5e6673",
"ax c #5e6774",
"au c #5e839d",
"b3 c #5e90b7",
"aa c #5e9abf",
"bQ c #5e9fc6",
"de c #5ea1c8",
"dg c #5ea3ca",
"av c #5f6875",
"a2 c #5f6b7b",
"b9 c #5f9fc7",
"bu c #5fa0c6",
"at c #5fa4ca",
"bY c #606a78",
"bK c #60a0c8",
"b8 c #60a3cb",
"df c #60a6ce",
"#2 c #61a4ca",
"du c #61a5ce",
"bP c #61a9d1",
"bO c #61aad3",
"bN c #61abd2",
"bL c #62a9d1",
"bw c #62aad3",
"bv c #62abd4",
"#g c #62acd3",
"#U c #6390ab",
"#k c #6392af",
"#B c #639ec0",
"aK c #63a5c9",
"bM c #63acd4",
"bq c #646f7e",
"an c #67869c",
"#w c #68aed4",
"a6 c #698ea6",
"aJ c #69add2",
"bX c #6a7887",
"aG c #6f8091",
"aI c #71aed0",
"#h c #71b4d8",
"#1 c #72b4d8",
"ao c #79acca",
"#i c #7bb9db",
"#j c #7cb9da",
"ah c #7eb4d1",
"ab c #80b5d1",
"a3 c #83abc3",
"#V c #85bcda",
"#0 c #85bede",
"bF c #86a1b3",
"#A c #8abbd6",
"bn c #8ba7b8",
"#x c #8bc0dc",
"aH c #8cb5cd",
"bp c #8daabc",
"a5 c #8fc2dd",
"a4 c #91c4df",
"ac c #99c2d7",
"#W c #9bcae3",
"#Z c #9bcbe3",
"ag c #9cc3d8",
"bo c #9dc3d7",
"ad c #9dc4d8",
"#z c #9dcbe3",
"af c #9ec4d9",
"#y c #9ecce4",
"ae c #9fc5d9",
"#Y c #a6d1e6",
"#X c #a7d1e7",
"QtQt.#QtQtQt.#QtQtQtQtQtQtQtQtQt.#.#QtQtQt.#Qt.#QtQtQt.#Qt.#QtQt",
".#.a.b.b.c.b.b.b.b.d.b.b.b.b.b.e.b.b.b.b.b.e.b.b.b.b.b.b.b.b.b.b",
".#.c.f.g.f.f.f.f.h.f.f.f.i.g.f.g.g.f.j.f.g.j.f.f.f.f.f.g.j.f.f.f",
"Qt.c.k.l.m.n.m.m.m.m.o.p.o.q.r.s.m.m.n.m.m.m.m.t.m.u.m.m.n.q.q.r",
"Qt.b.f.m.v.v.v.w.w.x.y.z.A.B.j.C.x.D.w.v.v.v.v.v.v.v.v.v.v.E.m.F",
".#.b.f.n.v.v.v.v.G.H.I.J.K.L.M.N.O.P.D.v.w.v.v.v.v.v.v.v.v.w.u.g",
"Qt.b.f.q.v.v.v.v.m.Q.R.S.T.U.V.U.W.X.Y.t.Z.B.v.v.v.v.v.v.v.v.m.g",
".#.b.g.0.v.v.v.v.1.2.3.4.5.6.7.7.7.8.9#.###a.v.v.w.v.w.w.w.E#b.q",
"Qt.b.f.m.w#c.t.w.G#d.K#e#f#g#h#i#j#k#l#m#n#o#p.x#q.q.F.q.m.q.F.g",
"Qt#r.g.n.x.H#s.G.w.x#t#u#v#w#x#y#z#A#B#C#D#E#F.m#G#H#c#I#J#K.n#L",
"Qt.b.f.o#M#N#O#P#Q#R#S#T#U#V#W#X#Y#Z#0#1#2.R#3.q.w.v.v.v.v.v.v.w",
".#.b.f#4#5#6#7#8#9a.a#aaabacadaeafagacahaiajakal.E.v.v.v.v.v.v.v",
".#.c.k#4amanaoapaqarasatauavawaxawayayazaAaBaCaDaE.E.v.v.v.v.v.v",
"Qt.b.k#4aFaGaHaIaJaJaKaLaMaNaOaPaQaRaRaSaTaUaVaWaXaY.v.v.v.v.v.v",
"Qt.b.faZa0a1a2a3a4a5a6a7a8a9b.b#babbbcbdbebfbgbhbi.u.v.v.v.v.v.v",
"Qt.b.kbjbkblbmbnbobpbqbrbsbtbubvbvbvbwbxbybzbAbBbC.Z.vbD.v.v.v.v",
".#.b.g.g.mbibEbnbFbGbHbIbJbKbLbvbMbNbObPbQbRbSbT#.bU.v.v.v.v.v.v",
"Qt.b.f#L.DbVbWbXbYbZb0b1b2b3b4b5b6b7b8b9c.c#cacb#..t.v.v.vcc.v.v",
".#.b.f.m.vcdcecfcgchcicjckclcmcncocpcqcrcsctcucvbibU.v.v.v.v.vbD",
"Qt.b.f.m.v.vaYcwaZcxcyczcAcBcCcDbBcEcFcGcHcIcJQtbi.0.v.v.v.v.v.v",
"Qt.b.j.m.v.v.v.vcKcLcMcNcOcPa.a.cQcRcScTcUcVcWcXcYaYbD.v.v.v.v.v",
"Qt.b.f.n.v.v.v.v#GcZc0c1c2c3c4aqc5c6c7c8arc9d.d#biaY.v.v.v.v.v.v",
".#.e.f.m.v.v.v.v.v.vdadbd.dcdddedfdgdhdidjdkdldmdnaY.v.v.v.v.v.v",
"Qtdo.s.m.v.v.v.w.v.vdp#pdqdrdsdtdudvdwdxdydzdAdB.0aY.v.v.v.v.v.v",
"Qt.b.g#L.v.v.v.v.v.v.v.vdCdDdEdFdGdHdIdJdKdLdM.E.v.v.v.v.v.v.v.v",
"Qt.b.f.m.v.v.v.v.v.v.v.vdNdOdPdQdRdSdTdUdVdWdX.v.v.v.v.v.v.v.v.v",
"Qt.b.f.n.v.v.v.v.v.v.v.v.v.EdYdZ.L.PaY.nd0d1.v.v.v.v.v.v.v.vbD.v",
".#.b.f.m.v.v.v.v.v.v.v.v.v.vd2.Bcd.Ecc.Ed3d4.v.v.v.v.v.v.v.v.v.v",
"Qt.b.fd5.v.v.v.v.v.v.v.v.v.v.v.vd6.v.v.v.v.v.v.v.v.vd7.v.v.v.v.v",
"Qt.e.fdX.v.v.v.v.v.vbD.v.v.v.v.v.v.v.v.v.v.v.v.v.v.v.v.v.v.v.v.v",
".#.b.g.F.v.v.v.v.v.v.v.v.v.v.v.v.v.v.v.v.v.v.v.v.v.v.v.v.v.v.v.v",
"Qt.baEdX.v.v.vbD.v.v.v.v.v.v.v.vbD.v.v.v.v.v.v.v.v.v.v.v.v.v.v.v"};
