/* XPM */
static char *left_enemy_2_resized[] = {
/* columns rows colors chars-per-pixel */
"64 64 215 2 ",
"   c #090607",
".  c #150A0E",
"X  c #1A0E15",
"o  c #131213",
"O  c #1B1215",
"+  c #161817",
"@  c #1D161B",
"#  c #161918",
"$  c #1A1C1B",
"%  c #181816",
"&  c #231417",
"*  c #24131A",
"=  c #2A161F",
"-  c #2C1A1E",
";  c #26181D",
":  c #321B1E",
">  c #30171D",
",  c #200F15",
"<  c #1C201F",
"1  c #3B231F",
"2  c #20251F",
"3  c #1B1F20",
"4  c #2A1621",
"5  c #2D1A24",
"6  c #2D1B29",
"7  c #261822",
"8  c #321C25",
"9  c #3B1D22",
"0  c #341E2D",
"q  c #351F31",
"w  c #381F32",
"e  c #1E2223",
"r  c #222625",
"t  c #242926",
"y  c #2E232A",
"u  c #262B2A",
"i  c #2A2D2C",
"p  c #232728",
"a  c #342326",
"s  c #3C2423",
"d  c #35222C",
"f  c #39252B",
"g  c #3C2A2B",
"h  c #33282D",
"j  c #3E302F",
"k  c #372033",
"l  c #392236",
"z  c #342D31",
"x  c #3C2932",
"c  c #3D253B",
"v  c #2D3333",
"b  c #2F3A35",
"n  c #3D3133",
"m  c #313B35",
"M  c #3B3539",
"N  c #343C3A",
"B  c #3B3A3C",
"V  c #363436",
"C  c #2A312A",
"Z  c #401D23",
"A  c #41242C",
"S  c #402E2E",
"D  c #4B2728",
"F  c #55262B",
"G  c #553727",
"H  c #43263B",
"J  c #4D273A",
"K  c #422C3C",
"L  c #4C293D",
"P  c #482634",
"I  c #512936",
"U  c #542B3C",
"Y  c #5B2D3E",
"T  c #592D33",
"R  c #443534",
"E  c #4A3534",
"W  c #493937",
"Q  c #4A363A",
"!  c #4B3C3A",
"~  c #44353C",
"^  c #513E3B",
"/  c #583D32",
"(  c #652E31",
")  c #652F3C",
"_  c #6D323D",
"`  c #693038",
"'  c #76343B",
"]  c #6A2E34",
"[  c #39443E",
"{  c #36423C",
"}  c #4F423C",
"|  c #53423E",
" . c #6A472E",
".. c #7E5938",
"X. c #5C2E40",
"o. c #473041",
"O. c #4B3444",
"+. c #483C42",
"@. c #533E46",
"#. c #533F48",
"$. c #452E42",
"%. c #622F40",
"&. c #633041",
"*. c #6A3342",
"=. c #733543",
"-. c #7B3642",
";. c #7C3845",
":. c #3B4442",
">. c #3E4945",
",. c #3F4949",
"<. c #434D4B",
"1. c #464748",
"2. c #544641",
"3. c #594541",
"4. c #564843",
"5. c #5C4B45",
"6. c #5E4C4C",
"7. c #57454A",
"8. c #45514D",
"9. c #49544E",
"0. c #5E514B",
"q. c #465252",
"w. c #4B5555",
"e. c #4F5B5B",
"r. c #4D5957",
"t. c #525D5D",
"y. c #565657",
"u. c #464E50",
"i. c #624E4C",
"p. c #64544C",
"a. c #6A564D",
"s. c #64594F",
"d. c #6D5649",
"f. c #634D51",
"g. c #665A51",
"h. c #6B5B51",
"j. c #6C5752",
"k. c #715E54",
"l. c #55615E",
"z. c #58635D",
"x. c #6D6255",
"c. c #6F6159",
"v. c #726256",
"b. c #746559",
"n. c #7B665B",
"m. c #7C6A5C",
"M. c #76685B",
"N. c #595E61",
"B. c #615F60",
"V. c #566262",
"C. c #5A6665",
"Z. c #5D6A6A",
"A. c #5C6769",
"S. c #616E6E",
"D. c #666564",
"F. c #7E6E61",
"G. c #726D6E",
"H. c #66716B",
"J. c #7D7162",
"K. c #7A716A",
"L. c #657171",
"P. c #6A7473",
"I. c #6E7678",
"U. c #777A7A",
"Y. c #82393D",
"T. c #9D6D3D",
"R. c #853A45",
"E. c #8C3C45",
"W. c #8B3C49",
"Q. c #943F48",
"!. c #943D44",
"~. c #9A4147",
"^. c #9C424B",
"/. c #A2444B",
"(. c #AB464D",
"). c #B3484E",
"_. c #B2474D",
"`. c #BD4C52",
"'. c #B74A50",
"]. c #826D5E",
"[. c #84705E",
"{. c #87674E",
"}. c #A37141",
"|. c #816E61",
" X c #857363",
".X c #8A7665",
"XX c #8C7A69",
"oX c #8A7867",
"OX c #937E6C",
"+X c #917961",
"@X c #75817D",
"#X c #B0814D",
"$X c #A88157",
"%X c #97826F",
"&X c #99846E",
"*X c #89827B",
"=X c #9A8570",
"-X c #968577",
";X c #A48666",
":X c #D39752",
">X c #C49561",
",X c #7A8583",
"<X c #858A87",
"1X c #978C83",
"2X c #8A918E",
"3X c #8D9894",
"4X c #959A96",
"5X c #999089",
"6X c #A39487",
"7X c #ABA599",
"8X c #9EA8A3",
"9X c #A9A9A2",
"0X c #AAB2AE",
"qX c #B6BBB5",
"wX c #AEB3AF",
/* pixels */
"* & * * * * * * * & * * * * * & * * * * * * * * * * * & * * * * * * * * * * * * & * * * * * * * & * & * * * * * * * * * * * * * ",
"4 = = = = 4 = = = = 4 4 = = = = 4 4 = = = = 4 4 = = = = 4 4 = = = = 4 4 = = = = 4 4 4 4 = = 4 4 = = = = 4 4 = = = = * 4 4 = * & ",
"0 8 8 6 8 0 8 8 8 6 8 8 0 8 6 8 0 8 8 8 8 8 0 8 0 8 8 8 6 8 8 8 8 8 8 8 0 8 6 8 8 8 8 8 8 8 0 6 0 8 8 8 8 8 0 8 8 8 6 0 8 5 = * ",
"q d k E.^././././.R.) J q 0 w q 0 q 0 w q 0 q 0 q q q q q q w q q q q k q d 0 k q q k w q 0 q d q k q q I _ R./././././.W.8 = * ",
"0 q q /.`.`.`.`.`.~._ I k 0 0 k q q w w q 0 q q 0 q q q 0 q q 0 0 q q 0 q q 0 q q 0 q 0 q q q w 0 q d q T -.Q.`.`.`.`.`./.0 4 * ",
"d 0 0 /.`.'.).).(.E.` J k w k k q q 0 0 0 0 0 0 0 0 0 0 0 0 0 0 0 0 0 0 0 0 q 0 q l k k k w w w k k w k I =.E.(.).).`.`.^.8 = * ",
"w 0 w /.`.)./.Q.E.-.Y J l l l l w q 0 0 0 0 q 0 0 0 0 0 0 0 0 0 8 6 6 8 6 0 q l l l l l l l c l c l l l J %.-.W.Q.(.).`.^.8 = * ",
"0 w d /.`.(.Q.;.&.Y L H c c c H w q 6 4 4 4 4 4 4 4 4 5 4 5 4 4 6 4 4 = 4 4 8 q l c c c c c c c c c c c L o.Y *.R.Q.).`./.8 = * ",
"q q q /.`./.R.X.H H H c c c c c l 0 4 * = = * = * = = * * * * * * * * * * * 5 q w c c c c c c c c c c c c c H L *.Q._.`./.8 4 * ",
"0 d q E.^.W.*.X.c c c c c l l l 6 5 7 X X * @ * * X * * * & & @ * & * X * * 4 6 q w l c c w c c c c c c c c c H X.=.!.Q.R.8 4 * ",
"q 0 0 *.;.=.%.L c c c c l w 0 0 4 7 * O X O O O X O O O O O + o O O X O O X 7 7 7 0 q l c $.c c c c c c c c c H X.%.*.' _ 8 4 * ",
"q f 0 J U X.L $.c c c c l q 6 4 7 * O o X o O o O o o O o o o o o o O o X o X 7 7 6 0 q c c c c c c c c c c c c H J U U I 6 = * ",
"q 0 w f l c c c c c c c l q 4 * * O o o o o o o o o o o o   o o o o o o o o o O * 4 5 w l c c c c c c c c c c c H l d q q 8 4 * ",
"q 0 w w l l c c c c c c l 0 5 * O O o o # e e e $ + o o o o o o o o o o   o o o X * 4 6 q w w c c c c c c c c c c l w q q 8 4 * ",
"q f q w l l l l w c w w q q 4 * * X o o e e v v e # o o o o o o o o o o o o o o o O 7 7 6 6 w w c c c c c c c c c l k q q 0 4 * ",
"0 q 0 q 0 q 0 q q q q q 0 8 4 * O + o # e v :.N v # o o o o o o o o o o o o o o o O O * * 6 0 w c H c c c c c c c c k q 0 8 = , ",
"q 0 0 d q w 0 f q 0 0 0 6 4 * X X O % $ t m :.:.{ u e e # # # # # # # # # 3 # + o o X @ * 7 y k c c c c c c c c c l k 0 w 0 4 * ",
"0 w q q q 0 q q q 0 8 8 5 * X . o @ < e C m :.:.:.>.{ v C e e e e r r p u u e 3 + o o X X 3 6 k c c c c c c c c c l q q 0 8 = * ",
"l l l k l l l l w 0 6 7 * X .   . # 2 C v m N :.>.,.r.>.:.b C t i C v b N N v e + o o o o @ 6 q c c c c c c c c c l w q k 8 = * ",
"H l H l H l l H c q 5 4 , .     o # t b m m b { ,.l.S.l.,.>.b { b b { :.,.,.N e + o o o o @ 6 q c c c c c c c c c c w q q 8 = * ",
"c c c c l c c c c w 0 6 4 X .   & m [ z.9.[ { [ r.l.S.C.C.z.l.q.:.m [ >.,.r.,.b p $ $ + o @ 7 k c c c c c c c c c l k k 0 8 4 * ",
"c c c c H c c c c l q q 6 4 X . z 9.H.<XP.l.[ [ ,.V.S.@X@X<X@XH.9.{ [ <.w.t.q.:.N u r $ o @ 6 k c c c c c c c c c l k 0 k 8 4 * ",
"c c c c c c c c c c c w q 6 4 X W D.2X0X2XZ.} [ ,.Z.Z.,X3X9X8X,Xz.{ [ 9.e.A.N.q.,.N i 3 o $ 6 l c c c c c c c c c l k 0 k 0 4 * ",
"c c c c c c c c c c c c w q 5 * 1.H.3XqX3XH.>.>.,.l.S.,X4X0X0X2XC.:.>.w.V.Z.N.e.q.:.v e o @ 6 A o.L H c c c c c H l k k 0 8 * * ",
"c c c c c c c c c c c c l q 4 * ~ g.,X4X,XC.<.1.w.z.L.I.,X3X3X,Xz.>.<.r.z.S.C.e.q.:.v e o 7 A Y *.X.L c c c c c c l k q q 8 = * ",
"c c c c c c c c c c c $.w q 4 4 g 1.N.I.A.t.<.8.r.V.S.L.L.I.I.C.r.>.q.e.V.Z.C.e.q.:.v e o - T ' R.*.X.H c c c c c c k 0 q 8 = * ",
"c c c c c c c c c c c c w w 5 * h V 1.w.w.q.u.q.e.C.S.Z.V.e.e.q.8.<.w.e.C.Z.V.e.w.:.b e o 9 ] ~./.W.&.H c c c c c l k k k 8 = * ",
"c c c c c c c c c c c c w 0 5 * y V ,.w.r.w.w.t.V.C.S.Z.V.e.w.r.r.r.e.V.V.C.e.q.:.B n s s F ] Y.Y._ K k k l l c c l k 0 k 8 = * ",
"c c c c c c c c c c c c w q 4 4 h B u.t.N.e.t.t.C.Z.L.Z.C.V.N.t.t.t.N.e.t.e.q.,.M j E T ( ( ] ] ( D f 5 6 y c c c l k k 0 8 4 * ",
"H c c c c c c c c c c c l q 4 * k B w.A.C.A.A.A.Z.Z.S.Z.C.C.C.C.C.A.V.N.e.w.,.M h A T ' !.' ( D 9 5 ; @ 7 6 q c c l k 0 k 8 4 * ",
"c c c c c c c c c c c c l q 4 4 z 1.y.P.S.S.A.A.Z.C.C.S.L.L.L.S.S.Z.N.t.w.,.N y = Z ] Y._.Y.F : o o o o $ 6 q c c l k 0 q 8 = * ",
"c c c c c c c c c c c c l 0 4 * M w.P.,XI.S.t.w.w.w.w.N.P.,X,XI.C.w.<.1.:.B z y > Z F ' Y.' I 8 @ @ 3 * 7 6 l c c c k q k 8 = * ",
"c c c c c c c c c c c c l 8 4 * O.D.<X9X<XA.1.M M M M y.U.3X4X,Xt.+.n z z i y 5 * > Z F F F A 0 8 6 6 6 q k l c c l k 0 0 8 4 * ",
"c $.c c c c c c c c c c l 0 6 * @.G.4XqX2Xg.~ 5 5 6 6 7.U.9XwX<Xy.h 5 5 5 7 ; * & & = : 9 9 0 d l l k l l w c c c l k k k 8 4 * ",
"c c c c c c c c c c l l l 0 y a 7.K.4XqX4Xc.! g g g A 6.*X9XwX1Xg.R f f g g s a y a a s d f l l l l l c c c c c c l l q k 8 = * ",
"c c c c c c c c c l w 0 d d x j 0.K.5X9X5X|.p.3.4.4.#.D.XX7X7X-XF.7.| 3.3.| ! ! R W W | 3.Q S l 6 k k c c c c c c l q q 0 6 = * ",
"c c c c c c c c c l 0 5 y g R | j.K.-X6X-XOX].m.n.m.n..X%X6X6X-XoX].m.m.n.n.k.p.4.5.p.v.n.d.! f 6 8 q c c c c c c l k k k 8 4 * ",
"c c c c c c $.w c l 6 4 - g | p.c.J.XX=X%X&X&X&X&X=X&X&X&X&X&X&X=X&X&X=X&X&X Xm.x.x.m.XX&Xm.| g * 6 0 c c c c c c l k 0 0 8 4 * ",
"c c c c c c c c c q 6 4 - j } 0.v.J.XX%XOX X].[.+X;X;X;X+X[.]. XXX&X&X=X&X%XXXF.M.M.m. XXXk.| a 4 5 q c c c c c c l k 0 k 8 4 * ",
"c c c c c c c c c q 6 4 r j } 0.v.F.XX%X[.j.i.d.{.$X>X$X{.d.5.k. XOX&X=X&X&XOXXX XJ. XF.m.a.W a = 6 q l c c c c c c k q q 8 = * ",
"c c c c c c c c c w 6 4 4 g } 0.x.F.oX%Xn.5.E / T.#X:X#X../ R 5.n.OX=X=X&X=X&XOXOX.X|.M.x.5.R a * 6 0 c c c c c c l w q q 0 = & ",
"c c c c c c c c c w 6 4 4 g } 5.s.v.].].d.W : D  .T.:XT. .1 a R a.].XX+X XXX.X.X.X|.m.g.5.! j y = 6 q l c c c c c l d q q 8 = * ",
"c c c c c c c c c q 6 4 = a S W | 5.p.a.| S - 1 G ..T... .1 - g | a.j.k.k.d.k.h.d.a.5.4.} R a = * 8 q c c c c c c c k q 0 8 = * ",
"c c c c c c c c c w 6 4 * 5 a g g R R E S a ; - 1 D  .G 1 - ; 1 S E E E E E E W W R S g g a 5 = = 5 q c c c c c c l k 0 w 0 = & ",
"c c c c c c c c c q 6 = * * = 7 ; - - - - = & ; ; > : > = * & ; = = 5 - - - - - - - = = = ; * * = 5 q w c c c c H l k k 0 8 4 * ",
"c c c c c c c c c l 0 6 4 = * & = - : h a a a 1 y ; & ; 5 a a a a a a a a a a g S g s - * * = 4 5 6 w H c c c c c l k 0 k 8 4 * ",
"c c c c c c c c c l q 0 8 6 ; & 5 h z R R R R g a : & - a S W R R R R R W W } | 5.| E a * = 4 5 q w w w c c c c c l k 0 k 8 = * ",
"c c c $.c c c c c c w q 0 6 - & : g W 2.4.2.2.! S 5 & y j } 4.| 4.4.4.| 4.4.5.x.v.d.| f & = 6 0 w w c c c c c c c l k q q 8 = * ",
"c c c c c c c c c c c c c 6 6 * h R 4.s.s.s.g.5.} a & a W 5.s.s.g.s.s.s.s.s.b.[.OX].d.E 5 8 0 l w c c c c c c c c w w q q 0 7 * ",
"c c c c c c c c c c c c c q 4 * a R | s.h.x.v.s.} h & a | a.M.M.M.M.x.x.g.s.x.m. Xm.j.3.E S S l w w c c c c c c $.w w q q 6 = * ",
"c c c c c c c c c c c c w q 6 * h R 2.g.x.m.[.b.5.g ; g | n. X X[..Xm.M.x.s.x.x.b.b.v.k.k.5.E f 6 q q c c c c c c c w q w 8 = * ",
"c c c c c c c c c c c c w w 4 * a R 2.g.v.J.XXm.p.S & S p.m.%XOX%X%X.XJ.x.s.g.g.h.x.n.|..Xk.| f 4 6 q c c c c c c w w q q 8 = & ",
"c c c $.X.L L H c c l w w q 8 8 j } 5.b.v.m.].k.| s * g | v. X.X%X%X%XJ.M.x.h.s.s.x.m.XX&Xn.3.f * 6 q w c c c c H J J I J 8 4 * ",
"c c c *.=.*.X.H c l w 0 w w x n | 5.h.m.n.h.a.3.E g * a E 3.d.n.[.%X%X.X Xm.b.x.g.x.m.XX&Xm.3.g = 6 q H c c w H J Y _ _ ) 6 = * ",
"c c c W.Q.W.=.X.c l q 6 5 z R 2.p.x.]. Xv.5.E g s 5 * - s g ! i.M.XX%X%XXX.XJ.b.g.x.J.XX&Xn.| f * 5 q w c c c H Y =.E.~.R.8 = * ",
"c c c /.`./.W.X.c q 8 4 5 g } p.v.].XXOXv.^ a * & & * & * & a ^ v.%X%X%X&X&X.XM.h.x.m.XX&X].3.f = 6 q w c c c $.&.E.(.`./.6 = * ",
"c c H /.`.(.W.=.X.L A 8 8 x ! 7.f.k.F.F.f.Q d 4 4 4 4 4 4 4 d Q d.m. X|.|.|.k.j.6.6.j.F.F.f.@.f 6 6 w c $.o.X.X.;.Q.).`./.8 4 * ",
"c c c /.`.)./.~.R.*.I l k x ~ O.#.7.7.f.@.K w 8 0 0 0 6 0 0 d K @.6.f.f.f.f.6.7.@.@.7.6.f.#.Q l 0 w c c J &.*.R.Q./.).`.^.0 = * ",
"c c c /.`.).).(./.E.) J c l K o.O.O.O.O.K K l l w w l l l l c H K O.O.O.O.O.O.$.$.$.$.O.@.$.$.c q w c w X.=.~./.(.).`.`.^.8 = * ",
"H c H /.`.`.`.`.`.^.=.X.c c c c c c c c H c c c c c c c c c c c H c c c $.c c c c c $.c H w c c c c c c X.=.^.`.`.`.`.`./.8 = * ",
"c c c ^./././././.W.*.L c c c H c c c c c c c c c c c c c c c c c c c c c c c c c c c w c c c c c c c c X.*.W./././././.W.0 4 * ",
"c c c c c c H c c c c c c c c c c c c c c c c c c c c c c c c c c c c c c c c c c c c $.c c c c c c w $.c c c c H l 0 w q 8 = * ",
"c c c c c c c c c c c c c c c c c c c c c c c c c c c c c c c c c c c c c c c c c c c c c c c c c c c c c c c c c l l 0 k 6 = * ",
"c c c c c c c c c c c c c c c c c c c c c c c c c c c c c c c c c c c c c c c c c c c c c c c c c c c c c c c c c l w d 0 8 = * "
};
