/* XPM */
static char *dummy[]={
"64 64 205 2",
".V c #090708",
".M c #11080c",
".J c #131313",
".Z c #161817",
".7 c #171818",
".P c #171a18",
".C c #190d13",
".R c #1a1c1b",
".D c #1b1215",
".T c #1b1f20",
".w c #1d1319",
".Q c #1d2122",
".2 c #1e201f",
"Qt c #221317",
"#b c #222525",
".a c #24131a",
".0 c #252b27",
"ad c #26181c",
".U c #262b2b",
".n c #271620",
".K c #271b25",
".# c #28141d",
".1 c #292e2d",
".f c #2a1621",
".3 c #2b312f",
".8 c #2c1a1e",
".b c #2d1a25",
".c c #2d1a29",
".5 c #2d3432",
"#U c #2e2428",
".X c #2f3836",
".6 c #313b36",
".e c #321d22",
"#7 c #332d31",
"#Y c #333535",
".W c #333d3a",
"#9 c #341e1e",
"aI c #342325",
"#X c #34232b",
"#P c #34292f",
".d c #351e2e",
".g c #351e31",
".N c #362134",
"#a c #36413c",
"ba c #382425",
".t c #392235",
"#c c #39443e",
".m c #3a1e24",
".x c #3a252c",
"#4 c #3a3639",
"ap c #3b2b2b",
"aa c #3b3b3d",
".S c #3b3e40",
".Y c #3b4543",
"#5 c #3c2b32",
".E c #3d253b",
"#L c #3d3234",
"ao c #3e302f",
".4 c #3e4944",
"a9 c #3f2822",
".O c #401f26",
"#6 c #412623",
"#h c #424143",
".y c #43263c",
"bi c #432b3c",
"#Z c #434c4b",
"#1 c #443433",
"#o c #45343a",
"#d c #45514d",
".I c #473041",
"ab c #473a3c",
"#g c #475352",
"#Q c #483c41",
"#2 c #492a29",
"a5 c #492e23",
"#0 c #494a49",
"#k c #49544e",
".B c #4a2738",
"aj c #4a3635",
"bf c #4a363a",
"ak c #4a3a36",
"#3 c #4a4f52",
"## c #4a5554",
"#G c #4b3444",
"aV c #4b3c3b",
"#l c #4d5957",
".9 c #4e5a5a",
"aB c #4f413c",
"aW c #50433d",
"an c #513d3b",
"#R c #515659",
"#x c #525d5c",
"ae c #533e46",
"bh c #533f48",
"#M c #534f51",
".l c #542a35",
".o c #542b3d",
"aO c #544641",
"bb c #554842",
"#w c #55615e",
"#N c #56292c",
"#. c #566262",
"#y c #57444a",
".s c #582933",
"#p c #585e60",
"aA c #594641",
"#F c #596564",
"a. c #5a5958",
"#s c #5a655f",
"#e c #5b6965",
".L c #5c2d3a",
".H c #5d2e40",
"aZ c #5d4237",
"aU c #5d4c45",
"bc c #5e4b4c",
"a3 c #5e5249",
"#t c #5e6b6b",
"ai c #604d46",
"#f c #606d6d",
"#S c #632c2f",
"be c #634d51",
"az c #634f4a",
"aH c #63544b",
".A c #642f41",
".u c #652e36",
"a2 c #65432b",
"aX c #655a4f",
"al c #655a51",
"#H c #656666",
".G c #66303e",
".F c #673242",
"#i c #675b59",
"av c #68544d",
"#n c #69726f",
"#C c #6a7572",
"#j c #6b7774",
"ay c #6c594f",
"ax c #6c5c52",
".k c #6d323b",
"a8 c #6e6156",
"bd c #6e615a",
"am c #725e54",
"au c #726256",
"ah c #726865",
"a# c #737e7c",
"bj c #74343c",
"aQ c #755e4e",
"aN c #756559",
"bg c #763745",
"#z c #767877",
"#W c #78353b",
"#m c #78837e",
"a7 c #795231",
"aP c #7a665a",
"#u c #7a8583",
".p c #7b3642",
"#O c #7c3844",
"aG c #7c6a5c",
"a4 c #7f6e60",
"a0 c #815e42",
"aJ c #816d5f",
"#T c #823944",
"aw c #846e61",
"at c #847363",
"aq c #87817d",
"#q c #878a88",
"#J c #87918e",
"#V c #883a3d",
"aT c #897767",
"aE c #8a7665",
"af c #8b7e75",
"#K c #8b9592",
".j c #8c3c44",
"aR c #8c6e56",
"aF c #8c7a69",
".h c #8f3d49",
"bk c #903e4a",
"b. c #91643a",
"aD c #937c65",
"aC c #937e6c",
".q c #943f46",
"#E c #949996",
"ag c #958f88",
"aY c #96826e",
"#v c #98a29d",
"aK c #99836e",
"as c #998879",
"#8 c #9a4149",
"aM c #9a8570",
"#r c #9da7a3",
".i c #a2444b",
"#A c #a4a29c",
"ar c #a5998b",
"#I c #a7aaa5",
".v c #ab464c",
"aL c #ac8a68",
"b# c #ae804f",
".z c #b2474d",
"ac c #b2b5b0",
"aS c #b57f43",
"#D c #bac2bd",
".r c #bd4c52",
"#B c #c3ccc7",
"a1 c #d29b5a",
"a6 c #e7a455",
"Qt.#.a.a.a.#.a.a.a.a.a.#.a.a.a.a.#.#.a.a.a.a.a.#.a.a.a.a.a.a.a.a.a.a.a.a.aQt.a.a.a.a.a.a.a.a.a.a.a.a.a.a.a.#.a.a.a.a.a.a.aQt.a.a",
".#.a.#.#.#.#.#.#.#.#.#.#.#.#.#.#.#.#.#.#.#.#.#.#.#.#.#.#.#.#.#.#.#.#.#.#.#.#.#.#.#.#.#.#.#.#.#.#.#.#.#.#.#.#.a.#.#.#.#.#.#.a.a.a",
".b.b.b.b.b.b.c.b.d.e.b.b.b.f.c.c.b.b.b.f.b.b.b.c.b.b.b.c.b.b.b.b.b.b.c.e.b.b.c.c.b.c.e.b.e.e.b.b.b.f.b.b.e.b.b.f.b.b.b.b.e.f.#Qt",
".g.d.d.h.i.j.k.l.g.g.g.d.d.d.m.g.c.c.f.#.n.n.#.#.#.#.#.#.#.n.#.#.#.n.#.#.#.n.f.c.d.g.d.d.g.g.g.g.d.d.g.g.g.g.g.g.o.p.q.i.h.c.#.a",
".d.d.d.i.r.i.p.s.g.g.d.d.d.d.d.g.e.c.n.a.a.a.a.a.a.a.a.#.a.a.aQt.a.a.a.a.a.a.#.d.d.g.g.g.d.g.d.g.d.d.g.d.d.d.d.t.u.j.v.r.i.b.#.a",
".g.d.d.q.v.q.p.l.g.g.g.d.d.d.d.d.c.f.n.w.w.a.a.aQt.a.a.a.a.a.a.a.a.a.a.w.a.a.#.b.g.e.g.d.d.d.g.g.d.g.d.d.d.d.x.y.s.p.q.z.q.c.#.a",
".g.m.d.p.j.p.A.B.g.g.g.g.g.g.d.d.b.n.a.w.a.w.w.w.w.C.w.w.w.w.w.C.D.w.w.w.w.w.#.f.c.e.g.g.g.E.E.g.t.y.g.E.t.g.g.g.o.F.p.j.p.b.aQt",
".g.g.g.s.G.H.H.y.g.I.E.y.y.g.c.f.n.a.C.J.J.J.D.J.D.J.D.J.D.J.J.D.D.J.J.C.J.C.w.#.K.c.c.g.E.E.E.E.y.E.E.E.E.E.y.y.B.o.L.L.s.b.#.a",
".g.g.g.g.y.y.y.E.E.E.E.E.E.g.c.#Qt.D.J.J.J.J.J.J.J.J.M.J.J.J.J.J.J.J.J.J.J.J.J.J.a.f.c.N.E.E.E.E.E.E.E.E.E.E.E.E.E.E.x.O.g.e.#.a",
".g.g.g.g.E.y.E.E.E.E.E.E.g.g.f.#Qt.D.D.J.J.P.Q.R.P.J.J.J.J.J.J.J.J.J.J.J.J.J.J.JQt.a.K.d.g.N.t.t.E.E.E.E.E.E.E.E.E.t.d.g.g.c.#.a",
".g.g.g.g.g.S.g.E.y.E.E.E.g.g.f.#.a.D.J.J.T.Q.U.U.Q.T.J.J.J.M.J.J.J.J.J.V.J.J.J.J.D.w.n.f.c.d.t.t.E.E.E.E.E.E.E.E.E.t.g.g.g.e.#.a",
".d.d.m.y.g.E.I.g.g.y.E.E.g.g.f.#Qt.D.J.J.Q.U.W.X.U.T.J.J.J.J.J.J.J.J.J.J.J.J.J.J.J.D.w.#.f.c.g.t.E.E.E.E.E.E.E.E.E.t.g.g.d.e.#.a",
".g.m.g.g.t.y.E.E.S.y.g.E.g.c.f.a.w.D.P.P.Q.X.Y.Y.X.Q.Z.Z.Z.P.J.J.J.Z.J.Z.Z.Z.J.J.J.J.D.D.w.K.g.t.E.E.E.y.E.E.E.E.E.E.d.d.d.f.#.a",
".g.g.g.g.E.E.E.E.E.t.g.g.g.f.a.C.J.J.R.Q.0.X.Y.Y.Y.X.1.0.Q.Q.P.P.R.R.2.Q.Q.Q.2.P.J.J.J.D.D.n.c.N.E.E.E.E.E.E.E.E.y.N.N.d.d.e.#.a",
".g.g.d.g.N.y.N.N.E.d.d.b.n.a.C.M.J.R.Q.U.3.X.Y.Y.4.4.4.Y.X.3.0.Q.0.0.0.3.5.6.1.T.7.J.J.D.C.w.c.N.E.E.E.E.E.E.E.E.E.t.d.d.g.c.#.a",
".d.d.g.d.g.d.d.d.d.d.f.8.a.M.M.V.J.R.Q.5.X.X.X.Y.4.9#.##.4#a.X.X.3.5#a#a.Y.Y.X#b.7.J.J.J.J.w.c.N.E.E.E.E.E.E.E.E.E.t.g.g.d.b.#.a",
".d.t.g.g.g.g.d.g.g.g.f.f.a.C.M.V.7.1#c###d#c#a#c.4#e#f#e#..9.4.4#c.X.Y.4.4#g.Y.X.Q.T.7.J.M.T.c.E.E.E.E.E.E.E.E.E.E.y.d.d.g.b.#.a",
".d.d.g.g.g.g.d.d.g.d.c.f.n.a.C.M#b#h#i#j#e#k#c#c#l#.#f#j#m#m#n#e#d#a.Y.4#g.9.4.Y.S.T.Q.7.J.w.c.g.E.E.E.E.E.E.E.E.E.g.d.g.d.b.#.a",
".g.E.x.g.g.g.g.g.g.g.g.g.c.f.n.C#o#p#q#r#q#s#c#c.4#.#t#m#u#v#v#m#w#a.Y#g.9#.#x.4.S.S.Q.T.J.T.K.g.E.E.E.E.E.E.E.g.E.E.d.g.d.b.#.a",
".y.E.E.E.g.I.y.g.E.E.E.E.g.d.f.##y#z#A#B#v#C#d#c#g#.#t#u#r#D#D#E#e.Y.Y#g#.#f#F.9.4.Y.S.T.J.w.K.g.E.E.E.E.I.E.E.E.E.g.d.d.d.b.#.a",
".E.E.E.E.E.E.E.E.E.E.g.S.t.g.f.##G#H#q#I#J#H#d#c.4#.#t#u#K#r#v#u#F.Y.4#l#.#t#F.9.4.Y.U.T.J.n.d.B.H.I.I.g.E.E.E.E.E.y.g.d.d.b.#.a",
".E.E.E.E.E.E.E.E.E.E.y.E.g.g.f.n#L#M#f#u#n#w#d#d#l#.#f#j#m#m#m#j.9.4#g.9#.#f#F.9#g.Y.S.Q.J.8#N.k#O.F.H.y.E.E.E.E.E.N.d.d.g.e.n.a",
".E.E.E.E.E.E.E.E.E.E.E.E.g.g.f.##P#Q#R#F#w#k#d#g.9#F#f#t#t#e#e#.#l.4#g.9#F#t#F.9#g.Y.S.T.C.b#S.j.q#T.H.y.E.E.E.E.E.E.d.d.g.e.#.a",
".E.E.E.E.E.E.E.E.E.E.y.E.g.d.#.##U.X.Y#g#k#g#g#l#w#F#f#e#w#l.4#g#g#g.9#.#.#e#p#g.4.Y.S.T.T.O.k#V.q#W.H.y.g.g.E.E.E.N.d.d.d.e.#.a",
".E.E.E.E.E.E.E.E.E.E.E.E.g.g.f.##X#Y#Z.9.9.9.9#x#.#t#f#t#.#x.9.9.9.9.9#.#p#p###0.S#L#1#2#N#S.u#W.k.s.y.c.d.N.t.E.E.E.d.d.d.b.#.a",
".E.E.E.E.E.E.E.E.E.E.E.E.E.g.f.##P.S#3#F#F#F#F#F#t#t#f#t#t#F#F#F#F#F#p#x.9#l#Z#4#P#5.l.k#V#W#S#2#6.m.K.n.K.c.N.E.E.t.g.d.d.b.#.a",
".y.E.E.E.E.E.E.E.E.E.E.E.g.c.f.##P.S#R#t#t#t#t#t#t#t#t#t#t#t#t#t#t#t#p#p.9.4.S#7.K#6#S.j.z#V#N.m.w.J.J.J.T.K.g.E.E.t.d.d.g.b.#.a",
".E.E.E.E.E.E.E.E.E.E.E.E.E.g.f.##5#M#f#u#j#H#p#R.9.9#R#F#f#u#u#j#H#p#3#Z.4.S#Y.c.#.m#N#V#8#W#N#9.w.T.w.w.K.c.g.E.E.t.g.d.d.b.#.a",
".E.E.E.E.E.E.E.E.E.E.E.E.g.g.f.n#oa.a##E#q#H#M#h#Q#h#h#x#z#J#Ka##p#0.Saa#Y#7#7.K.##9#2.u#O.G.B.x.K.K.K.c.c.g.N.E.E.E.d.g.g.b.#.a",
".S.g.E.E.E.E.E.E.E.E.E.E.g.g.f.#ab#H#Kac#q#s#o.N#P#P.N#Ma##v#I#ua.#L#P#X#X#U.Kad.a.8.m.B.H.o.B.d.g.g.g.g.g.g.t.S.E.g.d.d.d.b.#.a",
".E.y.E.E.E.E.E.E.y.E.E.E.g.g.b.#ae#z#I#D#E#i#1.8.8.8.8#0afacacaga.#P.8.8.8.8.8.f.#.f.d.g.t.E.E.E.E.E.E.S.E.E.E.g.E.y.d.g.d.b.#.a",
".E.E.E.E.E.E.E.E.E.E.E.E.g.g.c.##Gahagacagahaiajakajajalaf#A#Iagamanajajajaj#1aoap.x.x.g.d.g.g.E.E.E.E.g.E.E.E.E.y.g.d.d.d.b.#.a",
".E.E.E.E.E.E.E.E.E.E.E.E.N.d.f.#aj#iaqarasatauamavamamawafararasawamaxayamavazaAaBak#L.x.b.e.g.t.E.E.E.E.E.E.E.E.E.E.g.g.g.e.#.#",
".E.E.E.E.E.E.E.E.E.E.I.E.t.d.f.##1azatasasaCaDaEaEaEaEaCaCasasafaCaFaEaFaEaEaGaxaHaB#1#X.#.c.d.t.y.E.E.E.E.E.E.E.E.g.g.g.d.b.#.#",
".E.E.E.E.E.E.E.E.E.E.E.g.N#X.caIajavaJaKaCaEataEaDaCaLaMaDaEawaCaCaKaMaKaMaKaFawaNaHaOaj.x.x.N.g.g.g.y.E.E.E.E.E.E.g.g.g.g.b.#.a",
".E.E.E.E.E.E.E.E.g.g.g.g#X.x#5#LaAaxataKaEaPayaQaRaSaLaLaRaQavaJaEaCaKaMaMaKaFaTawauaxaUaUaV#1.t.g.g.g.g.I.E.E.E.I.g.g.g.d.b.#.a",
".E.E.E.E.E.E.E.E.y.g.d.b.bapajaWaXaNaEaYaGaiakaZa0aSa1aSa0a2akaiaJaCaMaMaMaMaYaFaFaTataJaJavanap.f.c.g.y.E.E.E.E.g.g.d.g.d.f.#.a",
".E.E.E.E.E.E.E.E.S.g.b.f.8aoaBa3aua4aFaDauan#9a5aQaSa6aSa7a5.eanamaCaMaMaMaMaMaMaMaMaKaMaCaJanap.#.c.g.g.E.E.E.E.I.g.g.g.d.b.#.a",
".E.E.E.E.E.E.E.E.E.g.c.f.KapaBaHaya8aNaNai#1#9a9.ub.b#b.a2a5#9#1aiauaGaGaPaGaGaGaPaGawaTaEamanba.#.f.g.g.E.E.E.E.E.g.g.g.d.b.#.#",
".E.E.E.E.E.E.E.E.E.g.c.f.KaoaOa3aXa3aUaWajba.8#9a5a2a7a2a5#9.8baajaWaZaAaAaZaAaOaAaialamaGavaVba.#.c.g.y.E.E.E.E.E.E.g.g.d.b.#.#",
".E.E.E.E.E.E.E.E.E.g.c.f.fapaWaHbbaB#1apaI#9.a.8#9a9a5a9#9.8.a.8aIbaapapapapapapap#1aBa3a8aU#1aI.#.c.g.g.E.E.E.E.E.E.d.g.g.e.#.a",
".E.E.E.E.y.E.E.E.E.E.c.f.fapakaUaW#1apad.8.K.K.8.#.a.a.a.8.8.b.8.K#U.8.8.8.8.8ad.8aIaoaWaUaBap.b.#.c.g.E.E.E.E.E.E.g.d.g.g.e.#.a",
".E.E.E.E.E.E.E.E.E.g.c.n.#.daoaVaB#Laoapaoapaoap#U.8.a.8#Uapaoapaoapaoapapaoaoapaoao#1akaB#1ba.b.#.f.g.E.E.E.E.E.E.E.g.d.d.f.#.a",
".E.E.E.y.E.E.E.E.E.g.c.c.#.faIbaao#1aBaBaWaBaW#1ap#UQt#9apakaBaBaBaBaBaBaBaBaWaWaWaB#4aoapaI.bad.#.c.g.y.E.E.E.E.E.g.d.d.d.f.#.a",
".E.E.E.E.E.E.E.E.E.g.c.n.a.a.#adaI#LaWaHa3a3aXaWakaIQtapakaWaHa3aHa3aHaXaHa3aXa3aXaW#1baadad.a.a.#.b.g.E.E.E.E.E.y.g.x.d.d.b.#.a",
".E.E.E.E.E.E.E.E.E.g.c.c.f.8.a.aaIaBaWaXaXa8a8aXaWbaQtapaWaHauaua8aua8aXaXaXaXa8a8aXaBap.a.#.#.f.f.e.g.E.E.E.E.E.y.t.d.g.g.b.#.a",
".E.E.E.E.E.E.E.E.E.E.g.g.c.K.#.aaIaBbbaXa8aNaGayaAapQtapaWaxaGa4ata4aGaua8aXa8aNaGaxaWaoQtad.f.b.d.g.g.g.E.E.E.E.E.t.g.g.g.e.#.a",
".E.E.E.E.E.E.E.E.E.E.E.g.d.e.f.#aI#LaWala8a4aTaNaUapQtapa3aNaTaYaFaFataNa8aXa8a4aTaPaU#2.a.n.b.g.N.g.S.E.E.E.E.E.E.t.g.g.d.b.#.a",
".E.E.E.E.E.E.E.E.E.E.E.E.g.d.f.#aI#1bbalaNataYaJaHa5.a#1aHaRaMaMaMaMaFa4a8alaNataCaJavaj.f.e.d.g.E.E.E.E.E.E.E.E.E.E.d.g.d.b.#.a",
".E.E.E.E.E.E.E.E.E.y.E.E.t.d.f.#aI#1bbalaNataYatav#1Qt#1avawaMaMaKaMaFa4auala8aGataGaxaZaj#1#5.g.g.g.t.E.E.E.E.t.y.g.d.x.d.b.#.a",
".E.E.E.E.E.E.E.E.S.g.E.E.N.g.K.##X#1bbalaNataYaJaH#1QtapavawaKaMaKaMaFaGauala8a8aNaNauamaxaUaj.x.c.g.g.E.E.E.E.E.E.t.g.d.g.e.#.a",
".E.E.E.E.E.E.E.E.E.y.E.E.t.d.f.#aI#1bbalaNaTaYaJav#1Qt#1azawaMaMaKaKaFata8aXalaXaxa8aGataTamaeap.f.c.g.E.E.E.E.E.E.t.g.d.g.b.#.a",
".E.E.E.E.E.E.E.E.E.t.E.g.g.x.d.e#1aBbcbdaNaGawamaWap.aapaAamataTaCaKaYataGa8a8alala8aGaFaMaGaZap.#.b.g.E.E.E.E.E.E.t.d.d.g.c.#.a",
".E.E.E.E.E.E.E.E.E.E.g.d#P.xapaoaWaUalaGaNaxalaZajaI.abaajaAaxaPaTaYaFaTataGaNa8ala8a4aFaYaPaWap.#.b.g.t.E.E.E.E.E.t.g.d.d.e.#.a",
".E.E.E.E.E.E.E.E.E.g.d.b.b#PabaBavama4aTauaUaj#6ba.8Qt.8ba#6akazaGaYaYaYaFaTaGauaya8aGaFaYaGaUap.#.b.g.E.E.E.E.E.E.E.d.d.d.b.#.a",
".E.E.E.E.E.E.E.E.E.g.c.f.bapaBaHama4aFaCauan.e.#.a.a.a.a.a.aaIanauaCaKaYaKaYaTaG#ibdaGaYaYaNaWap.#.b.g.E.E.E.E.E.y.g.g.d.g.b.a.a",
".E.E.E.I.H.H.o.y.E.E.c.c.c.EaVaAbebdamaJavbf.d.f.f.f.n.f.f.f#Xajbeawawawawawahambcbcamamawayae.t.b.d.g.t.E.E.E.y.E.B.s.o.s.c.#.a",
".E.E.Ebg.hbg.A.y.E.E.g.g.g.E#o#Gbhbhbebeaebi.g.g.d.c.d.g.d.e.xbibhbebebebebebhbhaeaebhbebeae.I.g.d.g.t.E.E.E.E.y.H.A.p#Tbj.f.#.a",
".E.E.Ebk.ibkbg.H.E.E.E.g.g.Ebibi.I#G#G#G.I.I.E.g.t.g.t.t.N.t.tbi.I#G#G.I#G#G.I.I.I.I.I#G#G#G.I.E.g.t.E.E.E.E.E.y.H.p.q#8.q.c.#.a",
".E.E.E.i.r.i#T.H.E.E.E.E.E.E.E.E.g.I.g.y.E.g.E.E.E.E.E.E.E.E.E.E.E.E.y.E.E.E.E.I.E.E.y.y.E.E.E.E.E.E.E.E.E.E.E.y.A.h.v.r#8.b.#.a",
".E.E.Ebk.ibkbg.H.E.E.E.E.E.E.E.E.E.E.E.E.E.y.E.E.E.E.E.E.E.E.E.E.E.E.E.E.E.E.E.g.E.E.E.E.E.E.E.E.E.E.E.E.E.E.E.y.H.p.q.i.j.f.#.a",
".E.E.E.E.E.E.E.E.E.E.E.E.E.E.E.E.E.E.E.E.E.E.S.g.E.E.E.E.E.E.E.E.E.E.E.E.E.E.E.E.E.E.E.E.E.E.E.E.E.E.E.E.E.E.E.E.I.g.g.g.g.c.#.a",
".E.E.E.E.E.E.E.E.E.E.E.E.E.E.E.E.E.E.E.E.E.E.E.E.S.E.E.E.E.E.E.E.E.E.E.E.E.E.E.E.E.E.E.E.E.E.E.E.E.E.S.g.E.E.E.E.E.g.g.g.g.b.#.a",
".E.E.E.E.E.y.E.E.E.E.E.E.E.E.E.E.E.E.E.E.E.E.E.E.g.E.E.E.E.E.E.E.E.E.E.E.E.E.E.E.E.E.E.E.E.E.E.y.E.E.E.y.E.y.E.E.E.g.g.g.g.b.#.a"};
