/* XPM */
static char *left_enemy_3_resized[] = {
/* columns rows colors chars-per-pixel */
"64 64 207 2 ",
"   c #090708",
".  c #11080C",
"X  c #1A0D14",
"o  c #140E11",
"O  c #131313",
"+  c #1A1215",
"@  c #161817",
"#  c #1D1319",
"$  c #171A18",
"%  c #1A1C1B",
"&  c #171818",
"*  c #231317",
"=  c #24131A",
"-  c #29151D",
";  c #26181C",
":  c #2C1A1E",
">  c #32191E",
",  c #1E201F",
"<  c #1B1F20",
"1  c #271620",
"2  c #2B1622",
"3  c #271B25",
"4  c #2C1923",
"5  c #2D1B29",
"6  c #321D22",
"7  c #351E2E",
"8  c #391E26",
"9  c #361F32",
"0  c #381F34",
"q  c #1D2122",
"w  c #222525",
"e  c #252B27",
"r  c #262B2B",
"t  c #292E2D",
"y  c #2E2328",
"u  c #342225",
"i  c #382324",
"p  c #35232C",
"a  c #3A252C",
"s  c #34292D",
"d  c #3B2B2B",
"f  c #362133",
"g  c #392234",
"h  c #3C2A32",
"j  c #3D253B",
"k  c #362C33",
"l  c #2D3432",
"z  c #2F3836",
"x  c #333535",
"c  c #3D3133",
"v  c #313B36",
"b  c #333D3A",
"n  c #3B3B3D",
"m  c #3B3639",
"M  c #2B312F",
"N  c #431E25",
"B  c #422224",
"V  c #452828",
"C  c #52262A",
"Z  c #5A2A2E",
"A  c #4C3128",
"S  c #4E2836",
"D  c #43263C",
"F  c #4B2639",
"G  c #432D3D",
"H  c #492838",
"J  c #542A35",
"K  c #542B3C",
"L  c #5C2D3B",
"P  c #5D2B33",
"I  c #443332",
"U  c #4A3635",
"Y  c #4B3A35",
"T  c #44313C",
"R  c #4A3638",
"E  c #4C3C3A",
"W  c #463A3B",
"Q  c #513E3C",
"!  c #642D34",
"~  c #6A313C",
"^  c #753337",
"/  c #73333D",
"(  c #78333D",
")  c #702F35",
"_  c #36413C",
"`  c #39443E",
"'  c #4F403B",
"]  c #51433D",
"[  c #5A4133",
"{  c #664A37",
"}  c #735034",
"|  c #6A4830",
" . c #3B3E40",
".. c #5C2E40",
"X. c #473041",
"o. c #4B3444",
"O. c #4D3A43",
"+. c #423D41",
"@. c #533D46",
"#. c #533F48",
"$. c #452E40",
"%. c #673242",
"&. c #763745",
"*. c #7C3642",
"=. c #7C3843",
"-. c #642F41",
";. c #3B4543",
":. c #3E4944",
">. c #424243",
",. c #434C4B",
"<. c #484B49",
"1. c #554642",
"2. c #594641",
"3. c #564943",
"4. c #5C4B45",
"5. c #5C4C4A",
"6. c #59454A",
"7. c #45514D",
"8. c #49544E",
"9. c #534F51",
"0. c #475352",
"q. c #4A5454",
"w. c #4E5A5A",
"e. c #4D5957",
"r. c #515659",
"t. c #535D5D",
"y. c #5A5958",
"u. c #614D46",
"i. c #624E4A",
"p. c #63544B",
"a. c #64594F",
"s. c #6B594F",
"d. c #68544D",
"f. c #634C50",
"g. c #655A50",
"h. c #6C5C51",
"j. c #645B59",
"k. c #715D54",
"l. c #55615E",
"z. c #5A655F",
"x. c #6E6155",
"c. c #6E605D",
"v. c #726256",
"b. c #756559",
"n. c #79665A",
"m. c #7C6A5C",
"M. c #585E60",
"N. c #566262",
"B. c #596564",
"V. c #5E6B6B",
"C. c #5B6965",
"Z. c #616D6D",
"A. c #656666",
"S. c #7F6F60",
"D. c #736864",
"F. c #69726F",
"G. c #7C716B",
"H. c #6A7572",
"J. c #6B7774",
"K. c #737E7C",
"L. c #767978",
"P. c #883A3E",
"I. c #855D39",
"U. c #9E6E3E",
"Y. c #823944",
"T. c #8B3B43",
"R. c #8F3D49",
"E. c #943E46",
"W. c #903E4A",
"Q. c #994048",
"!. c #A1434B",
"~. c #AB474C",
"^. c #BD4C52",
"/. c #B1484D",
"(. c #9D754E",
"). c #876E5B",
"_. c #A87645",
"`. c #846E61",
"'. c #847263",
"]. c #8B7665",
"[. c #8C7967",
"{. c #8C7B69",
"}. c #897669",
"|. c #927E6C",
" X c #927F70",
".X c #78837E",
"XX c #96826E",
"oX c #99836F",
"OX c #87817D",
"+X c #9A8570",
"@X c #988879",
"#X c #AD8C69",
"$X c #CE9656",
"%X c #7A8583",
"&X c #878A88",
"*X c #87918E",
"=X c #8C9391",
"-X c #959B97",
";X c #979189",
":X c #A59A8B",
">X c #98A29D",
",X c #A4A39C",
"<X c #9DA7A3",
"1X c #A7AAA5",
"2X c #B2B5B0",
"3X c #BAC2BD",
"4X c #C3CCC7",
/* pixels */
"* = = = = = = = = = = = = = = * * = = = = = = = * = = = = = = = = = = = = = = = = = = = = = = = = = = = = = = = = = = = = = = = ",
"= * = = = = = = * = = = = = = = = * = = * = * * # = = = = = = = = * = # = = = = = = = = = * = = = * * = * = = * = = = = = * = = ",
"4 4 4 4 4 4 2 4 2 2 2 4 4 2 2 2 2 2 4 2 2 2 2 4 2 4 4 2 4 2 4 4 2 4 4 2 4 4 4 2 4 5 2 2 2 2 4 2 4 4 2 2 2 4 4 > 2 4 4 4 4 - * = ",
"9 7 p T.!.T./ S 7 7 7 7 7 7 7 7 7 5 2 - - - - - - - - - - 1 = 1 = - = - - - 2 5 6 7 9 7 7 7 9 7 7 7 7 7 7 7 7 0 J ( E.!.E.2 = = ",
"7 7 7 !.^.!.*.K g 7 9 7 7 7 9 7 6 5 1 = = * = = = = = = = = = = = - = = = = 2 4 7 7 7 7 a 7 7 7 9 7 7 7 9 0 9 g L T.~.^.!.2 = = ",
"7 7 9 E.~.E.*.J 7 7 7 9 7 7 7 7 5 4 - # # = = = # # = = = = = * # # = = * = 2 4 7 9 7 7 9 9 7 9 7 7 7 7 7 7 9 B L Y.E.~.E.2 = = ",
"f 7 7 *.T.*.~ F g g 0 g 9 7 7 8 3 1 = # # # # # # # # # X # # # # # + # # # = 2 5 6 7 9 g g 9 f g g g f g f g g K ~ *.T.*.2 * = ",
"9 7 a J ~ ..F D g D j j g 9 5 2 1 = # O O X O O X O + O O + O + O X + O O X + 1 2 5 6 9 j j j j j j j j D j j D F F K ! J 2 = = ",
"7 9 7 g D D D j j j j j j 9 4 - # # X O O O O O O O O O O O O O O O o O O O O X = 4 5 f j j j j j j j j j j j j 0 D D 8 7 6 * = ",
"7 a 7 f j j j j D j j j f 7 2 - * + O O O $ < < $ @   O   O O O O O o O O O O + # = 1 7 0 0 f j j j j j j j j j j 0 9 a 7 2 = = ",
"9 7 7 g g j j j j j j j 0 7 4 - * + O O % q t r q $ O O O O O O   O O O O O O O # # 1 3 5 9 f j j j j j j j j j j g 9 7 7 2 = = ",
"7 7 7 9 j j j j j j j j 0 7 4 = * + + O q t b z e < O O O O O O O O O O O O O O O + # = 1 5 9 f j j D j j j j j j 0 7 7 7 2 = * ",
"7 0 7 g g j j j j j 0 0 0 5 4 = + + & @ q z ;.;._ q $ $ @ @ O O O O O @ O $ O O O O + + = 2 7 f j j j j j j j j D g 7 7 7 2 = = ",
"9 7 7 g j j j j j j 0 0 5 5 = X O @ % , t l ;.;._ M l q q q % < < q < q q q q $ O O O + + - 5 f j j j j j j j j j g 9 7 7 4 = = ",
"a 7 7 g g j j 0 0 0 7 5 1 # o . O @ q r l z ;.;.:.:.:.;._ e e e q e e l z z r q & O O O + 1 5 f j j j j j j j j j f 9 7 7 6 = = ",
"7 7 0 7 9 0 9 0 0 9 2 2 = o .   O % q l z z b :.:.e.N.e.:._ l z z l _ _ ;.;.z w @ O O O O # 3 f j j j j j j j D j f 7 7 7 2 = = ",
"7 0 7 0 7 a 7 7 9 5 4 4 = X .   + t ;.q.,.` _ ` 0.B.Z.V.N.e.7.:.;.z ;.:.:.0.;.M q < & O O # 3 f j j  .D j j j j j 0 7 7 7 2 = = ",
"7 7 7 7 0 7 0 7 7 7 6 5 2 # X . y +.j.J.C.8.` ` :.B.Z.J.J.J.J.C.:.;.;.:.w.w.:. .l w < & O < 5 9 j j j 0 j j j j  .0 9 7 7 2 = = ",
"a 9 f g f f g 0 f 9 7 7 5 2 # X m M.&X<X&Xz.` ` :.V.Z.K.*X>X>X%Xl._ ;.:.w.B.w.0.;.z r < O # 3 g j j j j j j j j 0 0 0 9 9 2 = = ",
"D g j g j g D g g j g j 0 7 2 - 1.L.,X4X>XH.<.` :.N.Z.%X<X3X3X=XC.` ;.0.N.V.B.w.0.;.l < O & 3 k $.j j j j j j j j 0 0 9 9 2 = = ",
"j j j j D j j j j j j j 0 7 4 = W A.*X1X*XA.7.` q.N.Z.K.=X<X<X%Xz.` :.e.N.V.B.w.0.;.l q O ; i S ..F F D 0 $.j j D g 7 7 8 4 = = ",
"j j j j j j j j j j j j 0 7 2 = h 9.F.%XH.l.7.7.0.N.Z.J.K.%X%XZ.t.:.7.w.B.V.B.w.0.;.z < O > C / &.-.$.D j 0 j j j g 7 9 7 2 = = ",
"j j j j j j j j j j j j j 7 2 - s +.q.C.l.e.7.7.w.B.V.V.V.V.V.N.e.:.0.l.B.V.B.w.0.;.z < o > ! P.W.*...D j j j j j 9 7 7 9 2 = = ",
"j D j j j j j j j j j j 0 7 2 - y x ;.0.0.0.0.e.t.V.Z.V.t.q.:.0.0.0.e.l.B.B.M.q.,. .x y ; V ) P.!.*...D 0 j j j j g 9 8 9 2 = = ",
"j j j j j j j D 0 j j j f 7 2 - p x ,.r.w.w.w.M.N.V.V.V.M.N.w.w.w.w.w.t.N.N.0.,. .m I A C Z ! ^ ) P D 5 9 9 0  .j f 0 7 7 2 = = ",
"j j j j j j j  .j j j j 0 7 4 - k n 0.B.B.B.B.B.C.V.V.V.V.M.B.B.B.C.N.M.w.0.,. .k V J ) P.^ ! C i 8 2 < < 5 9 j j g 7 0 a 2 = * ",
"j j j j j j j j j j j j j 7 2 = k  .r.V.Z.V.V.V.Z.V.Z.Z.Z.Z.V.V.V.V.B.M.w.:. .s > B ! E./.P.P i + + # o # 5 7 j j g 7 7 7 4 = = ",
"j j j j j j j j D j j j 0 7 2 - h 9.A.%XJ.Z.M.r.r.r.w.B.H.K.K.H.C.t.q.,.:. .x 5 - > C ^ E.^ C 6 # # # # < 5 f j j f 7 7 7 4 = = ",
"j j j G j j j j j j j j 0 9 2 - T y..X-X%XA.9. .+.+.+.y.L.*X=XK.M.<.n n m k t 3 - > N P ) P V 7 3 3 3 3 5 y g j D g 0 7 7 4 * = ",
"j j j j j j j j j j j j 0 5 4 = O.A.=X1X*Xj.W k k k a 9.L.>X1XOXy.m s u 9 w 4 - = - > N N B 8 9 f p 9 9 f f j j g g 7 0 7 2 = = ",
"j j j j j j j j j j j j 0 9 4 2 <.L.,X4X-Xc.D : 2 : : <.OX1X2X;X5.f : > : : : 4 = - : : 6 6 p f j j g j j j j D j g 7 7 7 4 = = ",
"j j j j j j j j $.0 0 0 0 0 p s 5.G.;X2X;XD.2.U U U U g.OX1X1X;Xc.Q U U Y U I c d d I I U H k f f f g j j j j j j g 7 7 7 4 * = ",
"j j j j j j j j j g 9 5 y d c ' a.G.@X:X@X}.n.s.s.k.s.S.XX:X:X@X'.k.s.k.h.s.i.2.' ' 4.p.k.4.R a 6 9 0 j j j j j j 0 7 a 7 4 = = ",
"j j j j  .j j j j 0 6 2 3 s ' 3.v.G.XX@X@X|.[.].].].].|.oX@X@XoX|.{.].[.].].m.h.p.a.x.S.[.k.Q a 2 6 9 j j j j j j g 9 7 7 4 = = ",
"j j j j 0 D j j j 0 7 : 4 d ] p.v.S.[.oX|.].`.].[. X+X|.{.'.'.[.|.oX+XoX+XoX{.).b.b.m.}.|.v.] a - 4 9 f j j D j j g 7 7 7 2 = = ",
"j D j j j j j j j 9 4 4 4 d ] p.v.S.[.XX].n.s.k.).[.+X[.m.k.s.n.].|.oX+X+XoX{.}.S.m.S.S.'.a.Q i - 4 9 j j j j j j 0 7 9 7 2 = = ",
"j j j j j j j j j 9 5 4 4 d ' p.v.S.[.XXm.u.Y Q f.`.+X`.s.] Y u.).|.+X+X+XoXXX{.|.'.`.m.v.5.I u - 3 7 j j j j j D g 9 a 7 2 = = ",
"j j j j j j j j j 9 5 1 : d ] p.v.S.[.{.v.Q i a 2.n. X).] d u Q k.|.+XoX+X+X+X+X+X{.'.v.a.3.c u - 5 7 j j j j j j g 7 7 7 4 = = ",
"j j j j j j j j j 0 5 2 : s I 1.u.s.v.b.u.I 4 V 2.).#X).{ d : I u.b.m.n.m.n.m.m.).v.s.4.3.Y d 4 - 5 9 j j j j j j 9 7 7 7 4 = = ",
"j j j j j j j j j 0 5 2 = u s d U Y ] ] Y i : V { (.$X_.{ V : d U @.2.2.] 2.2.2.] ] ' Y c s 6 : - 2 9 0 j j j j j g f 7 7 2 * = ",
"j j j D j j j j j 0 5 2 * - : 6 u u s i u : : A } _.$X_.} A ; : u d i d d d d d i d i y 6 4 2 = 2 4 9 g j j j j j 9 7 9 7 4 = = ",
"j j j j j j j j j f 5 4 - = = * = : : 4 : 4 : A } U.$X_.} A : : : 4 : 4 6 6 ; : : : : * = = - - 2 4 9 j j j j j j g a 7 7 4 = = ",
"j j j j j j j j j 0 9 5 4 2 - = : u u d d d d Y | I.U.I.| Y d d d c d d l d d d d s u : = # 2 4 5 7 0 j j j j j j f 7 0 7 4 = = ",
"j j j j j j j j j j 0 9 7 5 2 * y d W ' ] ] ' ' [ [ | [ [ [ ] ] ' ] ] ] ] ] ] ] ' Y d y = 2 4 5 9 0 j j j j j j j f 7 7 7 4 = = ",
"j j j j j j j j j j j j g 7 4 = u c ] a.p.p.p.] Y d > d Y 3.p.p.p.p.p.p.p.p.p.p.p.] Y u * : 5 0 j j j j j j j j j g a 7 7 2 = = ",
"j j j j j j j j j j j j f 7 4 ; u ' ] g.g.x.x.a.' s * i ' p.x.v.v.x.x.x.a.a.a.x.x.p.' s # : 7 f j j j j j j j j j g 9 7 7 2 = = ",
"j j j j j j j j j j j j g 7 4 = u Y ] g.x.v.S.x.2.d * d 3.x.S.S.'.S.m.x.g.g.x.b.S.x.2.d * 2 6 f j j j j j j j j j 9 7 9 7 2 = = ",
"j j D j j j j j j j j j f 7 4 ; y I ] a.v.S.'.n.u.d = d 4.n.[.{.[.[.S.m.x.g.x.S.[.b.u.d = 2 9 0 j j j j j j j D j g 7 7 7 > = = ",
"j j j  .j j j j j j 0 0 0 9 2 1 s Y ] x.b.].{.'.d.I * I d.).+XoX+X+XXXS.v.g.b.'.|.).d.R 2 6 p g j j j j j j j j j g 9 7 7 4 = = ",
"j j j j j j j j j j 0 0 0 0 7 9 W 3.s.m.S.[.XX).p.I = d d.'.+X+X+X+XS.S.v.g.x.m.'.m.k.] R I h f 9 9 g j j j j j j g a 7 7 4 = = ",
"j j j j j j j j j 0 0 9 p f I W 3.s.b.'.{.XXXX'.p.h = I p.).oX+X+X+XXXb.v.g.g.v.b.b.v.k.k.2.R a 5 7 0 j j j j j j f 9 9 7 2 = = ",
"j j j j j j j j j 0 9 2 4 d E 4.x.b.'.XXXXXXXX'.d.V * I d.`.+X+X+X+XXXS.x.g.g.g.x.v.m.`.].k.Q a 2 4 9 j j j j j j 0 7 7 7 2 * = ",
"j j j j j j j j j f 5 - : d ] p.v.S.[.+X|.].'.k.2.d = d ] v.].].XXoXXXS.m.x.x.g.a.x.b.'.{.n.i.Y a a g 9 0 j j j D g 7 9 7 4 = = ",
"j j j j j j j j j 9 5 - 4 d ] p.x.S.[.XX].n.k.2.Y i = i U u.s.n.'.XXXXXX'.b.b.x.a.g.b.m.`.b.g.u.Q R h 7 7 9 0 j j g 9 a 7 4 = = ",
"j j j j D j j j j 9 5 4 : d ] p.v.`.{.|.m.u.R d u : = : i V R u.x.XXXXXXXX'.S.v.x.a.x.x.v.b.n.n.k.4.I 4 6 7 0 j j 9 7 7 7 2 = = ",
"j j j j j j j D j f 5 : : x ] p.v.`.[.|.k.Q u * = * = * * * 6 Q x.XXXXXX+XXX[.b.a.a.a.a.g.v.`. X].h.U : 4 7 0 j j f 7 f 7 2 * = ",
"j j j ......F D j g 7 4 4 h E 3.f.k.D.`.i.R 7 2 2 2 2 4 2 2 7 F p.m.`.`.`.S.k.h.5.5.5.5.3.a.k.n.v.i.I 4 5 7 0 j H F J J S 2 = = ",
"j j j &.Y.&.-.$.j j 9 7 f h T o.#.#.f.f.@.G 0 6 7 5 7 7 7 7 9 D @.i.f.f.f.f.6.6.@.O.O.O.O.@.6.5.f.@.G 7 7 9 j D K ~ / Y./ 4 = - ",
"j  .j W.!.W.&...j j g g g j G G $.X.o.o.X.D j 0 0 0 f f 9 0 j  .T o.o.o.o.o.o.X.X.G $.$.G X.o.o.o.G j j 0 g j D ..*.W.!.T.2 = = ",
"j 0 D !.^.!.Y...j j j j j j j j j D D j D j j j j j j D j j j j D j j j j D 0  .j j j j j j j j j j j j j j j D -.T.~.^.!.2 = = ",
"j j j W.!.W.&...j j j j j j j j j j j j j j j j j j j j j j j j j j j j j j j j j j j j j j j j j j j j j j j G L *.E.!.T.2 = = ",
"j j j j j 0 j j j j j j j D j j j j j j  .j j j j j j j D j j j j j j j j D j j j j j j j j j j j j j j j j j j j g 9 9 7 2 * = ",
"j j j j j $.j j  .D j j j j j j j j j j 0 j j j j j j j j j j j j j j j j j j j j j D j j j j j j j j j j j j j j g 7 7 7 4 = = ",
"j j j j j j j j j 0 j j j j j j j j j j j j j j j j j j j j j j j j j j j j j j j j j j j j j j j j j j j j j j j g 7 9 7 : = = "
};
