/* XPM */
static char *dummy[]={
"64 64 214 2",
".0 c #090607",
".Y c #131213",
"#a c #150a0e",
".Z c #161817",
".1 c #161918",
".T c #1a0e15",
".8 c #1a1c1b",
".X c #1b1215",
".2 c #1b1f20",
".U c #1c161a",
".3 c #1f2323",
".S c #200f15",
"#g c #20251f",
"#b c #222625",
".# c #231317",
"Qt c #24131a",
".5 c #242926",
"bo c #26181c",
".P c #271620",
".W c #271b25",
"#L c #272929",
"#f c #292d2c",
".a c #2a161f",
".b c #2a1721",
"#c c #2a312a",
".c c #2c1a1e",
".g c #2d1a24",
".6 c #2d3332",
".f c #2e1b29",
"#S c #2e232a",
"#e c #2f3a35",
"bm c #301c1d",
".9 c #313b35",
".d c #321d24",
"#w c #33292d",
".e c #341e2d",
"aq c #342326",
"#Z c #342d31",
".7 c #343c3a",
".h c #35222c",
".i c #361f31",
"## c #36423c",
".j c #372033",
".q c #381f32",
"a. c #383335",
"#5 c #391f22",
".C c #392236",
".4 c #39252c",
"#d c #39443e",
"#6 c #3a393b",
"bl c #3b231f",
"ad c #3b3539",
"#. c #3b4443",
"as c #3c2b2b",
".G c #3d253b",
"#4 c #3d2623",
"ag c #3d2839",
"af c #3d2a33",
"aU c #3e302f",
"#h c #3e4945",
"#k c #3f4949",
"bb c #402e2e",
"bt c #422b3d",
"#o c #424647",
".N c #43263c",
"ae c #432933",
"#R c #434d4b",
"#T c #442724",
"ab c #443534",
"bs c #45333c",
"#i c #45514d",
"#E c #46373d",
"#7 c #464e50",
"#t c #465252",
"#v c #473041",
"#V c #484848",
"aE c #493a36",
"#q c #49544e",
"bi c #4a3535",
"a# c #4a3d42",
".p c #4b2635",
"ak c #4b3444",
"#u c #4b5555",
".M c #4c293e",
"#W c #4c3c3a",
".H c #4d273a",
"aV c #4d423d",
"#A c #4d5957",
".v c #4e2836",
"#j c #4f5b5b",
"aF c #513d3b",
"aD c #51433d",
"#p c #525d5d",
".r c #532834",
".D c #532b3d",
"br c #533e46",
".R c #542d40",
"aS c #544641",
"bc c #553727",
"#l c #55615e",
"#X c #56292c",
"bh c #563a35",
"an c #564648",
"aj c #565657",
"#n c #566262",
"#s c #58635d",
"aw c #594541",
"#D c #595e61",
"#K c #5a6665",
".F c #5b2d3e",
".V c #5c2e40",
"aC c #5c4c45",
"ac c #5c6769",
"#8 c #5d4c4d",
"#r c #5d6a6a",
".w c #5e2c35",
"a5 c #5e514b",
"ai c #615f60",
"#m c #616e6e",
".I c #622f40",
"bq c #623041",
"#2 c #624446",
"a8 c #624e4a",
"#M c #632c2f",
"at c #634d51",
"av c #64544c",
"ba c #64594f",
"#0 c #657171",
"#U c #665a51",
"#F c #666564",
"#x c #66716b",
".o c #67303a",
".O c #693342",
"bj c #6a472e",
"#z c #6a7473",
"aT c #6b554a",
"aY c #6b5b52",
".s c #6c323d",
"b# c #6c5751",
"bn c #6d594f",
"aZ c #6e6256",
"#1 c #6e7678",
"ar c #6f6159",
"aR c #715d54",
"aQ c #726356",
"#O c #726d6e",
".Q c #733543",
"#3 c #734c4d",
"#Y c #75343a",
"ax c #75665a",
"#B c #75817d",
"a4 c #76685b",
"ah c #777a7a",
"#C c #7a8583",
".x c #7b3744",
"aN c #7b665b",
".L c #7c3845",
"aM c #7c6a5c",
"aG c #7c7062",
"bg c #7e5938",
"au c #7e6e61",
"a7 c #826e61",
"aa c #83424a",
"aL c #836d5e",
"aO c #847263",
".n c #853a45",
"#y c #858a87",
"a0 c #866a53",
"#N c #893b3e",
"ao c #897769",
"ay c #89827b",
"aX c #8a7665",
"bp c #8a7967",
"#G c #8a918e",
".J c #8b3d49",
".k c #8c3c45",
"aK c #8c7a69",
"#I c #8d9894",
"a2 c #917961",
"a3 c #937e6c",
".K c #943f48",
"aH c #958375",
"#P c #959a96",
"#9 c #96454c",
"a6 c #97826f",
"aB c #978c83",
".E c #983e4a",
"aW c #99846e",
"aJ c #99897a",
"am c #999089",
".u c #9a4147",
"aP c #9a8570",
".m c #9c424b",
"bd c #9d6d3d",
"#J c #9ea8a3",
".l c #a2444b",
"az c #a2968a",
"bk c #a37141",
"aI c #a39384",
"a1 c #a48666",
"a9 c #a88157",
"ap c #a9a9a2",
"#H c #aab2ae",
".B c #ab464d",
"aA c #aba599",
"#Q c #aeb3af",
"be c #b0814d",
".A c #b2474d",
".z c #b3484e",
"al c #b6bbb5",
".y c #b74a50",
".t c #bd4c52",
"b. c #c49561",
"bf c #d39752",
"Qt.#QtQtQtQtQt.#QtQtQtQt.#QtQtQtQt.#Qt.#QtQt.#.#Qt.#QtQt.#.#QtQtQtQt.#.#QtQtQt.#Qt.#Qt.#QtQtQt.#.#QtQt.#QtQtQtQtQt.#QtQtQtQtQtQt",
".a.a.a.a.a.a.a.a.a.a.a.a.a.a.a.a.a.a.a.a.a.a.a.a.a.a.a.b.a.a.a.a.a.a.a.a.a.a.a.b.a.a.a.a.b.a.a.a.c.a.a.a.a.a.a.a.a.a.a.b.a.aQt.#",
".d.e.f.d.d.e.d.e.e.g.f.e.e.e.e.g.e.d.e.e.e.e.e.e.d.e.e.g.e.d.e.e.e.e.e.e.f.e.e.e.e.d.e.e.d.e.d.e.d.e.e.d.f.e.d.e.d.e.f.d.e.g.a.#",
".h.i.j.k.l.m.m.l.l.n.o.p.e.e.q.q.i.e.e.e.e.e.e.e.i.e.i.i.i.e.e.e.e.e.e.h.e.e.h.e.e.i.e.e.q.e.e.j.i.e.i.i.r.s.n.m.l.m.l.l.k.d.bQt",
".e.e.j.m.t.t.t.t.t.u.s.v.j.e.e.e.i.i.i.i.i.e.i.i.q.e.q.e.e.i.i.e.e.i.q.e.q.e.e.e.i.i.i.i.e.j.e.i.e.i.i.h.w.x.u.t.t.t.t.t.m.f.aQt",
".h.q.e.l.t.y.z.A.B.k.s.v.j.j.j.j.i.i.i.e.e.e.e.e.e.e.e.e.e.e.e.e.e.e.e.e.e.i.i.i.q.j.j.j.j.j.j.j.C.j.i.i.D.s.k.B.B.y.t.t.l.e.a.#",
".e.q.q.l.t.A.l.E.k.x.F.p.C.C.C.C.q.i.e.e.e.e.e.i.e.e.e.e.e.e.e.e.e.e.g.g.g.e.e.C.q.q.C.C.C.G.C.C.G.C.C.C.H.I.x.J.E.B.z.t.l.e.aQt",
".q.e.h.l.t.B.K.L.I.F.M.N.G.G.G.N.q.i.g.b.b.b.g.b.b.b.g.b.b.g.b.g.b.a.b.c.a.b.e.i.G.G.G.G.G.G.G.G.G.G.G.G.N.D.F.O.n.m.A.t.m.d.aQt",
".e.i.h.l.t.l.n.o.N.N.N.G.G.G.G.G.i.e.bQtQt.P.PQt.a.aQtQtQtQtQtQtQtQtQtQtQtQt.b.i.C.G.G.G.G.G.G.G.G.G.G.G.G.N.N.M.O.J.B.t.l.d.b.#",
".e.q.j.n.m.J.Q.R.G.G.G.G.G.C.q.j.f.fQtQt.SQt.SQt.TQt.UQtQtQtQtQt.U.#.#.U.#Qt.P.f.e.i.C.G.G.G.G.G.G.G.G.G.G.G.G.N.V.Q.k.u.n.f.aQt",
".e.q.e.O.L.Q.V.M.G.G.G.G.G.q.e.e.W.P.#.X.T.T.X.X.Y.T.X.X.T.T.X.T.X.Z.T.T.X.T.P.P.f.e.i.C.G.G.G.G.G.G.G.G.G.G.G.N.D.I.s.x.s.f.aQt",
".h.q.e.D.F.D.M.N.G.G.G.G.G.e.f.gQt.U.U.T.T.X.X.Y.Y.Y.Y.Z.X.X.Y.Y.Y.Y.X.X.Y.X.T.U.P.g.i.j.G.G.G.G.G.G.G.G.G.G.G.G.M.H.D.w.r.e.aQt",
".e.q.e.j.C.N.G.G.G.N.G.G.q.e.gQtQt.X.Y.Y.Y.Y.Y.Z.Y.Y.Y.Y.Y.0.Y.Y.Y.Y.Y.Y.Y.Y.T.U.U.P.g.i.C.G.G.G.G.G.G.G.G.G.G.G.G.C.j.i.e.e.aQt",
".h.q.q.j.G.G.C.G.C.G.G.G.q.i.gQt.#.T.X.Y.1.2.3.3.3.Z.Y.Y.Y.Y.Y.Y.Y.0.Y.Y.Y.Y.X.T.UQt.W.f.i.i.C.C.G.G.G.G.G.G.G.G.G.C.i.e.e.e.aQt",
".e.q.q.h.4.j.q.C.C.C.C.j.i.f.bQt.U.X.Y.Y.2.5.6.6.3.1.Y.Y.Y.Y.Y.Y.Y.Y.Y.Y.Y.Y.Y.Y.T.T.#.b.f.e.q.q.G.G.G.G.G.G.G.G.G.G.j.j.e.d.a.#",
".q.e.e.q.q.e.e.q.e.h.e.q.e.f.bQt.X.X.Y.1.3.6.7.7.5.3.Y.Y.Y.Y.Y.Y.Y.Y.Y.Y.Y.Y.Y.Y.Y.Y.XQt.P.b.e.C.G.G.G.G.G.G.G.G.G.C.j.h.i.e.a.#",
".e.q.e.q.e.i.e.i.e.e.e.e.e.b.P.T.X.X.1.8.5.9#.#.##.5.3.3.8.1.1.1.1.1.1.1.2.8.1.Z.Y.Y.T.T.U.P.i.q.G.G.G.G.G.G.G.G.G.G.j.e.e.e.aQt",
".q.q.q.e.q.i.i.i.i.e.f.f.bQt.T#a.Y.1.8#b#c.9#d#.#.###e.6#f.5.3.3.3.3#b.5.5#f.3.2.Y.Y.Z.T.T.P.f.i.G.G.G.G.G.G.G.G.G.C.j.e.e.e.aQt",
".C.j.C.C.C.q.q.q.q.i.f.fQt.T#a.0#a.8#g#c.6.9.9#.#h#i#j#k###e#f#c#c#f.6#e#e.7.6.3.1.Y.Y.Y.Y.W.f.i.G.G.G.G.G.G.G.G.G.C.j.q.i.e.aQt",
".G.G.G.G.G.G.G.G.G.i.f.PQt#a.0.0.Y.1.5.9.9.9.9#d#i#l#m#n#i#d#e#e.9#e.7#.#k#k.7.5.8.Y.Y.Y.Y.U.W.j.G.G.G.G.G.G.G.G.G.C.j.q.e.d.a.#",
".G.G.G.G.G.G.G.G.G.q.e.f.P.T#a.0.8.6#o#p#q#h###d#i#n#m#r#s#s#l#q#d#####h#t#u#.#e.5.2.8.Y.YQt.4.v.R.D#v.q.G.G.G.G.G.C.q.e.h.e.a.#",
".G.G.G.G.G.G.G.G.G.G.q.i.f.b.T#a#w#q#x#y#z#A#d#d#i#l#m#z#B#y#C#x#q###d#o#t#D#t#..7#f.3.8.Y.c.r.s.L.O.D#v.G.G.G.G.G.C.h.q.e.e.a.#",
".G.G.G.G.G.G.G.G.G.G.q.i.i.f.P.T#E#F#G#H#G#F#d#d#q#l#m#B#I#J#J#C#s#d#d#q#p#K#p#i#k.7#L.2.Y.d#M#N.E.x.V.N.N.q.G.G.G.G.j.q.e.e.aQt",
".G.G.G.G.G.G.G.G.G.G#v.q.q.i.gQt#o#O#P#Q#P#x#R#h#q#l#m#B#P#H#H#I#K#.#h#u#l#r#n#l#t#k.7#SQt#T.o#N.E.x.D.G.q.q.G#v.G.C.j.e.q.d.aQt",
".G.G.G.G.G.G.G.G.G.G.G.G.C.i.gQt#v#U#B#P#C#K#i#k#t#K#m#B#C#I#I#B#l#h#R#u#K#r#K#j#t#V#W.r#X#M#M#Y#Y.w.C.f.i.j.C.G.G.C.h.e.e.e.aQt",
".G.G.N.G.G.G.G.G.G.G.G.G.C.e.bQt#Z#V#K#z#r#j#k#t#A#K#m#0#0#1#z#K#A#h#t#j#n#r#K#j#u#V#2#3#N#Y#M#X#4#5.f.P.W.f.i.G.G.G.j.q.e.e.aQt",
".G.G.G.G.G.G.G.G.G.G.G.G.j.e.g.P#S#6#o#u#t#t#7#t#j#K#m#r#n#j#u#u#t#R#u#j#K#m#n#j#t#8#3#9.A#N#M#4.U.Z.Y.Y.8.W.i.G.G.C.j.q.e.d.a.#",
".G.G.G.G.G.G.G.G.G.G.G.G.G.i.gQt#Sa.#o#j#u#A#A#j#n#r#m#r#n#j#A#A#u#A#p#D#n#K#j#t#.a##2aa.u#Y#X.d.U.U.U.U.W.f.j.G.G.G.j.e.i.e.a.#",
".G.G.G.G.G.G.G.G.G.G.G.G.q.i.gQt.h#6#R#p#n#p#D#n#K#r#m#r#K#n#D#D#p#p#j#D#D#p#t#.#6ab.D.O.x.o.p.e.W.2.W.W.f#S.C.G.G.C.i.e.e.e.aQt",
".G.G.G.G.G.G.G.G.G.G.G.G.q.i.gQt.h#6#u#K#K#K#K#K#r#r#m#rac#K#K#nac#K#n#n#p#t#oad#w#wae.D.F.Dae.j.j.j#S.j.j.C.C.G.G.C.j.e.e.e.aQt",
".G.G.G.G.G.G.G.G.G.G.G.G.q.i.gQtaf#o#p#z#0#r#Fac#r#r#r#m#m#0#0#m#m#r#n#j#t#R.7#f.W.a.f.h.C.C.G.G.G.G.G.G.G.G.G.G.G.C.j.q.i.e.aQt",
".G.G.G.G.G.G.G.G.G.G.N.G.q.i.g.aag#u#z#Cah#m#p#u#t#t#t#D#z#C#C#1ac#A#R#o#.#6#Z.f.aQt.g.f.q.C.C.C.G.G.G.G.G.G.G.G.G.G.j.e.e.d.aQt",
".G.G.G.G.G.G.G.G.G.G.G.G.j.i.gQt#v#F#y#J#yai#V#6adadadaj#1#P#P#Cajaka.#Z#Z#S#S.WQtQt.b.b.g.f.q.G.G.G.G.G.G.G.G.G.G.C.i.i.i.e.a.#",
".G.G.G.G.G.G.G.G.G.G.G.G.C.e.gQta##O#Palamaiad.f.f.f.fanaoap#Q#yaj#Z.g.W.g.a.cQt.#QtQtQt.a.g.e.q#v.G.G.G.G.G.G.G.G.C.i.i.i.d.a.#",
".G.G.G.G.G.G.G.G.G.G.C.i.j.haq#S#8ao#Pal#Iar#W.4as#w.4#8#yap#Q#G#Uabas.4as.4asaqaqaqaqasas.4.j.q.q.q.G.q.G.G.G.G.G.G.j.j.e.d.bQt",
".G.G#v.G.G.G.G.G.G.C.i.i.h.jafasat#OamapamauavawawawawaxayazaAaBaxaCawawawaD#WaEababaEaDaDaFaeaf.f.q.q.G.G.G.G.G.G.C.j.e.q.e.b.#",
".G.G.G.G.G.G.G.G.G.C.e.g.fasaEaD#UaGaHaIaJaKaLaMaNaMaNaOaPaIaIaHaoaLaMaNaMaQaRavaSaCavaQaNaTaF.4.f.i.q.G.G.G.G.G.G.G.i.i.e.e.aQt",
".G.G.G.G.G.G.G.G.G.C.f.a.caUaVavaQaGaKaPaPaPaPaWaPaPaPaPaWaWaWaPaWaWaPaPaWaWaXaMaYaZaMaKaPaNaDasQt.f.q.q.G.G.G.G.G.C.q.i.e.e.b.#",
".G.G.G.G.G.G.G.G.G.j.f.b.casaVavaZaOaKaPaKaOa0aLaXa1a1a1a2a0aLaOa3aWaWaWaWaWaKauaNa4aGaOaKaRaDaq.a.f.q.q.G.G.G.G.G.G.q.i.e.e.a.#",
".G.G.G.G.G.G.G.G.G.i.g.b.WaUaVa5aQaGaKa6a7aRa8aTa0a9b.a9a0aTaCaRa7a3aWaWaWaWa3aXaOaOauaMaMb#aEaqQt.g.q.q.G.G.G.G.G.q.q.q.e.e.a.#",
".G.G.G.G.G.G.G.G.G.i.f.P.WasaDbaaQaMaKa3aMaCbbbcbdbebfbebgbhbiaCaMa3aPaPaWaWaWa6aKaXa7aMaZaCabaqQt.f.q.q.G.G.G.G.G.C.j.e.e.e.aQt",
".G.G.G.G.G.G.G.G.G.i.i.P.basaEaC#UaQaLa7aTbi#S#4bjbkbfbdbj#T.dbib#a7aXaXaXaXaXaXaXa7axbaaCaVasblQt.f.i.G.G.G.G.G.G.C.j.e.i.e.aQt",
".G.G.G.G.G.G.G.G.G.i.f.f.a.eaUaEaSaCavaTawbbbmblbcbdbdbgbc#TbmaUawaTbnaRbnaYbnaRaYaTa8aDaVabaq.b.P.f.i.q.G.G.G.G.G.G.j.q.e.e.aQt",
".G.G.G.G.G.G.G.G.G.q.f.bQt.baqaqasabbbbibbaqbobmbl#Tbcbc#Tbm.aaqasbibibiaEbibibiaEabbbas#waq.gbo.P.f.i.G.G.G.G.G.G.C.j.e.e.d.aQt",
".G.G.G.G.G.G.G.G.G.q.f.PQtQtQt.a.a.c.c.c.abo.#Qt.c.cbmbm.c.#QtQt.a.c.c.c.c.c.c.c.c.c.c.c.aboQtQt.a.g.i.q#v.G.G.G.N.C.j.q.i.e.aQt",
".G.G.G.G.G.G.G.G.G.q.i.W.b.aboQtbo.caqaqaqaqaq.d.gbo.#bo.gaqaqaqaqaq#waqaqaqaq#waqaq#S.aQt.aQt.a.g.f.q.G.G.G.G.G.G.C.j.e.e.d.a.#",
".G.G.G.G.G.G.G.G.G.G.i.i.f.g.a.#boaqaUababababbbaq.gQt.c#wbbabababababababaEabaEabasaq.cQtQt.b.g.e.i.q.G.G.G.G.G.G.C.j.e.i.d.bQt",
".N.G.G.G.G.G.N.G.G.G.i.i.e.d.bQt#SaUaEaDaSaSaS#Wab.c.#.daUaVaSaSaSaSaSaSaSaSaSaDaDaVaUaq.#.b.f.e.q.C.q.G.G.G.G.G.G.C.j.h.q.e.aQt",
".G.G.G.G.G.G.G.G.G.G.G.G.C.e.bQt#wabaSbababa#Ua5aEaqQtaq#WaC#U#Uba#U#Ubabababa#U#UaC#WaqQt.b.e.q.N.G.G.G.G.G.G.N.G.C.j.e.e.e.aQt",
".G.G.G.G.G.G.G#v.G.G.G.G.C.e.g.aaqaEaDbaaYaZaQbaaD#4Qt#waDaTa4a4axa4aQaZbabaaYaZaQavaF.h.#.g.f.q.G.Gag.G.G.G.G.G.G.C.j.i.e.e.a.#",
".G.G.G.G.G.G.G.G.G.G.G.G.C.e.b.PaqabaSbaaZaMaGaQaCas.#asaDaQaOaOaOaOaMa4aZbaaZaMaOaQaCasQt.b.e.C.G.G.G.G.G.G.G.G.G.C.j.j.e.e.aQt",
".G.G.G.G.G.G.G.G.G.G.G.G.C.e.bQtaqabaSaZaQaGaKaMaTbb.#bbavaLa6a6a3a6aOaMaZ#UaQaOaKaMavbbQt.b.e.q.G.G.G.G.G.G.G.G.G.C.j.h.e.f.aQt",
".G.G.G.R.R.R#v.N.G.G.G.G.q.i.g.aaqaEaDbaaZaMaLaRaDasQtasaDaRaOaXa3a6a6aOaMaQa4aObpaMaTaF.4.4af.j.C.C.G.G.G.G.G.G.N.H.p.p.p.e.aQt",
".G.G.G.I.L.O.V.N.G.G.G.G.q.i.bQtaq#6aCbabaavaTaDbiaqQtaqbi#2bnaxaXa6aKbpaOaMaGaGaOaMaYavawaFae.h.e.i.C.G.G.G.G.G.M.F.s.s.o.e.aQt",
".G.G.G.J.E.J.Q.R.G.q#v.G.q.e.gQtaqabaSa5aCaVabas#4.a.#.c#4asbiavaLa3aWa6aKbpaOaMaxaxaxaNaMavaF.4.f.f.i.C.G.G.G.N.V#Y.k.u.n.e.a.#",
".G.G.G.l.t.E.n.V.G.G.G.G.q.e.g.PaqabaSa5aVas.c.#Qt.#QtQt.#.#aqaFaQaKaWaWaWa6bpaMaYaraMaKaPaMaDasQt.f.i.G.G.G.G.Nbq.k.B.t.m.d.aQt",
".G.G.G.l.t.l.E.Q.V.R.R.G.G.i.f.b.habaSan#W.C.f.P.P.b.a.b.b.baqaEb#aua7a7a7auaRb##8#8b#aNa7b#br.C.g.e.i.C.N.M.R.I.L.E.A.t.l.e.bQt",
".G.G.N.l.t.z.l.E.J.O.V.M.G.C.i.i.jagbsakbt.G.i.f.e.e.e.e.e.e.h.Mbr#8atatatat#8brbrbranatatbr#v.q.e.i.C.G.M.I.Q.J.u.l.z.t.l.dQtQt",
".G.G.G.l.t.y.z.l.l.J.O.M.G.G.C.i.Gagag#v.G.G.G.G.j.i.j.C.j.C.Gagakakakakakakakak#v#vakakak#v#v.q.q.C.G.G.R.Q.J.l.B.z.y.t.m.e.aQt",
".G.G.G.l.t.t.t.t.t.E.Q.R.G.G.G.G.G.G.G.G.G.G.G.G.G.G.G.G.G.G.G.G.G.G.G.G.G.N.G.G.G.G.q.N.G.G.G.G.G.G.G.G.V.L.m.t.t.t.t.t.l.e.aQt",
".G.G.G.J.l.l.l.l.l.J.O.R.G.G.G.G.G.G.G.G.G.G.G.G.G.G.G.G.G.G.G.G.G.G.G.G.G.G.G.G.G.G.G.G.G.G.G.G.G.G.G.G.R.Q.J.l.l.l.l.l.k.e.aQt",
".G.G.G#v.G.N.G.G.G.G.G.G.G.G.G.G.G.G.G.G.G.G.G.G.G.G.G.G.G.G.G.G.G.G.G.G.G.G.G.G.G.G.G.G.G.G.G.G.G.G.G.G.G.G.G.G.G.C.i.i.e.e.a.#",
".G.G.G.G.G.G.G.G.G.G.G.G.G.G.G.G.G.G.G.G.G.G.G.G.G.G.G.G.G.G.G.G.G.G.G.G.G.G.G.G.G.G.G.G.G.G.G.G.G.G.G.G.G.G.G.G.G.C.i.i.i.g.aQt",
".G.G.G.G.G.G.G.G.G.G.G.G.G.G.G.G.G.G.G.G.G.G.G.G.G.G.G.G.G.G.G.G.G.G.G.G.G.G.G.G.G.G#v.G.G.G.G.G.G.G.G.G.G.G.G.G.G.G.i.i.e.e.aQt"};
