/* XPM */
static char *dummy[]={
"64 64 211 2",
".4 c #090607",
".X c #131213",
"#c c #150a0e",
".W c #161817",
".3 c #161918",
"#. c #181816",
".V c #1a0e15",
".0 c #1a1c1b",
".U c #1b1215",
".2 c #1b1f20",
".S c #1d161b",
".1 c #1e2223",
".T c #200f15",
"#g c #20251f",
"#d c #222625",
".# c #231417",
".5 c #232728",
"Qt c #24131a",
"## c #242926",
".R c #26181d",
".Y c #261822",
".9 c #262b2a",
".b c #2a161f",
".a c #2a1621",
"#L c #2a2d2c",
"#e c #2a312a",
".O c #2c1a1e",
".f c #2d1a24",
".e c #2d1b29",
".6 c #2d3333",
"#Q c #2e232a",
"#h c #2f3a35",
"ae c #30171d",
"#a c #313b35",
"ad c #321b1e",
".d c #321c25",
"#v c #33282d",
".c c #341e2d",
"a# c #342326",
"#U c #342d31",
".8 c #343c3a",
".g c #351f31",
".P c #35222c",
"#X c #363436",
"#b c #36423c",
".o c #372033",
".n c #381f32",
".A c #392236",
".E c #39252b",
"#f c #39443e",
"#3 c #3b1d22",
"#Y c #3b231f",
"a. c #3b3539",
"#0 c #3b3a3c",
".7 c #3b4442",
"ar c #3c2423",
"aa c #3c2932",
"#2 c #3c2a2b",
".I c #3d253b",
"#1 c #3d3133",
"aV c #3e302f",
"#i c #3e4945",
"#l c #3f4949",
"ab c #401d23",
"aq c #402e2e",
"#T c #41242c",
"bn c #422c3c",
".N c #43263b",
"#B c #434d4b",
"aF c #443534",
"ai c #44353c",
".Q c #452e42",
"#j c #45514d",
"#p c #464748",
"#6 c #464e50",
"#u c #465252",
".Z c #473041",
"aG c #482634",
"#E c #483c42",
"aE c #493937",
"#r c #49544e",
"#7 c #4a3534",
"bj c #4a363a",
"#4 c #4b2728",
"bo c #4b3444",
"an c #4b3c3a",
"#C c #4b5555",
".M c #4c293d",
".m c #4d273a",
"#k c #4d5957",
"aD c #4f423c",
"#S c #4f5b5b",
".p c #512936",
"bk c #513e3b",
"#q c #525d5d",
"bq c #533e46",
"bp c #533f48",
"aC c #53423e",
".B c #542b3c",
"bg c #544641",
"ac c #55262b",
"a9 c #553727",
"#m c #55615e",
"bh c #564843",
"ag c #565657",
"#o c #566262",
"ah c #57454a",
"bd c #583d32",
"#t c #58635d",
".w c #592d33",
"av c #594541",
"#D c #595e61",
"#K c #5a6665",
".H c #5b2d3e",
".L c #5c2e40",
"aB c #5c4b45",
"#9 c #5c6769",
"#s c #5d6a6a",
"ao c #5e4c4c",
"aW c #5e514b",
"af c #615f60",
"#n c #616e6e",
"bm c #622f40",
"a4 c #624e4c",
".J c #633041",
"as c #634d51",
"au c #64544c",
"be c #64594f",
"#8 c #652e31",
".l c #652f3c",
"#V c #657171",
"#R c #665a51",
"#F c #666564",
"#w c #66716b",
"#Z c #6a2e34",
".q c #6a3342",
"bf c #6a472e",
"aT c #6a564d",
"#y c #6a7473",
"aH c #6b5b51",
"bl c #6c5752",
".v c #6d323d",
"a5 c #6d5649",
"aY c #6d6255",
"#W c #6e7678",
"aw c #6f6159",
"aS c #715e54",
"aU c #726256",
"#M c #726d6e",
".C c #733543",
"bi c #746559",
"#z c #75817d",
".G c #76343b",
"aO c #76685b",
"aj c #777a7a",
"#A c #7a8583",
".x c #7b3642",
"aM c #7b665b",
".K c #7c3845",
"aN c #7c6a5c",
"aI c #7d7162",
"bc c #7e5938",
"aA c #7e6e61",
"at c #816e61",
"#5 c #82393d",
"aL c #826d5e",
"a2 c #84705e",
".k c #853a45",
"aZ c #857363",
"#x c #858a87",
"a6 c #87674e",
"ap c #89827b",
"aR c #8a7665",
"al c #8a7867",
"#H c #8a918e",
".h c #8b3c49",
".s c #8c3c45",
"aK c #8c7a69",
"#I c #8d9894",
"a0 c #917961",
"a3 c #937e6c",
".F c #943d44",
".r c #943f48",
"#O c #959a96",
"aJ c #968577",
"aP c #97826f",
"ax c #978c83",
"aX c #99846e",
"am c #999089",
".u c #9a4147",
"aQ c #9a8570",
".i c #9c424b",
"b. c #9d6d3d",
"#J c #9ea8a3",
".j c #a2444b",
"bb c #a37141",
"ay c #a39487",
"a1 c #a48666",
"a7 c #a88157",
"ak c #a9a9a2",
"#G c #aab2ae",
".z c #ab464d",
"az c #aba599",
"#P c #aeb3af",
"b# c #b0814d",
".y c #b2474d",
"#N c #b6bbb5",
".D c #b74a50",
".t c #bd4c52",
"a8 c #c49561",
"ba c #d39752",
"Qt.#.#.#.#.#.#.#.#.#.#.#QtQtQtQt.#.#.#.#.#.#.#.#Qt.#.#Qt.#.#.#.#.#.#.#.#.#.#.#.#.#.#.#.#.#.#.#.#.#QtQtQtQt.#QtQtQt.#.#.#QtQtQtQt",
".a.a.a.a.a.a.a.a.a.a.b.b.b.b.b.a.b.a.a.a.b.b.b.b.a.a.a.a.a.a.a.a.b.a.b.b.a.a.a.a.b.b.a.a.b.a.b.b.b.b.b.b.a.a.b.b.a.a.a.a.b.bQt.#",
".c.d.d.d.c.e.d.d.c.f.c.d.c.d.d.d.c.c.d.d.d.d.c.c.d.d.d.c.d.c.d.d.c.c.c.c.c.d.d.c.c.c.d.d.c.d.c.c.c.d.d.d.d.d.c.d.d.c.c.d.c.f.b.#",
".g.c.g.h.i.j.j.j.j.k.l.m.g.c.g.n.c.g.g.g.g.g.g.g.g.g.g.g.c.g.g.g.g.c.c.c.g.c.g.g.c.g.g.g.c.c.o.c.g.c.g.n.p.q.k.i.j.r.j.j.s.c.b.#",
".c.g.c.i.t.t.t.t.t.u.v.p.c.g.g.g.g.n.g.g.g.c.g.g.g.c.g.c.g.g.c.g.c.g.c.g.c.g.c.c.g.g.g.g.c.o.c.c.c.g.g.g.w.x.r.t.t.t.t.t.i.c.b.#",
".g.g.g.j.t.t.y.y.z.s.v.m.A.g.g.o.g.g.g.c.c.c.c.c.c.c.c.c.c.c.c.c.c.c.c.c.c.g.g.g.n.n.n.o.o.o.o.o.A.g.g.n.B.C.s.z.y.D.t.t.j.c.b.#",
".E.g.g.j.t.y.j.F.s.G.H.m.A.A.A.A.n.g.c.c.g.c.c.g.c.c.c.c.c.g.c.c.c.d.f.e.d.e.g.n.n.A.I.o.A.I.I.o.I.A.A.A.m.J.C.F.r.z.D.t.i.d.a.#",
".c.g.g.j.t.z.r.K.J.L.M.N.I.I.I.I.g.g.a.a.a.a.a.a.a.a.a.a.a.a.a.a.a.a.a.O.a.a.c.g.I.I.I.I.I.I.I.I.I.I.I.I.M.M.H.q.k.r.y.t.j.d.a.#",
".c.o.P.j.t.j.k.l.Q.N.N.n.I.I.I.I.g.c.aQt.bQt.b.aQt.aQtQtQt.aQt.b.#QtQtQt.#.b.a.g.A.I.I.I.I.I.I.I.I.I.I.I.I.N.N.M.q.r.z.t.j.e.aQt",
".g.g.o.k.u.h.C.L.I.I.I.I.I.n.n.A.c.a.R.S.T.T.T.SQt.T.#.#.TQt.#.T.UQt.S.T.#.T.a.e.c.n.A.I.I.I.I.I.I.I.I.I.I.I.I.N.H.C.s.r.k.d.bQt",
".g.E.c.v.x.q.J.M.I.I.I.I.I.I.g.g.eQt.R.U.V.V.U.W.W.X.U.V.U.V.S.V.X.X.V.S.U.U.Y.a.e.g.n.A.I.I.I.I.I.I.I.I.I.I.I.N.Z.J.G.x.v.e.bQt",
".c.g.g.p.H.H.M.I.I.I.I.I.n.n.e.aQtQt.U.X.V.W.V.V.X.X.U.X.X.U.X.X.X.X.V.V.X.X.V.S.Y.a.e.A.I.I.I.I.I.I.I.I.I.I.I.I.M.m.B.w.p.c.bQt",
".g.P.g.A.A.N.N.I.N.I.I.I.n.g.fQt.#.U.X.X.X.X.X.X.X.X.X.X.X.X.X.X.X.X.X.X.X.X.X.S.T.a.a.n.A.A.I.I.I.I.I.I.I.I.I.I.I.A.o.c.n.d.bQt",
".g.c.g.o.A.I.A.I.A.I.I.I.n.g.aQt.S.V.W.X.W.0.1.1.2.3.X.X.4.X.X.X.X.X.X.X.X.X.V.V.SQt.a.e.n.o.n.I.I.I.I.I.I.I.I.I.I.A.g.g.g.d.bQt",
".n.P.n.n.n.A.A.A.A.A.A.A.n.e.a.#.#.U.X.X.2.5.6.6.1.3.X.X.X.X.X.X.X.X.X.X.X.X.X.X.X.V.R.a.f.e.n.A.I.I.I.I.I.I.I.I.I.I.g.P.n.e.bQt",
".c.n.c.c.c.E.g.g.g.g.c.c.g.e.aQt.S.U.X.X.1.6.7.8.9.1.X.X.X.X.X.X.X.X.X.X.X.X.X.X.X.X.UQt.a.a.g.A.I.I.I.I.I.I.I.I.I.I.o.o.g.d.b.#",
".g.c.g.E.c.g.g.g.g.c.c.d.f.aQt.S.U.U#..0###a.7.7#b##.1.1.0.0.3.W.3.W.3.0.0.0.3.3.X.X.U.S.T.Y.e.I.I.I.I.I.I.I.I.I.N.A.g.c.g.c.bQt",
".c.n.g.g.g.g.g.c.g.c.e.e.a.a.V#c.X.U.0#d#e#a#f.7.7#b.8.6.9##.1.1.1.1.1.5.9.9.1.1.W.X.X.V.V.Y.e.o.I.I.I.I.I.I.I.I.I.A.g.g.g.d.bQt",
".E.A.A.A.o.o.A.A.n.g.c.a.a.V#c.4.X.3#g#e#e#h.8.7#i#j#k#l#b#h#e#e#e#e.6#h#b#b.6.1.W.X.X.X.X.S.e.A.I.N.I.I.I.I.I.I.N.A.o.g.g.d.bQt",
".N.A.A.N.A.N.A.N.I.g.e.Y.V#c.4.4.X.W###h#b#h#h#f#j#m#n#o#j#f#h#h#h#h#b.7#l#l.8.1.3.X.X.X.X.3.e.o.I.I.I.I.I.I.I.I.I.A.o.g.g.d.bQt",
".I.I.I.A.I.I.I.I.I.n.c.f.a.V#c.4.S.6#p#q#r#i#b#f#j#o#n#s#t#t#q#r#f#b#b#i#l#u#i.6##.0.S.W.X.S.Y.o.I.I.I.I.I.I.I.I.I.A.o.c.o.c.b.#",
".I.N.I.I.I.I.I.I.I.I.g.g.f.Y.V#c#v#r#w#x#y#k#f#f#j#m#n#y#z#x#A#w#r#b#b#B#C#D#u#i.8.9#d.3.X.S.e.o.I.I.I.I.I.I.I.I.N.A.o.o.c.d.b.#",
".I.I.I.I.I.I.I.I.I.I.n.g.g.cQt.T#E#F#x#G#H#F#f#f#r#m#n#z#I#J#J#A#t#b#f#j#q#K#q#u#l.8#L.2.X.S.Y.o.I.I.I.I.I.I.I.I.I.A.o.c.c.c.a.#",
".I.I.I.I.I.I.I.I.I.I.I.I.n.c.a.b#p#M#I#N#I#w#j#i#r#m#n#z#O#P#G#I#K#i#p#r#m#s#o#q#u.7.6.1.X.S#Q.I.M.N.N.I.I.I.I.I.I.A.o.o.g.d.a.#",
".I.I.I.I.I.I.I.I.I.I.I.I.A.g.a.a.Z#R#z#O#A#K#j#l#C#o#n#z#A#I#I#z#m#i#l#k#o#s#K#S#u.7.6.0.X.Y#T.L.J.L.m.I.I.I.I.I.A.A.E.g.g.d.a.#",
".I.I.I.I.I.I.I.I.I.I.I.I.n.g.YQt#U#p#K#y#s#S#l#u#k#K#n#V#V#W#y#K#k#l#u#S#K#n#K#S#u.7.6.1.X.d.w.x.h.C.H.N.I.I.I.I.N.A.o.g.g.d.a.#",
".Q.I.I.I.I.I.I.I.I.I.I.I.n.g.aQt#Q#X#p#k#u#u#u#u#S#K#n#s#o#S#k#C#u#B#k#q#K#s#K#S#j.7.6.1.X#Y#Z.F.j.h.J.N.I.I.I.I.I.A.o.g.g.c.b.#",
".I.I.I.I.I.I.I.I.I.I.I.Q.n.g.f.b#Q#X#p#k#C#k#k#S#o#s#n#K#o#S#k#k#C#k#S#q#o#K#S#l#p#0#1#2#3#4#Z#5#5.v.p.o.o.A.I.I.I.A.o.g.c.c.b.#",
".I.I.I.I.I.I.I.I.I.I.I.I.n.g.aQt#Q#0#6#D#m#D#D#D#K#s#n#s#K#D#o#S#q#D#D#q#q#D#u#l#0#1#7.w#Z#Z#Z#Z#8#4.o.Y.e.o.A.I.I.I.g.c.g.c.a.#",
".I.I.I.I.I.I.I.I.I.I.I.I.n.g.a.b#v#0#C#K#K#o#9#K#s#n#n#s#s#K#K#K#9#K#o#q#S#C#la.a##T.w.G.F.G#8#4.d.d.2.S.Y.e.o.I.I.A.n.g.g.d.a.#",
".I.I.I.I.I.I.I.I.I.I.I.I.n.g.a.aaa#E#q#V#V#s#9#9#K#9#K#n#n#V#V#n#s#s#D#S#u#l.8#v.bab#8#5.y.sacad.W.X.X.X.2.Y.g.I.I.A.o.g.g.d.a.#",
".I.I.I.I.I.I.I.I.I.I.I.I.A.g.aQta.#C#M#A#z#s#q#C#C#C#C#D#y#A#A#W#9#k#6#l.7#0#U#Qaeadac.G#5.G#4#Y.S.S.Y.S.Y.e.o.I.I.A.o.c.n.d.aQt",
".I.I.I.I.I.I.I.I.I.I.I.I.n.g.fQt#Eaf#x#J#x#F#pa.a.a.a.ag#W#I#O#A#D#E#U#U#Ua##Q.YQtad#3ac#8#4#T.c.e.e.e.e#Q.o.o.I.I.A.o.g.c.c.bQt",
".I.I.I.I.I.I.I.I.I.I.I.I.A.g.aQtah#M#O#N#I#Rai.e.e.e.eahajak#P#xag.P.f.e.Y.Y.O.b.U.b.Oaead#3.c.n.n.A.A.A.A.I.I.I.I.A.o.g.g.cQtQt",
".I.I.I.I.I.I.I.I.I.A.I.n.o.c#Qa#ahal#O#Nam#Fan#2#2.E.Eaoapak#P#H#Raq#2.E#2#2.Ea#a#a#ar.P.E.E.g.n.I.n.A.I.I.I.I.I.I.A.o.o.g.c.bQt",
".I.I.I.I.I.I.I.I.I.A.n.g.c.Eaaaaas#MamakamatauavavavavawaxayazaxaAaBaCavavaCaDaEaFaF#7aCavanaGaa.c.g.o.I.I.I.I.I.I.A.o.o#Q.e.bQt",
".I.I.I.I.I.I.I.I.I.n.c.f#Q#vaEaCaHaIaJayaJaKaLaMaMaNaOalaPayayaQaRaLaNaMaMaMaSauaBaBaTaUaMauan.E.a.c.n.I.I.I.I.I.I.A.g.g.c.c.bQt",
".I.I.I.I.I.I.I.I.Q.g.f.a.OaVaDaWaUaIaKaXaXaXaXaXaQaQaQaQaXaPaXaQaXaXaQaQaXaXaRaOaHaYaIaKaXaNav.E.b.f.n.I.I.I.I.I.I.A.g.g.P.c.b.#",
".I.I.I.I.I.I.I.I.I.g.e.a.OaVaDauaUaIaKaPaKaZaLaLa0a1a1a1a0a2aLaZa3aXaXaXaXaPaKaIaOaOaNaZaKaSaC.E.b.a.n.n.I.I.I.I.I.I.g.g.c.c.b.#",
".I.I.I.I.I.I.I.I.I.g.e.a.faVaDaWaUaIaKa3aZaSa4a5a6a7a8a7a6a5aBaSaZa3aXaXaXaXa3aKa2ataIaNaNaTaEa#.b.f.g.n.I.I.I.I.I.I.g.g.c.c.b.#",
".I.I.I.I.I.I.I.I.I.g.e.Y.f#2aCauaUaLaKa3aNaBaFa9b.b#babbbcbd#7aBaMaPaQaQaXaXaPaPaKaKaLaOaYaBaFa#.b.e.g.I.I.I.I.I.I.A.A.g.g.d.a.#",
".I.I.Q.I.I.I.I.I.I.g.g.Y.Y#2anaBbeaUaNata5aE#Yarbfbbbab.bf#4.d#7aTataKaRaRaRaRaRaRaLaObeaBaD#2a#Qt.e.g.n.I.I.I.I.I.A.g.g.g.d.b.#",
".I.I.I.I.I.I.I.I.I.g.e.a.a.daVaEbgaBaua5avaq.O#Ya9a6b.bca9ar.OaVaCa5aSaHaSaHa5aSaHaTa4aCaDaq#v.O.b.e.g.I.I.I.I.I.I.A.g.g.c.d.a.#",
".I.I.I.I.I.I.I.I.I.g.e.a.b.aa##v#2#1aF#7#2a#.Oad#Ya9a9a9#T#Y.#a##2#7#7#7aE#7#7#7#7aFaqaV#2a#.f.RQt.e.g.I.I.I.I.I.I.A.A.g.g.c.a.#",
".I.I.I.I.I.I.I.I.I.g.e.a.#.b.R.R.O.O.O.Y.OQt.#.#.O.Oadad.bQt.#Qt.R.O.O.O.O.O.Oad.O.O.O.R.bQtQt.#.a.a.g.I.I.I.I.I.I.A.g.g.c.c.b.#",
".I.I.I.I.I.I.I.I.I.n.g.e.O.b.#.#.R.fa#a#a#a#a#a#.O.O.#.R.fa#a#a#a#a#a##va#a##v#2aq#2a#.O.#.#.b.a.a.e.n.I.I.I.I.I.I.A.E.g.c.d.a.#",
".I.I.I.I.I.I.I.I.I.I.g.g.d.a.bQt.Ra##2aFaEaFaE#2#v.f.#.O#vaVaFaEaFaEaEaFaFaEaEaCaCaC#7ar.#.b.a.d.g.n.n.n.I.I.I.I.N.A.g.g.c.c.a.#",
".I.I.I.I.I.I.I.I.I.I.n.n.g.f.a.#a#aVaEaCbgbgbganaq.f.U#YaVanbgbgbhbgaCbgbgbhaWaYaMa5aC#2.#.b.f.g.n.n.I.I.I.I.I.I.I.A.A.g.c.c.a.#",
".I.I.I.I.I.I.I.I.I.I.I.I.n.g.a.ba#aibhbebebe#RaWaEa#.#a#anaBaHbe#Rbe#RbebeaHaUaLa3aLaT#7.f.d.c.A.A.I.I.I.I.I.I.I.Naa.o.g.g.d.a.#",
".I.I.I.I.I.I.I.I.I.I.I.I.n.g.aQta#aFaCbe#RaYaUbeaC#2.##vaCaTbiaOaUaOaUaY#RbeaYaNaZaNaTaC#7aqaa.A.n.n.A.I.I.I.I.I.A.A.g.g.g.c.aQt",
".I.I.I.I.I.I.I.I.I.I.I.I.A.g.a.ba#aEbh#RaYaOa2aUaB#T.##2aCaUaZaZaZaZaNbiaYbeaYaYaObiaUaUaHavbj#2.e.g.n.I.I.I.I.I.N.A.o.g.c.d.b.#",
".I.I.I.I.I.I.I.I.I.I.I.I.A.c.a.ba#aFbgaYaYaIaKaNauaq.#aqauaLaPaPa3aPaZaNaYbebeaHaHaUaNa2aRaUbk#T.a.f.n.I.I.I.I.I.A.A.n.o.g.c.b.#",
".I.I.n.Q.L.Q.Q.N.I.I.A.o.o.Pa#.daqaDaWaUaOaNaLaUav.E.##2aCaUaZaRa3aXaPaZaNaYaY#R#RaYaIaKaXaLaC#2.a.f.g.I.I.I.I.I.N.maG.maG.c.a.#",
".I.I.Q.q.K.q.L.M.I.A.o.g.P.Eaa#2aCaBaYaObiaHa5aC#7a#.#a##7aCaTbiaRaPaPaIaIaNaUaY#RaYaNaKaXaMav#2Qt.f.g.A.I.I.I.N.M.H.v.v.l.d.a.#",
".I.I.I.h.r.h.C.L.I.o.g.f#Q#2aibgauaUaNaZbiaB#7#2a#.O.#.daraqbka4aNaPaPaPaPa2aIaU#RaYaNaKaQaNaC#2.b.f.g.n.I.I.n.Q.H.x.s.r.k.d.a.#",
".I.I.I.j.t.j.k.L.I.n.e.a.f#2aDaWaUaAaKa3aUbda#.#.#.#.#Qt.#.#a#bdaUaKaXaXaXaXaRaOaHawaOaKaQaNaC#2.b.a.g.I.I.I.I.Q.J.s.z.t.i.c.a.#",
".I.I.I.j.t.z.h.C.L.m#T.c.f.AanaBasaSaMaMaTbj.P.a.a.a.a.a.a.aa#bjasatatatatatawblaoaoblaMatblbkaa.e.c.n.n.N.Q.Lbm.K.r.y.t.j.d.a.#",
".I.I.I.j.t.y.j.r.k.C.maG.g.Ibnbobpahasasbqbn.o.d.c.e.d.c.c.c.obnbpasasasasasaoahbqbqahasasbp.Z.n.g.g.n.N.m.L.q.k.r.j.D.t.r.c.a.#",
".I.I.I.j.t.D.y.z.z.hbm.m.n.Nbn.Z.Z.Qbobo.Zbn.I.A.o.A.A.A.o.A.Abnbobobobobobobo.Q.Q.Z.Qbobobo.Q.I.n.n.I.I.L.C.h.j.z.D.D.t.j.c.aQt",
".I.I.I.j.t.t.t.t.t.r.C.B.I.I.I.I.I.I.I.A.I.I.I.I.I.I.I.I.I.I.I.I.I.I.I.N.I.I.I.I.I.N.I.I.I.I.I.I.I.I.I.I.L.k.r.t.t.t.t.t.j.c.bQt",
".I.I.I.h.j.j.z.j.j.h.q.Q.I.I.I.I.I.I.I.I.I.I.I.I.I.I.I.I.I.I.I.I.I.I.I.I.I.I.I.I.I.I.I.I.I.I.I.I.I.I.I.I.L.q.h.j.j.j.j.i.s.d.bQt",
".I.I.I.Q.I.I.I.I.I.N.I.I.I.I.I.I.I.I.I.I.I.I.I.I.I.I.I.I.I.I.I.I.I.I.I.I.I.I.I.I.I.I.I.I.I.I.I.I.I.I.I.I.I.I.I.I.I.A.n.n.n.d.bQt",
".I.I.I.I.I.I.I.I.I.I.I.I.I.I.I.I.I.I.I.I.I.I.I.I.I.I.I.I.I.I.I.I.I.I.I.I.I.I.I.I.I.I.I.I.I.I.I.n.I.I.I.I.I.I.I.I.I.n.n.g.g.d.a.#",
".I.I.I.I.I.I.I.I.I.I.I.I.I.I.I.I.I.I.N.I.I.I.I.I.I.I.I.I.I.I.I.I.I.I.I.I.I.I.I.Q.n.I.I.I.I.I.I.Q.I.I.I.I.I.I.I.I.I.I.n.g.g.d.aQt"};
