/* XPM */
static char *left_enemy_1_resized[] = {
/* columns rows colors chars-per-pixel */
"64 64 219 2 ",
"   c #090607",
".  c #150A0E",
"X  c #1A0E15",
"o  c #131213",
"O  c #1B1215",
"+  c #161817",
"@  c #1C161A",
"#  c #161918",
"$  c #1A1C1B",
"%  c #181816",
"&  c #231317",
"*  c #24131A",
"=  c #2A161F",
"-  c #26181C",
";  c #2C1A1E",
":  c #301C1D",
">  c #200F15",
",  c #1C201F",
"<  c #3B231F",
"1  c #20251F",
"2  c #1B1F20",
"3  c #2A1721",
"4  c #271B25",
"5  c #2D1A24",
"6  c #2E1B29",
"7  c #271620",
"8  c #321D24",
"9  c #341E2D",
"0  c #391F22",
"q  c #361F31",
"w  c #381F32",
"e  c #1F2323",
"r  c #222625",
"t  c #242926",
"y  c #2E232A",
"u  c #292D2C",
"i  c #272929",
"p  c #342326",
"a  c #3D2623",
"s  c #35222C",
"d  c #39252C",
"f  c #3C2B2B",
"g  c #33292D",
"h  c #3E302F",
"j  c #372033",
"k  c #392236",
"l  c #342D31",
"z  c #3D2A33",
"x  c #3D253B",
"c  c #3D2839",
"v  c #2D3332",
"b  c #2F3A35",
"n  c #313B35",
"m  c #3B3539",
"M  c #343C3A",
"N  c #3A393B",
"B  c #383335",
"V  c #2A312A",
"C  c #402E2E",
"Z  c #442724",
"A  c #56292C",
"S  c #553727",
"D  c #4B2635",
"F  c #4E2836",
"G  c #43263C",
"H  c #4D273A",
"J  c #422B3D",
"K  c #4C293E",
"L  c #432933",
"P  c #532834",
"I  c #532B3D",
"U  c #5B2D3E",
"Y  c #5E2C35",
"T  c #443534",
"R  c #4A3535",
"E  c #493A36",
"W  c #45333B",
"Q  c #4C3C3A",
"!  c #46373D",
"~  c #513D3B",
"^  c #563A35",
"/  c #662F37",
"(  c #6C323D",
")  c #67303A",
"_  c #75343A",
"`  c #632C2F",
"'  c #39443E",
"]  c #36423C",
"[  c #4D423D",
"{  c #51433D",
"}  c #6A472E",
"|  c #7E5938",
" . c #5C2E40",
".. c #542D40",
"X. c #473041",
"o. c #4B3444",
"O. c #4A3D42",
"+. c #533E46",
"@. c #622F40",
"#. c #623041",
"$. c #693342",
"%. c #733543",
"&. c #7B3744",
"*. c #7C3845",
"=. c #763F42",
"-. c #3B4443",
";. c #3E4945",
":. c #3F4949",
">. c #424647",
",. c #434D4B",
"<. c #484848",
"1. c #544641",
"2. c #594541",
"3. c #5C4C45",
"4. c #5D4C4D",
"5. c #564648",
"6. c #45514D",
"7. c #49544E",
"8. c #5E514B",
"9. c #465252",
"0. c #4B5555",
"q. c #4F5B5B",
"w. c #4D5957",
"e. c #525D5D",
"r. c #565657",
"t. c #464E50",
"y. c #624E4A",
"u. c #624446",
"i. c #64544C",
"p. c #64594F",
"a. c #6D594F",
"s. c #6B554A",
"d. c #634D51",
"f. c #665A51",
"g. c #6B5B52",
"h. c #6C5751",
"j. c #715D54",
"k. c #734C4D",
"l. c #55615E",
"z. c #58635D",
"x. c #6E6256",
"c. c #6F6159",
"v. c #726356",
"b. c #75665A",
"n. c #7B665B",
"m. c #76685B",
"M. c #7C6A5C",
"N. c #595E61",
"B. c #615F60",
"V. c #566262",
"C. c #5A6665",
"Z. c #5D6A6A",
"A. c #5C6769",
"S. c #616E6E",
"D. c #666564",
"F. c #7E6E61",
"G. c #726D6E",
"H. c #66716B",
"J. c #7C7062",
"K. c #7A716A",
"L. c #657171",
"P. c #6A7473",
"I. c #6E7678",
"U. c #777A7A",
"Y. c #893B3E",
"T. c #9D6D3D",
"R. c #853A45",
"E. c #8C3C45",
"W. c #8B3D49",
"Q. c #943F48",
"!. c #983E4A",
"~. c #9A4147",
"^. c #9C424B",
"/. c #96454C",
"(. c #83424A",
"). c #A2444B",
"_. c #AB464D",
"`. c #B3484E",
"'. c #B2474D",
"]. c #BD4C52",
"[. c #B74A50",
"{. c #836D5E",
"}. c #866A53",
"|. c #A37141",
" X c #826E61",
".X c #847263",
"XX c #8A7665",
"oX c #8A7967",
"OX c #8C7A69",
"+X c #897769",
"@X c #937E6C",
"#X c #917961",
"$X c #75817D",
"%X c #B0814D",
"&X c #A88157",
"*X c #97826F",
"=X c #99846E",
"-X c #89827B",
";X c #958375",
":X c #9A8570",
">X c #99897A",
",X c #A48666",
"<X c #D39752",
"1X c #C49561",
"2X c #7A8583",
"3X c #858A87",
"4X c #978C83",
"5X c #8A918E",
"6X c #8D9894",
"7X c #959A96",
"8X c #999089",
"9X c #A39384",
"0X c #A2968A",
"qX c #ABA599",
"wX c #9EA8A3",
"eX c #A9A9A2",
"rX c #AAB2AE",
"tX c #B6BBB5",
"yX c #AEB3AF",
/* pixels */
"* * * & * * * * * * * * & * * * * * * * & * * & & * * * * * * * & * * * & * * * * * * * * * * * & * * & * * * * * * * * * * * * ",
"= = 3 = = 7 = = = = 3 3 = = = = = = = = = = = = = = = = = 3 = = = = = = = = = = 3 3 3 = = = 3 3 = = = = = 3 = - = = 3 5 - = * * ",
"9 8 8 6 8 9 8 8 8 8 9 6 9 8 8 9 9 8 9 8 9 9 8 9 8 9 9 8 8 8 6 9 9 8 9 9 8 9 9 8 8 8 8 8 8 8 9 8 6 9 8 8 8 9 9 8 8 8 9 8 9 5 = > ",
"j 9 j E.).).^.).^.R.) D q 9 q 9 q q 9 q 9 9 9 q q w 9 9 q q q 9 9 q 9 9 q w 9 9 j 9 q q q 9 q q 9 q j q D ( R.).^.).^.).E.9 = * ",
"9 9 q ).].].].].].~.( P j 9 w 9 q q q q q 9 q q 9 q q 9 q 9 q q 9 q q q 9 q 9 q q 9 j q w 9 q q j 9 s q Y %.~.].].].].].^.9 = & ",
"s q 9 ).].[.`.'._.E.( D j q j j q q 9 9 9 9 9 9 9 9 9 9 9 9 9 9 9 9 9 9 9 9 q q q w j j j q k q j j w j P %.Q._.'.[.].].).8 = & ",
"q q 9 ).].`._.Q.W.%.U H k k k k w q 9 9 9 9 q 9 9 9 9 9 9 9 9 9 9 5 5 8 5 9 9 k k k k x k k x k x k k k H @.&.W.!._.`.].).5 = * ",
"q q s ).]._.Q.&.#.U K G x x G x w q 6 3 3 3 3 3 3 5 3 3 5 3 3 5 3 3 3 = 3 3 9 q k x x x x x x x x x x x K K U #.R.^._.].).9 = * ",
"q j 9 ).].).R. .G G G x x x x x q 6 5 * = 7 * = * * = * * = = * * * * * * 7 5 q w x x x x x x x x x x x x x G K #.Q._.].).9 3 * ",
"q 9 q R.^.W.%...x x x x k k k k q 5 * @ * > @ * * * > * * O * @ * * * @ O * 7 6 q q w x x x x x x x x x x x x G U %.W.~.R.8 = * ",
"9 s q ( *.%.) K x x x x k k 9 9 4 7 * O X X O O X O O X X O + o O O X X O O @ 4 6 9 q k x x x x x x x x x x x G I @.%.%.( 5 = * ",
"q q s K U ..K G x G x x k q 6 3 7 * O o X o o O O o o O o o o o o O o o X O X 7 7 6 q w x x x x x x x x x x x x G H P Y P 9 = * ",
"q 9 d w k G x x x x x x k 9 3 * * O o o o o o o o o o o o o   o o o o   o o o O X 3 5 q k w x x x x x x x x x x x k j w q 9 = & ",
"9 w q w k G x x x x x x k 9 5 * O O o o + e e e $ o o o o o o o o o o o o o o o O * 4 6 q w w x x x x x x x x x x k w 9 9 9 = & ",
"w 9 q s j j j k k w k w q 6 5 * * O o o 2 e v v e # o o o o o o o o o o o o o o O O 7 5 6 6 w w x x x G x x x x x k q q 9 8 = * ",
"9 q q w q q s w 9 9 9 9 9 6 3 * O + o + e v -.M v 2 o o o o o o o o o o o o o o o o O * 3 6 9 w x x x x x x x x x x k 9 q 9 = & ",
"w 9 w q q 9 q 9 q 9 9 9 5 5 * > X O # $ t b -.-.] e e e # # # # # $ # 2 $ $ # + o O O O O 4 y j x x x x x x x x x k j q q 8 3 * ",
"9 w s 9 q q w s q q 6 6 3 * X . X @ $ 1 V n -.-.-.] ] v V e e e e e e e t u e $ o o o o O 7 6 j x x x x x x x x x k j q q 8 = * ",
"j j k j k k k k w q 6 4 7 X .   o $ 1 V v n b -.;.w.w.;.' b V V V V v v M M v e + o o o o 7 6 j x x x x x x x x x x q 9 q 8 = * ",
"G G x x x x k G x q 6 7 X .       $ e ] n b b ' :.l.S.l.9.' b b b b -.-.:.:.M t # o o o o @ 4 j x x x x x x x x x k k q q 8 = * ",
"x x x x x x x x x w q 6 7 X .   $ B ;.l.7.' ] ' w.l.S.C.C.z.e.7.' ] ] ;.9.9.:.v i 2 # o o & d F  ...G x x x x x x k j j j 9 3 * ",
"x G x x x x x x x x w q 6 3 > . l 7.H.2XP.l.' ' :.V.S.$X$X3X$XP.7.] ' ;.9.N.9.-.M u e $ o ; A ( *.#.U G x x x x x k j q 9 8 = * ",
"x x x x x x x x x x w w q 6 7 X T D.5XrX6Xx.>.' :.C.S.2X6XeXwX2Xl.] ' 7.e.C.e.9.:.M u e . < ` Y./.*.U G x x x x x k q q j 6 = * ",
"x x x x x x x x x x G x w q 3 = <.G.6XtX6XH.6.' :.l.S.2X7XrXrX5Xz.;.;.0.V.Z.V.e.9.-.M y - Z _ Y.!.&.U k k k x x G k w s 9 8 = * ",
"x x x x x x x x x x x x k q 5 * T r.-X7X2XC.,.;.0.V.S.I.2X6X7X$Xz.;.:.0.V.Z.C.q.9.<.O.F A A / _ ( / G 6 q j k x x k j q q 8 3 * ",
"x x x x x x x x x x x x w q 5 * l <.V.I.A.q.6.6.w.C.S.L.L.I.L.Z.0.,.9.q.C.S.V.q.0.<.3.=.Y._ ` A 0 8 5 2 2 y j x x k j j q 8 = * ",
"x x x x x x x x x x x x w q 3 * y m >.w.9.9.t.9.q.C.S.Z.V.q.w.9.6.6.9.l.C.Z.C.q.t.4.h./.'.E.` : O O + o @ 4 q x x k j 9 q 8 = * ",
"x x x x x x x x x x x x w q 3 = y m :.0.w.w.w.q.V.Z.Z.Z.V.q.w.w.0.w.q.V.V.V.q.9.>.1.u.(.~._ A p @ @ @ @ 4 6 k x x x j 9 j 8 = * ",
"x x x x x x x x x x x x w q 3 = g N <.N.e.e.e.N.C.Z.S.Z.C.N.N.q.V.q.e.N.V.q.9.-.m m I $.*.) D s 5 4 4 4 6 y k x x k w w 9 9 3 * ",
"x x x x x x x x x x x w k q 3 * g N 0.A.C.A.C.A.Z.Z.S.Z.Z.C.C.A.V.Z.V.e.q.0.:.m g g L P  .I x j s q 9 9 j k k x x k q s w 8 = * ",
"x x x x x x x x x x x X.k q 4 7 l O.N.P.L.S.Z.A.Z.A.A.S.S.L.L.S.Z.Z.N.q.0.>.N u 3 3 6 q k k x x x x x x x x x x x x w 9 j 6 = * ",
"x x x x x x x G x x x x w q 5 * m 0.L.2XI.Z.e.0.0.0.0.N.P.2X2XI.C.e.t.>.-.N l y 7 * 5 6 q k k x x x x x x x x x x k j j 9 8 = & ",
"x x x x x x G x x x x x q 9 5 * o.B.3XeX3XD.<.m m m m r.U.6X7X2Xr.O.B l l g y ; - * = 5 6 6 w k G x x x x x x x x w q q q 9 7 * ",
"x x x x x x x x x x x x k 9 5 * +.G.7XtX5XB.m 5 5 y 5 5.U.eXyX3Xr.g 5 3 4 4 - * @ & * * = 5 q k x x G x x x x x x w q q q 8 3 * ",
"x x x x x x x x x x k k q j y p 5.K.7XtX8XD.Q d f f d d.-XeXyX4Xf.T d d f f d p < p p d d s j j k k k x x x x x x x w q j 6 = * ",
"x x x x x x x x x k q q s s z f 8.K.0XeX8X Xi.2.2.1.+.D.OXqXqX>XF.5.2.2.{ { ~ E T T R [ 2.Q L d 8 j j x x x x X.x x w q 9 8 = * ",
"x x x x x x x x x k 9 6 p f T 1.g.K.;X0X>XOX Xn.n.n.M.XX;X>X9X>X+X{.M.M.{.n.j.i.3.3.i.v.n.s.Q g 5 9 w w x x x x x k w w j 8 5 * ",
"x x x x x x x x x q 6 3 ; f { i.b.F.oX:X:X=X:X=X:X:X:X=X=X=X:X:X=X=X=X:X=X@XXXn.g.x.M.oX:Xn.2.f * 6 q k x x x x x k w s 9 8 3 * ",
"x x x x x x x x x q 6 3 r f [ i.v.J.oX:X@X.X{.}.#X,X,X,X#X}.M.XXOX=X=X:X=X*XOXJ.m.m.M.XXOXv.{ a = 5 q x x x x x x x j 9 9 5 = * ",
"x x x x x x x x x q 6 3 ; h [ 8.v.F.oX;X Xj.3.s.}.&X1X&X}.s.y.g. X@X:X=X:X=X@XXX.X.XJ.M.M.i.T p = 5 q w x x x x x k j q q 9 = * ",
"x x x x x x x x x w 6 3 5 d { i.v.J.oX@XM.u.T ^ T.%X<X%X| [ C 3.M.@X=X:X=X=X=X=X@XXXF.m.x.3.T p 3 5 9 x x x x x x k j q q 8 3 * ",
"x x x x x x x x x q 6 3 3 f E 3.p.v.M.{.h.R < Z } |.<XT.} Z < E h. XXX#XXXXXXXXXXX{.m.f.3.[ f p * 8 q k x x x x x k j 9 s 8 3 * ",
"x x X.x x x x x x q 6 3 3 p C [ { 3.s.s.{ h ; < S Y.T.| S < : h 2.s.j.h.a.g.j.a.g.s.3.1.Q T p ; = 5 q x x x x x x k j w 9 8 3 * ",
"x x w x x x x x x q 6 3 * 4 p p f T T R C p ; ; < S S S Z : 1 < f R R R R R R E R R C f f p 5 = = 6 9 x x x x x x x j 9 9 9 = * ",
"x x x x x x x x x q 6 5 * * - - = = - ; ; * * & ; : : : = - & - = ; 5 ; = ; ; ; ; ; ; = = - * * * 3 q w x x x x x k j j w 9 3 * ",
"x x x X.x x x x x k q 5 3 3 - & - ; p p p p p p 5 - & - 4 p p a p p p p p p p g p p 5 - * * - 3 5 9 w x x x x x x k j 9 9 8 = * ",
"x x x x x x x x x k q 9 6 3 = & 5 p f T T T T C p 4 & ; d f T T T T T E T E T T T f g = * = 3 5 q w w x x x x x x k q q q 8 = * ",
"x x x x x x x x x k w q 9 9 3 & : h [ 1.1.3.{ E h p & p h Q 1.1.1.1.1.1.1.1.1.1.1.Q h p * 3 5 q w w w x x x x x x x j q q 8 = * ",
"x x x x x x x x x x G x x 6 6 * g T { p.p.f.p.3.E p & p E 3.a.p.p.p.p.p.p.p.p.p.f.3.E p * 3 9 w x x x x x x x x x x k q q 8 3 * ",
"x x x x x x x x x x x x x q 3 7 p T 1.p.x.v.b.i.{ f & a { p.m.b.m.m.x.x.f.p.f.x.v.s.{ d * 3 9 k x x x x x x x x x w q q 9 6 3 * ",
"x x x x x x x x x x x x w q 3 7 p T 1.f.x.M. Xv.3.f & h { n.XX.X.X.XM.m.x.p.x.M..Xv.3.f & 3 9 w x x x x x x x x x x q q j 8 = * ",
"x x x x x x x x x x x x w q 3 * g T 1.f.v.J.oXJ.i.f & h y.M.@X@X*X*XoXM.v.f.v..XOXM.y.C * 3 9 k x x x x x x x x x x w q j 6 = * ",
"x x x ....K G G x x x x w q 3 * p T 1.p.x.n.{.v.{ f & f 2.j..XXX*X=X*XJ.m.x.M..XoXM.a.~ d d j j x w x x x x x x G H H P D 8 3 & ",
"x x x $.%.@. .X.x x x x x q 3 * p T 1.p.i.i.s.{ R d * p R { a.n..X*X*XoX.XM.M.J..Xm.x.y.2.Q C j q w w x x x x w K U ( ( / 6 3 * ",
"x x x W.!.W.%...x x x x w q 3 7 g T { p.3.[ T f a ; & ; a f ~ y.n.*X*XOX*X.X.XM.m.v.b.n.n.s.Q d 6 6 q x x x x X.U %.E.~.R.8 3 * ",
"x x x ).].).W. .x x x x w q 3 7 p T 1.8.{ f 3 * & * * * * * 0 Q v.*X=X=X=X=XoXM.g.x.M.OX=X{.{ d 7 6 q w x x x G ) W._.].).6 = * ",
"x x G ).]._.!.%. ...K x x q 6 3 g m Q 3.Q z 8 3 5 3 3 3 3 3 9 W i.{. X X XF.b.h.4.8.g.n. Xh.+.z 5 q w k G ....#.%./.`.].).9 3 * ",
"x x x ).].`.).W.R.%. .K x w q q k c X.O.W k 9 9 9 6 9 9 9 9 w G +.u.d.d.d.d.4.5.+.+.5.d.d.+.X.w 6 q k x K  .%.W.!.).`.].).8 = * ",
"x x x ).].[.`._.).W.$...x x w w x x J X.J G k k q q k k q k x X.X.o.o.o.o.o.X.X.X.X.X.o.o.o.X.x w x k x ..%.W.)._.`.[.].^.9 = * ",
"x x x ).].].].].].!.%...x x x x x x x x x x k x x x x x x x x x x x x x x x w X.x x x x x x w x x x x x  .*.^.].].].].].).6 = & ",
"x x x W.).).).).).W.#...x x x x x x x x x x x x x x x x x x x x x x x x x x x x x x x x x x x x x x x x U %.R.).).).).).E.8 5 * ",
"x G x G x x x x x x x x x x x x x x x x x x x x x x x x x x x x x x x x x x x x x x x x x x x x x x x x x x x x G k s q 9 8 3 * ",
"x x x x x x x x x x x x x x x x x x x x x x x x x x x x x x x x x x x x x x x x x x x x x x x x x x x x x x x x x k j q q 5 = * ",
"x x x x x x x x x x x x x x x x x x x x x x x x x x x x x x x x x x x x w x X.x x x x x x x x x x x x x x x x x x k w q 9 9 = * "
};
