/* XPM */
static char *left_enemy_4_resized[] = {
/* columns rows colors chars-per-pixel */
"64 64 206 2 ",
"   c #090708",
".  c #11080C",
"X  c #190D13",
"o  c #131313",
"O  c #1B1215",
"+  c #161817",
"@  c #1D1319",
"#  c #171A18",
"$  c #1A1C1B",
"%  c #171818",
"&  c #221317",
"*  c #24131A",
"=  c #28141D",
"-  c #26181C",
";  c #2C1A1E",
":  c #341E1E",
">  c #1E201F",
",  c #1B1F20",
"<  c #271620",
"1  c #2A1621",
"2  c #271B25",
"3  c #2D1A25",
"4  c #2D1A29",
"5  c #321D22",
"6  c #351E2E",
"7  c #3A1E24",
"8  c #351E31",
"9  c #1D2122",
"0  c #222525",
"q  c #252B27",
"w  c #262B2B",
"e  c #292E2D",
"r  c #2E2428",
"t  c #342325",
"y  c #382425",
"u  c #34232B",
"i  c #3A252C",
"p  c #34292F",
"a  c #3B2B2B",
"s  c #3F2822",
"d  c #3E302F",
"f  c #362134",
"g  c #392235",
"h  c #3C2B32",
"j  c #3D253B",
"k  c #332D31",
"l  c #2D3432",
"z  c #2F3836",
"x  c #333535",
"c  c #3D3234",
"v  c #313B36",
"b  c #333D3A",
"n  c #3B3B3D",
"m  c #3A3639",
"M  c #2B312F",
"N  c #401F26",
"B  c #412623",
"V  c #492E23",
"C  c #492A29",
"Z  c #56292C",
"A  c #43263C",
"S  c #432B3C",
"D  c #4A2738",
"F  c #542A35",
"G  c #542B3D",
"H  c #5C2D3A",
"J  c #582933",
"K  c #443433",
"L  c #4A3635",
"P  c #4A3A36",
"I  c #45343A",
"U  c #4A363A",
"Y  c #4B3C3B",
"T  c #473A3C",
"R  c #513D3B",
"E  c #652E36",
"W  c #66303E",
"Q  c #6D323B",
"!  c #74343C",
"~  c #78353B",
"^  c #632C2F",
"/  c #36413C",
"(  c #39443E",
")  c #4F413C",
"_  c #51433D",
"`  c #5D4237",
"'  c #65432B",
"]  c #795231",
"[  c #3B3E40",
"{  c #5D2E40",
"}  c #473041",
"|  c #4B3444",
" . c #483C41",
".. c #533E46",
"X. c #533F48",
"o. c #673242",
"O. c #763745",
"+. c #7B3642",
"@. c #7C3844",
"#. c #642F41",
"$. c #3B4543",
"%. c #3E4944",
"&. c #424143",
"*. c #434C4B",
"=. c #494A49",
"-. c #544641",
";. c #594641",
":. c #554842",
">. c #5D4C45",
",. c #5E4B4C",
"<. c #57444A",
"1. c #45514D",
"2. c #49544E",
"3. c #5E5249",
"4. c #534F51",
"5. c #475352",
"6. c #4A5554",
"7. c #4E5A5A",
"8. c #4D5957",
"9. c #515659",
"0. c #525D5C",
"q. c #5A5958",
"w. c #4A4F52",
"e. c #634F4A",
"r. c #604D46",
"t. c #63544B",
"y. c #655A4F",
"u. c #6C594F",
"i. c #68544D",
"p. c #755E4E",
"a. c #634D51",
"s. c #655A51",
"d. c #6C5C52",
"f. c #675B59",
"g. c #725E54",
"h. c #55615E",
"j. c #5A655F",
"k. c #6E6156",
"l. c #6E615A",
"z. c #726256",
"x. c #756559",
"c. c #7A665A",
"v. c #7C6A5C",
"b. c #585E60",
"n. c #566262",
"m. c #596564",
"M. c #5E6B6B",
"N. c #5B6965",
"B. c #606D6D",
"V. c #656666",
"C. c #7F6E60",
"Z. c #726865",
"A. c #69726F",
"S. c #6A7572",
"D. c #6B7774",
"F. c #737E7C",
"G. c #767877",
"H. c #883A3D",
"J. c #91643A",
"K. c #823944",
"L. c #8C3C44",
"P. c #8F3D49",
"I. c #943F46",
"U. c #903E4A",
"Y. c #9A4149",
"T. c #815E42",
"R. c #A2444B",
"E. c #AB464C",
"W. c #BD4C52",
"Q. c #B2474D",
"!. c #816D5F",
"~. c #8C6E56",
"^. c #B57F43",
"/. c #846E61",
"(. c #847363",
"). c #8A7665",
"_. c #8C7A69",
"`. c #897767",
"'. c #937E6C",
"]. c #937C65",
"[. c #8B7E75",
"{. c #78837E",
"}. c #AE804F",
"|. c #A7835D",
" X c #96826E",
".X c #99836E",
"XX c #87817D",
"oX c #9A8570",
"OX c #998879",
"+X c #AC8A68",
"@X c #D29B5A",
"#X c #E7A455",
"$X c #7A8583",
"%X c #878A88",
"&X c #87918E",
"*X c #8B9592",
"=X c #949996",
"-X c #958F88",
";X c #A5998B",
":X c #98A29D",
">X c #A4A29C",
",X c #9DA7A3",
"<X c #A7AAA5",
"1X c #B2B5B0",
"2X c #BAC2BD",
"3X c #C3CCC7",
/* pixels */
"* * * * * * * & * * * * * * * * * * * * & * * * * * * * * * * * * & * * * * * * * * * * * & * * * * * & = * * & * * * * * * * * ",
"= = = = = < = = = = = = = = = * = = = = = = = = = = * = = = = = = = = = = = = = = = = * = = = = = = = = = = = = = * = = = = & * ",
"5 3 3 3 3 4 3 4 3 3 3 3 3 5 3 3 3 4 3 4 3 3 3 3 1 4 3 7 4 3 3 4 3 5 4 3 3 3 3 3 3 3 3 3 3 3 3 3 3 3 3 3 3 3 3 3 3 3 3 3 4 1 = & ",
"8 8 6 L.R.L.! F 8 6 8 8 6 8 8 8 4 4 3 < = = 1 = 1 = = = = = < < = = < = = 1 3 4 6 8 8 6 6 8 8 6 8 8 6 8 8 6 8 i J +.I.R.L.3 = * ",
"8 6 6 R.W.R.K.F 8 8 8 8 8 6 8 8 6 1 < & * * * * * * & * * & * * * * * * * * 1 3 6 8 6 6 8 8 8 8 8 8 6 6 6 6 6 g H L.E.W.R.3 = * ",
"6 6 6 I.E.I.+.F 8 8 8 8 6 6 6 6 4 2 = & @ * * @ * * * * @ * * @ * * @ * * * < 3 4 6 6 6 6 u 8 8 8 7 8 8 8 6 7 A J K.I.E.I.3 = * ",
"6 6 6 ~ L.+.#.D g g 8 8 8 8 6 7 1 < * @ @ @ @ @ X @ @ @ @ O @ O O @ O @ @ @ = 1 4 6 8 8 g g g g g g g g g g g g G #.+.L.K.3 = * ",
"6 f 6 H W { G A A A A A 8 8 4 1 < < O O o o o o X O o O X O O O O X o O X X @ = 1 5 6 g j j j j A j j j A j j j D G H H J 3 = * ",
"6 8 8 A j A A A j j j j j 8 1 = & @ X o o o o o o o   o o o o o o o o o o o o @ * < 4 8 j j j j j j j j j j j j A 8 N 8 A 3 = * ",
"6 8 8 8 8 j j j j j j j g 6 1 = & O o o o $ 9 9 # + o o   o o o o o o o o o o o @ * 2 6 8 f g g j j j j j j A j } 8 6 8 6 3 = * ",
"8 6 8 8 j A j j j j j j f 6 1 = & O o o $ 9 e 9 9 # o o o o o o o o o   o o o % O @ < 1 4 8 g g j j j j j j j j 8 j 8 8 6 3 = * ",
"6 6 8 8 g j j j j j j j g 6 1 = & O o o 9 e [ z q # o o o o o o o o o o o o o o o O @ * < 4 8 f j j j j j j j j A 8 8 8 6 3 = * ",
"8 6 8 8 j } 8 A j j 8 8 8 4 3 & O O O + 9 z $.$./ 9 # + + + o o o o o o o + o o o o O O * 1 8 f j j j j j j j j A g 8 8 8 3 = * ",
"6 6 8 8 8 j [ 8 j } 8 8 6 1 = X o + $ 9 w z $.$./ l M q 9 9 $ , $ , , 9 9 9 9 $ o o o O O < 4 g j j j j j j j j A g 8 6 6 3 = * ",
"6 8 8 N 8 A 8 8 8 8 6 4 = @ X . o + 9 q l z $.$.$.%.%.$./ q q q 9 q M M z z w 9 % o o o O < 4 8 j j j j j j j j j f 7 8 8 3 = * ",
"8 8 8 8 8 8 8 8 8 8 1 < & X     o $ 9 z z z / $.%.8.n.8.%./ l z z l / / $.$.z 9 % o o o o @ 2 f j j j j j j j j j g 8 8 8 3 = * ",
"8 8 6 u 8 8 6 6 6 4 3 1 * X .   % e $.2.1.( / ( 5.m.B.M.n.8.2.%.$.z $.%.%.5.$.l 9 , % o o @ 2 f j j j j j j j j j 8 8 8 8 4 = * ",
"7 8 6 6 6 6 f 6 6 6 4 3 1 & X . r &.f.D.N.2./ ( %.n.B.D.D.D.D.j.%.$.$.%.7.0.%.$.l 0 , % o , 2 f j j j j j j j j j 8 8 8 8 5 = * ",
"g g f f f f g g f f 8 8 4 1 * X m q.%X,X%Xj.( ( %.M.M.F.&X,X:X{.0.( $.%.7.m.7.%.$.z w , o @ 2 f j j j j j j j j j 8 8 8 8 3 = * ",
"A j j j A j g A j j g j g 6 3 * <.G.>X3X:XS.1.( %.n.M.$X,X2X2X*XN.$.$.5.n.M.m.0.5.$.l , o $ 4 f j j j j j j j j j j 8 8 6 3 * * ",
"j j j j j j j j j j j j 8 6 1 = T V.%X<X&XV.1.( 5.n.M.$X*X,X,X$Xj.%.%.8.n.M.m.7.5.$.l , o & i D { } D A 8 } j j A g 6 8 6 3 = = ",
"j j j j j j j j j j j j g 6 1 = c 4.A.$XA.j.1.1.8.n.B.D.F.$X$XB.7.%.1.8.n.B.m.7.5.$.x , o : Z Q K.o.} A j j j j j g 8 7 8 3 = * ",
"j j j j j j j j j j j j g 8 1 = f [ 6.N.h.8.1.1.7.m.B.M.M.M.m.0.6.%.5.h.n.M.m.7.5.$.x , o : ^ H.U.@.{ A j j j j j g 8 8 6 3 = * ",
"j j j j j j j j j j j j f 6 1 = u x $.5.5.5.5.8.0.M.B.m.b.6.5.5.5.5.8.h.n.M.b.6.*.[ x r - B ~ H.I.K.H A 8 j j j j g 8 6 6 3 = * ",
"j j j j j j j j j j j j g 8 1 = r m *.7.7.7.0.b.n.M.M.M.b.0.7.7.7.7.7.0.n.n.5.%.[ I K C Z Z E ~ Q H A 4 f 8 8 j j g u 8 8 5 = * ",
"j j j j j j j j j j j j 8 8 3 = p n w.m.m.m.m.m.N.M.M.M.M.m.m.m.m.N.b.b.0.5.*.[ k B F Q H.~ ^ Z N 7 1 , 2 4 8 j j g 6 8 8 5 = * ",
"j j j j j j j j j j j [ 8 8 1 = p  .9.M.B.M.B.M.M.B.M.B.B.B.M.M.M.M.m.b.7.*.[ k 1 N ^ L.Q.I.Z : O O X o , 4 8 } j g 8 6 8 3 = * ",
"j j j j j j j j j A 8 A 8 8 1 = h =.B.$XD.M.b.9.9.9.7.m.S.F.F.S.N.0.6.*.%.[ x 4 * 7 J K.I.~ J 5 @ @ @ @ , 4 8 8 j g 8 6 6 3 = * ",
"j j j j j j j j j j j j 8 8 1 = [ q.F.=X$XV.=.&. .$.&.9.G.&X*XF.b.=.n n m x r 2 = ; C E +.E D 8 2 2 2 2 4 u f [ A 6 8 8 8 3 = = ",
"j j j j j j j j j j j j 8 8 1 =  .Z.-X1X-Xb. .p f k p 4.F.=X<X[.q.c p t r 4 2 2 = : 7 G { G A 8 u f 6 6 f f g j j A 8 6 6 3 = * ",
"j A j j j j j j j j j j 8 8 1 = =.G.>X2X=Xf.S ; ; ; ; <.%X<X1X-Xq.6 ; ; ; ; ; 1 = 1 4 8 8 } j j j j j j j j j j j f 6 8 6 3 = & ",
"j j j j j j j j j j j j j 8 3 = | Z.-X1X-XZ.>.U L L L f.[.>X1X-Xg.R L L L L K K a u u 8 8 8 8 8 [ j j j j j j j j g 6 6 8 3 = * ",
"j j j j j j j j j j j j f 6 1 * L f.'.>X-X(.x.u.u.g.d.C.XX;X;XOX(.g.g.u.u.u.e.;._ T a u 3 6 8 g j j A j j A j j j g 6 6 6 1 = * ",
"j j j j j j j j j j j j g 6 3 * K t.(.OXoX'.].).).).)._..XOXOXoX'._.).).).).v.d.t._ T t = 1 6 g j j j j j j j j j g f 6 u 6 = * ",
"j j j j j j j j j g g g f u 4 t L i.v..X'.).).).]..X+X+X].).(.].'. XoXoXoX X_./.x.t.:.L i i h 6 g g g j j j j j j g 8 6 8 3 = * ",
"j j j j j j j j j j 8 8 u i h c -.d.!..X).c.u.p.~.|.+X|.~.p.u.c.).'.oXoXoXoX_.`.!.x.d.r.;.P S i 6 f f j j j j j j g 8 8 8 5 = & ",
"j j j j j j j j j 8 6 1 r a K -.i.x.).'.v.e.P ` T.^.@X}.T.` P r.v. XoXoXoX.X X'._.`.(.!.c.i.P a 1 6 8 j j j j j A g 8 6 6 3 = * ",
"j j j j j j j j [ 8 4 1 - d ) t.z.C._.'.z.R : V ] ^.#X^.] V : R z.'.oX.XoXoX.XoX.XoXoXoXoXc.;.a * 3 6 g j j j j A g 8 6 6 3 = * ",
"A j j j j j j j A 8 4 1 - d ) t.f.z.x.x.r.K 5 B ' J.^.J.' s r K r.c.v.c.c.c.c.c.c.!.(.)._.z.) y = 3 8 j j j j j j g 8 6 8 3 = * ",
"j j j j j j j j A 8 4 1 3 d _ 3.t.r.>.R L y ; 5 V ' ] ' V : ; y L R ;.;.:.;.;.;.;.r.t.z.v.t.P t = 3 8 g j j j j j g 6 6 6 3 = * ",
"j j j j j j j j j 8 4 < 1 a ) 3.:._ L s t ; - ; : B V s : ; - ; 5 a a y d s a a a K ) t.k.>.d t = 3 8 j j j j j j g 8 6 6 6 * * ",
"j j j j j j j j j 8 6 < 1 a ) >._ K p 3 - 3 3 - = * & - ; ; ; - 1 5 ; 3 - - ; ; 3 t d ) 3.) d 5 = 3 6 g j j j j j g u 8 8 5 = * ",
"j j j j j j j j j 8 4 1 - t K P P T d a d d a a t ; * - t y d d a d a d d d d d p d K P ) d y 3 = 4 8 j j j j j j g 8 6 6 3 = & ",
"j j j j j j j j g 8 6 1 = 3 t t d K P ) ) ) ) P a r * r a P ) _ ) _ ) ) ) ) ) _ ) ) P d a t 3 = = 3 8 g j j j A j g 6 6 6 3 = * ",
"j j j j j j j j j f 4 1 * * - - t K _ t.3.3.t._ T t & t K :.3.t.t.3.t.t.3.y.3.3.3._ P y - - * * = 1 8 g j j j j A g 8 8 8 3 = = ",
"j j j j j j j j j f 6 4 1 = = & t ) _ s.s.k.k.y.) t & y ) t.x.z.k.x.k.s.y.y.y.k.x.y._ y * * = 1 3 6 8 j j j j j A g 8 6 6 3 = * ",
"j j j j j j j j j g 8 6 5 3 - * t ) _ s.k.z.v.k.;.a * a :.k.C.C.C.C.v.k.d.y.k.x.v.k._ a & = 1 3 8 8 8 j j j j j g g 6 8 6 3 = & ",
"j j j j j j j j j g g 8 6 4 - - t c _ y.k.C.`.x.3.C & a >.c._.]. X`.C.v.k.y.k.C.`.c.r.d * 1 3 8 8 8 g j j j j j j g 6 6 8 3 = * ",
"j j j j j j j j j j j j j 8 < < p K :.s.x.`.'.!.t.C @ K i.!..XoXoXoX XC.k.y.x.C.'.!.i.L ; 5 u 8 j j j j j j j j j 8 6 8 6 3 = * ",
"j A j j j j j j j } j j g 8 1 * t K _ s.x.(. X!.i.K & K i./..XoXoXoXC.C.x.y.x.v.(.!.d._ L K A g 8 8 g j j j j j j j 8 8 6 3 = * ",
"j j j j j j j j j j j j 8 8 1 < t T :.d.x.(. X(.t.K & K t.!..XoXoXoX`.C.k.y.k.k.x.x.z.g.u.>.L i 4 8 8 j j j j j j j 8 8 8 3 = * ",
"j j j j j j j j j j j j 8 8 1 = t K :.y.x.(. X(.t.B & K i./.oXoXoXoX XC.k.y.y.y.u.z.c./.).g._ i 1 4 8 j j j j j j 8 8 8 6 3 = * ",
"j j j j j j j j j j g f 8 8 7 5 K Y 3.k.x.v.!.g.;.a * a ` g.).). X X XC.v.k.k.y.y.k.C._..Xv.;.i = 3 6 8 A j j j } 8 8 8 6 4 = * ",
"j j j j j j j j j g f 6 8 8 h h ) >.d.c.x.d.u.;.L y & t L >.u.c.(. X X`.C.v.x.k.s.k.v._..Xc.;.a = 3 6 j j j A 8 j N 8 6 6 7 = * ",
"j j j j j j j j j f 6 3 4 a T -.t.g.v.).z.r.L a t = = : y a P e.x. X X X X(.C.k.k.k.v._.oXv.;.i = 4 8 g j j j A j 8 6 6 8 3 = * ",
"j j j j j j j j j 8 4 1 3 a ) 3.z.!._.].z.R 5 & & * & & & * 5 R z. X X X.X.X`.x.y.k.x. XoXc.;.h = 3 8 j j j j [ } 8 8 6 6 3 * * ",
"j j 8 { { { } } j g 8 4 4 A P :.a.g.Z./.a.D u 1 < = 1 1 1 = 6 S t.v.(././.C.x.f.,.a.f.c./.f.| B 1 8 8 g j j j j A D J J D 4 = = ",
"j j [ O.K.+.#.D [ g 8 8 8 g U | X.X.a.a...S 8 6 6 6 6 6 6 6 g } ..e.a.a.a.,.,.X.X.| <.a.a...} A 8 8 g j j j j A { #.+.K.Q 1 = * ",
"j j j P.R.P.O.{ 8 j 8 8 g j S S } } | | U A j f 8 f f f 8 g 8 A S | | | | | | } } } } | | } } 8 8 j j j j j j A { O.P.R.L.4 = * ",
"j j j R.W.R.K.{ A j j j j j j j j j j j j j j j j j j A j j A 8 A j A j A j j j j j A j } 8 j j j j j j j j j A #.P.E.W.R.1 = * ",
"j j j P.R.Y.O.| j A j j j j j j j j j j [ j j j j j j j j j j A j j j j j j j j j j j j j j j j j j j j j j j A { +.I.R.L.3 = * ",
"j j j j j j j j j j j j j j j j j j j j 8 j j j j j j j j j j [ j j j j j j j j j j j j j j j j j j j j j j j j A 8 6 6 8 4 = * ",
"j j j j j j j j j j j j j j j j j j j j A j j j j j j j j j j j j j j j j j j j j j j j j j j j j j j j j j A A 8 8 8 6 8 7 = * ",
"j j j j j j j j j j j j j j j j j j A j j j j j j j j j j j j j j j j j j j j j j j j j j j j j j j j j j j j 8 [ A 8 6 8 1 = * "
};
