/* XPM */
static char *right_enemy_4_resized[] = {
/* columns rows colors chars-per-pixel */
"64 64 206 2 ",
"   c #090708",
".  c #11080C",
"X  c #190D13",
"o  c #131313",
"O  c #1B1215",
"+  c #161817",
"@  c #1D1319",
"#  c #171A18",
"$  c #1A1C1B",
"%  c #171818",
"&  c #221317",
"*  c #24131A",
"=  c #28141D",
"-  c #26181C",
";  c #2C1A1E",
":  c #341E1E",
">  c #1E201F",
",  c #1B1F20",
"<  c #271620",
"1  c #2A1621",
"2  c #271B25",
"3  c #2D1A25",
"4  c #2D1A29",
"5  c #321D22",
"6  c #351E2E",
"7  c #3A1E24",
"8  c #351E31",
"9  c #1D2122",
"0  c #222525",
"q  c #252B27",
"w  c #262B2B",
"e  c #292E2D",
"r  c #2E2428",
"t  c #342325",
"y  c #382425",
"u  c #34232B",
"i  c #3A252C",
"p  c #34292F",
"a  c #3B2B2B",
"s  c #3F2822",
"d  c #3E302F",
"f  c #362134",
"g  c #392235",
"h  c #3C2B32",
"j  c #3D253B",
"k  c #332D31",
"l  c #2D3432",
"z  c #2F3836",
"x  c #333535",
"c  c #3D3234",
"v  c #313B36",
"b  c #333D3A",
"n  c #3B3B3D",
"m  c #3A3639",
"M  c #2B312F",
"N  c #401F26",
"B  c #412623",
"V  c #492E23",
"C  c #492A29",
"Z  c #56292C",
"A  c #43263C",
"S  c #432B3C",
"D  c #4A2738",
"F  c #542A35",
"G  c #542B3D",
"H  c #5C2D3A",
"J  c #582933",
"K  c #443433",
"L  c #4A3635",
"P  c #4A3A36",
"I  c #45343A",
"U  c #4A363A",
"Y  c #4B3C3B",
"T  c #473A3C",
"R  c #513D3B",
"E  c #652E36",
"W  c #66303E",
"Q  c #6D323B",
"!  c #74343C",
"~  c #78353B",
"^  c #632C2F",
"/  c #36413C",
"(  c #39443E",
")  c #4F413C",
"_  c #50433D",
"`  c #5D4237",
"'  c #65432B",
"]  c #795231",
"[  c #3B3E40",
"{  c #5D2E40",
"}  c #473041",
"|  c #4B3444",
" . c #483C41",
".. c #533E46",
"X. c #533F48",
"o. c #673242",
"O. c #763745",
"+. c #7B3642",
"@. c #7C3844",
"#. c #642F41",
"$. c #3B4543",
"%. c #3E4944",
"&. c #424143",
"*. c #434C4B",
"=. c #494A49",
"-. c #544641",
";. c #594641",
":. c #554842",
">. c #5D4C45",
",. c #5E4B4C",
"<. c #57444A",
"1. c #45514D",
"2. c #49544E",
"3. c #5E5249",
"4. c #534F51",
"5. c #475352",
"6. c #4A5554",
"7. c #4E5A5A",
"8. c #4D5957",
"9. c #515659",
"0. c #525D5C",
"q. c #5A5958",
"w. c #4A4F52",
"e. c #634F4A",
"r. c #604D46",
"t. c #63544B",
"y. c #655A4F",
"u. c #6C594F",
"i. c #68544D",
"p. c #755E4E",
"a. c #634D51",
"s. c #655A51",
"d. c #6C5C52",
"f. c #675B59",
"g. c #725E54",
"h. c #55615E",
"j. c #5A655F",
"k. c #6E6156",
"l. c #6E615A",
"z. c #726256",
"x. c #756559",
"c. c #7A665A",
"v. c #7C6A5C",
"b. c #585E60",
"n. c #566262",
"m. c #596564",
"M. c #5E6B6B",
"N. c #5B6965",
"B. c #606D6D",
"V. c #656666",
"C. c #7F6E60",
"Z. c #726865",
"A. c #69726F",
"S. c #6A7572",
"D. c #6B7774",
"F. c #737E7C",
"G. c #767877",
"H. c #883A3D",
"J. c #91643A",
"K. c #823944",
"L. c #8C3C44",
"P. c #8F3D49",
"I. c #943F46",
"U. c #903E4A",
"Y. c #9A4149",
"T. c #815E42",
"R. c #A2444B",
"E. c #AB464C",
"W. c #BD4C52",
"Q. c #B2474D",
"!. c #816D5F",
"~. c #8C6E56",
"^. c #B57F43",
"/. c #846E61",
"(. c #847363",
"). c #8A7665",
"_. c #8C7A69",
"`. c #897767",
"'. c #937E6C",
"]. c #937C65",
"[. c #8B7E75",
"{. c #78837E",
"}. c #AE804F",
"|. c #A7835D",
" X c #96826E",
".X c #99836E",
"XX c #87817D",
"oX c #9A8570",
"OX c #998879",
"+X c #AC8A68",
"@X c #D29B5A",
"#X c #E7A455",
"$X c #7A8583",
"%X c #878A88",
"&X c #87918E",
"*X c #8B9592",
"=X c #949996",
"-X c #958F88",
";X c #A5998B",
":X c #98A29D",
">X c #A4A29C",
",X c #9DA7A3",
"<X c #A7AAA5",
"1X c #B2B5B0",
"2X c #BAC2BD",
"3X c #C3CCC7",
/* pixels */
"* * & * * * * * * * = * * * * * * * * * * * * * * * & * * * * * * * * * * * * * = * * * * * = = * * * * = * * * * * = * * * = & ",
"* * * = = = = = = * = = = = = = = = = = = = = = = = = = = = = = = = = = = = = = = = = = = = = = = = = = = = = = = = = = = = * = ",
"& = 1 5 3 3 3 3 1 3 3 5 3 3 1 3 3 3 5 5 3 5 4 3 4 4 3 3 5 4 3 3 3 3 3 3 4 3 3 3 4 3 3 3 1 3 3 3 4 4 1 3 3 3 5 6 3 4 3 3 3 3 3 3 ",
"* = 4 P.R.I.+.G 8 8 8 8 8 8 6 6 8 8 8 8 6 6 8 6 4 1 < = = = < = = = < = = = = = = = < < = 1 4 4 8 7 6 6 6 8 8 8 F Q L.R.P.6 6 8 ",
"* = 3 R.W.E.L.E g 6 6 6 6 8 6 6 8 6 8 6 8 8 8 6 6 = * * * * * * & * * * = * * * * * * * * < 4 5 8 6 6 6 6 6 8 8 J +.R.W.R.6 6 6 ",
"* = 4 I.Q.I.+.J A i 6 6 6 6 8 6 8 8 6 6 6 8 5 8 3 = * * @ * * * * * * * * * * & * * * @ @ < 1 4 6 6 6 6 6 8 8 8 F +.I.E.I.6 6 8 ",
"& * 3 +.L.+.o.G 8 8 8 g j 8 A g 8 j j 8 8 8 5 4 1 = @ @ @ @ @ O X @ @ @ @ @ X @ @ @ @ * @ * < 3 6 6 8 8 8 8 8 8 D #.+.L.+.6 7 8 ",
"* = 3 J H H G D A A j j j j j A j j j j 8 4 4 2 = @ X o X o o O O o o O o O o O o O o o o X * < 1 4 8 A A j } 8 A { { W J 8 8 8 ",
"* = 5 8 N i j j j j j j j j j j j j j j f 4 1 * o o o o o o o o o o o o o . o o o o o o o o O & = 4 8 j j j j j j A A A 8 8 8 8 ",
"* = 4 8 8 6 g j j j j j j j j j g g f 8 6 2 * & o o o o o o o o o o o o o o o # $ 9 # o o O O & = 1 8 8 j j j j j j A j 8 8 8 8 ",
"* = 5 8 8 8 g j j j j j j j j j g g 6 4 1 < @ O o o o o   o o o o o . o o o , 9 w w 9 , o o O * = 1 8 8 j j j A j 8 [ 8 8 8 8 8 ",
"* = 5 6 8 8 g j j j j j j j j j g 8 4 1 = @ O o o o o o o o o o o o o o o o , w z b w 9 o o O & = 1 8 8 j j A 8 8 } j 8 A 7 6 6 ",
"* = 1 6 6 6 j j j j j j A j j j g 8 2 @ O O o o o o + + + o + o o o # + + + 9 z $.$.z 9 # # O @ * 1 4 8 j 8 A [ j j A g 8 8 7 8 ",
"* = 5 6 6 f f A j j j j j j j j f 4 < O O o o o # > 9 9 9 > $ $ # # 9 9 q e z $.$.$.z q 9 $ o o X * 1 8 8 8 g j j j j j 8 8 8 8 ",
"* = 4 8 6 6 g j j j j j j j j j f 4 @ X O o o % , e v l M q q q 9 q M z $.%.%.%.$.$.z M w 9 $ o . X * < 3 6 6 j f f A f 8 6 8 8 ",
"* = 3 6 8 8 g j j j j j j j j j f 4 @ o o o o % 0 z $.$./ / l M z z / %.6.n.7.%.$.z z z l 9 $ o   . . * ; 1 6 6 6 6 6 8 6 8 6 6 ",
"* = 3 8 6 6 A j j j j j j j j j j 4 , . o % , 9 z $.5.%.%.$.z ( %.%.7.n.N.B.N.%.( / ( 1.6.( e %   . X * 1 1 8 8 8 6 8 8 8 8 g 6 ",
"* = 3 6 8 6 8 j j j j j j j j j 8 4 @ o % 9 , [ $.%.7.5.%.$./ 1.N.A.{.{.D.B.n.8.( ( 2.N.D.f.&.0 . X * < 1 4 6 8 6 6 8 8 8 8 6 6 ",
"* = 3 6 8 6 j j 8 j j j j j j j 8 2 , o , 9 [ [ %.0.n.7.5.$./ h.{.:X:X$X{.M.n.%.( ( j.%X,X%Xb.I X < 1 4 8 8 8 8 8 8 8 8 8 i j 8 ",
"* = 3 6 6 6 8 j j j j } j j j j 8 2 @ o , [ $.%.7.m.B.n.5.$.$.N.=X2X2X,X$XM.n.5.( 1.S.:X3X>XG.<.= 1 6 8 j j j j 8 A } 8 j j j A ",
"* = 3 6 6 8 A j j j j j 8 } } { D 6 < o , w $.%.7.m.M.n.8.%.$.m.$X:X,X*X$XM.n.%.( 1.V.&X<X%XV.| = 1 8 g [ 8 j j j j j j j j j j ",
"* < 5 8 6 6 f j j j j j A { o.@.Q Z ; o 9 [ $.5.7.m.B.n.7.5.%.7.D.{.{.{.D.B.n.8.1.1.h.A.$XB.4.c < 1 8 8 j A j j j j j j j j j j ",
"* = 5 8 6 6 j j j j j j A { K.I.L.^ 3 X , [ $.5.7.m.M.m.7.5.%.8.n.N.N.M.M.B.m.7.5.1.2.h.m.9. .p = 1 8 8 j j j j j j j j j j j j ",
"* = 5 6 6 6 f j j j 8 8 A { ~ I.H.Q N , , [ $.%.5.b.N.n.n.7.5.5.5.%.8.h.N.B.m.h.8.5.5.2.5.$.z r = = 6 8 j A j j j j j j j j j j ",
"* = 3 6 6 6 j j j g f 6 4 A J Q ~ E ^ Z C K c [ =.6.b.b.n.7.7.7.7.7.0.n.M.B.M.n.0.7.7.7.7.*.x u = 1 8 8 j j j j j j j j j j j j ",
"* = 3 6 6 8 g j j f 4 2 < 2 7 B C ^ ~ H.Q F h p m *.8.7.0.b.m.m.m.m.m.M.M.B.M.M.m.m.m.m.m.w.[ p = 1 8 j j j j j j j j j j j j j ",
"* = 3 8 6 6 g j j 8 2 , o o o @ 7 Z H.Q.L.^ B 2 k [ %.7.b.b.M.M.M.M.M.M.M.M.M.M.M.M.M.M.M.9.[ p = 1 4 8 j j j j j j j j j j j A ",
"* = 3 6 6 8 g j j 8 4 2 @ @ , @ : Z ~ Y.H.Z 7 = 4 x [ %.*.w.b.V.D.$X$XB.m.9.7.7.9.b.V.D.$XB.4.h = 1 8 j j j j j j j j j j j j j ",
"* = 3 8 8 6 j j j f 8 4 4 2 2 2 i D W @.E C : = 2 k k x n [ =.b.F.*X&XG.0.&.&. .&.4.V.%X=XF.q.I < 1 8 8 j j j j j j j j j j j j ",
"* = 3 6 6 6 8 j [ g 8 8 8 8 8 8 6 D G { D 7 ; * - 2 r u u p c q.$X<X:XF.4.f p p f I j.%X1X*XV.T = 1 8 8 j j j j j j j j j j 8 [ ",
"* = 3 6 8 6 A j 8 j j j [ j j j j j j g 8 6 1 = 1 ; ; ; ; ; p q.-X1X1X[.=.; ; ; ; K f.=X2X<XG...= 3 8 8 j j j A j j j j j j A j ",
"* = 3 6 6 6 8 A j j j j 8 j j j j 8 8 6 8 i i a d K L L L L R g.-X<X>X[.s.L L P L r.Z.-X1X-XZ.| = 4 8 8 j j j j j j j j j j j j ",
"= = 5 8 8 8 j j j j j j j j j j g 8 5 3 i c P ) ;.e.i.g.u.d.g./.OX;X;X[./.g.g.i.g.z.(.OX;XXXf.L = 1 6 f j j j j j j j j j j j j ",
"= = 3 6 8 8 8 j j j j j j j j A g 6 4 = u K ) t.d.v.).)._.)._.'.[.OXOX'.'.).).).).].'.OXOX(.e.K = 1 6 g j } j j j j j j j j j j ",
"* = 3 8 8 8 8 j j j j j j A 8 8 8 f i i L -.t.x./._..XoX.XoX.X'.'./.).].oX+X'.].).(.).'..X!.i.L t 4 u f 8 j j j j j j j j j j j ",
"* = 3 6 8 8 8 } j j j } 8 8 8 8 g K Y >.>.d.z./.`._..XoXoX.X'.).!.i.p.~.+X+X^.~.p.u.c.)..X(.d.;.c h i u 8 8 8 8 j j j j j j j j ",
"* = 1 6 8 6 8 8 j j j j A 8 4 1 a R i.!.!.(.`._._. XoXoXoXoX'.!.r.P ' T.^.@X^.T.` P r.v. X).x.y._ L a 3 3 6 8 A j j j j j j j j ",
"* = 3 6 8 8 8 } j j j j 8 8 4 = a R !.'.oX.XoXoXoXoXoXoXoXoX'.g.R 5 V ] ^.#X^.p.V : R z.]._.C.z.3.) d ; 1 3 8 [ j j j j j j j j ",
"= = 3 6 8 8 8 j j j j j 8 8 1 = y R g.).`./.v.c.v.v.v.c.v.v.z.r.K : V ' J.}.J.E s : K r.x.x.k.u.t.) a 2 1 4 8 j j j j j j j j j ",
"= = 3 6 8 8 j j j j j j A 8 4 = y Y i.v.g.s.r.;.-.;.` ;.;.` _ L y ; : V ' ] ' V : ; y L _ >.3.y.3.-.d 2 1 4 8 j j j j j j j j j ",
"* = 5 8 8 6 j j j j j j 8 8 4 = t K >.k.3.) K a a a a a a a y t ; * ; : s V s : ; * : t a K ) :.t._ a 1 1 4 8 j j j j j j j j j ",
"* = 5 8 8 6 8 j j j j j j 8 4 = 3 a ) >._ d t ; - ; ; ; ; ; r 2 ; 3 ; ; * * * = ; 2 2 ; - a K _ >.P a 1 1 4 j j j j j A j j j j ",
"* = 1 6 6 8 j j j j j j j 8 1 = 3 y K ) P K d d a d d a a d a d a d a r ; * ; r a d a d a d c ) Y d 6 = < 4 8 j j j j j j j j j ",
"* = 1 6 6 6 8 j j j j j A 8 4 = - 3 t a d m ) _ _ _ ) ) ) ) ) ) ) ) P a : & r a K _ ) _ ) ) K d y t 1 = 4 4 8 j j j j j A j j j ",
"* = 3 6 6 i 8 A j j j j j 8 3 = * * - - y K _ y.3.y.3.t.y.t.3.t.3.t._ P a & t P _ y.3.3.t._ c t - = * * < 4 8 j j j j j j j j j ",
"* = 3 8 8 6 g A j j j j j 8 5 1 1 = = * a ) y.k.k.y.y.y.y.k.z.k.z.z.t._ a & y _ y.k.k.y.y._ ) t * * ; 1 4 4 8 j j j j j j j j j ",
"* = 5 8 8 8 g j j j j j 8 8 8 6 3 1 - & d _ d.v.x.k.y.k.z.v.C.(.C.v.d._ a & a ;.u.v.x.k.y.:.) t * = 2 4 8 8 j j j j j j j j j j ",
"* = 3 6 8 8 g j j j j j j [ 8 f 8 3 < * C >.c.`.C.k.y.k.x.(._._. X`.x.3.a & a >.x.`.C.k.s._ c t = 1 5 6 8 j j j j j j j j j j j ",
"* = 3 6 8 6 j j j j j j j j j j 8 6 5 1 L i.!.'.(.x.s.k.C._.oXoXoXoX~.t.K * V t.!. X(.x.s.:.K t = 1 6 8 j j j j j j j j j j j j ",
"* = 3 6 i 6 8 A g j j j j g 8 8 8 h K L ` d.v.(.v.k.s.z.C._.oX.XoXoX/.i.K & K i.(. X(.x.s.:.K t = 1 6 g j j A j j j j j j j j j ",
"* = 5 8 6 8 g j j j j j j 8 8 4 i L >.d.g.z.x.x.k.k.s.z.v._.oX.XoX.X/.i.a & K t.!. X(.x.s.:.K u = 2 8 f j j 8 [ j j j j j j j j ",
"* = 3 8 6 8 g j j j j j j 8 4 1 a ..g.`.(.v.k.d.y.s.y.k.(._..X.XoXoX/.e.K & K i.!. X`.x.s.:.K t = 1 6 g j j A j j j j j j j j j ",
"* = 4 8 6 6 g j j j j j j 8 3 = a ` v.oX_.v.k.s.s.k.k.v.(. X.X'.`.(.g.;.a * a _ g./.v.x.l.,.) K 5 6 i 8 8 j g j j j j j j j j j ",
"* = 5 6 6 8 g j j j j j g 8 3 = a _ c. X_.C.k.s.k.x.v.(.`._. X`.c.d.;.L y * t L ` s.d.x.v.s.>._ d a i p 6 8 j j j j j j j j j j ",
"* = 3 6 6 6 j j j j j j j 8 3 = a >.v. X_.v.k.u.z.v.`._. X X Xv.e.P B y ; & ; y B L >.z.`.C.g.i.) T p 3 3 6 8 j j j j j j j j j ",
"* * 3 8 6 8 8 A j j j j j 8 3 = a _ x. X Xv.l.f.v.`. X.X X.X'.z.R t * * * * * * = 5 R z.'._.C.g.t.) a 3 1 4 8 j j j j j j j j j ",
"* = 4 J G J D j A j j j g 8 6 3 g ..u./.g.g.,.,.g.Z./././././.a.L u 1 1 1 < 1 1 1 6 U i.!.g.l.a.;.Y j 4 4 4 j j A G { { } j j j ",
"* = 1 ! K.+.#.{ A j j j j g 8 6 8 } ..a.a.X.....X.X.a.a.a.a.a.X.S i 5 6 8 6 4 6 8 8 S ..a.a.X.X.| I j 8 8 8 j j A #.O.P.O.j j j ",
"* = 4 I.Y.I.+.{ A j j j j j g 8 j } | | | } } } } } | | } | | } S g g f g g 8 g 8 j } } | | | } S S j 8 8 j j j { O.U.R.U.j j j ",
"* = 3 Y.W.E.P.#.A j j j j j j j j j j j A A j j } j j j j A j j j j j j j j j j j j 8 j A 8 } 8 j j j j j j j j { K.R.W.R.j j j ",
"* = 1 L.R.I.+.{ A j j j j j j j j j j j j j j j 8 j j j j j j j j j j j j j j j j j A j j j j j j j j j j j j j { O.U.R.U.j j j ",
"* = 4 8 8 8 8 } j j j j j j j j j j j j j j j j j j j j j j j j j j j j j j j j 8 [ j j j j j j j j j j j j j j j j j j j j j j ",
"* = 3 8 8 8 8 j j j j j 8 [ j j j j j j j j j j j j j j j j j j j j j j j j j [ j j j j j j j j j j j j j j j j j j j j j j j j ",
"* = 3 8 8 8 8 j j j A j A j j j A j j j j j j j j j j j j j j j j j j j j j j 8 j j j j j j j j j j j j j j j j j j A j j j j j "
};
