/* XPM */
static char *right_enemy_1_resized[] = {
/* columns rows colors chars-per-pixel */
"64 64 219 2 ",
"   c #090607",
".  c #150A0E",
"X  c #1A0E15",
"o  c #131213",
"O  c #1B1215",
"+  c #161817",
"@  c #1C161A",
"#  c #161918",
"$  c #1A1C1B",
"%  c #181816",
"&  c #231317",
"*  c #24131A",
"=  c #2A161F",
"-  c #26181C",
";  c #2C1A1E",
":  c #301C1D",
">  c #200F15",
",  c #1C201F",
"<  c #3B231F",
"1  c #20251F",
"2  c #1B1F20",
"3  c #2A1721",
"4  c #271B25",
"5  c #2D1A24",
"6  c #2E1B29",
"7  c #271620",
"8  c #321D24",
"9  c #341E2D",
"0  c #391F22",
"q  c #361F31",
"w  c #381F32",
"e  c #1F2323",
"r  c #222625",
"t  c #242926",
"y  c #2E232A",
"u  c #292D2C",
"i  c #272929",
"p  c #342326",
"a  c #3D2623",
"s  c #35222C",
"d  c #39252C",
"f  c #3C2B2B",
"g  c #33292D",
"h  c #3E302F",
"j  c #372033",
"k  c #392236",
"l  c #342D31",
"z  c #3D2A33",
"x  c #3D253B",
"c  c #3D2839",
"v  c #2D3332",
"b  c #2F3A35",
"n  c #313B35",
"m  c #3B3539",
"M  c #343C3A",
"N  c #3A393B",
"B  c #383335",
"V  c #2A312A",
"C  c #402E2E",
"Z  c #442724",
"A  c #56292C",
"S  c #553727",
"D  c #4B2635",
"F  c #4E2836",
"G  c #43263C",
"H  c #4D273A",
"J  c #422B3D",
"K  c #4C293E",
"L  c #432933",
"P  c #532834",
"I  c #532B3D",
"U  c #5B2D3E",
"Y  c #5E2C35",
"T  c #443534",
"R  c #4A3535",
"E  c #493A36",
"W  c #45333C",
"Q  c #4C3C3A",
"!  c #46373D",
"~  c #513D3B",
"^  c #563A35",
"/  c #662F37",
"(  c #6C323D",
")  c #67303A",
"_  c #75343A",
"`  c #632C2F",
"'  c #39443E",
"]  c #36423C",
"[  c #4D423D",
"{  c #51433D",
"}  c #6A472E",
"|  c #7E5938",
" . c #5C2E40",
".. c #542D40",
"X. c #473041",
"o. c #4B3444",
"O. c #4A3D42",
"+. c #533E46",
"@. c #622F40",
"#. c #623041",
"$. c #693342",
"%. c #733543",
"&. c #7B3744",
"*. c #7C3845",
"=. c #763F42",
"-. c #3B4443",
";. c #3E4945",
":. c #3F4949",
">. c #424647",
",. c #434D4B",
"<. c #484848",
"1. c #544641",
"2. c #594541",
"3. c #5C4C45",
"4. c #5D4C4D",
"5. c #564648",
"6. c #45514D",
"7. c #49544E",
"8. c #5E514B",
"9. c #465252",
"0. c #4B5555",
"q. c #4F5B5B",
"w. c #4D5957",
"e. c #525D5D",
"r. c #565657",
"t. c #464E50",
"y. c #624E4A",
"u. c #624446",
"i. c #64544C",
"p. c #64594F",
"a. c #6D594F",
"s. c #6B554A",
"d. c #634D51",
"f. c #665A51",
"g. c #6B5B52",
"h. c #6C5751",
"j. c #715D54",
"k. c #734C4D",
"l. c #55615E",
"z. c #58635D",
"x. c #6E6256",
"c. c #6F6159",
"v. c #726356",
"b. c #75665A",
"n. c #7B665B",
"m. c #76685B",
"M. c #7C6A5C",
"N. c #595E61",
"B. c #615F60",
"V. c #566262",
"C. c #5A6665",
"Z. c #5D6A6A",
"A. c #5C6769",
"S. c #616E6E",
"D. c #666564",
"F. c #7E6E61",
"G. c #726D6E",
"H. c #66716B",
"J. c #7C7062",
"K. c #7A716A",
"L. c #657171",
"P. c #6A7473",
"I. c #6E7678",
"U. c #777A7A",
"Y. c #893B3E",
"T. c #9D6D3D",
"R. c #853A45",
"E. c #8C3C45",
"W. c #8B3D49",
"Q. c #943F48",
"!. c #983E4A",
"~. c #9A4147",
"^. c #9C424B",
"/. c #96454C",
"(. c #83424A",
"). c #A2444B",
"_. c #AB464D",
"`. c #B3484E",
"'. c #B2474D",
"]. c #BD4C52",
"[. c #B74A50",
"{. c #836D5E",
"}. c #866A53",
"|. c #A37141",
" X c #826E61",
".X c #847263",
"XX c #8A7665",
"oX c #8A7967",
"OX c #8C7A69",
"+X c #897769",
"@X c #937E6C",
"#X c #917961",
"$X c #75817D",
"%X c #B0814D",
"&X c #A88157",
"*X c #97826F",
"=X c #99846E",
"-X c #89827B",
";X c #958375",
":X c #9A8570",
">X c #99897A",
",X c #A48666",
"<X c #D39752",
"1X c #C49561",
"2X c #7A8583",
"3X c #858A87",
"4X c #978C83",
"5X c #8A918E",
"6X c #8D9894",
"7X c #959A96",
"8X c #999089",
"9X c #A39384",
"0X c #A2968A",
"qX c #ABA599",
"wX c #9EA8A3",
"eX c #A9A9A2",
"rX c #AAB2AE",
"tX c #B6BBB5",
"yX c #AEB3AF",
/* pixels */
"* * * * * * & * * * * * & * * & & * * * & * & * & * * * & & * * * * & & * * & * & & * * & * & * * * * & * * * * & * * * * * & * ",
"& * = = 3 = = = = = = = = = = ; = = = 3 = = = = 3 = = = = = = = = = = = 3 = = = = = = = = = = = = = = = = = = = = = = = = = = = ",
"& = 5 9 8 6 9 8 9 8 9 6 8 9 9 8 9 8 9 8 9 9 8 9 9 9 9 6 9 9 9 9 9 9 8 9 5 9 9 8 9 9 9 9 9 9 8 9 5 9 9 9 9 6 5 9 9 8 9 8 8 6 9 8 ",
"* 3 8 E.).).^.).^.R.( P q q 9 q j 9 9 w 9 9 q 9 9 s 9 9 s 9 9 9 9 9 9 q q q 9 q 9 9 9 9 9 9 9 q w w 9 9 D ) R.).).^.^.).E.j q s ",
"* = 6 ^.].].].].].~.&.Y s q q 9 q 9 j 9 q q q q 9 9 9 w 9 w q 9 9 q q 9 9 w 9 w q q 9 q q q q q 9 9 9 j F ( ~.].].].].].^.j 9 9 ",
"& = 9 ).].].[._._.E.( I q q j k j j j j j j j w q q q 9 9 9 9 9 9 9 9 9 9 9 9 9 9 9 9 9 9 q q q j j j j F ( E._.'.`.[.].).9 w s ",
"* = 9 ).].`._.!.W.&.@.H k k k x k k x k k k w w k 9 9 5 5 5 9 9 9 9 9 9 9 9 9 9 q 9 9 9 9 9 q w k k k k D U &.E.!.).'.].).w w 9 ",
"* = 8 ^.].'.^.R.$.U I G x x x x x x x x x x x x q 9 3 = ; 3 = 3 5 3 5 3 3 5 3 3 3 5 3 3 3 5 q w G x x x G K U @.*.Q._.].).s 9 w ",
"& 3 8 ).]._.W.$.K G G x x x x x x x x x x x x k q 3 * * * * * * * * * * * * = = * 7 7 * * 3 9 q x x x x x G G G ) R.).].).s q 9 ",
"* = 6 R.~.E.%. .G x x x x x x x x x x x x k q 9 6 7 * & @ & & @ * * * * * @ * X * > * > * * 6 6 j w k x x x x x ..%.W.^.R.j w 9 ",
"* = 6 ( &.( @.I G x x x x x x x x x x x k q 9 6 7 7 X O X X + O X O X X O O X o O O X X O & 7 4 9 9 w x x x x x K  .%.*.$.9 w 9 ",
"* = 9 P Y I H K x x x x x x x x x x x x j q 5 7 @ X O o O O o o o o O O + o o o o O O X X @ @ * 5 6 9 x x x x x G K I U I 9 w s ",
"* = 9 9 q j k x x x x x x x x x x x x k q 5 7 @ @ X o o o o o o o o   o o o o o + o o o o o O * * 5 9 w x x G x x x G k j 9 w 9 ",
"* = 9 9 9 q k x x x x x x x x x k k q q 6 4 * @ X O o o o o   o o o o o o o + e e e 2 # o O X & * 5 q w x x x k x k x x j w w s ",
"& = 8 9 j j x x x x x x x x x x w w 9 6 3 & X X o o o o o o o o o o o o o o # e v v t 2 o o O @ * 3 6 q j k k k k w j d s w w 9 ",
"& = 9 q s j k x x x x x x x x x k 9 3 7 * O o o o o o o o o o o o o o o o o e t M M v e # o O O * 3 6 9 w 9 s 9 w 9 9 w w 9 9 w ",
"* = 9 9 9 j x x x x x x x x x x w q 7 @ X X o o + # $ 2 # # # # # # # $ e e t ] -.-.n t $ # O O X 7 3 9 9 9 9 9 q 9 q 9 w 9 w 9 ",
"* = 9 9 9 j k x x x x x x x x x q 6 7 X X + o o 2 e u t t r e e e e t u v b ] -.-.' n V r $ # o . X * 3 6 6 9 q q q q w 9 w w w ",
"* = 9 q w j k x x x x x x x x x q 6 4 o o o o # e v M b b v u V V u b ] :.q.6.;.-.n n v V 1 $ .   . X * 6 6 q w w w w k k k j k ",
"& = 8 9 w j k x x x x x x x x x j 4 @ o o o o $ t M :.:.-.M b n b b ' 6.V.S.l.6.' n n n n t # o     . * 7 6 q x x x x x x x x x ",
"& = 9 s 9 w k x x x x x w X.I ..F d * o o $ 2 t b -.0.9.;.] ] ' 7.l.z.z.Z.S.V.6.' ] ;.7.e.>.v $   . X 7 6 9 w x x x x x x x x x ",
"& = 9 9 w s k x x x x x X.I $.*.( P ; o $ e u M -.9.N.9.>.' ] 7.H.2X3X$XP.S.l.6.' ' w.P.3XH.7.g . X 3 6 q w x x x x x x x x x x ",
"* = 9 9 w j x x x x w G G  .&.!.Y.` 8 o 2 i M :.6.e.C.e.7.' ' z.2XwXwX6X$XS.l.7.' ' D.5XrX5XD.! X 7 6 q q w x x x x x x x x x x ",
"* = 8 w 9 j k x X.x w w x I &.!.Y.) Z * y M :.9.l.V.Z.l.0.;.-.C.6XrXrX7X$XS.l.7.;.,.H.7XyX7XG.>.* 5 q w w X.x x x x x x x x x x ",
"* = 9 9 9 s k x x k j q 6 k Y _ _ ` ` A P Q <.9.q.C.Z.C.0.,.;.l.$X6X6X2X$XS.C.9.:.6.C.2X7X$Xf.X.* 5 q k x x x x x x x x x x x x ",
"* = 9 9 w j x x x q 6 4 7 6 0 a A ` _ Y.k.u.<.0.q.C.Z.V.q.9.;.w.C.P.I.L.L.S.C.w.9.:.q.Z.P.C.<.l * 3 9 k x x x x x x x x x G x x ",
"& = 8 9 w j k x x q 4 $ o o + @ a ` Y.'./.k.4.9.q.V.S.C.q.0.,.9.0.0.q.V.Z.S.C.q.9.t.9.9.0.>.N y 7 5 9 j x x x x x x x x x x x x ",
"& = 9 q 9 j x x x j 6 4 @ @ @ @ 8 A _ ~.(.u.O.-.9.q.C.V.N.e.w.0.w.w.q.V.Z.S.Z.V.q.w.w.0.q.>.B y * 5 q x x x x x x x x x x x x x ",
"* = 9 9 9 q k x x k y 6 4 4 2 4 9 D ) &.$.I T N -.9.e.N.N.q.e.e.N.N.V.C.Z.S.Z.C.V.N.e.V.e.,.N s * 5 q w x x x x x x x x x x x x ",
"* = 9 9 9 j k x x k k j j y j j j L I U I L g g m >.9.e.V.V.C.A.V.C.C.A.Z.S.Z.Z.C.C.C.C.C.0.N s * 5 q w x x x x x x x x x x x x ",
"* = 9 q w j k x x x x x x x x x x x k k s 6 = 4 u M ,.9.q.V.Z.S.S.L.L.S.S.Z.Z.Z.A.D.Z.L.P.e.>.z * 5 q w x x x x x x x x x x x x ",
"* = 8 9 9 j x x x x x x x x x x k k k w 6 5 * = 6 l N -.>.,.w.A.I.2X2XP.N.9.9.9.0.e.S.U.2XP.0.c = 5 q w x G x x x x x x x x x x ",
"& = 9 q q q k x x x x x x x x x x w 6 5 3 3 * * 4 y y l l B o.r.2X7X7XI.r.m m m N <.B.3XwX3XD.X.* 5 q j x x x x x x x x x x x x ",
"& = 8 q q q k x x x x x x x x X.w 9 5 = * * * & * ; = 5 4 5 l r.3XyXeX+X5.6 6 6 6 m B.8XtX7XG.O.* 5 9 k x x x x x x x x x x x x ",
"* 3 8 9 j j x x x x x x w x w w w j d f f p p p p f d f d f T f.5XyXeX3X4.d g f d Q c.6XtX7X+X4.y p s j q k x x x x x x x x x x ",
"& 3 9 w 9 j k x x x x x x w w 6 z L ~ { { E T T E Q { 2.2.2.3.b.4XqX0X-Xb.2.2.2.2.i.F.8XeX8XG.d.f z j s q q k x x x x x x X.x x ",
"* = 9 9 q q x x x x x x x w q 6 d ~ s.n.v.i.3.1.i.j.v.M.n.M.{.+X;X9X9X:X.Xn.M.n.M.{.OX>X9X;XJ.f.{ E f 6 5 9 k x x x x x x x x x ",
"& 3 9 9 q w k x x x x x w w 6 * f { n.:XOXM.x.g.M.XX=X=X:X:X=X=X:X=X=X=X:X:X:X:X=X:X:X:X:XOXJ.v.i.[ h ; = 6 k x x x x x x x x x ",
"& = 9 9 q w x x x x x x w w 6 = p { j.OX.XJ.m.n.F.OX=X=X=X=X=X@X.X{.}.#X,X,X,XXX{.}..XOX:XOX.Xx.i.[ f ; 3 6 j x x x x x x x x x ",
"& = 9 9 w w w x x x x x w w 5 * p E h.M.M.F..X.XXX@X=X=X=X=X@X Xj.3.s.}.&X1X&X}.s.y.j. X*XOXJ.v.8.[ h 4 3 5 q x x x x x x x x x ",
"* = 9 9 9 j k x x x x x w w 6 * p T 3.x.M. XXXOX*X=X=X=X:X:X@XM.3.R ^ | %X<X%XT.S C 3.M.@XOXM.v.p.{ f 4 7 6 q x x x x x x x x x ",
"* = 9 q 9 j k x x x x x x q 6 * < f [ 3.p.b. XXXXXXXXXXXXXXX Xh.R 8 Z } T.<X|.} a y R s. X{.v.f.3.E f 3 7 q q x x x x x x x x x ",
"* = 9 9 w j x x x x x x w q 6 7 3 p T [ { y.s.g.j.a.g.a.j.a.s.2.h : Z S | T.T.S < : C 2.s.i.3.1.E h 9 = 6 6 q x x x x x x x x x ",
"* = 8 9 9 j k x x x x x x q 6 7 - 5 p g f C T E R R R E R R R f p = : Z S S Z < : - p C R C T f p p 3 * 3 6 w x x x x x x x x x ",
"* = 9 q w j k G x x x X.w q 5 = * * - = ; ; ; ; ; ; ; ; ; ; ; = * * & ; : : ; ; * & - = ; ; ; = = * * * 7 6 w x x x x x x x x x ",
"& = 8 9 9 j k x x x x x x w 6 5 = * = * = y p p g p p p p g p p p p p 5 - & - 5 8 p p p p p ; - * - = 3 4 q w x x x x x x x x x ",
"* 3 8 q 9 j k x x x x x x w q 9 5 3 * * ; p f T E T E T T T T T T T C g ; * 5 p C T T T T h p - & = 5 6 q q x x x x x x x x x x ",
"* = 9 w s j k x x x x x x w k w 9 6 3 & p h [ { { 1.1.1.1.1.1.1.1.1.[ h 8 & ; T Q 1.1.1.{ E h y * 3 8 9 q q x x x G x x x x x G ",
"* = 9 9 9 j k x G x x x x x x G w 9 3 * p Q 3.f.f.p.p.p.p.f.f.p.f.f.3.Q p * p E 8.f.p.p.p.1.T g * 3 9 k x x x x x x x x x x x x ",
"& = 9 9 q j k x x x x x x c x x w 6 5 & s ~ i.v.x.g.p.p.x.v.m.b.m.m.s.{ g * a { p.v.x.g.p.{ E p = 5 9 k x x x x X.x x x x x x x ",
"* = 9 9 j j k x x x x x x x x x k 9 3 * f 3.v..XM.x.p.x.m.M..X.X.X.Xv.{ f & f 3.v.J.M.x.p.1.T p 7 3 9 k x x x x x x x x x x x x ",
"* = 6 9 s j k x x x x x x x x x w 9 3 * C i.M.OX.Xv.f.x.M..X*X@X*X*X{.i.C & C s.M.OXJ.v.x.1.T p * 3 9 k x x x x x x x x x x x x ",
"* = 9 D D D H G x x x x x x k k j z d d ~ s.M.oX.Xm.v.M..X*X*X@XXX.Xj.{ f * f { j.{.M.x.p.{ E p = 5 q w x x x x G X.......x x x ",
"* = 9 ) ( ( U K x x x x x k q 9 s L ~ 2.i.g.M..XJ.J.M..XoXOX*XXXb.a.u.R p * p R { s.i.p.p.3.N p * 3 q w x x x x G  .$.*.@.x x x ",
"& = 9 R.~.E._  .G x x x k q 6 6 d ~ i.M.n.b.b.b.M..XoXOX*X=X@X{.i.R f a ; & = a f T [ 3.8.1.T p * 5 9 w x X.w x ..%.W.!.W.x x x ",
"* = 8 ^.]._.E.#.G x x x x q 6 * f { M.:XOXM.c.g.M.oX*X=X=X=XOXv.~ p & & * * & * & ; f [ 8.1.T p 7 5 9 w x x x x  .R.!.].).x x x ",
"* 3 9 ).].'.!.*.@...K G k q 9 5 k +.h. Xn.h.4.4.h.j.F. X X XF.h.E p 3 3 3 = 3 7 7 6 k Q 5.1.T s 3 6 q x x .... .%.!.).].).x x x ",
"* * 8 ).].`.).~.W.%.@.K x k q 9 w X.+.d.d.5.+.+.+.4.d.d.d.d.4.+.K s 9 9 9 9 9 9 6 q x J o.W c j q q k x K  .$.W.!.).`.].).G x x ",
"* = 9 ^.].[.`._.).W.%...x x k w w X.X.o.o.o.X.X.o.o.o.o.o.o.o.o.c x k j k j q j x x x x X.c c x q k x x K $.W.).).`.[.].).x x x ",
"* = 9 ).].].].].].^.*. .x x x x x x x x G w x x x x G x x x x x x x x x x x x x x x x x x x x x x x x x ..%.!.].].].].].).x x x ",
"* = 9 E.).).).).).W.%...x x x x x x x x x x x x x x x x x x x x x x x x x x x x x x x x x x x x x x x x ..$.W.).).).).).W.x x x ",
"& = 9 9 q q k x x x x x x x x x x x x x x x x x x x x x x x x x x x x x x x x x x x x x x x x x x x x x x x x x x x G x X.x x x ",
"* = 5 q q q k x x x x x x x x x x x x x x x x x x x x x x x x x x x x x x x x x x x x x x x x x x x x x x x x x x x x x x x x x ",
"* = 9 9 q q x x x x x x x x x x x x x x x X.x x x x x x x x x x x x x x x x x x x x x x x x x x x x x x x x x x x x x x x x x x "
};
