/* XPM */
static char *right_enemy_2_resized[] = {
/* columns rows colors chars-per-pixel */
"64 64 215 2 ",
"   c #090607",
".  c #150A0E",
"X  c #1A0E15",
"o  c #131213",
"O  c #1B1215",
"+  c #161817",
"@  c #1D161B",
"#  c #161918",
"$  c #1A1C1B",
"%  c #181816",
"&  c #231417",
"*  c #24131A",
"=  c #2A161F",
"-  c #2C1A1E",
";  c #26181D",
":  c #321B1E",
">  c #30171D",
",  c #200F15",
"<  c #1C201F",
"1  c #3B231F",
"2  c #20251F",
"3  c #1B1F20",
"4  c #2A1621",
"5  c #2D1A24",
"6  c #2D1B29",
"7  c #261822",
"8  c #321C25",
"9  c #3B1D22",
"0  c #341E2D",
"q  c #351F31",
"w  c #381F32",
"e  c #1E2223",
"r  c #222625",
"t  c #242926",
"y  c #2E232A",
"u  c #262B2A",
"i  c #2A2D2C",
"p  c #232728",
"a  c #342326",
"s  c #3C2423",
"d  c #35222C",
"f  c #39252B",
"g  c #3C2A2B",
"h  c #33282D",
"j  c #3E302F",
"k  c #372033",
"l  c #392236",
"z  c #342D31",
"x  c #3C2932",
"c  c #3D253B",
"v  c #2D3333",
"b  c #2F3A35",
"n  c #3D3133",
"m  c #313B35",
"M  c #3B3539",
"N  c #343C3A",
"B  c #3B3A3C",
"V  c #363436",
"C  c #2A312A",
"Z  c #401D23",
"A  c #41242C",
"S  c #402E2E",
"D  c #4B2728",
"F  c #55262B",
"G  c #553727",
"H  c #43263B",
"J  c #4D273A",
"K  c #422C3C",
"L  c #4C293D",
"P  c #482634",
"I  c #512936",
"U  c #542B3C",
"Y  c #5B2D3E",
"T  c #592D33",
"R  c #443534",
"E  c #4A3534",
"W  c #493937",
"Q  c #4A363A",
"!  c #4B3C3A",
"~  c #44353C",
"^  c #513E3B",
"/  c #583D32",
"(  c #652E31",
")  c #652F3C",
"_  c #6D323D",
"`  c #693038",
"'  c #76343B",
"]  c #6A2E34",
"[  c #39443E",
"{  c #36423C",
"}  c #4F423C",
"|  c #53423E",
" . c #6A472E",
".. c #7E5938",
"X. c #5C2E40",
"o. c #473041",
"O. c #4B3444",
"+. c #483C42",
"@. c #533E46",
"#. c #533F48",
"$. c #452E42",
"%. c #622F40",
"&. c #633041",
"*. c #6A3342",
"=. c #733543",
"-. c #7B3642",
";. c #7C3845",
":. c #3B4442",
">. c #3E4945",
",. c #3F4949",
"<. c #434D4B",
"1. c #464748",
"2. c #544641",
"3. c #594541",
"4. c #564843",
"5. c #5C4B45",
"6. c #5E4C4C",
"7. c #57454A",
"8. c #45514D",
"9. c #49544E",
"0. c #5E514B",
"q. c #465252",
"w. c #4B5555",
"e. c #4F5B5B",
"r. c #4D5957",
"t. c #525D5D",
"y. c #565657",
"u. c #464E50",
"i. c #624E4C",
"p. c #64544C",
"a. c #6A564D",
"s. c #64594F",
"d. c #6D5649",
"f. c #634D51",
"g. c #665A51",
"h. c #6B5B51",
"j. c #6C5752",
"k. c #715E54",
"l. c #55615E",
"z. c #58635D",
"x. c #6D6255",
"c. c #6F6159",
"v. c #726256",
"b. c #746559",
"n. c #7B665B",
"m. c #7C6A5C",
"M. c #76685B",
"N. c #595E61",
"B. c #615F60",
"V. c #566262",
"C. c #5A6665",
"Z. c #5D6A6A",
"A. c #5C6769",
"S. c #616E6E",
"D. c #666564",
"F. c #7E6E61",
"G. c #726D6E",
"H. c #66716B",
"J. c #7D7162",
"K. c #7A716A",
"L. c #657171",
"P. c #6A7473",
"I. c #6E7678",
"U. c #777A7A",
"Y. c #82393D",
"T. c #9D6D3D",
"R. c #853A45",
"E. c #8C3C45",
"W. c #8B3C49",
"Q. c #943F48",
"!. c #943D44",
"~. c #9A4147",
"^. c #9C424B",
"/. c #A2444B",
"(. c #AB464D",
"). c #B3484E",
"_. c #B2474D",
"`. c #BD4C52",
"'. c #B74A50",
"]. c #826D5E",
"[. c #84705E",
"{. c #87674E",
"}. c #A37141",
"|. c #816E61",
" X c #857363",
".X c #8A7665",
"XX c #8C7A69",
"oX c #8A7867",
"OX c #937E6C",
"+X c #917961",
"@X c #75817D",
"#X c #B0814D",
"$X c #A88157",
"%X c #97826F",
"&X c #99846E",
"*X c #89827B",
"=X c #9A8570",
"-X c #968577",
";X c #A48666",
":X c #D39752",
">X c #C49561",
",X c #7A8583",
"<X c #858A87",
"1X c #978C83",
"2X c #8A918E",
"3X c #8D9894",
"4X c #959A96",
"5X c #999089",
"6X c #A39487",
"7X c #ABA599",
"8X c #9EA8A3",
"9X c #A9A9A2",
"0X c #AAB2AE",
"qX c #B6BBB5",
"wX c #AEB3AF",
/* pixels */
"* * * * & & & * * * & * * * * & & & & & & & & & & & & & & & & & & & & & * & & * & & & & & & & & * * * * & & & & & & & & & & & * ",
"& * = = 4 4 4 4 = = 4 4 = = = = = = 4 = 4 4 = = 4 4 4 4 = = 4 = 4 4 4 4 4 4 4 4 = = = = 4 4 4 = 4 = = = = = 4 4 4 4 4 4 4 4 4 4 ",
"& = 5 0 8 0 0 8 8 0 8 8 8 8 8 0 0 0 8 0 8 8 0 0 0 8 8 0 0 0 0 0 8 8 0 8 0 8 8 8 0 0 8 8 8 8 0 0 8 8 8 0 8 0 5 0 8 8 6 0 8 8 8 0 ",
"& = 0 E././.Q./.^.R.*.I w q 0 q 0 k 0 0 q q q 0 q q 0 q 0 0 0 q q q q 0 q q q q q q q q q q q 0 w q 0 q J ) R././././.^.W.q 0 q ",
"& = 0 ^.`.`.`.`.`.Q.-.T q q q 0 0 0 k 0 q q q q 0 0 q 0 q 0 q 0 q 0 q q 0 q 0 q q q 0 q q q w q q q q 0 I _ ~.`.`.`.`.`.^.0 q 0 ",
"& = 0 /.`.`.'._.(.E.=.U w q q l k k k k k w w w q q q 0 0 0 0 0 0 0 0 0 0 0 0 0 0 0 0 0 0 q q q k q q l J _ E.(._._.`.`./.q q q ",
"& 4 8 ^.`.'.(.Q.!.=.&.J l l l c k c c l k c l w w q 6 8 6 5 8 0 0 0 q 0 0 0 0 0 q 0 0 q 0 0 q w l l l l J Y ' E.!./._.`./.q q f ",
"& 4 8 /.`._.Q.R.*.Y L L c c c c c c c c c c c c q 0 4 4 - 4 4 4 4 4 4 4 4 4 4 4 4 4 4 4 4 4 q q c c c c H L X.&.;.Q.(.`./.q q 0 ",
"* 4 6 /.`.(.Q.*.L H H c c c c c c c c c c c c l q 4 = & * * * & = * 4 * * * 4 * 4 = * = * 4 0 q c c c c w H H $.) R./.`./.d k 0 ",
"* = 8 R.Q.E.=.Y H c c c c c c c c c c c c l w 0 6 4 , & , @ * O , & * , & & , * @ , , , @ ; 4 0 l w w c c c c c X.=.W.~.R.k q q ",
"* = 6 _ -.' &.o.H c c c c c c c c c c c l w q 6 4 7 O O @ X o o X @ X O X O o + + O X X O ; * 6 q q c c c c c c L &.*.-._ 0 f q ",
"* = 0 I T U J L c c c c c c c c c c c c l 6 4 7 @ X o o X X o o o o O o o O o o X X + X o O * * 4 6 w w c c c c c L Y Y I q q 0 ",
"* = 8 w 0 k l c c c c c c c c c c c l l w 4 4 , @ o o o o o o o o o o o o o o o o o o o o o O & * 5 q w c c c H c H H l l q d q ",
"* = 8 q q q l c c c c c c c c c c w k w 6 4 * @ X X o o o o o o o o o   o o # 3 e e $ + o + X @ * 4 q w c c c l c l c l k q 0 q ",
"* = 6 w d q c c c c c c c c c c l w 6 5 4 ; X o o o o o o o o o o o o o o o # e v v p 3 o o O & & 4 6 w l l l l l l l w w w d w ",
"& = 8 q k k c c c c c c c c c c l q 4 4 * O o o o o o o o o o o o o o o o o e u N :.v e o o O @ * 4 6 q 0 0 q q q q f 0 0 0 w 0 ",
"* = 0 q 0 q l H c c c c c c c c c 6 7 , @ O o o # # $ $ $ # + # + # $ $ e e t { :.:.m t $ % O O @ * 4 5 8 0 0 q q q q 0 f q 0 q ",
"* = 8 q q q l c c c c c c c c c k 6 7 X X o o + e e u u p e e e e e t u v N { :.:.[ m C r $ O o . X 4 4 6 6 0 q 0 q q q q q w 0 ",
"* = 8 q q k l H c c c c c c H c l 6 @ o o o o + e v { { b v C C C C b { ,.r.8.>.:.N b C C 2 # o   . X 4 4 0 q w l l k k l l l f ",
"* = 8 q q k l c c c c c c c c c k 6 # o o o o # e N ,.,.:.{ b b b b [ 8.V.S.l.8.[ b b { b t + o     . X 7 6 q c H l H l H l l H ",
"& = 0 k 0 k l c c c c c c c c c k 7 @ o + @ $ t v >.q.,.>.{ { [ 9.t.z.z.Z.S.V.8.[ { >.9.t.1.v @   . X 4 5 0 w c c c c c l c c c ",
"& = 8 0 k k l H c c c c c c c c k 6 @ o # r u N >.q.N.w.<.{ { 9.H.,X<X@XP.S.l.8.[ [ r.P.<XH.9.h . X 7 5 q q c c c c c c c c H c ",
"& 4 0 0 0 k l c c c c c c c c c k 7 @ o 3 i N ,.q.t.C.t.8.[ { z.,X8X8X3X@XS.l.9.[ [ D.2X0X<XD.+., * 0 q q w c c c c c c c c c c ",
"& 4 8 q k k l c c c c c c H H L c y @ o e v :.q.t.V.Z.l.9.1.>.C.3X0XwX4X@XS.l.9.>.8.H.3XqX3XG.1.= 4 0 w c c c c c c c c c c c c ",
"& 4 8 q q f l l c c c c c J X.&.X.A 7 o $ v :.q.e.C.Z.V.r.,.>.l.@X3X3X,X@XS.V.w.,.8.C.,X4X@Xg.o.4 4 q l c c c c c c c c c c c c ",
"& 4 8 q q k l H c c c c H Y =.W.-.T 8 o e v :.q.e.C.S.C.e.q.,.r.C.P.I.L.L.S.C.r.q.,.e.Z.P.C.1.z * 7 q w c c c c c c c c c c c c ",
"& = 0 q q k l c c c c c H &.W./.!.] 1 o e v :.8.e.C.Z.C.t.r.<.q.w.r.e.V.Z.S.C.e.q.q.q.q.r.1.V y * 4 q w c c c c c c c c c c c $.",
"& = 0 0 q k l c c c l k k I _ Y.Y.] D 9 g n B 1.,.e.C.V.t.e.r.w.r.r.e.V.C.S.Z.V.e.r.r.w.r.1.V y = 5 q w $.c c c c c c c c c c c ",
"& 4 0 q 0 q c c c l k 6 7 k D ( ] ] ] ] T E n B ,.q.N.t.t.N.N.t.e.V.N.C.Z.S.Z.C.N.N.N.l.N.u.B y * 4 q w c c c c c c c c c c c c ",
"& 4 8 q q w l c c k 6 7 @ 3 8 8 D ( ' !.' T A a M ,.w.e.t.V.C.A.C.C.C.Z.Z.S.S.Z.C.A.V.C.C.w.B h = 4 q w c c c c c c c c c c c c ",
"& 4 8 q q k l c c q 7 3 o o o + : F E._.Y.( Z = h N ,.q.e.N.Z.Z.S.L.L.S.S.C.A.C.A.A.Z.L.L.t.+.x 4 4 q w c c c c c c c c c c c c ",
"* 4 8 w 0 k l c c k 6 7 @ 7 @ @ 1 D ' Y.' F : > y z B :.,.u.r.A.I.,X,XP.N.w.w.w.w.t.Z.@X,XG.w.M * 4 q l c c c c c c c c c c c c ",
"* = 0 0 q k l c c k k y 6 6 6 6 0 A D ( F 9 : * 7 y a z z z +.N.,X4X3XI.y.M M M M 1.D.<X8X<XB.+.* 5 q w c c c c c c c c c c c c ",
"* * 0 q q k l c c c c l l l l w w 0 9 : > - = O = - 7 7 6 5 d y.<XwX9XU.7.6 6 6 6 ~ g.3XqX4XG.7.* 4 q l c c c c c c c c c c c c ",
"* = 0 q k k l c c c c c c l w c w q f f d s a a a f g g f g S g.2XwX9X*X6.f f g g ! D.5XqX4XoX7.a y 0 k w c l c c c c c c c c c ",
"* = 6 y k k l c c c c c c k q 0 x P ! 3.| E R R W } | 3.3.| 5.F.1X7X6X1Xc.3.3.3.3.p.|.5X9X5XG.f.x x f 0 q w l c c c c c c c c c ",
"* = 0 0 q q l c c c c c c w 0 4 f ! p.n.v.a.5.5.p.k.n.n.n.m.]..X=X6X6X%XoXM.m.n.n.].XX-X6X-XJ.h.| W h y 5 0 w c c c c c c c c c ",
"& = 0 d q q l c c c c c c w 5 = f 3.m.&XXXJ.x.h.M..X&X&X=X=X&X&X=X&X%X&X=X=X=X=X&X&X&X&X&XXXJ.v.0.} j - 4 5 q $.c c c c c c c c ",
"& = 0 0 q q c c c c c c w w 4 = f | k.XX Xm.M.M.J.XX%X&X&X&X&XOX X].[.+X;X;X;X+X].]. XXX%XXXJ.v.p.} j - 4 6 q c c c c c c c c c ",
"& = 0 0 q q c c c c c c w q 5 = a W a.m.m.J.|.[.XXOX&X&X&X&XOX Xk.5.d.{.$X>X$X{.d.i.k. XOXXXJ.v.0.} j 5 4 6 q c c c c c c c c c ",
"& 4 8 q q l l c c c c c c q 6 = a R 5.x.M.].XXXX%X%X&X&X=X=X%Xn.5.E / ..}.:X#XT.G R 5.m.OXXX].v.p.| g 5 7 6 q c c c c c c c c c ",
"& = 8 q q q l c c c c c w q 6 * a g } 5.s.M.]..X.X.X.X.X.XXX|.a.E 8 D  .T.:X}. .s 1 W d.|.m.v.s.5.! g 7 7 q q c c c c c c $.c c ",
"& 4 8 0 q q l c c c c c c q 6 = - h S } | i.a.h.k.d.h.k.h.k.d.| j - s G ..T.{.G 1 - S 3.d.p.5.2.W j 8 4 4 6 q c c c c c c c c c ",
"& 4 0 q q l l c c c c c c q 6 * ; 5 a g j S R E E E E W E E E g a & 1 A G G G 1 : - a g E R n g h a 4 = 4 6 q c c c c c c c c c ",
"& = 0 0 q q l c c c c c c q 4 4 & * * = ; - - - : - - - - - - ; * & * = : : - - & & * - 7 - - - ; ; = & 4 6 q c c c c c c c c c ",
"& 4 8 0 q f l c c c c c c w 6 4 4 = & & - a g S g h a a h a a a a a a 5 ; & - - a a a a a a 5 ; & & = - 6 q w c c c c c c c c c ",
"& 4 0 0 q q l H c c c c w w w q 8 4 = & s E | | | W W R R W W R W R j h - & 5 h g W R W R g a ; * = 4 8 q q c c c c c c c c c c ",
"& 4 0 0 q l l c c c c c c c w w q 5 = & g | d.n.x.0.4.2.2.| 2.4.2.2.! j 1 O 5 S ! 2.2.2.| W j a & 4 5 q w w c c c c c c c c c c ",
"& 4 8 q q k x H c c c c c c c l l 0 8 5 E a.].OX].v.h.s.s.g.s.g.s.h.5.! a & a W 0.g.s.s.s.4.~ a = 4 q w c c c c c c c c c c c c ",
"* 4 0 q q q l l c c c c c l w w l x S E | a.m. Xm.x.s.g.x.v.M.v.M.b.a.| h & g | s.v.x.g.s.| R a * 4 q w c c c c c c c c c c c c ",
"& = 8 0 q k l H c c c c c w q 6 g Q 3.h.v.v.b.M.x.x.s.x.b.m. X X X Xv.| g & A 5.v.[.M.x.g.4.W a = 4 q l c c c c c c c c c c c c ",
"& = 0 q k w l l c c c c c w 5 4 A ^ v..X[.m.v.h.h.s.s.x.m. X%XOX%X%X].p.S & S p.m.XXJ.x.x.2.R a = 4 0 l c c c c c c c c c c c c ",
"& 4 0 P J P J H c c c c c q 5 4 g | ].&XXXJ.x.g.g.x.x.m. X%X&XOX.X Xv.| g & f 3.v.].m.M.v.0.} S 8 a d k k l c c H $.$.X.$.w c c ",
"& 4 8 ) _ _ Y L H c c c l q 5 * g 3.n.&XXXm.x.g.x.v.m.J.J.%X%X.Xb.a.| E a & a E | d.h.b.M.x.5.| g x f d q k l c L X.*.;.*.$.c c ",
"& 4 8 R.Q.E.-.Y $.w c c w q 5 = g | m.=XXXm.x.g.v.J.[.%X%X%X%Xm.i.^ S s 8 & - a g E 5.b. Xm.v.p.2.~ g y 5 q k c X.=.W.Q.W.c c c ",
"& 4 0 ^.`.(.E.&.$.c c c c q 4 = g | m.=XXXM.c.h.M..X&X&X&X&XXXv./ a & & * & & & & a / v.OXXXF.v.0.} g 5 4 6 w c X.R./.`./.c c c ",
"& 4 8 /.`._.Q.;.%.X.$.H w w 0 6 x ^ j.|.n.j.6.6.j.c.|.|.|.|.|.f.Q a 4 4 4 4 4 4 4 d Q a.n.n.k.f.5.! l 5 0 A J X.=.W.(.`./.c c c ",
"& 4 0 Q.`.'./.Q.R.*.X.J H w q q w o.#.f.f.7.@.@.7.6.f.f.f.f.f.#.K k 0 0 0 8 6 0 8 k K @.f.f.7.#.O.K c q P J =.R.Q./._.`./.c c c ",
"* 4 0 /.`.'.'.(./.W.=.X.c c w w c $.O.O.O.$.o.$.$.O.O.O.O.O.O.O.K l l k l l l k l c K o.O.O.$.o.o.K H w J %.W.(.(._.'.`./.c c c ",
"* = 0 /.`.`.`.`.`.Q.R.X.c c c c c c c c c c H c c c c c H c c c c c c c c c c c c c c c l c c c c c c c U =.Q.`.`.`.`.`./.c c c ",
"* = 8 E.^././././.W.*.X.c c c c c c c c c c c c c c c c c c c c c c c c c c c c c c c c c c c c c c c c $.*.W././.(././.W.c c c ",
"* = 8 w w w l c c c c c c c c c c c c c c c c c c c c c c c c c c c c c c c c c c c c c c c c c c c c c c c H c c c c c $.c c c ",
"& 4 8 q q w w c c c c c c c c c w c c c c c c c c c c c c c c c c c c c c c c c c c c c c c c c c c c c c c c c c c c c c c c c ",
"* 4 8 q q w c c c c c c c c c c $.c c c c c c w $.c c c c c c c c c c c c c c c c c c c c H c c c c c c c c c c c c c c c c c c "
};
