/* XPM */
static char *dummy[]={
"64 64 206 2",
".X c #090708",
".8 c #11080c",
".N c #131313",
".Q c #140e11",
".T c #161817",
"#g c #171818",
".R c #171a18",
".K c #1a0d14",
".J c #1a1215",
".0 c #1a1c1b",
".W c #1b1f20",
".D c #1d1319",
".S c #1d2122",
".6 c #1e201f",
"#f c #222525",
"Qt c #231317",
".# c #24131a",
".5 c #252b27",
".m c #26181c",
".V c #262b2b",
".l c #271620",
".2 c #271b25",
".e c #29151d",
".4 c #292e2d",
".b c #2b1622",
".9 c #2b312f",
".a c #2c1923",
".n c #2c1a1e",
".d c #2d1b29",
"#a c #2d3432",
"#W c #2e2328",
".Z c #2f3836",
"## c #313b36",
"aa c #32191e",
".c c #321d22",
"#e c #333535",
".Y c #333d3a",
"a3 c #342225",
"#R c #34292d",
".f c #351e2e",
".U c #35232c",
".r c #361f32",
".7 c #362133",
"#7 c #362c33",
".3 c #36413c",
".w c #381f34",
"aZ c #382324",
".x c #391e26",
".E c #392234",
"#i c #39443e",
".s c #3a252c",
"as c #3b2b2b",
"#Y c #3b3639",
"#6 c #3b3b3d",
".P c #3b3e40",
".1 c #3b4543",
"af c #3c2a32",
".M c #3d253b",
"a8 c #3d3133",
"#. c #3e4944",
"#8 c #422224",
"#S c #423d41",
"#m c #424243",
"#X c #431e25",
".y c #43263c",
"bh c #432d3d",
"#Z c #434c4b",
"#s c #44313c",
"#1 c #443332",
"#2 c #452828",
"#V c #452e40",
"#h c #45514d",
"a7 c #463a3b",
"#O c #473041",
"#j c #475352",
"#C c #484b49",
"bf c #492838",
"#p c #49544e",
"ap c #4a3635",
"aI c #4a3638",
"#d c #4a5454",
".I c #4b2639",
"bk c #4b3444",
"a1 c #4b3a35",
"a4 c #4c3128",
"ar c #4c3c3a",
"#L c #4d3a43",
"#J c #4d5957",
".k c #4e2836",
"#b c #4e5a5a",
"aF c #4f403b",
"aR c #513e3c",
"aY c #51433d",
"#9 c #515659",
"#3 c #52262a",
"bj c #533d46",
"bi c #533f48",
"#P c #534f51",
"#B c #535d5d",
".o c #542a35",
".O c #542b3c",
"ag c #554642",
"#A c #55615e",
"aj c #564943",
"#c c #566262",
"#0 c #585e60",
"ao c #59454a",
"aE c #594641",
"#K c #596564",
"#4 c #5a2a2e",
"a6 c #5a4133",
"ab c #5a5958",
"#w c #5a655f",
"#l c #5b6965",
".v c #5c2d3b",
".L c #5c2e40",
"aH c #5c4b45",
"al c #5c4c4a",
"a# c #5d2b33",
"#x c #5e6b6b",
"a0 c #614d46",
"#k c #616d6d",
"aD c #624e4a",
"be c #634c50",
"aG c #63544b",
".z c #642d34",
"bg c #642f41",
"aO c #64594f",
"#n c #645b59",
"at c #655a50",
"#M c #656666",
"a9 c #664a37",
"#Q c #673242",
"a2 c #68544d",
"#r c #69726f",
".H c #6a313c",
"bd c #6a4830",
"#G c #6a7572",
"ay c #6b594f",
"#o c #6b7774",
"aC c #6c5c51",
"ai c #6e605d",
"aP c #6e6155",
".j c #702f35",
"az c #715d54",
"aS c #726256",
"ba c #735034",
"an c #736864",
"ad c #737e7c",
"#5 c #753337",
"ax c #756559",
".G c #763745",
"#D c #767978",
".C c #78333d",
"#q c #78837e",
"aN c #79665a",
"#y c #7a8583",
".p c #7c3642",
"#U c #7c3843",
"aT c #7c6a5c",
"am c #7c716b",
"aA c #7f6f60",
".A c #823944",
"aV c #846e61",
"aB c #847263",
"a. c #855d39",
"aQ c #876e5b",
"#t c #87817d",
"#v c #878a88",
"#N c #87918e",
"#T c #883a3e",
"aw c #897669",
".g c #8b3b43",
"aM c #8b7665",
"aL c #8c7967",
"aJ c #8c7b69",
"ac c #8c9391",
".i c #8f3d49",
"bl c #903e4a",
"aK c #927e6c",
"aq c #927f70",
".q c #943e46",
"#I c #959b97",
"aW c #96826e",
"ak c #979189",
"av c #988879",
"#z c #98a29d",
".t c #994048",
"aX c #99836f",
"aU c #9a8570",
"b. c #9d754e",
"#E c #9da7a3",
"bc c #9e6e3e",
".h c #a1434b",
"ah c #a4a39c",
"au c #a59a8b",
"#u c #a7aaa5",
"bb c #a87645",
".B c #ab474c",
"a5 c #ad8c69",
".F c #b1484d",
"ae c #b2b5b0",
"#H c #bac2bd",
".u c #bd4c52",
"#F c #c3ccc7",
"b# c #ce9656",
"Qt.#.#.#.#.#.#.#.#.#.#.#.#.#.#.#.#.#.#.#.#.#.#.#.#.#.#.#.#.#.#.#.#.#.#.#.#.#.#.#.#.#.#.#.#.#.#.#.#.#.#.#.#.#.#.#.#.#.#.#.#.#.#.#",
".#.#.#.#.#.#Qt.#Qt.#.#.#.#Qt.#.#.#Qt.#.#.#.#.#.#.#.#.#.#.#.#.#.#.#.#.#.#.#.#.#.#.#.#.#.#.#.#.#.#.#.#.#.#.#.#.#.#.#.#.#.#.#.#.#.#",
".a.b.a.a.b.b.b.a.c.a.a.a.b.b.a.b.d.a.a.a.b.b.d.b.a.a.b.b.b.b.b.b.b.b.b.b.a.a.b.b.b.a.a.a.c.a.a.a.a.e.a.a.a.b.a.a.b.b.b.b.a.e.#.#",
".f.f.f.g.h.i.j.k.f.f.f.f.f.f.f.f.c.a.a.#.l.l.#.l.#.e.#.b.m.l.#.n.#.l.l.#.#.e.a.c.c.f.f.f.f.f.f.f.f.f.f.f.f.f.f.f.o.p.q.h.g.a.#.#",
".r.s.f.t.u.h.p.v.f.f.w.x.f.f.f.f.d.d.m.#.#.#.#.#.#.#.#.#.#.#.#.#.#.#.#.#.#.#.b.f.r.r.f.f.f.f.f.f.w.f.f.f.f.f.s.y.z.A.B.u.h.a.#.#",
".f.f.r.t.B.q.C.o.f.f.w.f.f.f.f.f.d.a.m.#.D.#.#.#.#.D.#.#.#.#.#.#.#.#.#.#.#.D.l.b.c.f.f.f.f.E.f.f.f.f.f.f.f.f.f.x.v.A.q.F.q.a.#.#",
".f.f.r.C.i.G.H.I.w.E.E.E.w.f.f.d.b.l.#.J.K.#.J.D.K.D.D.D.D.D.D.J.D.D.D.J.D.J.l.b.d.d.f.r.w.w.E.w.E.E.w.E.E.w.w.y.I.H.p.g.C.e.#.#",
".w.f.s.v.z.L.I.y.M.M.M.M.w.w.d.b.b.#.J.N.N.J.J.N.J.N.J.N.J.N.N.N.J.N.N.K.N.J.D.#.b.d.d.w.M.M.M.M.y.M.M.M.M.M.M.M.I.O.v.v.o.a.#.#",
".f.f.f.M.M.y.y.y.P.w.M.M.w.w.b.e.J.D.J.Q.N.N.N.N.N.N.N.N.N.N.N.K.N.N.N.N.N.N.N.N.#.b.d.r.P.M.M.M.M.M.M.M.M.M.M.M.M.M.y.x.f.a.#.#",
".f.f.f.w.M.M.M.M.M.M.M.M.w.r.b.e.#.J.N.N.N.R.S.R.R.N.N.Q.N.N.N.N.N.N.N.N.N.N.N.T.K.l.b.d.w.E.E.E.M.M.M.M.M.M.M.M.M.f.f.f.U.a.#.#",
".f.f.w.E.M.M.M.M.M.M.M.M.w.r.b.eQt.J.N.N.S.S.V.V.S.W.N.N.N.Q.N.N.N.N.X.N.N.N.N.N.J.D.l.d.d.r.E.E.M.M.M.M.M.M.M.M.M.E.f.f.f.a.#.#",
".f.x.E.E.E.M.M.M.M.M.M.M.w.r.b.e.#.J.N.N.S.V.Y.Z.V.0.N.N.N.N.X.N.N.N.N.N.N.N.N.N.K.K.D.#.b.d.f.w.M.M.y.M.M.M.M.M.M.E.x.w.r.a.#.#",
".E.f.f.E.E.M.M.M.M.w.M.M.w.d.b.#.J.J.N.R.S.Z.1.1.Z.S.T.T.T.T.N.N.N.T.N.T.T.N.N.N.N.Q.N.D.D.2.d.M.M.M.M.M.M.M.M.M.M.E.f.f.f.e.#.#",
".f.f.f.f.M.M.M.M.M.M.w.w.f.b.#.K.N.T.R.S.V.3.1.1.1.Z.4.5.S.0.W.W.0.0.6.S.S.S.6.T.T.N.N.J.J.l.d.7.M.M.M.M.M.M.M.M.M.E.U.r.f.a.#Qt",
".s.f.f.w.w.M.E.M.E.r.d.c.b.D.K.8.N.R.S.V.9.Z.1.1#.#.#..1.3.9.5.S.5.5.5.4.Z##.V.S.T.N.N.N.J.#.d.7.M.M.M.M.M.M.y.M.M.E.f.r.f.a.#.#",
".f.w.f.f.w.s.w.r.E.f.b.a.#.K.8.X.N.0.S.Z#a.Z.Z.1#.#b#c#d#..3#a.Z#a#a.3.3.1.1#e#f#g.N.Q.N.N.D.d.7.M.M.M.M.M.M.M.M.M.E.7.f.f.a.#.#",
".w.s.f.f.f.f.f.w.f.d.d.b.#.K.8.X#g.4.1#d#h#i.3.3#j#c#k#l#c#b#.#..3.Z.1#.#.#j.1.Z.W.W#g.N.Q.D.d.w.M.M.M.M.M.M.M.M.y.M.f.f.f.a.#.#",
".f.f.f.w.f.f.f.f.f.f.d.b.l.D.K.X#f#m#n#o#l#p#i#i#j#c#k#o#q#q#r#l#h.3.1#.#j#b#..1#a#f.W#g.N.W.d.7.M.M.M.M.M.M.M.M.M.f.f.f.f.a.#.#",
".E.w.E.s.E.w.w.w.w.w.r.r.d.b.D.K#s#n#t#u#v#w#i#i#.#c#x#q#y#z#z#q#A.1.1#.#b#c#B#..P.P.V.W.Q.D.2.7.y.M.M.M.M.M.M.M.M.E.f.f.f.e.#.#",
".M.M.E.M.E.y.w.y.M.w.y.w.w.f.b.e#C#D#E#F#z#G#h#i#.#l#x#y#E#H#H#I#x.3.1#J#c#k#K#B#..1.P.W.Q.W.2.7.M.M.M.y.M.M.M.M.M.E.f.f.f.a.#.#",
".M.M.M.M.M.M.M.M.M.M.M.M.w.f.d.e#L#M#v#u#v#k#h#i#j#c#x#y#N#E#z#y#K.1#.#J#c#x#K#b#j.1#a.W.N.l.s.k.L#O.I.M.M.M.M.M.M.E.E.f.f.a.#.#",
".M.M.M.M.M.M.M.M.w.w.M.M.w.r.b.#.M#P#r#y#G#w#h#h#j#c#k#o#q#q#q#o#b#.#j#J#c#x#K#b#..1#a.W.Q.m.o.H.G#Q.O.y.M.M.M.M.M.E.x.f.f.a.#.#",
".M.M.M.M.M.M.y.M.y.M.M.M.w.r.b.##R#S#d#l#A#p#h#p#b#K#k#k#x#x#l#c#J#.#d#b#K#x#c#b#b.1.P.W.K.d.z#T.t#U.L#V.w.M.w.y.M.E.f.f.f.a.#.#",
".M.M.M.M.M.M.M.M.P.M.M.M.w.r.b.e#W#e.1#j#p#j#j#J#B#K#k#l#A#J#.#j#j#j#J#c#K#K#c#d#..P.P.W.W#X.j#T.t#U.O.y.w.w.M.P.M.E.f.w.f.a.#.#",
".M.M.M.M.M.M.M.M.M.M.M.M.w.r.b.l#W#Y#Z#b#b#b#b#0#c#x#k#x#c#c#b#b#b#b#b#c#c#0#d#Z.P#Y#1#2#3#4.z#5.j.v#X.f.d.7.E.M.M.E.w.f.f.e.#.#",
".M.M.M.M.M.M.M.M.M.M.M.M.w.r.b.##R#6#j#K#K#K#0#K#x#x#k#x#K#K#l#K#K#K#0#B#b#j#Z#Y#7#2#4.j#T#5.z#3#8.x.b.W.2.d.r.M.M.E.s.r.f.a.#.#",
".M.M.y.w.M.M.M.M.M.M.M.M.w.r.b.#.7#S#9#x#x#x#k#k#x#x#x#x#x#x#l#x#x#x#K#0#J#j.P#7.2#8.z.q.Fa.a##X.J.J.N.N.W.2.r.M.M.E.f.f.f.a.#Qt",
".M.M.P.M.M.M.M.M.M.M.M.M.M.r.d.##7#P#k#y#o#k#B#9#b#b#b#K#k#y#y#o#M#B#d#C.1.P#e.2.m.x#3#5.q.j#3aa.W.D.D.0.2.d.E.M.M.E.f.f.f.a.#.#",
".M.M.M.M.M.M.M.M.M.M.M.M.w.r.b.##sab#q#I#v#M#P#S#m#S.1ab#D#Nacad#0#C#6#6#e#7#R.2.maa#X#4.j.z#X.x.2.W.2.2.2.r.7.M.E.E.f.f.f.a.#.#",
".M.M.M.M.M.M.M.M.M.M.M.M.w.r.b.e#S#Macae#v#0#S.U#R#R.7#P#D#z#u#yabaf#R#R#R#W.2.n.#.naa#X#X#X.x.w.d.7.7.r.7.7.M.M.M.E.f.f.f.a.#.#",
".M.M.M.M.M.M.M.y.M.M.w.M.w.f.a.nag#Dah#H#Iai#1.e.a.a.naj#v#uaeakab.U.n.n.n.n.n.a.n.n.n.e.a.c.U.w.M.M.M.M.M.M.M.M.M.E.f.f.f.e.#.#",
".M.M.M.M.M.M.M.y.M.M.w.w.r.7.s#Ralamakaeakanaoapapapap#naqah#uakaiarapapapap#1as.s.s#2apap#1af.E.7.7.7.M.M.M.M.M.y.E.w.f.f.a.#.#",
".M.M.M.M.M.M.M.M.M.w.w.d.daf#1aratamakauavawaxayayayazaAaqauauavaBazaCayazayaDaEaFagajaGazaHaI.E.d.f.w.w.M.M.M.M.M.s.f.f.f.a.#.#",
".M.M.M.M.M.M.M.M.M.w.c.b.aasarajaCaAaJavavaKaLaMaMaMawaJaqavavaqaKaJawaMaLaMaNazaOaOaPaQaLazaR.s.b.d.w.M.M.M.M.M.M.w.f.w.f.a.#.#",
".M.M.M.M.M.M.w.M.M.w.d.b.aasaFaGaSaTaJaUaKaMaQaMaLaqaUaKawaMaVawaKaWaUaXaUaXaJaQaxaxaAaBaJaSaYas.e.d.f.M.M.M.M.M.M.E.f.f.f.a.#.#",
".M.M.M.M.M.M.P.M.M.w.d.b#WasaFaGaSaBaJaUaMaNayazaQawaqaKaQazazaNaMaKaXaUaUaXaJawaAaTaAaAaBaOaRaZ.b.b.f.M.M.M.M.M.M.E.f.f.f.a.#.#",
".M.M.M.M.M.M.M.M.M.r.d.m.casaYaGaSaAaLaWaQa0a1aRa2aVaqaVayaRa1a0aQaKaUaUaUaXaWaJaJawaQaTaPaGap.c.#.b.r.M.M.M.M.M.M.E.w.f.f.e.#.#",
".M.M.y.M.M.M.M.M.M.w.d.n.casaYaGaPaAaLaJaSaraZasa0aQaqaQajasaZaRazaKaWaWaUaUaUaUaUaJaBaSaOajasa3.b.c.r.w.M.M.M.M.M.E.f.f.f.a.#.#",
".y.M.M.M.M.M.M.M.M.r.d.b.m#R#1aYaGayaSaxa0a4.nas.HaQa5aQa6asaa#1a0aSaQaNaTaTaTaNaNaSaCaHaYa7aZ.a.e.d.r.M.y.M.M.M.M.E.r.f.f.a.#.#",
".M.M.M.M.M.M.M.M.E.w.d.nQt#W#Ra8#1araYaYapaZ.n#2a9b.b#b.a9#2.naZ#1aYaYa0aYaEaEaEaEaYaRap#1asa3.m.e.b.w.w.M.M.M.M.M.E.r.f.f.a.#.#",
".M.M.M.M.M.M.M.M.M.w.d.b.#.b.b.da3#RaZaZa3aaQt#8bab#b#bbba#2Qt.na3asasasasasasasas#RaZa3.a.a.n.n.e.b.w.M.M.M.M.M.M.E.s.f.f.a.#.#",
".M.M.M.M.M.M.M.M.M.w.d.b.l.#.#.#.#.m.ma3.n.naaa4babcb#bcbaa4a3.a.n#W.n.n.n.m#f.n.n.n.n.#.#.#.#.m.b.d.w.w.M.M.M.M.M.w.f.f.f.a.#.#",
".M.M.M.M.M.M.M.M.M.w.w.r.b.b.#.#.ma3#RasasasasaFbdbabca.bda1asasasasasasasasasasas.sa3.2.#.#.b.b.d.w.w.w.M.M.M.M.M.E.f.f.f.e.#.#",
".P.M.M.M.y.M.M.M.M.M.w.r.d.d.b.##Wasa1aFaYaYaYaYa6bda6a6a6aYaYaYaYaYaYaYaYaYaYaYaFa1asa3.#.b.b.f.w.w.M.M.M.M.M.M.M.E.f.f.f.a.#.#",
".M.M.M.M.M.M.M.M.M.M.M.M.w.r.b.#a3a8aYaOaOa9aOaYa1asaaasaFaYaOaGaOaGaGaGaGaGaGaGaOaY#1a3Qt.e.c.w.M.E.M.M.M.M.M.M.M.M.f.w.f.a.#.#",
".M.M.M.M.M.M.M.M.M.M.M.M.w.r.b.#a3a1aYaOaOaPaPaGaYasQtasaYaGaPaPaPaPaPataOaOataPaPaGaF#RQt.a.f.E.M.M.M.M.M.M.M.M.M.s.f.f.f.a.#.#",
".M.M.M.M.M.M.M.M.M.y.M.M.w.f.b.ea3aFaYataPaxaTaPaYasQtasaYaCaAaAaAaAaAaPaPaOaPaxaTaPajas.#.a.d.E.M.M.M.M.M.P.M.M.M.w.f.f.r.b.#.#",
".M.M.M.M.M.M.M.M.M.M.M.M.w.w.b.eaZ.3aYataPaAaBaNa0asQtasa0axaMaWaWaBaAaTaPaOaPaAawaxa0asQt.a.f.r.M.M.M.M.M.w.M.M.M.w.f.f.f.c.#.#",
".y.M.M.M.M.M.M.M.w.M.M.E.w.c.a.eaZapajaCaxaJaJaBa2#1Qt#1aGaQaUaUaXaWaWaAaPaOaxaAaWaBa2ap.n.c.f.w.M.E.M.M.M.M.M.M.M.E.w.f.f.e.#.#",
".M.M.M.M.M.M.M.M.P.w.w.w.w.r.s.sa7ajaOaxaAaJaWaBaG#2Qt#1a2aBaUaUaXaXaLaAaxataPaTaBaTayaEap#1af.E.f.w.M.M.M.M.M.M.M.E.s.r.f.a.#.#",
".M.M.M.M.M.M.M.M.M.E.w.d.f.s#1araHaCaxawaJaWaWaVaGa4.#afaGaVaXaXaXaXaLaAaPaOaPaPaxaxaxazayaHar.s.d.f.w.E.M.M.M.M.M.E.f.f.f.a.#.#",
".M.M.M.M.M.M.M.M.M.w.f.b.aasarajaCaxaBaWaWaWaXaVa2#1Qt#1aGaQaUaUaXaUaJaVaSaOataOaCaSaxaQaLaSaR.s.b.c.r.M.M.M.M.M.M.E.f.f.f.a.#.#",
".M.M.y.M.M.M.M.M.E.w.d.ma3asaFaGaSaAaJaUaKaMaMazaYas.#asaEazaVaLaKaWaWaBaTaPaPaPaOaPaxaBaJaNaGap.s.7af.w.w.w.M.M.E.E.f.f.f.a.#.#",
".M.M.M.M.M.M.M.M.M.w.d.n.nasaFaOaPaAaJaKaMaNayajapaZ.#aZapaEazaNaMaWaLaLaAaTaSaPaOataxaTaVaNayaHaRaIaf.f.f.w.M.M.M.E.f.f.f.a.#.#",
".M.M.M.M.M.M.M.M.M.r.d.b.aasaYaGazaVaJaqaTa0a1asaZ.e.#.naZ#2a1aDaTaWaWaWaWaBaAaPaCaOaPaPaPaxaxaxazaH#1.a.d.f.w.M.M.E.f.f.f.e.#.#",
".M.M.M.M.M.M.M.M.M.r.d.b#fasaFaGazaVaJaKaSaR.x.#.#.#.#.#QtQta3aRaPaWaXaWaUaUaBaTaPaOaOaOaOaPaBaWaMazap.e.a.c.w.M.y.E.f.w.f.a.#.#",
".M.M.M.L.L.L.I#V.M.w.d.d.d.waraEbeaiazaQa2aI.f.b.b.b.l.b.a.a.UaIbeaVaVaVaVaVanbealaoalalaobeazaVaSaDbf.b.d.r.E.M.y.I.o.O.I.c.#.#",
".M.M.M.G.A.Gbg.L.M.M.w.w.r.Mbh#Lbibibebebjbf.w.r.f.d.r.c.f.d.sbh.Lbebebebebeaoaobj#Lbj#Lbkbibibebebj.y.r.w.w.E.y.O.H.p.p.j.b.#.#",
".M.M.Mbl.hbl.G.L.M.M.w.w.M.M.y#V#V#O#Obk#O#V.w.w.E.w.7.7.E.E.E.y#V#Obkbkbkbkbkbk#Vbhbh#V.y#V#O#Obkbh.y.E.w.E.w.y.L.G.q.h.g.a.#.#",
".M.M.Mbl.u.h.G.L.M.M.M.M.M.M.M.M.M.y.w.P.M.M.M.M.M.M.M.P.M.M.M.M.M.M.M.M.M.M.M.M.M.M.M.M.M.y.M.M.M.M.M.M.w.P.M#Vbg.g.B.u.h.a.#.#",
".M.M.Mbl.hbl.G.L.M.M.M.M.M.M.M.M.M.M.y.w.M.M.M.M.M.M.M.w.M.M.M.M.P.M.M.M.M.M.M.M.M.M.M.M.M.M.M.M.M.M.M.M.M.M.Mbh.v.p.q.h.g.a.#.#",
".M.M.M#V.M.M.M.M.M.M.M.P.M.M.M.M.M.M.P.M.M.M.M.M.M.M.M.M.M.M.y.M.M.M.M.M.M.M.M.M.M.M.M.M.M.M.M.M.M.M.M.M.M.M.M.M.M.E.r.r.f.a.#.#",
".M.M.M.M.M.y.M.M.M.M.M.M.M.M.M.M.M.M.M.M.M.M.M.M.M.M.M.M.M.M.M.M.M.M.M.M.M.M.M.M.M.M.M.P.M.M.M.M.M.M.M.M.M.M.M.M.M.w.U.r.f.a.#.#",
".M.M.M.M.M.M.M.M.M.M.M.M.M.M.M.M.M.M.M.M.M.M.M.M.M.y.M.M.M.M.M.M.M.M.M.M.M.M.M.y.M.M.M.M.M.M.M.M.M.M.M.M.M.M.M.M.M.E.f.f.f.e.#.#"};
