/* XPM */
static char *right_enemy_3_resized[] = {
/* columns rows colors chars-per-pixel */
"64 64 207 2 ",
"   c #090708",
".  c #11080C",
"X  c #1A0D14",
"o  c #140E11",
"O  c #131313",
"+  c #1A1215",
"@  c #161817",
"#  c #1D1319",
"$  c #171A18",
"%  c #1A1C1B",
"&  c #171818",
"*  c #231317",
"=  c #24131A",
"-  c #29151D",
";  c #26181C",
":  c #2C1A1E",
">  c #32191E",
",  c #1E201F",
"<  c #1B1F20",
"1  c #271620",
"2  c #2B1622",
"3  c #271B25",
"4  c #2C1923",
"5  c #2D1B29",
"6  c #321D22",
"7  c #351E2E",
"8  c #391E26",
"9  c #361F32",
"0  c #381F34",
"q  c #1D2122",
"w  c #222525",
"e  c #252B27",
"r  c #262B2B",
"t  c #292E2D",
"y  c #2E2328",
"u  c #342225",
"i  c #382324",
"p  c #35232C",
"a  c #3A252C",
"s  c #34292D",
"d  c #3B2B2B",
"f  c #362133",
"g  c #392234",
"h  c #3C2A32",
"j  c #3D253B",
"k  c #362C33",
"l  c #2D3432",
"z  c #2F3836",
"x  c #333535",
"c  c #3D3133",
"v  c #313B36",
"b  c #333D3A",
"n  c #3B3B3D",
"m  c #3B3639",
"M  c #2B312F",
"N  c #431E25",
"B  c #422224",
"V  c #452828",
"C  c #52262A",
"Z  c #5A2A2E",
"A  c #4C3128",
"S  c #4E2836",
"D  c #43263C",
"F  c #4B2639",
"G  c #432D3D",
"H  c #492838",
"J  c #542A35",
"K  c #542B3C",
"L  c #5C2D3B",
"P  c #5D2B33",
"I  c #443332",
"U  c #4A3635",
"Y  c #4B3A35",
"T  c #44313C",
"R  c #4A3638",
"E  c #4C3C3A",
"W  c #463A3B",
"Q  c #513E3C",
"!  c #642D34",
"~  c #6A313C",
"^  c #753337",
"/  c #73333D",
"(  c #78333D",
")  c #702F35",
"_  c #36413C",
"`  c #39443E",
"'  c #4F403B",
"]  c #51433D",
"[  c #5A4133",
"{  c #664A37",
"}  c #735034",
"|  c #6A4830",
" . c #3B3E40",
".. c #5C2E40",
"X. c #473041",
"o. c #4B3444",
"O. c #4D3A43",
"+. c #423D41",
"@. c #533D46",
"#. c #533F48",
"$. c #452E40",
"%. c #673242",
"&. c #763745",
"*. c #7C3642",
"=. c #7C3843",
"-. c #642F41",
";. c #3B4543",
":. c #3E4944",
">. c #424243",
",. c #434C4B",
"<. c #484B49",
"1. c #554642",
"2. c #594641",
"3. c #564943",
"4. c #5C4B45",
"5. c #5C4C4A",
"6. c #59454A",
"7. c #45514D",
"8. c #49544E",
"9. c #534F51",
"0. c #475352",
"q. c #4A5454",
"w. c #4E5A5A",
"e. c #4D5957",
"r. c #515659",
"t. c #535D5D",
"y. c #5A5958",
"u. c #614D46",
"i. c #624E4A",
"p. c #63544B",
"a. c #64594F",
"s. c #6B594F",
"d. c #68544D",
"f. c #634C50",
"g. c #655A50",
"h. c #6C5C51",
"j. c #645B59",
"k. c #715D54",
"l. c #55615E",
"z. c #5A655F",
"x. c #6E6155",
"c. c #6E605D",
"v. c #726256",
"b. c #756559",
"n. c #79665A",
"m. c #7C6A5C",
"M. c #585E60",
"N. c #566262",
"B. c #596564",
"V. c #5E6B6B",
"C. c #5B6965",
"Z. c #616D6D",
"A. c #656666",
"S. c #7F6F60",
"D. c #736864",
"F. c #69726F",
"G. c #7C716B",
"H. c #6A7572",
"J. c #6B7774",
"K. c #737E7C",
"L. c #767978",
"P. c #883A3E",
"I. c #855D39",
"U. c #9E6E3E",
"Y. c #823944",
"T. c #8B3B43",
"R. c #8F3D49",
"E. c #943E46",
"W. c #903E4A",
"Q. c #994048",
"!. c #A1434B",
"~. c #AB474C",
"^. c #BD4C52",
"/. c #B1484D",
"(. c #9D754E",
"). c #876E5B",
"_. c #A87645",
"`. c #846E61",
"'. c #847263",
"]. c #8B7665",
"[. c #8C7967",
"{. c #8C7B69",
"}. c #897669",
"|. c #927E6C",
" X c #927F70",
".X c #78837E",
"XX c #96826E",
"oX c #99836F",
"OX c #87817D",
"+X c #9A8570",
"@X c #988879",
"#X c #AD8C69",
"$X c #CE9656",
"%X c #7A8583",
"&X c #878A88",
"*X c #87918E",
"=X c #8C9391",
"-X c #959B97",
";X c #979189",
":X c #A59A8B",
">X c #98A29D",
",X c #A4A39C",
"<X c #9DA7A3",
"1X c #A7AAA5",
"2X c #B2B5B0",
"3X c #BAC2BD",
"4X c #C3CCC7",
/* pixels */
"= = = = = = = = = = = = = = = = = = = = = = = = = = = = = = = = = = = = = = = = = = = = = = = = = = = = = = = = = = = = = = = * ",
"= = = = = = = = = = = = = = = = = = = = = = = = = = = = = = = = = = = = = = = = = = = = = = * = = = * = = = = * = * = = = = = = ",
"= = - 4 2 2 2 2 4 4 2 4 4 4 - 4 4 4 4 6 4 4 4 2 2 2 4 4 2 2 2 2 2 2 2 2 2 2 4 4 2 5 2 2 4 4 4 5 2 4 2 2 4 4 4 6 4 2 2 2 4 4 2 4 ",
"= = 4 T.!.E.*.J 7 7 7 7 7 7 7 7 7 7 7 7 7 7 7 6 6 4 - = = 1 1 = : = 1 ; 2 = - = 1 = 1 1 = 4 4 6 7 7 7 7 7 7 7 7 S ) R.!.T.7 7 7 ",
"= = 4 !.^.~.Y.! D a 7 7 7 7 7 0 7 7 7 7 7 7 9 9 7 2 = = = = = = = = = = = = = = = = = = = ; 5 5 7 7 7 7 8 0 7 7 L *.!.^.Q.7 a 9 ",
"= = 4 E./.E.Y.L 8 7 7 7 7 7 7 7 7 7 g 7 7 7 7 6 2 1 # = = = = = = = = = = = # = = = = # = ; 4 5 7 7 7 7 7 0 7 7 J ( E.~.Q.9 7 7 ",
"= = - ( T.*.~ F D 0 0 g g 0 g g 0 g 0 0 9 7 5 5 2 1 + # + # # # + # # # # # # X # + = X + = 1 2 5 7 7 0 g g g 0 F ~ &.R.( 9 7 7 ",
"= = 4 J L L K F j j j j j j j D j j j j 0 5 5 2 = # + O X O O + O O O + O + O + O + + O O + = 2 2 5 0 0 j j j j D F ..! L a 7 0 ",
"= = 4 7 8 D j j j j j j j j j j j j j  .9 5 2 = O O O O O O O O X O O O O O O O O O O O o + # + - 2 0 0 j j 0  .D D D j j 7 7 7 ",
"= = 4 p 7 7 7 j j j j j j j j j g g g 0 5 2 1 X @ O O O O O O O O O O O o O O $ $ q $ O O O + = - 2 9 0 j j j j j j j j 0 7 7 7 ",
"= = 4 7 7 7 g j j j j j j j j j g g 9 5 5 1 # + O O O O O   O O O O o O O O < q r r q q O O + * - 2 9 0 j j j j j j j j g 0 7 7 ",
"= = 4 9 0 8 g j j j j j j D j j 0 7 5 2 = # X X O O O O O O O O O   O O O O % r z b r q O O + = - 2 9 0 j j j j j j j g g g 8 7 ",
"= = - 7 7 7 g j j j j j j j j j j 5 3 # # O o O O O O @ @ O @ O O O @ @ @ @ q z ;.;.z q $ O + + = 2 5 0 j j 0 j j j j g g 7 7 g ",
"* = 4 7 9 p g j j j j j j j j j f 5 1 + + O O @ @ , q q q , % % < < % q e t z ;.;.;._ r q $ @ O X = 2 7 0 0 j j j j j j 7 7 7 7 ",
"= = 4 7 9 7 g j j D j j j j j j f 5 = + O O O @ q r v z t e e e q e M _ ;.:.:.:.;.;.z M r q $ O . X # 2 6 5 9 g j g j 0 0 7 7 a ",
"= = 4 7 7 f g j j j j j j j j j f 5 # O O o O & w x ;.;._ _ l l z l _ :.q.N.w.:.;.z z l z q % O   . X = 4 2 7 g 9 0 a 0 7 7 0 7 ",
"= = 4 7 7 7 j D j j j j j j j j 0 5 # o O & < < z ;.0.:.:.;.z _ :.:.w.N.C.Z.N.0._ _ ` 7.q.;.t &   . X = 2 5 5 7 0 7 7 7 7 7 a 0 ",
"= = 4 7 7 7 7 j j j j j j j j j f 5 < O & < w l ;.:.w.0.:.;._ 7.C.F..X.XJ.Z.N.0.` ` 8.C.J.j.>.w   X # 1 2 5 7 7 7 7 7 7 0 7 7 7 ",
"= = - 7 7 7 g j j j j j j j j D f 3 # o < r  . .:.t.N.w.:.;.;.l..X>X>X%X.XV.N.:.` ` z.&X1XOXj.T X # 2 5 9 9 0 0 0 0 0 g a g 0 g ",
"= = 4 7 7 7 g j j j j j D j j j f 3 < o <  .;.:.t.B.Z.N.e.;._ V.-X3X3X<X%XV.C.:.` 7.H.>X4X<XL.<.- 2 7 0 0 D 0 j D 0 D g j g j j ",
"= = 4 7 7 g g j j j j j j F X...S a 1 O < l ;.0.w.B.V.N.e.:.;.B.%X>X<X*X%XV.N.0.` 7.Z.&X1X&XA.O.- 5 7 0 j j j j j j j j j j j j ",
"= = 4 7 7 8 g j j j j j D K %.&.~ J ; o < l ;.:.w.B.V.N.e.0.:.w.J..X.X.XJ.Z.N.0.7.7.z.H.%XF.9.j = 2 9 0 j j 0 0 j j j j j j j j ",
"= = 4 7 7 7 g j D 0 j 0 $...=.Q.P.! 5 X <  .;.w.w.N.V.B.w.q.:.e.N.C.V.V.Z.Z.B.w.8.7.8.l.C.q.+.s = 2 9 0 j j j D j D j j j j j j ",
"= = 4 7 0 7 g j  .j 0 0 D K =.Q.P.) N < <  . .:.q.N.B.B.N.e.0.0.0.:.e.l.C.Z.B.t.e.0.0.8.0.;.x y - 2 9 0 j j j  .j j j j j j j j ",
"= = - 7 7 0 g j j g f 5 7 N L ) ^ ! Z C V I m  .,.q.M.N.N.w.w.w.w.w.N.N.V.Z.V.N.M.w.w.w.w.,.m y 1 2 9 0 j j j j j j j j j j j j ",
"= = 4 7 9 a g j j 9 5 3 < 2 8 B C ! ^ P.) Z V k m ,.0.w.t.M.B.B.B.C.B.B.V.Z.V.V.B.M.B.B.B.0.n s = 2 9 0 j j j j j j j j j j j j ",
"* = 4 7 7 7 g j j 9 3 < O O + + N P I./.E.! B 3 k  .0.e.M.B.V.V.V.C.V.V.V.V.V.V.Z.Z.V.V.V.r.+.f = 2 9 0 j j j j j j j j 0 D j j ",
"= = 4 7 7 7 g j j g 5 3 % # # < > C ) E.^ C 8 ; 3 x  .;.<.q.t.A.J.%X%XZ.B.w.w.w.r.t.Z.J.%XZ.9.k = 5 9 j j j j j j j j j j  .j j ",
"= = 4 7 7 7 g g j f 9 3 3 3 < 3 8 N ! ) Z N > ; 3 s k x n n <.M.K.=X*XL.y.;.+.>.+.9.A.&X-X.Xy.T = 2 9 0 j j j j j j j j j j j j ",
"= = 4 7 7 7 g j j j f f 9 f f 5 0 8 N N N > : = : 3 y s s s h y.%X1X>XL.9.f s s p +.M.&X2X=XA.+.- 2 9 0 j j j j j j j j j j j j ",
"= = - 7 7 7 g j j j j j j j j j 0 p 6 4 - : : : 4 : : : : : p y.;X2X1X&X3.: 4 4 - I c.-X3X,XL.1.: 4 7 0 j 0 j j D j j j j j j j ",
"= = 4 7 7 0 g D j j j j j f f f g h I U U V a a d I U U U U E c.;X1X,X Xj.U U U U 6.D.;X2X;XG.5.s a f 9 0 0 j j D j j j j j j j ",
"= = 4 7 7 7 a j j j j j 0 0 7 5 g R 4.k.p.3.1.' 2.i.s.k.s.h.k.'.@X:X:X XS.k.s.s.s.b.}.@X:X;XG.g.E I h 5 5 0 0 j j j j j j j j j ",
"= = 4 7 0 7 0 j j j j j j 0 5 2 a Q k.[.).x.a.a.k.n.].[.].}.{.|. X@X@X X{.}.].].].[.|.@X@X{.S.h.3.E d 4 2 6 0 j j j j j j j j j ",
"= = 4 7 7 7 g j j j j j j 7 5 - d ] v.{.'.S.b.b.).{.oX+XoX+XXX|.}.`.].}.|.+X X[.].).].|.+X{.m.v.p.' d 4 2 5 0 j j 0 j j j j j j ",
"= = 4 7 7 7 g j j j j j j 7 2 2 i Q a.'.S.S.m.S.}.{.oX+X+XoX|.].n.k.k.).|. X}.).k.s.n.].+X{.'.v.p.' d y 2 5 0 j j  .j j j j j j ",
"= = - 7 7 0 g j j j j j j 9 2 = 6 U p.x.m.).}.{.{.XXoX+X+X+X|.).u.Y Q s.`. X`.d.Q Y u.).XX[.S.v.p.] d 6 ; 5 9 j j j j j j j j j ",
"= = 4 7 7 7 g j j j j j 0 9 6 2 u d 3.a.v.'.{.+X+X+X+X+XXXXX|.k.Q i d 3.). X).u.d i E v.{.[.S.x.p.] d 6 : 5 0 j j j j j j D j j ",
"= = 4 7 7 9 g j j j j D j 9 5 - 4 i W ] 4.h.v.n.n.m.m.m.n.).v.u.I > d [ ).#X).~ d : A u.b.v.s.p.] I s ; 2 5 9 j j j j j j j j D ",
"= = 4 7 7 9 g j j j j j 0 0 2 - ; u d I U Q ] 2.2.2.2.] u.] ] I i : V { (.$X(.{ V : i U ] ] E I c s y * : 5 0 g j j j j j j j j ",
"= = 4 7 7 a g j j j j j j 0 2 - : : 4 4 u i s d d d d d d d d u : * V } _.$X$X} B * > u i i s u 5 2 2 = 2 5 0 j j j j j j j j j ",
"= = 4 7 7 7 0 j j j j j 0 0 5 2 ; = = = = : : : : w ; : : : y : 4 u A } U.$XU.} A > : : u ; ; = = = = 1 2 5 0 j j j j j j j j j ",
"= = - 7 7 7 g j j j j j 0 0 0 5 2 2 = = 3 u a d d d d d d d d d d d Y | I.U.} | ' d d d d s u ; = = 2 2 9 0 0 j j j j j j j j j ",
"= = 4 7 7 7 g j j j j j j j 0 0 7 2 2 = u d Y ' ] ] ] ] ] ] ] ] ] ] ] [ [ [ | [ ] ] ] ] ' Y d y = 2 5 5 9 0 j j j j j D j j j  .",
"= = 4 7 0 7 j j j j j j j j g j 0 6 - * u I ] a.p.p.p.p.p.p.p.a.p.a.] ' d > d Y ] a.{ a.a.] c u = 2 9 0 j j j j j j j j j j j j ",
"= = 4 7 7 7 a j j j j j j j j j g 7 4 * s ' p.x.x.g.a.a.g.x.x.x.x.x.p.] d * d ] p.x.x.a.a.] Y u = 2 9 0 j j j j j j j j j j j j ",
"= = 2 9 7 7 0 j j j  .j j j j j g 5 4 = d 3.x.m.b.x.a.x.x.S.S.S.S.S.h.] d * d ] x.m.b.x.g.] ' u - 2 7 0 j j D j j j j j j j j j ",
"= = 6 7 7 7 0 j j j 0 j j j j j 9 7 4 * d u.b.}.S.x.a.x.m.S.'.XXXX].b.u.d * d u.n.'.S.x.g.] _ i - 2 0 0 j j j j j j j j j j j j ",
"= = - 7 7 0 g j j j j j j j g j 0 7 6 : U d.'.XXS.b.a.x.S.XXXXoX+X+X).p.I * I d.'.{.{.b.h.3.U i - 4 6 0 g j j 0 j j j j j j j D ",
"= = 4 7 9 a g j j j j j j j 0 7 g h I U 2.s.m.'.m.x.g.b.S.[.oXoX+X+X'.d.I * V p.'.XX{.S.b.a.3.W a a 9 0 0 0 0  .j j j j j j j j ",
"= = 4 7 7 7 g j j j j j g 0 7 5 a E 4.s.k.b.b.b.x.x.a.x.S.[.oXoXoXoX`.p.h = A p.`.XXXX{.}.b.h.4.E I a 7 5 0 g j j j j j j j j j ",
"= = 4 7 7 7 g j j j j j j 9 6 2 a Q v.[.).b.v.h.a.g.a.v.`.{.+XoX+X+X).p.I * I d.`.oXXXXXXX'.b.h.3.E d 4 2 7 0 j j j j j j j j j ",
"= = 4 7 7 7 g g j j 0 0 0 h f a U p.n.{.'.b.x.a.x.x.x.m.'.XXXX|.[.`.k.2.d = d ] k.].].|.+X{.S.v.p.' d u ; 5 0 g j j j j j D j j ",
"= = 4 7 7 7 g j j j 0 7 7 h R Q 4.s.n.`.m.b.g.a.x.v.m.S.[.[.XX].n.k.2.U i = i U 3.s.n.].|.{.S.x.a.' d : : 5 0 j j j j j j j j j ",
"= = - 7 7 7 g j j 0 7 5 4 I 4.k.b.b.b.x.x.x.a.h.x.S.'.XXXXXXXXm.i.Y V i : = - i d Y u.m. X{.`.k.p.] d 4 2 5 9 j j j j j j j j j ",
"= = 4 7 0 7 g D j 0 6 4 - U k.].XX'.x.a.a.a.a.x.m.'.+X+XXXoXXXx.Q u * * = = = = = 8 Q v.|.{.`.k.p.' d w 2 5 9 j j j j j j j j j ",
"= = 6 F K J F D j g 9 5 2 H i.v.`.k.f.6.5.5.6.5.f.D.`.`.`.`.`.f.R p 4 4 2 1 2 2 2 7 R d.).k.c.f.2.E 0 5 5 5 0 j $.F ......j j j ",
"= = 2 ) *.*.~ K D g 0 0 9 D @.f.f.#.#.o.O.@.O.@.6.6.f.f.f.f.f...G a 5 7 6 9 5 7 9 0 H @.f.f.#.#.O.G j 9 0 0 j j ..-.&.Y.&.j j j ",
"= = 4 T.!.E.&...D 0 g 0 g D G o.X.X.$.D $.G G $.o.o.o.o.o.o.X.$.D g g g f f 0 g 0 0 $.X.o.X.X.$.$.D j j 0 0 j j ..&.W.!.W.j j j ",
"= = 4 !.^.~.T.-.$.j  .0 j j j j j j D j j j j j j j j j j j j j j j j j  .j j j j j j j  .0 D j j j j j j j j j ..&.!.^.W.j j j ",
"= = 4 T.!.E.*.L G j j j j j j j j j j j j j j j j j j j j j j  .j j j j 0 j j j j j j j 0 D j j j j j j j j j j ..&.W.!.W.j j j ",
"= = 4 7 9 9 g j j j j j j j j j j j j j j j j j j j j j j j j j j D j j j j j j j j j j j  .j j j j j j  .j j j j j j j $.j j j ",
"= = 4 7 9 p 0 j j j j j j j j j j j j j  .j j j j j j j j j j j j j j j j j j j j j j j j j j j j j j j j j j j j j D j j j j j ",
"= = - 7 7 7 g j j j j j j j j j j j j j j j j j D j j j j j j j j j j j j j D j j j j j j j j j j j j j j j j j j j j j j j j j "
};
