/* XPM */
static char *exit1710261609[] = {
/* columns rows colors chars-per-pixel */
"32 32 6 1 ",
"  c #25131A",
". c #FFF1CC",
"X c #C09344",
"o c #FFD569",
"O c #3D253B",
"+ c white",
/* pixels */
"                                ",
"                                ",
"                                ",
"                                ",
"                                ",
"                                ",
"                                ",
"                                ",
"                                ",
"                                ",
"                    ..XX        ",
"                    ..XX        ",
"                  XX    XX      ",
"                  XX    XX      ",
"        XXXXXXXXXXXX    XX      ",
"        XXXXXXXXXXXX    XX      ",
"        ....oo    ..    XX      ",
"        ....oo    ..    XX      ",
"        ..  oo    oo    oo      ",
"        ..  oo    oo    oo      ",
"        oo          oooo        ",
"        oo          oooo        ",
"                                ",
"                                ",
"                                ",
"                                ",
"                                ",
"                                ",
"OOOO                            ",
"OOOO                            ",
"  OO                            ",
"  OO                            "
};
