/* XPM */
static char *floor1710261609[] = {
/* columns rows colors chars-per-pixel */
"32 32 4 1 ",
"  c #25131A",
". c #362030",
"X c #3D253B",
"o c white",
/* pixels */
"                                ",
"                                ",
"  ..............................",
"  ..............................",
"  ..XXXXXXXXXX..XXXXXXXXXXXXXX..",
"  ..XXXXXXXXXX..XXXXXXXXXXXXXX..",
"  ..XXXXXXXXXX..XXXXXXXXXXXXXX..",
"  ..XXXXXXXXXX..XXXXXXXXXXXXXX..",
"  ..XXXXXXXXXX..XX..XXXX........",
"  ..XXXXXXXXXX..XX..XXXX........",
"  ..XXXXXXXXXXXXXXXXXXXXXXXXXXXX",
"  ..XXXXXXXXXXXXXXXXXXXXXXXXXXXX",
"  ..XXXXXXXXXXXXXXXXXXXXXXXXXXXX",
"  ..XXXXXXXXXXXXXXXXXXXXXXXXXXXX",
"  ..XXXXXXXXXXXXXXXXXXXXXXXXXXXX",
"  ..XXXXXXXXXXXXXXXXXXXXXXXXXXXX",
"  ..XXXXXXXXXXXXXXXXXXXXXXXXXXXX",
"  ..XXXXXXXXXXXXXXXXXXXXXXXXXXXX",
"  ..XXXXXXXXXXXXXXXXXXXXXXXXXXXX",
"  ..XXXXXXXXXXXXXXXXXXXXXXXXXXXX",
"  ..XXXXXXXXXXXXXXXXXXXXXXXXXXXX",
"  ..XXXXXXXXXXXXXXXXXXXXXXXXXXXX",
"  ..XXXXXXXXXXXXXXXXXXXXXXXXXXXX",
"  ..XXXXXXXXXXXXXXXXXXXXXXXXXXXX",
"  ..XXXXXXXXXXXXXXXXXXXXXXXXXXXX",
"  ..XXXXXXXXXXXXXXXXXXXXXXXXXXXX",
"  ..XXXXXXXXXXXXXXXXXXXXXXXXXXXX",
"  ..XXXXXXXXXXXXXXXXXXXXXXXXXXXX",
"  ..XXXXXXXXXXXXXXXXXXXXXXXXXXXX",
"  ..XXXXXXXXXXXXXXXXXXXXXXXXXXXX",
"  ..XXXXXXXXXXXXXXXXXXXXXXXXXXXX",
"  ..XXXXXXXXXXXXXXXXXXXXXXXXXXXX"
};
