/* XPM */
static char *dummy[]={
"32 32 372 2",
".a c #241317",
".# c #241318",
"Qt c #241319",
"#e c #241417",
"cG c #24141a",
"#x c #251319",
".f c #25131a",
".0 c #251418",
"cH c #25151c",
"cg c #25151d",
"b2 c #25161b",
"cN c #25181f",
"dW c #26141a",
"cm c #26141b",
".e c #26151b",
".h c #26151c",
".v c #26151d",
"cz c #26161f",
".d c #27141c",
".g c #27151b",
".b c #27151d",
"cI c #271a23",
"b5 c #271b23",
".c c #28151d",
".Z c #28161c",
"bj c #281922",
"cU c #291721",
"#r c #291c26",
"cO c #291e27",
"b4 c #2a1620",
"cl c #2a1721",
"#K c #2a1d26",
"bi c #2b1720",
"cF c #2b1721",
".5 c #2b1822",
".E c #2b1823",
"#b c #2b1b26",
".q c #2b1c26",
".W c #2b1d28",
"cP c #2b1e2a",
".D c #2c1823",
"a0 c #2c1a24",
"dB c #2c1b27",
"dk c #2c202c",
"cV c #2c222d",
"bk c #2c232e",
"aJ c #2d1822",
"d# c #2d1824",
"aH c #2d1924",
"bA c #2d1a25",
".4 c #2d1a26",
"#B c #2d1b26",
"cs c #2d1d29",
"aO c #2d242f",
"a3 c #2d2733",
"bh c #2e1924",
"cJ c #2e2632",
"#N c #2f1b26",
".C c #2f1b27",
".r c #2f1d29",
"cQ c #2f1e2c",
".I c #2f1f2a",
"dI c #2f2433",
"an c #301a26",
"#M c #301b29",
".p c #301d2a",
"aR c #302630",
"aP c #302631",
"aQ c #302733",
".R c #302834",
"b6 c #302837",
"aj c #302937",
"aN c #302b38",
"dT c #311b2a",
"c9 c #311d2c",
".Q c #312734",
"dD c #312a39",
"bC c #312b38",
"cA c #321b2b",
"#L c #321d2c",
"dJ c #321d2f",
".s c #321f2c",
"dy c #32202f",
".6 c #322533",
"cn c #322635",
"aS c #322933",
"dS c #331c2b",
".J c #331d2a",
".X c #331d2d",
".u c #331e2c",
"#s c #331e2d",
".l c #331f2d",
".m c #331f2e",
"cj c #341d2c",
".o c #341e2b",
"#7 c #341e2c",
"#d c #341e2d",
"#w c #341e2e",
".3 c #341e2f",
".j c #341f2d",
".t c #341f2e",
"#9 c #341f2f",
"ap c #342030",
"dL c #342434",
"#i c #343242",
"am c #343342",
"#j c #343645",
".n c #351e2e",
".i c #351f2d",
".k c #351f2e",
".K c #351f2f",
".B c #351f30",
".2 c #352030",
"#Q c #352031",
"#O c #352131",
"dn c #35293a",
".S c #352a33",
"bQ c #352c3b",
"da c #353142",
"dm c #361e2f",
"ch c #361e30",
".1 c #361f2f",
".w c #361f30",
".z c #361f31",
"#A c #361f32",
"dA c #361f33",
".x c #362031",
".A c #362032",
"dQ c #362134",
"#2 c #362637",
"dK c #36293a",
"dP c #362d3f",
"aq c #362f41",
".F c #363243",
"bu c #363342",
"dM c #363949",
"aK c #363f50",
"cD c #371e31",
"#c c #371f30",
"#6 c #371f31",
"#P c #371f32",
".y c #372032",
"ci c #372033",
"ck c #372034",
"bB c #372132",
".Y c #372133",
"#g c #372134",
"b3 c #372334",
"#h c #37293b",
"#1 c #373042",
"dx c #373043",
"c8 c #373143",
"cW c #373d4e",
"#v c #381f32",
"#8 c #382133",
"#u c #382235",
".P c #382337",
"#5 c #382636",
"aG c #383845",
"#3 c #383847",
"a2 c #392034",
"dU c #392135",
".N c #392136",
"d. c #392237",
"a1 c #392336",
"aI c #392337",
"cB c #392438",
"bP c #392938",
"dO c #393448",
"#4 c #393d4f",
"dN c #394154",
"b1 c #394355",
"cr c #394356",
"#y c #3a2236",
"#t c #3a2237",
".O c #3a2338",
"#f c #3a2438",
"ca c #3a3e52",
"cT c #3a4255",
"c5 c #3a4458",
"cM c #3a4558",
"#z c #3b2338",
".L c #3b2439",
"dl c #3b253a",
"cC c #3b273a",
"dR c #3b273c",
"cy c #3b4255",
"#k c #3b4456",
".H c #3b4457",
"ao c #3c263b",
"cE c #3c293c",
"dV c #3c293f",
"cf c #3c4257",
"c6 c #3c475c",
"#0 c #3c4a5e",
".M c #3d253b",
"dX c #3d2b40",
"#C c #3d495e",
"dw c #3d4960",
"cX c #3d4b60",
"a4 c #3d4c61",
"dz c #3e2a3e",
"bz c #3e3443",
"ct c #3e384b",
"aZ c #3e3c47",
"cR c #3e465c",
"dj c #3e4b61",
"ar c #3e4e64",
"c4 c #3e4f64",
"c2 c #3e566b",
"c7 c #3f4b61",
"bl c #3f4d63",
"ai c #3f4f65",
"#R c #3f566b",
"ba c #405169",
"b# c #405268",
"c3 c #40566b",
"a6 c #415167",
"a5 c #415369",
"bg c #423a47",
"dH c #42546c",
".7 c #425770",
"c# c #425a71",
"cY c #425a72",
".T c #435368",
"bD c #435369",
".G c #435c74",
"as c #435d75",
"co c #44445c",
"b7 c #44475f",
"bt c #445871",
"aT c #445b73",
"bb c #445c73",
"cv c #45425a",
"b. c #455f78",
"cu c #46435a",
"bL c #465c76",
"dr c #46637e",
"aM c #46647f",
".V c #46657f",
"#a c #466680",
"a7 c #466781",
"#q c #466882",
"a9 c #476781",
"#J c #476881",
"a8 c #476984",
"bO c #484452",
"at c #486781",
"aD c #49667f",
"dC c #496782",
"cK c #496c88",
"do c #4a6581",
"db c #4b6582",
"dE c #4b6e89",
"ak c #4b6f8b",
"c1 c #4b718e",
"cw c #4d5d7a",
"dq c #4d6f8d",
"bN c #4f505d",
"bM c #4f5768",
"cb c #4f5f7e",
"cS c #4f6f8d",
"al c #507a99",
"aC c #507d9b",
"dG c #517799",
"dv c #517897",
"cx c #527394",
"di c #527395",
"bE c #527899",
"#D c #5281a1",
"aL c #5285a6",
"ce c #537698",
"bK c #537fa0",
"cZ c #5386a7",
"b0 c #547899",
"bm c #547d9f",
"b8 c #556c8f",
"bR c #557c9e",
"#E c #558aab",
"dc c #5687a8",
"cp c #577c9f",
"bW c #578db0",
"dF c #578eb3",
"ds c #5790b3",
"cc c #586c90",
".8 c #58809b",
"bs c #5884a8",
"dp c #5889ab",
"bV c #5893b7",
"cd c #597195",
"cL c #5995b9",
"#l c #5a88a6",
"dh c #5a90b4",
"cq c #5a94b8",
".U c #5a95b9",
"bZ c #5b8db1",
"ah c #5b91b4",
"aU c #5b9abe",
"dd c #5b9cc1",
"#Z c #5c849f",
"b9 c #5c8fb4",
"bn c #5c97bc",
"du c #5c97bd",
"c. c #5c9bc1",
"c0 c #5c9dc3",
"au c #5d7589",
"bS c #5d96bc",
"bX c #5d96bd",
"br c #5d9bc2",
"df c #5da0c6",
"#F c #5e90b0",
"bY c #5e99c0",
"bF c #5e9abf",
"dg c #5e9ec6",
"de c #5ea2c8",
"bJ c #5f9dc2",
"aV c #60a2c8",
"aB c #60a3c9",
"bG c #60a3cc",
"bT c #60a4cc",
"dt c #60a5cd",
"bU c #60a5ce",
"bo c #60a7cf",
"a. c #61a1c6",
"#S c #61a4c9",
"bI c #61a6ce",
"bp c #61a7cf",
"bq c #61a8d0",
"bH c #62abd3",
"bv c #667687",
"aA c #6792ac",
"## c #67a5c9",
"bc c #6990ab",
"aE c #6a99b8",
"#p c #6aacd3",
"aW c #6ba9cc",
"ay c #6c7c8b",
"aw c #6c7c8c",
"ax c #6d7d8b",
"av c #6d7d8c",
"az c #6d7e8d",
"aF c #6f94ad",
"#T c #6fb2d8",
".9 c #708da2",
"#. c #7399b2",
"#m c #7db9d9",
"ag c #7eb3d0",
"#Y c #7fb7d7",
"#U c #7fbadb",
"by c #8097a7",
"#G c #81b4d0",
"a# c #82b9d6",
"bd c #89c0dd",
"aY c #8aa6b7",
"bf c #8daabb",
"aX c #8ec1dc",
"#o c #90c5e0",
"bw c #93b3c6",
"bx c #94b8cd",
"#V c #98c9e2",
"aa c #9bc7dd",
"#H c #9bcbe4",
"af c #9cc7dd",
"#n c #9ccbe3",
"be c #9fcbe1",
"ae c #a1cce2",
"ab c #a1cce3",
"ad c #a4cce2",
"#I c #a4cfe6",
"ac c #a5cee4",
"#W c #a7d0e7",
"#X c #a7d1e7",
"QtQt.#QtQtQtQtQt.#QtQtQt.aQtQtQt.#.#QtQt.#.#QtQt.#QtQt.#QtQt.#.#",
".b.b.b.b.c.d.b.b.b.b.c.d.b.b.b.b.e.dQt.f.b.b.g.b.b.b.b.b.d.h.f.#",
".i.i.i.j.k.l.k.i.m.i.i.k.n.o.n.i.o.p.q.r.s.i.k.t.i.i.k.k.i.u.vQt",
".k.w.x.y.x.x.y.x.z.A.x.x.x.B.C.D.E.F.G.H.I.J.y.y.x.x.y.x.K.i.bQt",
".k.x.L.M.M.M.M.M.M.M.L.N.O.P.Q.R.S.T.U.V.W.X.L.M.L.M.M.L.Y.l.Z.0",
".1.2.L.M.M.M.M.M.M.M.3.4.5.6.7.8.9#.###a#b.u.M.L.M.M.M.M#c#d.Z#e",
".1.x.M.M.M.M.M.M#f#g#h#i#j#k#l#m#n#o#p#q#r#s.M#t#u.M.M.M#v#w.b#x",
".1.K#y.M#z.M.M.M#A#B#C#D#E#F#G#H#I#o#p#J#K#L.O#M#N#u.M.M#O#d.bQt",
".k.1.1.y.K#P.1#Q.t.E#R#S#T#U#V#W#X#V#Y#Z#0#1#2#3#4#5.x.L#6#7.bQt",
".y.y.Y.x#Q#v#8.z#9#r#Ra.a#aaabacadaeafagahaiajakalaman.O.y.i.dQt",
".Mao.M.M.M.M#zapaqarasatauavawaxayavazaAaBaCaDaEaFaGaHaI.x.k.bQt",
".M.M.M.M.M.M.zaJaKaLaMaNaOaPaPaQaQaRaSaTaUaVaWaXaYaZa0a1.y.i.g.#",
".M.M.M.M.M.Ma2aJa3a4a5a6asa7a8a9a7b.b#babbbcbdbebfbgbh.O.x.k.bQt",
".M.M.M.M.M.M#zbibjbkblbmbnbobpbpbqbrbsbtbubvbwbxbybzbA.O.x.k.bQt",
".M.M.M.M.M.MbBaJbCbDbEbFbGbHbHbHbHbIbJbKbLbMbNbNbObP.A.L.y.i.b.#",
".M.M.M.M.M.MbBbibQbLbRbSbTbUbVbWbXbYbYbZb0b1b2#eaJb3.M.M.x.i.bQt",
".M.M.M.M.M.M.Nb4b5b6b7b8b9c.c#cacbcccccdcecfcgQtaJch.M.Mcicj.bQt",
".M.M.M.M.M.MckclQtcmcncocpcqcrcsctcucvcwcxcyczb4cAcB.McCcD.k.bQt",
".M.M.M.McE.McicFcGcHcIcJcKcLcMcNcOcPcQcRcScTcU#s#y.M.M.M.1.n.bQt",
".M.M.M.M.M.M.ycFcVcWcXcYcZc0c1c2c3c4c5c6c7c8c9d..M.M.M.M#v.n.bQt",
".M.M.M.M.M.M#yd#dadbdcdddedfdededgdhdidjdk.3#zdl.M.M.M.M.x#d.bQt",
".M.M.M.M.M.M.Mdmdncadodpdqdrdsdtdudvdwdxdyd..M.M.M.M.M.M.y.k.b.#",
".M.Mdz.M.M.M.M.MdAdBcadCcadDdEdFdGdHdIdJ.O.M.M.M.M.M.M.M.x.l.dQt",
".M.M.M.M.M.M.M.M#tbBdKdadndLdMdNdOdPdQdQ.M.M.MdRcC.M.M.M.x.k.cQt",
".M.M.M.M.M.M.M.M.M.M#ydSdm#zdTcF.DcA.M.M.M.M.M.M.M.M.M.M.x.j.bQt",
".M.M.M.M.M.M.M.M.M.M.Ma2.M.MdUck.M#z.M.M.M.M.M.M.M.M.M.L.x.k.b.#",
".M.M.M.M.M.M.M.M.M.M.M#z.M.M.M.M.M.M.M.M.M.MdV.M.M.M.M.M.y.i.bQt",
".M.M.M.M.M.M.M.M.M.M.M.M.M.M.M.M.M.M.M.M.M.M.M.M.M.Mdz.M.x.i.bQt",
".M.M.M.M.M.M.M.M.M.M.M.M.M.M.M.M.M.M.M.M.M.M.M.M.M.M.M#z.y.k.cQt",
".M.M.M.M.M.M.M.M.M.M.M.M.M.M.M.M.M.M.M.M.M.M.M.M.M.M.M.M.y.idW.#",
".M.M.M.M.M.M.M.M.M.M.M.M.M.M.M.M.M.M.M.MdV.M.M.M.M.M.M.M.w.i.bQt",
"dV.M.M.M.M.M.M.M.MdX.M.M.M.M.M.M.M.M.M.M.M.M.M.M.M.M.M.Ma2.i.bQt"};
