/* XPM */
static char *dummy[]={
"32 32 611 2",
"fw c #1e171b",
"fd c #211e29",
"fV c #221417",
".# c #221418",
"Qt c #221419",
"fM c #22232d",
"fJ c #222536",
"dJ c #222939",
"fA c #23131d",
".x c #231519",
"e1 c #23181d",
"fL c #232635",
"cW c #23374c",
"bh c #241318",
".r c #241319",
"au c #24131a",
"fe c #24131d",
".i c #241417",
".d c #24141b",
".t c #24141f",
"hf c #241623",
"hn c #24171e",
"gW c #241b2e",
"aV c #242739",
"e9 c #242d42",
"ex c #25121a",
"#s c #251318",
"aK c #25131a",
".w c #25131b",
".s c #25131d",
".h c #25141a",
".v c #25141b",
"bD c #25141f",
"fk c #251424",
"dp c #25151e",
"ch c #251521",
"c2 c #25161c",
"fr c #251a29",
"bX c #251a2d",
"dK c #251b22",
"fQ c #252c44",
".k c #261318",
".e c #261319",
".b c #26131b",
"ad c #26141b",
".u c #26141e",
".q c #26151a",
"gb c #26151e",
"bZ c #26151f",
"gY c #26161e",
"cg c #261930",
"fR c #26202c",
"b6 c #26293e",
"gS c #262c42",
".p c #27131b",
".c c #27131c",
"#Q c #27141a",
".o c #27141b",
".n c #27141d",
"eX c #27141e",
"eb c #27151b",
"fg c #27151c",
"hv c #27151d",
"bi c #27151f",
"cE c #271520",
".j c #27161a",
"e. c #271822",
"aW c #271926",
"ge c #27202d",
"fK c #272336",
"bc c #272e43",
".g c #281118",
".f c #28111a",
".m c #28111e",
".l c #28131c",
"#4 c #28141d",
".a c #28151a",
"av c #28151d",
".9 c #28161c",
"ev c #281621",
"ga c #281625",
"dn c #281723",
"am c #28182e",
"ck c #281923",
"fG c #281927",
"a. c #282333",
"gN c #28243c",
"cV c #283246",
"dc c #283b51",
"fB c #29141a",
"fx c #291620",
"dL c #291722",
"eR c #291723",
"fS c #291e27",
"aB c #291e2d",
"bB c #291f2f",
"fv c #29232d",
"g# c #292939",
"fT c #2a1322",
"bm c #2a1a30",
"d9 c #2a202e",
"e2 c #2a232c",
"#9 c #2a2437",
"he c #2b161f",
"eA c #2b1628",
"gr c #2b1724",
"hi c #2b1926",
"c6 c #2b1a26",
"cH c #2b1c28",
"hg c #2b202c",
"ai c #2b2234",
"aH c #2b2a36",
"e0 c #2c1323",
"c0 c #2c182c",
"fj c #2c1924",
"aG c #2c2637",
"aF c #2c273c",
"bd c #2c2f3a",
"cU c #2c3245",
"ds c #2d1a27",
"bq c #2d1f30",
"aI c #2d212e",
"bb c #2d4157",
"aX c #2e1826",
"b2 c #2e1d2c",
"bn c #2e1d2d",
"#W c #2e1e2f",
"a6 c #2e1f2c",
"gd c #2e1f31",
"aO c #2e202c",
"be c #2e2a35",
"an c #2f1a29",
"gM c #2f1c2f",
".y c #2f1f29",
"dy c #2f3a56",
"dj c #2f3e57",
"f. c #2f4d65",
"hd c #301a26",
"ao c #301c2e",
".O c #301d28",
".F c #301d2a",
"#X c #301d2e",
".N c #301e2a",
".G c #301f2a",
"fX c #30202f",
"ec c #30212d",
"a# c #302133",
"gG c #30384a",
"d8 c #303c4d",
".K c #311c2a",
".D c #311d29",
".M c #311d2a",
"bp c #311e2c",
".L c #311f2b",
"eQ c #312236",
"ee c #312437",
"bK c #312638",
"bJ c #312d41",
"dm c #313241",
".z c #321c27",
".A c #321d29",
".I c #321d2a",
"a5 c #321d2c",
"fF c #321e29",
"hj c #321f2f",
"cF c #321f31",
"dO c #32212d",
"dq c #32212e",
".U c #322132",
"gV c #323e54",
".B c #331d29",
".J c #331d2a",
"aA c #331d30",
".H c #331e29",
".E c #331e2b",
"bY c #331e2c",
"dR c #331e2e",
"ci c #331f31",
"g8 c #332737",
"bL c #332b3d",
"b3 c #332d42",
"eu c #333142",
"bI c #333148",
"g2 c #333343",
"cT c #333645",
"dd c #334358",
"#t c #341d2b",
"c3 c #341d2d",
"aw c #341e2d",
"b0 c #341e2e",
".C c #341f2b",
"aZ c #341f2e",
".5 c #341f2f",
".0 c #34202d",
".1 c #34202e",
".4 c #342030",
"#V c #342031",
"eY c #342330",
"g0 c #342336",
"bH c #34293c",
"cl c #34394a",
"di c #344254",
".Q c #351e2d",
".X c #351e2f",
".8 c #351e30",
"#. c #351f2b",
"#5 c #351f2d",
".Z c #351f2e",
".3 c #351f2f",
".Y c #351f31",
".T c #352031",
"aa c #352032",
".P c #35212d",
".2 c #35212e",
".S c #352130",
"hq c #352131",
"g9 c #352134",
"ah c #352135",
"hu c #352138",
"g5 c #35253c",
"g1 c #352e3c",
"fY c #352e3e",
"gq c #353343",
"cS c #353848",
"cP c #353950",
"aN c #361d2e",
".V c #361e30",
"gv c #361f2f",
"at c #361f30",
".7 c #361f31",
".R c #36202d",
".W c #36202e",
".6 c #362030",
"bE c #362032",
"dP c #362130",
"bC c #362131",
"fy c #362132",
"gH c #362733",
"gw c #362b3f",
"cQ c #363643",
"cR c #363847",
"cB c #363c54",
"cI c #363d4e",
"dh c #364556",
"df c #36475f",
"## c #371f2f",
"ht c #371f32",
"fh c #37202e",
"#l c #372032",
"#E c #372130",
"eS c #372131",
"gK c #372132",
"ho c #372133",
"ax c #372231",
"ap c #372232",
"#k c #372234",
"cD c #372235",
"bl c #372438",
"g6 c #37263a",
"a4 c #372838",
"cC c #37293e",
"fq c #372b3b",
"g7 c #372d3c",
"fc c #373748",
"g3 c #373c4d",
"fN c #374d61",
"gC c #375670",
"#F c #381f30",
"ae c #381f32",
"c4 c #382031",
"bj c #382032",
"#u c #382033",
"gZ c #382034",
"#Y c #382133",
"bG c #382134",
"#D c #382234",
"bf c #382337",
"bo c #382434",
"hh c #382539",
"aM c #382639",
"#8 c #38263a",
"#e c #38273b",
"az c #38283c",
"eB c #383642",
"fu c #383b52",
"cZ c #383d53",
"fZ c #383e51",
"gx c #38405b",
"dX c #384e65",
"#P c #391f33",
"a0 c #392031",
"hp c #392135",
"#r c #392234",
"c1 c #392236",
"aq c #392336",
"aY c #392337",
"a2 c #392338",
"gu c #392533",
"ey c #392539",
"#f c #39253a",
"hy c #392544",
"fE c #392633",
"al c #392f49",
"g4 c #393347",
"bM c #393f52",
"dg c #39455c",
"dI c #394862",
"gX c #3a1f32",
"cj c #3a202f",
"as c #3a2035",
"cG c #3a212f",
"gs c #3a2232",
"fW c #3a2235",
"#q c #3a2236",
"ez c #3a2237",
"#7 c #3a223a",
"ab c #3a2334",
"#j c #3a2335",
"ac c #3a2336",
"#m c #3a2337",
"ar c #3a2338",
"#x c #3a233e",
"hr c #3a2435",
"hx c #3a2541",
"hs c #3a2635",
"hl c #3a2641",
"hk c #3a273b",
"gL c #3a283b",
"dS c #3a3043",
"gT c #3a3c50",
"bA c #3a4556",
"co c #3a526b",
"#3 c #3b1f32",
"dr c #3b2031",
"#v c #3b2036",
"b1 c #3b2233",
"bF c #3b2234",
"a3 c #3b2335",
"#2 c #3b233a",
"hb c #3b233d",
"#C c #3b2436",
"#b c #3b2438",
"gI c #3b2536",
"#d c #3b2538",
"fD c #3b2539",
"ag c #3b253a",
"ha c #3b2540",
"hz c #3b2542",
"fi c #3b263e",
"e# c #3b2738",
"gc c #3b273a",
"fo c #3b3451",
"de c #3b435c",
"c5 c #3c2132",
"h. c #3c2238",
"eV c #3c223a",
"#a c #3c2336",
"#i c #3c2337",
"a1 c #3c2339",
"ff c #3c233e",
"ed c #3c2438",
"#c c #3c2439",
"hG c #3c2440",
"bg c #3c2539",
"#g c #3c253a",
"#I c #3c253c",
"hF c #3c253e",
"#Z c #3c2638",
"#y c #3c263a",
"eZ c #3c263b",
"#H c #3c263c",
"gt c #3c263e",
"fC c #3c273b",
"eU c #3c2840",
"fH c #3c3e50",
"b7 c #3c4960",
"dQ c #3d2233",
"hc c #3d2336",
"eW c #3d233a",
"#M c #3d233c",
"#n c #3d2438",
"#J c #3d243c",
"#1 c #3d243e",
"eT c #3d2538",
"#o c #3d2539",
"#z c #3d253b",
"ea c #3d253e",
"dM c #3d2638",
"fU c #3d263a",
"fz c #3d283c",
"hD c #3d2944",
"c7 c #3d3c49",
"eP c #3d4659",
"f0 c #3d4b5f",
"db c #3d5873",
"#S c #3e223a",
"#h c #3e2338",
"ew c #3e233c",
"#p c #3e2437",
"hE c #3e2439",
"#K c #3e243a",
"dN c #3e243c",
"#N c #3e243e",
"hA c #3e2539",
"#G c #3e253b",
"#0 c #3e253c",
"#T c #3e2635",
"af c #3e263c",
"#6 c #3e2840",
"#O c #3e293e",
"dt c #3e3d4c",
"gO c #3e4f6a",
"aE c #3e526d",
"dk c #3e5c74",
"#B c #3f2338",
"hC c #3f2438",
"bk c #3f2439",
"#L c #3f243a",
"gJ c #3f253a",
"do c #3f2639",
"hm c #3f263a",
"#w c #3f273c",
"#R c #3f293e",
"gF c #3f5f76",
"aJ c #401f31",
"hw c #40243a",
"aj c #404456",
"g. c #404a60",
"ay c #412238",
"hB c #412435",
"h# c #412437",
"aL c #41243a",
"#A c #412539",
"#U c #41253a",
"fl c #413e5a",
"f1 c #41546f",
"fp c #423249",
"gf c #42445a",
"aU c #42576b",
"cA c #425a73",
"e3 c #444966",
"dz c #444c6c",
"bW c #44536e",
"cf c #445575",
"gD c #446c85",
"fn c #45576f",
"f2 c #45647d",
"f4 c #456b86",
"cp c #476f8a",
"f9 c #485976",
"cX c #48677a",
"eJ c #486b81",
"f3 c #486d88",
"e8 c #494863",
"f8 c #496c8c",
"d7 c #4a5f7f",
"fb c #4b5c77",
"fP c #4b6f8d",
"dl c #4d687a",
"et c #4d687b",
"aC c #4d697b",
"gR c #4e647f",
"eO c #4e6482",
"gy c #4f7392",
"b5 c #505d77",
"cO c #506589",
"aS c #507289",
"gP c #507391",
"by c #507d97",
"eK c #507e97",
"gU c #515c72",
"dY c #516787",
"aT c #517188",
"f5 c #5180a3",
"e6 c #525b7d",
"da c #52739a",
"ft c #537695",
"cz c #537c99",
"ei c #537e97",
"ak c #545e6f",
"dH c #546a8b",
"bz c #54788c",
"gp c #556275",
"cy c #557e99",
"ef c #565567",
"e5 c #566b92",
"gB c #5688a9",
"e7 c #575a7a",
"dA c #57728d",
"eI c #577e9f",
"ba c #5781a0",
"bx c #5786a7",
"f7 c #578db2",
"fI c #586679",
"eF c #597ea5",
"cx c #59809c",
"fa c #5989ad",
"eE c #5a7f9f",
"gQ c #5b85a4",
"dG c #5b86a1",
"dB c #5b8aa5",
"dD c #5b97bc",
"b4 c #5c687e",
"gg c #5c7288",
"eN c #5c82a5",
"eG c #5c84aa",
"dE c #5c93b8",
"fm c #5d6b8b",
"e4 c #5d7397",
"cY c #5d798d",
"b8 c #5d8299",
"eH c #5d85ab",
"es c #5d88a3",
"ej c #5d91ad",
"d5 c #5da3c6",
"d4 c #5daed2",
"aP c #5e7184",
"f# c #5e94b7",
"gz c #5e94b9",
"eD c #5f7d95",
"dF c #5f97b0",
"gE c #60839e",
"eM c #609ac0",
"gl c #609bbb",
"eC c #61687a",
"aR c #618eac",
"dZ c #618fae",
"dC c #6193b7",
"gm c #619bba",
"d0 c #61a2cb",
"d1 c #61acdb",
"d3 c #61add6",
"dx c #6284a0",
"fs c #6292af",
"cM c #629cb9",
"gA c #62a7cb",
"go c #63849f",
"d6 c #638cb0",
"bw c #6399be",
"eL c #63a1c5",
"eq c #63a7ce",
"ep c #63abd4",
"cd c #63accd",
"cN c #64a1c0",
"ek c #64a1c4",
"f6 c #64a1c8",
"gk c #64a2c2",
"el c #64a6cf",
"bU c #64aad2",
"d2 c #64adda",
"gj c #65a6c7",
"em c #65a8d0",
"cn c #668ba4",
"eo c #66a3c8",
"dT c #676f81",
"cL c #6796af",
"ce c #679dc0",
"en c #68a4c6",
"gh c #698eac",
"bV c #699abd",
"gn c #699dc0",
"d# c #699eba",
"gi c #69a3c6",
"b# c #69abc6",
"fO c #6a91b0",
"er c #6a9dc2",
"cq c #6aa2bf",
"bT c #6aabd1",
"cc c #6bafce",
"b. c #6cadc7",
"aD c #6d94a9",
"bS c #6dafd2",
"bv c #6dafd3",
"a7 c #6f7b8f",
"br c #717c8e",
"bN c #728aa2",
"cm c #738da4",
"cw c #7492a3",
"cr c #74a5bc",
"dW c #7692a7",
"bR c #7bbad9",
"ct c #809ba8",
"cv c #819ba9",
"a9 c #81bfd8",
"cs c #829aab",
"cJ c #82a3b7",
"eh c #82a4b7",
"cu c #839cab",
"aQ c #83b4cd",
"d. c #83b8d0",
"dU c #859db0",
"b9 c #85b0c4",
"cK c #85b6d2",
"bu c #85c0df",
"cb c #87bfd7",
"du c #8ca1b4",
"c8 c #8fa7b8",
"bt c #97cce5",
"eg c #98b0c2",
"ca c #98cbe2",
"dw c #9ac9df",
"c9 c #9bc7df",
"bQ c #9bc9e5",
"a8 c #a0c9e4",
"dv c #a3cee2",
"c. c #a3d0e1",
"c# c #a4d2e3",
"bs c #a5cce6",
"dV c #a6c6da",
"bO c #a6cee5",
"bP c #a8d2e8",
"Qt.#.a.b.c.c.d.e.f.g.h.i.j.k.l.m.n.l.c.l.o.b.p.q.r.c.c.s.t.u.v.s",
".w.x.y.z.A.B.C.D.E.F.G.y.H.H.I.J.J.H.B.K.B.D.H.H.L.M.E.E.N.M.D.O",
".w.q.P.P.Q.Q.R.S.T.U.T.V.W.X.Y.Y.Z.0.1.2.1.3.4.5.P.6.7.7.8.8.6.W",
".i.9#.###a#b#c#d#e#f#g#h#i#j#k#l#b#m#c#n#o#d#i#c#p#b#i#c#c#q#r.8",
"#s.p#t#u#c#v#w#x#y#z#A#B#C#D#E#F#b#z#G#z#z#H#I#J#K#L#M#N#O#H#P#P",
".e#Q.R#l#K#R#H#S#z#T#U#L#V#W#X#Y#d#Z#G#z#z#0#J#1#z#z#1#2#d#3.7.7",
".r#4#5#Y#z#1#6#7#d#K#K#8#9a.a#aaab#d#z#K#z#z#I#I#z#z#z#z#zac.7.8",
".rad#.ae#c#S#dafag#zahaiajakalamanaoapaq#L#z#z#Iaras#m#m#D#rat#5",
"auavawax#z#I#Kay#LazaAaBaCaDaEaFaGaHaI.QaJ#T#f#x.7.7.7.7.7.7.V.8",
".waKaw#l#2#I#LaL#KaMaNaOaPaQaRaSaTaUaVaWaX.4#zaf#qaYab#r#j#D#D#j",
"aK.laZa0a1a1#za2a3a4a5a6a7a8a9b.b#babbbcbdbebf#B#z#z#obg#z#zbg#z",
"bhbiawbjbk#zblbmbnbobpbqbrbsbtbubvbwbxbybzbAbBbCbg#z#z#z#z#G#z#K",
"bhbD.5bEbFbGbHbIbJbKbLbMbNbObPbQbRbSbTbUbVbWbXbY#z#z#z#z#z#K#z#z",
"bhbZb0bjb1b2b3b4b5b6b7b8b9c.c#bOcacbcccdcecfcg.Z#G#K#z#z#z#z#z#z",
"bhchci#lcjckclcmcncocpcqcrcsctcucvcwcxcyczcAcBcCcD#m#z#z#K#z#z#z",
"bhcEcFbEcGcHcIcJcKcLcMcNcOcPcQcRcScTcUcVcWcXcYcZc0c1#Gbg#zbg#z#K",
".ic2c3c4c5c6c7c8c9d.d#dadbdcdddedfdgdhdidjdkdldmdnapdo#z#z#J#z#z",
".idpdq#ldrdsdtdudvdwdxdydzdAdBdCdDdEdFdGdHdIdJdKdLaxdM#KdN#I#z#z",
".ic2dOdPdQdRdSdTdUdVdWdXdYdZd0d1d2d3d4d5d6d7d8d9e.axe##z#Jea#z#z",
".iebecdPac#medeeefegeheiejekelemeneoepeqereseteuevax#o#zew#z#z#o",
"exbZdO.2ey#KezeAeBeCeDeEeFeGeHeIeJeKeLeMeNeOePeQeReSeT#zeweUeVeW",
".weXdOeYeZ#IbGe0e1e2e3e4e5e6e7e8e9f.f#fafbfcfdfedLeSdM#zafff#z#z",
".bfg.Cfh#zfi#C.Rfjfkflfmfnfofpfqfrdffsftfufvfw.rfxfy#L#zfz#0#z#K",
"fAfB#.###IfCfDfEfFfGfHfIddfJfKfLfMfNfOfPfQfRfSfTeRaxfUeVew#I#zbg",
"fVeX.C#r#z#z#z#cfWfXfYfZf0f1f2f3f4f5f6f7f8f9g.g#gac4#o#z#z#G#z#z",
".igb.C#l#c#z#zgcfD#8gdgegfggghgigjgkglgmgngogpgqgrgs#z#z#z#z#z#z",
"bheX.PbE#z#z#z#zgt#fgugvgwgxgygzgAgBgCgDgEgFgGgH#lgIgJbg#vfz#I#z",
"fVc2.CgK#c#z#z#ygLfD#A#igMgNgOgPgQgRgSgTgUgVgWgX#zbg#z#z#H#K#z#z",
".igY.E#Y#z#z#z#zbk#K#o#zgZg0g1g2g3g4g5g6g7g8g9h.#K#z#o#zafeTffaf",
".ieX.C#Y#za1#zeZh##KfChahbhchdhehfhghhdRhihjhkhl#I#z#zbgeV#Hhm#x",
".ihn.Cho#z#z#zbg#G#zeZ#zaf#ShpeShq#lhrhshthueZ#c#I#J#z#KafeV#xaf",
".ihv.E#Y#c#z#zeZeZeZbghw#ShmhxhyhzhAhBhChDhzhEhBdNhF#z#z#z#H#ShG"};
