/* XPM */
static char *dummy[]={
"32 32 593 2",
"bk c #1e212d",
"aX c #1f1724",
"fp c #1f2535",
"fa c #201319",
".p c #20131b",
"#V c #201d32",
"#0 c #211824",
"eT c #211a25",
"fu c #212130",
".o c #221317",
".i c #221318",
".# c #221319",
".d c #22131a",
"eU c #22141c",
"eY c #221420",
"bj c #231c29",
"#Z c #231d2a",
"fq c #232e3f",
"bd c #24121d",
"eE c #241520",
"#a c #241824",
"eh c #241a24",
"eN c #243347",
".f c #251216",
".g c #251218",
".j c #251316",
".c c #251317",
".n c #251318",
".e c #251319",
"Qt c #25131a",
"dq c #251926",
"#1 c #251c2a",
"bw c #252233",
"gz c #25283b",
"c5 c #252b3b",
"fm c #252c40",
"fb c #261216",
"hc c #261318",
".a c #261319",
"#N c #26131a",
".A c #26151c",
".F c #26151e",
".v c #26151f",
".G c #26161e",
".w c #26161f",
".x c #261620",
"fw c #261924",
"aG c #261d31",
"fo c #262539",
"cW c #262a3e",
".k c #271216",
"#8 c #271219",
"fT c #271319",
".H c #27131a",
"bX c #27131b",
".Z c #27131c",
".l c #271418",
".m c #27141a",
".q c #27141b",
".B c #27151e",
".D c #27171e",
"aw c #271827",
"e6 c #271f2d",
"fn c #272336",
"du c #281119",
".b c #281216",
"#o c #28121b",
".h c #28131b",
".z c #28151c",
".r c #28151d",
".u c #28161e",
".C c #28161f",
"gt c #281a2d",
"fR c #281e2f",
"fv c #28212f",
"c1 c #282e41",
"gL c #283041",
"cH c #283241",
"c0 c #283243",
"cZ c #283445",
"cK c #291119",
".E c #29151a",
".s c #29151c",
".t c #29161f",
"gD c #291b2c",
"bi c #291f2f",
"gK c #29283b",
"cY c #293649",
".y c #2a151d",
"ey c #2a1826",
"ed c #2a1927",
"eD c #2a1b2a",
"f# c #2a1c28",
"fX c #2a1c2f",
"ex c #2a1e2c",
"dp c #2a3042",
"dQ c #2b1622",
"dr c #2b1626",
"c6 c #2b1828",
"fi c #2b1829",
"dR c #2b1924",
"fc c #2b1927",
"cI c #2b1929",
"ch c #2b3040",
"gM c #2b3140",
"cV c #2b394e",
"eV c #2c1925",
"aW c #2c1926",
"fS c #2c1928",
"ci c #2c1a29",
"gN c #2c2a3e",
"cX c #2c3345",
"c2 c #2c3e58",
"gY c #2d1a26",
"fx c #2d1b26",
"g1 c #2d1b2b",
"b2 c #2d2a3d",
"gC c #2d2b3b",
"eS c #2d2e3e",
"fj c #2d2e40",
"eZ c #2d3343",
"d. c #2e1a28",
"#b c #2e1c29",
"ec c #2e2333",
"dP c #2e2a37",
"gn c #2e2e3d",
"af c #2e425d",
"eX c #2f1a27",
".0 c #2f1b28",
"eF c #2f1e2b",
"gO c #2f2537",
"gQ c #2f2836",
"am c #2f313f",
"gd c #2f3346",
"bv c #2f4258",
".I c #301c27",
"bA c #301d28",
".O c #302030",
".S c #30212e",
".T c #30212f",
"gJ c #302236",
"g. c #302636",
"do c #30445c",
"## c #311c2c",
"bY c #311d29",
"gR c #312435",
"e5 c #312436",
"cp c #312939",
"#B c #312d3c",
"ae c #313040",
"aO c #321d2a",
"#9 c #321d2b",
"co c #321d2f",
"#p c #321e2a",
"c8 c #321f2a",
"eA c #32212d",
"#2 c #322131",
"dv c #322132",
"g2 c #322333",
"gP c #322438",
"ei c #322935",
"cL c #331d2a",
"ff c #331e29",
"au c #331e2a",
"gF c #331e2b",
"cm c #331e2c",
".K c #331f2b",
".Y c #331f2c",
"bU c #332936",
"#z c #33293d",
"a8 c #332b39",
"cO c #332d3b",
"#A c #333041",
"gu c #333a51",
"dx c #341a29",
"a9 c #341d30",
".X c #341e2d",
"bc c #341e2e",
"b# c #341e30",
".N c #341f2d",
"#7 c #341f2e",
".V c #341f2f",
"#n c #341f30",
".Q c #34202d",
".P c #34202e",
".U c #34202f",
"a. c #342030",
"#i c #342033",
"cM c #342133",
"#y c #342236",
"c9 c #342433",
"gS c #342636",
"fE c #34374a",
"aY c #34495d",
"de c #344960",
"gm c #344b62",
".M c #351d2d",
"bx c #351d2f",
"#O c #351e2a",
".L c #351e2d",
"#q c #351e2f",
"aV c #351e31",
".W c #351f2d",
"eB c #351f2e",
"hl c #351f30",
"bV c #352030",
"bD c #352031",
".J c #35212d",
"#j c #35212e",
"g4 c #352130",
"ad c #352131",
".6 c #352134",
"aU c #352435",
"fD c #352437",
"gc c #35273a",
"gj c #354f65",
"ft c #35566d",
"g0 c #361b2d",
"#M c #361e2d",
"ba c #361f2f",
"#m c #361f31",
"#e c #361f32",
"fW c #361f35",
".R c #36202d",
"ef c #36202e",
"#C c #36202f",
"#P c #362030",
"fA c #362031",
"bb c #362032",
"#E c #362130",
"go c #362230",
"eC c #362235",
"aM c #362334",
"eg c #362535",
"dW c #362634",
"d# c #362c3b",
"bE c #362c3e",
"fY c #363347",
"gy c #36455a",
"dO c #364b5e",
".1 c #371f2f",
"#c c #371f30",
".4 c #371f31",
".5 c #371f32",
"aN c #37202d",
"by c #372031",
".3 c #372032",
"#d c #372033",
"#D c #37212f",
"#U c #372130",
".2 c #372131",
"#k c #372133",
".7 c #372232",
"fy c #372233",
"gb c #372336",
"cN c #372436",
"#4 c #37263b",
"dX c #37303c",
"f. c #373140",
"be c #381e2e",
"#f c #381e30",
"#. c #381f2f",
".8 c #381f31",
"aP c #38202d",
"bz c #382031",
"#l c #382134",
"ez c #382234",
"eW c #382335",
"g# c #382336",
"c7 c #382435",
"gI c #382437",
"dy c #382737",
"al c #384253",
"aF c #384556",
"bl c #385064",
"dE c #38536d",
"#g c #391e31",
"#h c #392031",
"fd c #392033",
"aH c #392135",
"cj c #392136",
"ee c #392235",
"dw c #392237",
"cn c #392335",
"aL c #392439",
"dV c #392537",
"gr c #39253a",
"aK c #392636",
"b3 c #394456",
"gX c #3a2031",
"dS c #3a2132",
"ds c #3a2135",
"#x c #3a2231",
"aQ c #3a2237",
"#F c #3a2335",
"b1 c #3a2337",
"aJ c #3a2436",
"ga c #3a2437",
"dU c #3a2538",
"#5 c #3a253a",
"#L c #3a2639",
"gG c #3a263b",
"hk c #3a263e",
"hj c #3a283b",
"eG c #3a3d4f",
"eM c #3a4258",
"fF c #3a4658",
"dd c #3a556b",
"fC c #3b1e33",
".9 c #3b2130",
"bZ c #3b2237",
"g9 c #3b2335",
"#r c #3b2438",
"bW c #3b2538",
"gp c #3b2539",
"fg c #3b2638",
"#J c #3b2639",
"a# c #3b2739",
"#W c #3b465e",
"aT c #3c2138",
"bf c #3c2236",
"gE c #3c2334",
"dT c #3c2337",
"#K c #3c2339",
"hm c #3c2436",
"at c #3c2437",
"#s c #3c2439",
"aq c #3c2539",
"g3 c #3c2638",
"gq c #3c263b",
"gs c #3c263c",
"hi c #3c263e",
"ap c #3c273b",
"#I c #3c273c",
"fe c #3c283b",
"b0 c #3c283c",
"fz c #3c293b",
"bT c #3c5369",
"b. c #3d1f36",
"bC c #3d1f39",
"ac c #3d2038",
"an c #3d2039",
"g7 c #3d2233",
"gV c #3d223a",
"fh c #3d223b",
"#S c #3d233a",
"#6 c #3d233c",
"av c #3d233f",
"hh c #3d2439",
"cl c #3d2539",
"ck c #3d253a",
"#t c #3d253b",
"#Q c #3d253c",
"ar c #3d253e",
"aa c #3d253f",
"hf c #3d2541",
"ha c #3d2639",
"as c #3d263a",
"bh c #3d263c",
"cJ c #3d263d",
"dt c #3d273a",
"ew c #3d4251",
"ax c #3d4354",
"e2 c #3d445b",
"ak c #3d475a",
"a7 c #3d485a",
"bB c #3e2039",
"g6 c #3e2136",
"bg c #3e233b",
"fB c #3e2438",
"gU c #3e2439",
"#u c #3e243a",
"g5 c #3e243c",
"hd c #3e2537",
"he c #3e2538",
"gH c #3e253a",
"aR c #3e253d",
"ab c #3e273d",
"aS c #3e2841",
"dD c #3e566b",
"#w c #3f2234",
"g8 c #3f2334",
"h# c #3f2335",
"hg c #3f2336",
"gZ c #3f2339",
"#v c #3f2438",
"hb c #3f2439",
"ao c #3f243a",
"#R c #3f243c",
"gT c #3f2538",
"fU c #3f253a",
"e3 c #3f334e",
"fQ c #3f3f54",
"#Y c #3f4d62",
"cE c #3f6180",
"hn c #402239",
"aI c #402438",
"fV c #402439",
"#H c #40243a",
"ho c #40283d",
"gW c #40293e",
"cD c #404f61",
"ge c #405b76",
"#T c #412436",
"#G c #412437",
"h. c #412439",
"#3 c #41243a",
"e4 c #42334b",
"bF c #435165",
"fG c #435264",
"e9 c #435e78",
"dn c #445c76",
"gA c #454a5b",
"fl c #45586c",
"gi c #456b86",
"eR c #465569",
"fr c #46738d",
"aj c #475668",
"fH c #475b70",
"bH c #47677d",
"fJ c #486f89",
"fK c #48738e",
"fP c #495870",
"df c #495e77",
"cw c #49657d",
"er c #497494",
"eb c #4a5060",
"ag c #4a718f",
"eO c #4a758f",
"bS c #4a7597",
"bG c #4b627b",
"cU c #4b6783",
"a6 c #4b6f8b",
"gB c #4c5263",
"cB c #4c5867",
"cA c #4c5a68",
"cz c #4c5a6b",
"gv c #4c5f7a",
"cx c #4d5668",
"cC c #4d5762",
"e1 c #4d6380",
"ev c #4d657a",
"fI c #4d6883",
"f9 c #4e5166",
"cy c #4e5666",
"e7 c #4e6c84",
"dm c #4f6d87",
"dY c #50515d",
"fk c #506275",
"c4 c #50697c",
"d2 c #507fa2",
"eJ c #516480",
"eq c #517b9d",
"fZ c #525f75",
"eL c #535b73",
"fO c #536683",
"gk c #53708c",
"dN c #53799b",
"e0 c #54637c",
"c3 c #54718a",
"eQ c #547b9d",
"eK c #555e79",
"dg c #556d8c",
"eH c #566b84",
"gw c #56718e",
"fN c #5680a2",
"eu c #5681a3",
"dk c #56839f",
"gl c #587796",
"di c #58819d",
"b4 c #5885a5",
"gf c #5885a6",
"es c #5893b5",
"eI c #59728f",
"gx c #59778d",
"ai c #597c99",
"dF c #597ea1",
"dj c #5984a2",
"fL c #5995b3",
"f8 c #5a7695",
"dl c #5a7e98",
"ep c #5a89aa",
"fs c #5a96b6",
"cg c #5b7c95",
"ea c #5c778f",
"dh c #5c7d9a",
"bI c #5c849d",
"cv c #5c8bad",
"cG c #5d7d9a",
"d1 c #5d82a2",
"cq c #5e6878",
"ay c #5e82a0",
"em c #5e82a3",
"bu c #5e849f",
"et c #5e99c3",
"en c #5f89aa",
"dM c #5f95bb",
"eo c #608aab",
"e8 c #6095b3",
"f4 c #6099bc",
"dL c #60a7ce",
"cF c #618fb1",
"f5 c #6194b3",
"d3 c #619cc1",
"bR c #619cc5",
"a5 c #61a0bf",
"fM c #61a0c3",
"d8 c #61aace",
"eP c #629ac1",
"d7 c #62a8ce",
"dK c #62abd1",
"ej c #636675",
"#X c #63768c",
"aZ c #6394b7",
"cT c #6395b2",
"e# c #6396bc",
"dG c #639ac1",
"cs c #63a4c8",
"ct c #63aace",
"aE c #64839b",
"ce c #649ac2",
"e. c #64a2cd",
"d4 c #64a5cb",
"dI c #64abd3",
"el c #657e9c",
"f0 c #658099",
"bt c #65a3c9",
"d9 c #65aace",
"bs c #65abcc",
"gg c #669cc6",
"az c #669dc1",
"d6 c #66aad1",
"dJ c #66aad3",
"f2 c #67a2ca",
"b6 c #67a5c5",
"dz c #686f81",
"gh c #689ec5",
"cf c #68a0c6",
"f3 c #68a7cc",
"dH c #68a8d1",
"cu c #68a9cf",
"d5 c #68aad3",
"bm c #6998b8",
"f6 c #6999bb",
"f7 c #6b93b3",
"f1 c #6b9bba",
"b5 c #6ba5c6",
"cS c #6ca3c6",
"aA c #6da7ce",
"a0 c #70afd5",
"ek c #718193",
"ah c #719cbc",
"bQ c #73b1d6",
"cd c #74a2c3",
"cr c #7592a5",
"b7 c #76accd",
"dc c #7da0b6",
"aB c #7db1d2",
"br c #7dbcdb",
"bP c #7ebadc",
"a1 c #7fbbdc",
"cP c #8093a1",
"aD c #80a1bd",
"da c #8294a5",
"bJ c #82aeca",
"bn c #82bad9",
"cR c #82bcdb",
"a4 c #82bdda",
"dC c #87a4ba",
"dA c #89a5b9",
"aC c #8db3cd",
"dZ c #90a7b9",
"cc c #90b6ce",
"b8 c #90b9d3",
"bO c #90c6e1",
"d0 c #91afc5",
"a2 c #92c5e0",
"b9 c #99b9cf",
"bK c #99c7df",
"cb c #9abccc",
"c. c #9cbaca",
"c# c #9cbdcd",
"bo c #9dcfe6",
"ca c #9ebac9",
"cQ c #9fc7dc",
"bq c #a0cee4",
"a3 c #a2cbe1",
"dB c #a3c4d6",
"bN c #a3d1e5",
"bL c #a4d0e3",
"bp c #a5d1e7",
"bM c #a7d1e2",
"db c #adcfe4",
"Qt.#.#.#QtQtQt.a.b.cQt.d.e.f.g.h.i.j.k.lQt.d.e.j.m.e.n.n.d.o.o.#",
".p.q.r.s.s.r.t.t.u.v.w.x.y.z.r.z.A.B.t.C.B.C.D.E.r.w.F.F.u.u.G.C",
".H.I.J.K.J.L.M.N.O.P.Q.R.L.K.J.S.T.U.V.V.W.W.K.X.J.Q.Y.N.Q.Q.J.J",
".Z.0.R.1.2.3.4.5.6.7.8.9#.###a#b.1#c#d#e#f#g#h#i#j#k#d#d#l#m#n.K",
"#o#p#q#r#s#t#u#u#t#v#w#x#y#z#A#B#C#D#E#F#G#H#u#I#J#K#t#t#s#L.4#M",
"#N#O#P#s#t#Q#R#S#S#T#T#U#V#W#X#Y#Z#0#1#2#u#3#Q#4#5#t#6#Q#Q#s#l#7",
"#8#9a.a##Qaaab#6#Qacadaeafagahaiajakalam.6anaoapaq#s#tarasat#c.Q",
"#Nau#7ap#Qaa#Qarav#lawaxayazaAaBaCaDaEaFaGaHaI#raJaKaLaqaqaMaN.J",
".ZaOaPaQaRaSaTaUaVaWaXaYaZa0a1a2a3a4a5a6a7a8a9b.b#babb#eaVaVbc.N",
"bd.0bebfaRbgbh.6bibjbkblbmbnbobpbqbrbsbtbubvbw#lbxbb#d#d#d#ebybz",
"QtbA#EbfbBbCbDbEbFbGbHbIbJbKbLbMbNbObPbQbRbSbTbUbV#r#s#t#t#saqbW",
"bXbYbVbZb0b1b2b3b4b5b6b7b8b9c.c#cacbcccdcecfcgchcicj#t#t#t#tckcl",
"bXcm#2cncocpcqcrcsctcucvcwcxcyczcAcBcCcDcEcFcGcHcIcj#tcJ#Q#Q#t#t",
"cKcLcMcNaWcOcPcQcRcScTcUcVcWcXcYcZc0cHc1c2c3c4c5c6c7#t#uab#Q#t#t",
"cKc8c9#Fd.d#dadbcQdcdddedfdgdhdidjdkdldmdndodpdqdrdsdtck#t#t#t#S",
"du#pdvdwdxdydzdAdBdCdDdEdFdGdHdIdJdKdLdMdNdOdPdQdRdSdT#u#t#t#u#t",
".ac8#PdUdVdWdXdYdZd0d1d2d3d4d5d6d7d8d9e.e#eaebecedee#Jck#t#t#t#u",
"Qt#pefdU#Jegeheiejekelemeneoepeqerese.eteuevewexeyezapck#t#t#t#t",
"QteAeB#s#teCeDeEeFeGeHeIeJeKeLeMeNeOePeQeReSeTeUeVeW#J#u#t#t#t#t",
".nbA#m#r#taq#eeXeYeZe0e1e2e3e4e5e6e7e8e9f.f#fafbfcfdfeck#u#t#t#u",
"Qtff.Jfgfh#u#u#hfifjfkflfmfnfofpfqfrfsftfufvfw.Zfxfyfzck#t#t#u#t",
".oeAfAaqab#taofBfCfDfEfFfGfHfIfJfKfLfMfNfOfPfQfRfSfyap#u#t#t#t#t",
"fT#p#E#L#Q#QckfUfVfWfXfYfZf0f1f2f3f4f5f6f7f8f9g.d.g#fe#u#u#t#t#u",
".a#p.Uaq#QaR#taq#Jgagbgcgdgegfggghgigjgkglgmgngo.7gpgq#u#t#t#t#t",
".a.K#j#s#Q#Q#Q#tgrgsaq#egtgugvgwgxgygzgAgBgCgDgEckcl#t#t#t#t#t#t",
".cgF#E#J#Q#Qar#tb0gGgH#sgIgJgKgLgMgNgOgPgQgRgSgT#u#t#t#u#u#t#tgU",
".cgF.JdTar#Q#Q#tfe#tgVgWgUgXcigYeD#igZg0g1g2g3#T#u#u#t#t#t#t#t#t",
".a#pg4aq#Q#Q#Q#tbW#t#tg5abg6g7g8g9h.#Th#g9hahbhb#t#t#t#t#t#t#u#t",
"hcc8.P#sabar#Q#thdhegqarhf#Q#u#tgqap#S#t#t#t#u#H#t#u#S#t#u#t#t#u",
"hcau#Cgp#Q#6#t#thghhckaraahfarhihjaphk#tar#t#tar#t#t#tgU#t#t#S#t",
".a.K#E#rar#Qar#t#tgq#t#u#t#Q#sgsargVfz#5#t#u#tap#t#u#t#t#t#t#t#t",
".jgFhl#sg5#Q#Q#tgsgqgq#vaIhm#taohnho#u#t#HfVaq#s#t#t#t#t#u#t#t#u"};
