/* XPM */
static char *rightmost_wall1710261609[] = {
/* columns rows colors chars-per-pixel */
"32 32 5 1 ",
"  c #4C2F49",
". c #25131A",
"X c #78514F",
"o c #6E4A48",
"O c white",
/* pixels */
"            ....................",
"            ....................",
"  XXXXXXooXX  ..................",
"  XXXXXXooXX  ..................",
"  XXoooooooo  ..................",
"  XXoooooooo  ..................",
"  XXoooooooo  ..................",
"  XXoooooooo  ..................",
"  XXoooooooo  ..................",
"  XXoooooooo  ..................",
"  XXoooooooo  ..................",
"  XXoooooooo  ..................",
"  XXoooooooo  ..................",
"  XXoooooooo  ..................",
"  XXXXXXooXX  ..................",
"  XXXXXXooXX  ..................",
"..          ....................",
"..          ....................",
"  XXXXXXooXX  ..................",
"  XXXXXXooXX  ..................",
"  XXoooooooo  ..................",
"  XXoooooooo  ..................",
"  XXoooooooo  ..................",
"  XXoooooooo  ..................",
"  XXoooooooo  ..................",
"  XXoooooooo  ..................",
"  XXoooooooo  ..................",
"  XXoooooooo  ..................",
"  XXXXXXooXX  ..................",
"  XXXXXXooXX  ..................",
"..          ....................",
"..          ...................."
};
