/* XPM */
static char *result[] = {
/* columns rows colors chars-per-pixel */
"128 128 85 1 ",
"  c #1D0B13",
". c #210F16",
"X c #211017",
"o c #25131A",
"O c #28151E",
"+ c #2F1C1F",
"@ c #2B1723",
"# c #2C1924",
"$ c #2F1B28",
"% c #301E20",
"& c #321D2C",
"* c #351F31",
"= c #342124",
"- c #382627",
"; c #36222B",
": c #38242C",
"> c #362030",
", c #3A2336",
"< c #3D2830",
"1 c #3D253B",
"2 c #402D2B",
"3 c #44312F",
"4 c #432F32",
"5 c #453230",
"6 c #4A3632",
"7 c #4D3933",
"8 c #4B373A",
"9 c #543F39",
"0 c #55423D",
"q c #59443B",
"w c #574540",
"e c #584540",
"r c #5A4842",
"t c #624C41",
"y c #604D49",
"u c #665142",
"i c #6A5444",
"p c #6E5846",
"a c #645149",
"s c #6D5748",
"d c #6F5949",
"f c #725D4C",
"g c #725E52",
"h c #77604D",
"j c #79624D",
"k c #746055",
"l c #7D6753",
"z c #7A6759",
"x c #7E6B5D",
"c c #846D54",
"v c #816E5D",
"b c #897157",
"n c #86705B",
"m c #8B745A",
"M c #8F785D",
"N c #937B5E",
"B c #836F60",
"V c #847161",
"C c #8A7661",
"Z c #8C7866",
"A c #8E7B69",
"S c #957E62",
"D c #987F61",
"F c #927E6A",
"G c #978066",
"H c #9A8262",
"J c #97826C",
"K c #9C866B",
"L c #9E886F",
"P c #9B8670",
"I c #9E8A74",
"U c #A28B6E",
"Y c #A18C76",
"T c #A38E78",
"R c #A69075",
"E c #A99377",
"W c #A6927A",
"Q c #AA957A",
"! c #AD997E",
"~ c #AE9A81",
"^ c #B19D83",
"/ c #B6A287",
"( c #B7A388",
") c #BAA68A",
"_ c #BDA98D",
/* pixels */
"ooooXoo#$&***:*******:*>*:*>>&>>>>>>:*>>,111111*,**>**:,1111111111111,1111111111111111111111111111111111111111111111111111111111",
"ooooooOO%&*****:2***>>*>**>>>>>>*>>*>**,,11111111**::*>,*11111111111111111111111111111111111111111111111111111111111111111111111",
"ooooooO#&&>>*>*>*****>>>>*:>>>>>>>>*>>:,,111111,,****:>,111111111111111111111111111111111111111111111111111111111111111111111111",
"ooooooOO&*>>*>>>::***:*>>>****:>>*>*&>,,,11111,,*,**&**,*11111111111111111111111111111111111111111111111111111111111111111111111",
"oooooooO&&&*>>>>**>>>>*>&>>>>>&>**::****,111111,,>***>>,111111111111111111111111111111111111111111111111111111111111111111111111",
"oooXooO#&&;*>>>>:***>*>>>>>>>>>>******,,,111111,>>*:>>,:*11111111111111111111111111111111111111111111111111111111111111111111111",
"ooooooOO&&>>>>>>,*:*:*>>>>:>>>>>*::*:,,,,111111,,,>>**,,11111111111111111111111111111111111111111111111111111111111111111111111*",
"ooooooO#&&*>>>>>*,,,,,,,,,,,,,,,,,,,*,*,1111111,,,,,>,,,111111111111111111111111111111111111111111111111111111111111111111111111",
"oXooooo#$;;*>>>,,,,,,,,,,,,,,,,,*1*1*1*111111111,,,,,11*111111111111111111111111111111111111111111111111111111111111111111111111",
"ooooooo#$;>*>>>>,1,11111111111111111111111111111,1111111111111111111111111111111111111111111111111111111111111111111111111111111",
"ooooooO#$&>>>>>,,111111111111111111111111111111111111111111111111111111111111111111111111111111111111111111111111111111111111111",
"oooooooO$&>*>>>>,,11111111111111111111111111111111111111111111111111111111111111111111111111111111111111111111111111111111111111",
"oooXooO+$&>*>>>,,,11111111111111111111111111111111111111111111111111111111111111111111111111111111111111111111111111111111111111",
"ooooooOO&&>>>>>,1111111111111111111111111111111111111114111111111111111111111111111111111111111111111111111111111111111111111111",
"oooXooo+$&>>**>,,,1111111111111111111111111111111111111,11111111,111111111111111111111111111111111111111111111111111111111111111",
"ooooooo+&&>;;*>,,11111111111111111111111111111111111111,**&&&&&*,,11111111111111111111111111111111111111111111111111111111111111",
"ooooooO@%&>>>>>,,11111111111111111111111111111111111111*&&#$@$$&*111111111111111111111111111111111111111111111111111111111111111",
"ooooooO@&&>>>>>:111111111111111111111111111111111111111*$@OOoO@$*,11111111111111111111111111111111111111111111111111111111111111",
"ooooooo@$&>>>>>,1,1111111111111111111111111111111111411*$oo.ooO$*,11111111111111111111111111111111111111111111111111111111111111",
"oooo.oO@&&>>>>>,11111111111111111111111111111111111111**$o....o$&111111111111111111111111111111111111111111111111111111111111111",
"ooooooo@$&>>>>>,,11111111111111111111111111111111111111*@o.. .o@&111111111111111111111111111111111111111111111111111111111111111",
"ooooooo@$&,&>>>,*1111111111111111111111111111111111111**$Oo.ooO%*,11111111111111111111111111111111111111111111111111111111111111",
"ooo.ooO+&&&,>>>,1111111111111111111111111111111111114**&-&%%===-*,,1,11111111111111111111111111111111111111111111111111111111111",
"ooooooO@+&>>>>>,,111111111111111111111111111111*****&*,4567777644**&&**111111111111111111111111111111111111111111111111111111111",
"ooooooo+&&>>>>>,*111111111111111111111111111111**$@@@@*49tiipit94:##@$&&*,111111111111111111111111111111111111111111111111111111",
"oooo.oo+%&>>>>>>111111111111111111111111111111**$@@oo@&6tjcbbcft4&Oooo@&*,111111111111111111111111111111111111111111111111141111",
"oo.oooO+$&>>&>>,*111111111111111111111111111111*$@...o%6icNHNNci7$o..oo$*1111111111111111111111111111111111111111111111111111111",
"ooooooOO$&>>>>>,111111111111111111111111111111**@o...o%6ibNHUNci7%....o#&1111111111111111111111111111111111111111111111111111111",
"oooXXoo+$>>>>**,*111111111111111111111111111111*#o. ..+6ibNHHNci7+X  .o+&,111411111111111111111111111111111111111111111111111111",
"ooooooo+$>>>>*>,111111111111111111111111111141**$OXX.X%6icNHHNci7=o.XoO$*,111111111111111111111111111111111111111111111111111111",
"ooooooo@$&>>>>*,*1111111111111111111111111111,**&%=%%-29pcNHHNcp92=+%%=&,,,,1111111111111111111111111111111111111111111111111111",
"ooooooO@&&&>>***111111111111111111111111****&&,26777679ijbNNNNbju9777773:,&*&*&**11111111111111111111111111111111111111111111111",
"oooXooo@&&>>>>>,*1111111111111111111111***@@@@&49tiiiipjcmNNNNmcjpiiiit9<-$@##$*,11111111111111111111111111111111111111111111111",
"ooooooo@$*>>*>>>1111111111111111111141**&@OOO@&6tfccbccbmNNNNNMmmccbccft6=@ooO@$*11111111111111111111111111111111111111111111111",
"ooooooo+$&>>>>>,*1111111111111111111111*@O..Xo%7icNNNNNNNNNNNNNNNNNNNNci7=o..o@#*,1111111,11111111111111111111111111111111111111",
"ooooooo@$&>>>>>,1111111111111111111111,&@O...X%7icNHHNNNNNNNHNNNNHHHHHbp7=o..Xo#*,1111111111111111111111111111111111111111111111",
"oooo.oO+&&>>>>>,*111111111111111111111,&#o. ..+6icNDSNNNNNNNNHNNHNHHHHbp7=o .XO$*,1111111111111111111111111111111111111111111111",
"ooooooo+$&>>:>>,1111111111111111111111,*#OoX.o%6icNSNNNNNNMNNNNMNNNNNNci7=oXXXO#*,1111111111111111111111111111111111111111111111",
"oooooooO$&>>>>>,*1111111111*11*1111*11,*&-%%=&2qfmSHHHSMmcccccccccccbcjr6=Ooo@@$>,1111111111111111111111111111111111111111111111",
"ooooooo+$>>>>>>>1111111****************24677779ilSKUULGmcpiiuiiiiiipiit05;#@@$$&,,1111111111111111111111111111111111111111111111",
"oooXooo@%&>>>>>,*111111*&&&##$$%@$$@#$&59tuiuifcSLTEERJndq76677777777762<>*&*&*,,11111111111111111111111111111111111111111111111",
"ooooooo@&&>>>>>>1111111*&#oOOOOOOOOooO-6qccbbcbNLE!^^!Ivr3=#%=========&->,,,,,11111111111111111111111111111111111111111111111111",
"ooooooO+&&>>>>>,1111111*#ooo.ooooo...o%7ucNNNNDUT!^((^Ixr-oXXoXoooooooO%*1111111111111111111111111111111111111111111111111111111",
"ooooooo+#&>>>>>,1111111*$o............%6ubNNNNDUE^()_/Txr=X  .Xo......o@*1111111111111111111111111111111111111111111111111111111",
"ooooooo@&&>>>>>,*111144*@o.......... .+6ucNDNNDUE^(__(Txr=o  XX X.....o@&,111111111111111111111111111111111111111111111111111111",
"ooooooO@$&>>>>>>111111**$OooooooooX.oo%7icNDNNDUT!^/(^Ixr=o  oooooooooo&*,111111111111111111111111111111111111111111111111111111",
"oooXXoo@$&>>>>>,**1*1**>-&%%==%&-;-&;-5qfmSSSSSFKIITTIAk0:@oo@o@OOoOOO@&*,111111111111111111111111111111111111111111111111111111",
"ooooooO+&&>>>>>>*******2477777799eqqqeygvSUUUKUDCBxxxxky8;#@@$#$##&#@@&&,1111111111111111111111111111111111111111111111111111111",
"ooooooo+&&>>>>&&&$###$&49tiiiisflzxxxxvZJIREERKCkarwwww8<,;**&**&&*&****11111111111111111111111111111111111111111111111111111111",
"oooooooO%&>>>>&&@@Ooo@=6ufcbccbbFPYYIIYTW~~~^!Iny6-==-:;,,,,,,,11,,1111*11111111111111111111111111111111111111111111111111111111",
"ooo.ooO@&&>>>>&$@Oo.Xo=7icNDNNDUT!^^^^^^~^^(/^Ixr;o .o@#*,1111111111111111111111111111111111111111111111111111111111111111111111",
"ooooooo+&&>>>>>&+o...X=7pbDDDDUUE^/((((^/(())/Txw=.   X@*11111111114111111111111111111111111111111111111111111111111111111111111",
"oo.oooo+$&>>>>>#@oo..X=7pbDDDDDRE^^)^(((((())(Wxw=   .o#*,1111111111111111111111111111111111111111111111111111111111111111111111",
"ooooooo+&&>>>>&&@oo.Xo=7icNNSSDDT^^^^^^^^^~/(~Ixw;o  X@$*,1111111111111111111111111111111111111111111111111111111111111111111111",
"ooooooo@&&>,>>>%+@OoOO=7tfccbcmSYQ^^^^^QWTIITIAk0;@oX@@$>111111,111*11*111111111111111111111111111111111111111111111111111111111",
"ooooooO@%&>>>>&&&$$@@$=49tiiisfnFQ^(^^~IFVxxxxzr8:$@@#$&,111111,*********1111111111111111111111111111111111111111111111111111111",
"ooooooo#$**>>>&>&&>>*>><466667qfFT^((^~Azaewqr985>>&***>1,11111,&&@&##$&,1111111111111111111111111111111111111111111111111111111",
"ooooooo#$&>>>>>,,,,,,1,>;==++%4uBY^((^IBy8-&=;::,,,,11,,111111,>&OOoOO@&*,111111111111111111111111111111111111111111111111111111",
"ooooXoO@&&>>>>>,,11111**$OoX.o:evY^))^Ixr-o..o@#>,111111111111,*@Ooo.oO$*1111111111111111111111111111111111111111111111111111111",
"oooXooO@$&>>>>>,111111,*@o. .X:qxY/__(Ixw=    X@*1111111111111,&#o....o@&*111111111111111111111111111111111111111111111111111111",
"ooooXoo@$&>>>>>,,11111,*#O.  .=evY(__)~zw=.   o@&,111111111111,*#o. ..oO&1111111111111111111111111111111111111111111111111111111",
"ooooooo+$:>>>>>,,11111,*@Oo..o:qxI~))~Ixq;o .o@#*,111111111111,;&Oo.ooO&*1111111111111111111111111111111111111111111111111111111",
"ooooooO+$&>>>>>,,111111*&@Ooo@=9gAIWWIAgw;@oo@@&*,11111111,,1,>,;===%=-&*>*11111111111111111111111111111111111111111111111111111",
"oooXXoo+$>>>>&>,,111111,&&@@@#:8ygxBBxgy8;#@@##&>1111111,>****><467776644>&*&**1,11111111111111111111111111111111111111111111111",
"ooooooO@$>>>>>:,11111111*******489qqtq964,**&>>11111111*&$$@+$%39uippit93-$@#@&&*11111111111111111111111111111111111111111111111",
"ooooooO@$&&>>>>,111111111*11*11**--2&:>>,,,1,,,11111111*&@oooO:6tfcbbcft6%OooO@&*11111111111111111111111111111111111111111111111",
"oooXXoo@%>>>>>>,*1111111111111**&Ooooo@$&11111111111111&$o...o%7icNNHNci7%O..oO@**1111111111111111111111111111111111111111111111",
"ooooooo+$&>>>>>>11111111111111**@o . .o@&,111111111111,&@o...X%7icNUHNbi7%X...o@*11111111111111111111111111111111111111111111111",
"oooXXoo+&&>>>>>,*11111111111111*@o....o@&,1111111111141&@o.. .%6icNHHNci6+....o@*11111141111111111111111111111111111111111111111",
"ooooooO@$&>>>>>,111111111111111*$oo..oO@&,1111111111111&$@o..o=7icNUHNcp7=OX..O$**1111111111111111111111111111111111111111111111",
"ooooooo@&&>>>>:,*11111111111111*$#OOOO@&*11111111,11,,,>&&$%+=29pcNNNNbp92%%%%&&****11*11111111111111111111111111111111111111111",
"ooooooO@$&>>>>>,11111111111111**&$$#@@&&,11111,,***&&*:25676679tjbNNNNbjuq7777644**&****1111111111111111111111111111111111111111",
"oooo.o+O$&>>>>>,*111111111111141********111111,,*$$@@@*49tiiiipccMNNNNmcfpiiiit92;&@##$*1111111111111111111111111111111111111111",
"ooooXXo+$:>>>>>>111111111111111*1,1**11,111111,>$@ooo@&6qcccccbmmNNNNNMmbbcbbcft6=OooO@$*111111111111111111111111111111111111111",
"ooooooO+$&>>>>>,*111111111111111111111111111111>$@o..o=7icNDNNNNNMNNNMNNNNNNNNci7=o.Xo@$*111111111111111111111111111111111111111",
"oooo.oo+&&&*>>>,111111111111111114111111111111,&@oo. o=7pmDDDDDDNNNNNNDNNNNDNNbi7+.  XX#*,11111111111111111111111111111111111111",
"ooooooo@$&:****11*1111111111111111111111111111,*$oo..o%7pbDDDNDDNNHNDNDNNNNNDNbi6+X  .X@&,11111111111111111111111111111111111111",
"ooooooO#$&,*,****111111111111111111111111111111&$oo..o=7icNNDNNNNNNNMMNMNNNNNNci7=O..oO&*,11111111141111111111111111111111111111",
"ooooooo#$******1111111111111111111111111111111,*$@OooO=7tfcbbccccccccccmNDNHHNbfq2=%%%&=>,1,,,,,11*11*11111111111111111111111111",
"Xoooooo#$&*2&**1*111111111111111111111111111111>*$$#@$=39tipiiiiiiiiiiflmSUUUUNciq7677644&***&***********11111111111111111111111",
"ooooXoO#$&>>>:>,111111111111111111111111111111111**&*&,:46779779667777qfVKTQQELZcfiiiit92;#@#$#$$$$#@$&&111111111111111111111111",
"oooXooo#$&>>>>>,*1111111111111111111111111111111111,,1,*:&==%%%%==%++%2txIQ^^!ELSnccbcft6=@oo@OOoOoOOOO&,11111111111111111111111",
"ooooooo#$&>>>>>,111111111111111111111111111111111111111*$Oooooooooo.Xo-rxI~(/^!EKSNNNNci7=o XoooooooooO$*,1111111111111111111111",
"ooooooo@$*>>>&>,*1111111111111111111111111111111111111,&+o.......... X=exT(_)(^EUHNNNNci6=X   X.......o@&,1111111111111111111111",
"oXooooo+$&>*>>>,11111111111111111111111111111111111111,&@o...X..XXX  X;rxT(__(^ELHNNNNci7+X  .XX.....Xo@&,1111111111111111111111",
"oooo.oO+&&>*>>>>*1111111111111111111111111111111111111,*$OoooooooooXXo;wxI~(/^!RKHNNHNci7=oXXooooooooO+@*,1111111111111111111111",
"oooooooO$&*:*::111111111111111111111111111111111111111,*$@OoOOoO@ooooo;0zAIWTIIKGHHHHSbfq5;==-;=:%%%%=%:*,1,,,,,111111111*11111*",
"oooooo+O$>>>**>,*11111111111111111111111111111111111111*&&$@#$$#@@@o@#;6rgxxxxvCSJKLULSbfyrwqrw097977764:,**&****1*1*1*1*111*1*1",
"ooooooo@$&>>>>>,1111111111111111111111111111111111111111****&**&&&&#$&;<60qwrrakCKTEERYJZVxxxxzkfpiiiit94=$@@@$&&*,,:,,,1*,,,,>4",
"ooooooO@$>&>>>>,*1111111111111111111111111111111111111111,,1,,,**&&&>&&;;;-;=-6yBI!~~~E!TIIIIIPGMbcbbcft7=+oOO+$&*,:,>>*1*>>>>**",
"oXoXooo@%&>>>>>,11111111111111111111111111111111111111111111111,,>>>>>&##ooX o;wxI^((^^~^~~^^^!RDDSDNNci7=o..oO@$&>>**:,***>****",
"ooooooo+&&>>>>>>*1111111111111111111111111111111111111111111111,,,>>>>&&oo   X=wxW/)((((((((((^ERDDDDDbp7=X...o@$&&>>*&***>>:***",
"ooooooo+%&>>>>>,111111111111111111111111111111111111111111111111>>>;>>&#@oX   =qxW(_((((//(///^EUUDDDDbf7=o..oo@$&:>*:***::***:*",
"ooooooO@&&>>>>>>*1111111111111111111111111111111111111111111111,,,>>*>&&@oo .o;rxI~(/^^^^^^^/~!RUNNNNNci7=oX.oOO&&>>***:********",
"ooooooOO&&>>>>>,11111111111111111111111111111111111111111111111,,>>>,>*&#@ooo@;9kAIITITW!~~/^^~INbbcccft6%@ooO+#&>>,,***:***:*>*",
"ooooooo@&&>>>>>,*1111111111111111111111111111111111111111111111,,,,,,>>>&$$@@$;8rzxxxxVAI!~((~WJcfiuiiu94&$@##$&*>>,,,:,,*,****:",
"ooo.ooo+$&>>>>>,,111111111111111111111111111111111111111111111111,,,,,,1>>**&><180qqwrazA~^^^~YZgq7777624********411*1*1********",
"oooooooO$&>>>>>,,11111111111111111111111111111111111111111111111111111111,,1,,,>:-;=&-8aVT^__~YBy6%++%&;***1**111111111*****2***",
"ooooooO@&&>>&>>,,11111111111111111111111111111111111111111111111111111111111111*##X..o-eBY^__^YBe-O..oO%*11111111111111*1*******",
"ooooooo+&&>>>>>,,,111111111111111111111111111111111111111111111111111111111111*&@o   .=0xY^__^Yzq&.. .O#*111111111111111**1*::**",
"ooooooO+&&>&>>>,,11111111111111111111111111111111111111111111111111111111111111*@o   .&0BT^__)TBq-.  .o#**11111111111111,:>>*:**",
"oooXXoOO$&>>>>>>,1111111111111111111111111111111111111111111111111111111111111**#@o  o-qzP^_^~YBe&....O$**1111111111111*,>>****,",
"ooooooOO$>>>>>>,,,1111111111111111111111111111111111111111111111111111111111111*&@@ooO*0gAI~TYAg0;Oooo@$*111111111111111,*:*>***",
"ooooooO#%&>>>>:,111111111111111111111111111111111111111111111111111111111111111*&$@@@&>8ygxxBBgy8:$@@$&&111111111111111*,>*>>**:",
"XooooooO$&:*>>>,,,111111111111111111111111111111111111111111111111111111111111,,>***&*>479qqt9984>*&*****11111111111111,,>*>>**>",
"oooXXoO#$*>>>>>,,111111111111111111111111111111111111111111111111111111111111111,,11,,,,::,:&22&,,,111*1111111111111111,,>>*:*>>",
"ooooooo@$&>*>>>,1111111111111111111111111111111111111111111111111111111111111111111111,*#Oooooo$*1411111111111111111111,:***>>>&",
"ooooooOO&&>>>>>,,111111111111111111111111111111111111111111111111111111111111111111111,&@o. ..o#**111111111111111111111,,,>:>>>>",
"oooo.oO+$&>>>>>,,1111111111111111111111111111111111111111111111111111111111111111111111>@o....o@**111141111111111111111,,>>>>>:*",
"ooooooO+$:>>*>>,,111111111111111111111111111111111111111111111111111111111111111111111,*#Ooo.oO#**111111111111111111111,,>>>>>>*",
"ooooXooO$>>>>>>>,1,11111111,11111,1111111111111,,11111,1111111111111111,11111111111111,>%@OooO@$**11111111111111111111,,>>>>>>>>",
"oooooo+O$&>>>>>>,,,,,,,,,,,,,,,,,,,,,,,,,,,,,,,,,,,,,,,,,,,,1*1*,,*1*1,,,,,,,,1,,1,,,1>*&@@O@@@&*11111*11*1*1*1*,,1,,,,,,>>>&>>*",
"ooooooOO&&>,>>>>,,,*,,>,,><,,,,,2*,,,,,:,,,,,,,,*4,,**4>,,,,,>,,*,>,,>,,,>,,,,,,>,,,,,>>&&%$%&&&>>,,,,,,,,,>,,>,>,,,,,>,>>>>>>&>",
"ooooooO@#&>>>>>>**,*,>>>>>>>&,>&*,****,:**:*>>>>****4**>>>>>>>>>*,>>>>>>>>>>;>>>>>>>>>>>>&&&>&&>>>>>>>>>>>>>:>>>>>>>>>>>>>>>>>>>",
"oooo.oO@&&&>>>>>>>>>>>&,>>>>>>>>:**:**,*>***>>>>********;>>;>>>>>>>>>>>>>>>>*>;>>>>>>>>>>>>>>>>>>>>>>>>>>>>>>>>>>>>>>>>>>>>>>>>>",
"Xoooooo+#>>,>>>>>>>>>>>&>>>>>>>>****:***>>>>>>&>******:**>>>>>>>>>*>>>*>>>>>>>>>>>>>>>>>>>>>>>>>>>>>>>&>>>>>>>>>>>>>>>>>>>>>>>>>",
"ooooooo@&&>,>>>>>>>&>>&,>>>>>>:&*****;*;>*>>>>>>********>>*>>>>>*>>&>>>>:&**>>*;>>>&>>>>,>>>>>>>>>>&>>>>>>>>>>>>>&>>>>>>>>>>>>>>",
"oooXooO+%>>>*,>>>>>>>>,&>>>>>>>>**:**>>&*:>>>>>>*,:****;>>;>>>>>>>>>>>;>****>>**>>>>>>>>>>>>>>>>>>>>>>>>>>>>>>>>>>>>>>>>>>>>>>>>",
"ooooooo@#&&&&&&&&&&&&&&&&&>&&&&&&&&&**&&&&:&&&&>&&&&&&&&&&&*&&&&&*&&&&&&*&&&&&*&&>>&&:*&&>&&&&&&&&&&&&&&&&&&&&>&&&>&&&&&&&&&&&&*",
"ooooooo@##$&$&&@&$&$&$&$&&+&&&+&$$&$%&&&$$$$$&&$&$$&%&&@&&&&#&&%$$$&&&&#&&$&&%&&&$$$$$$$&%&$&$&$&+&&$$$&&$&%&$$$&$$$%&&#&&$$&&@&",
"oooooooo++O@@++++@@@+@++OO@O@+@@++OO%@O#O#@#@++++O+O###O++###O####@+O+O++O@+@@@#+O++@@#O@@++O+O++@@@@@@++O@O++@#++@@@+++@+@@@@+@",
"oooooooooXoOooOoOoOoOOooOOOOoOOOooOOoOOoOOooooOoOOOOOoOOoooOoOooooooOoo+oOoooOOOoooOOooOoOooOoOoOOoOoOOoOoOOoooooOOoOoOoOoOooOOo",
"oXoooooooooooooooooooooooooooooooooooooooooooooooooooooXoooooooooooooooooooooooooooooooooooooooooooooooo.ooooooooooooooooooooooo",
"oooooooooo.ooooooooooXoXoo.oXooXoooXoooooooooXoXooXoooooXooooooooooooooXoooooXooooo.oooXooXoooooooXooXooooooooooo.oXoooX.oooooXo",
"ooooooooooooooooooooXoooXoooooooooooXoXooooooooooXoXoooXoXoooXooooooooXoooooXoooooooooXoooooooo.oooooooooooooooXooooXooooXoooooo",
"oooooooooooo.oooooooooooooooooooooooooooooooooooooooooooooooooooooooooooooooooooooooooooooooooooo.oooooooooooooooooooooooooooooo",
"oooooooooooooooooooXoooooooooooooooooooooooooooooooooooooooooooooooooooooooooXoooooooooooooooooooooooooooooooooooooooooooooooooo",
"XooooooooooooooooooooooooooXooooooooooooXooooooooooooooooXoooooooooooooooXoooooooooooooXooooooooooooooooXooooooooooooXoooooooXoo"
};
