/* XPM */
static char *start1710261609[] = {
/* columns rows colors chars-per-pixel */
"32 32 6 1 ",
"  c #25131A",
". c #362030",
"X c #3D253B",
"o c #927A5D",
"O c #B19D83",
"+ c white",
/* pixels */
"  ........XX..XXXXXXXXXXXXXXXXXX",
"  ........XX..XXXXXXXXXXXXXXXXXX",
"  ..XXXXXXXXXXXXXXXXXXXXXXXXXXXX",
"  ..XXXXXXXXXXXXXXXXXXXXXXXXXXXX",
"  ..XXXXXXXXXX  XXXXXXXXXXXXXXXX",
"  ..XXXXXXXXXX  XXXXXXXXXXXXXXXX",
"  ..XXXXXXXX  oo  XXXXXXXXXXXXXX",
"  ..XXXXXXXX  oo  XXXXXXXXXXXXXX",
"  ..XXXXXX  oooooo  XXXXXXXXXXXX",
"  ..XXXXXX  oooooo  XXXXXXXXXXXX",
"  ..XX    ooOO    XXXXXXXXXXXXXX",
"  ..XX    ooOO    XXXXXXXXXXXXXX",
"  ..  ooOOOO  XXXXXXXXXXXXXXXXXX",
"  ..  ooOOOO  XXXXXXXXXXXXXXXXXX",
"  ..XX  OO  XXXX  XXXXXXXXXXXXXX",
"  ..XX  OO  XXXX  XXXXXXXXXXXXXX",
"  ..XXXX  XXXX  oo  XXXXXXXXXXXX",
"  ..XXXX  XXXX  oo  XXXXXXXXXXXX",
"  ..XXXXXXXX  oooooo  XXXXXXXXXX",
"  ..XXXXXXXX  oooooo  XXXXXXXXXX",
"  ..XXXXXXXXXX    OOoo    XXXXXX",
"  ..XXXXXXXXXX    OOoo    XXXXXX",
"  ..XXXXXXXXXXXX..  OOOOoo  ....",
"  ..XXXXXXXXXXXX..  OOOOoo  ....",
"  ..XXXXXXXXXXXXXXXX  OO  XXXX..",
"  ..XXXXXXXXXXXXXXXX  OO  XXXX..",
"  ..XXXXXXXXXXXXXXXXXX  XXXXXX..",
"  ..XXXXXXXXXXXXXXXXXX  XXXXXX..",
"  ..............................",
"  ..............................",
"                                ",
"                                "
};
