/* XPM */
static char *result[] = {
/* columns rows colors chars-per-pixel */
"128 128 47 1 ",
"  c #221117",
". c #25131A",
"X c #29161E",
"o c #2B181F",
"O c #2D1A25",
"+ c #301C26",
"@ c #331E2E",
"# c #352027",
"$ c #36212B",
"% c #38232F",
"& c #362031",
"* c #3A2334",
"= c #3E2936",
"- c #3D253B",
"; c #3F283A",
": c #402735",
"> c #422A33",
", c #40273C",
"< c #432C3C",
"1 c #482F3E",
"2 c #47303D",
"3 c #4C323E",
"4 c #52353F",
"5 c #452B41",
"6 c #4A2E46",
"7 c #4C2F49",
"8 c #4E3640",
"9 c #4E304A",
"0 c #543740",
"q c #543841",
"w c #593B42",
"e c #51334A",
"r c #573849",
"t c #593A49",
"y c #553553",
"u c #593756",
"i c #5C3A54",
"p c #613E51",
"a c #614145",
"s c #6F4B47",
"d c #63414A",
"f c #6A4749",
"g c #6E4A48",
"h c #734D4C",
"j c #77504E",
"k c #78514F",
"l c #7A5250",
/* pixels */
"777967777777777767797777777777779777969yyyyuuuue9e77777777777799uuuuuuuuuuuuuuuuuuuuuuuuuuuiuuuuuuuuuuiy977977777797777777777777",
"7777977977777777777777777777777969777999yyuuiuuy9977977777777799yyuuuuuuuuuuuuuuuuuuuuuuuuuuuuuuuuuuuuyyy7777777777777777777776e",
"977796777777777777777777777777777777779yyuuuuuyyy9977777777777eeyyuuuuuuuuuuuuuuuuuuuuuuuuuuuuuuuuuuuuyyy7777777777977777e777777",
"7779797777777777777777777777777777677779yuuuuuyy997777777777777eyuuuuuuuuuuuuuuuuuuuuuuuuuuuuuuuuuuuuuyy977777777777777777777777",
"677779697777777777777777776677776966779eyyuuuuyye97777777777779eyyuuuuuuuuuuuuuuuuuuyuuiyuuuuuuuuuuuuuuy997777767777777767777e77",
"997777777677777e77667766777677777797799eyyuuuuyye97777777777799eyyiuuuuuuuuuuuuuuuuuuuupuuuuuuuuuuuyuuyyy97777767777777777777777",
"776979796eeeeeeeeeeeeeeeeeeeeeeeeeee9eryyuiiiiiyyeeeee7eeeeeeeeeyyiiiiiiiiiiiiiiiiiiiippiiiiiiiiiiiiuiyireeeeeee9eee7ee7e7e77777",
"7797769errtrtrttrrttrttrttrttrtrtrrtrrwwippppppptrrrrrryrrrttettipppppppppppppppppppppppppppppppppppppppttrrwrrwrrrtttree7777777",
"9779779ettddadwtapdwwdpwwdwdpwdpaapaaaapfppspppppfaaafaaaaaaaapappsppgsppppspppsppspsppppsfppppppppsppswpsaaaapaaafaffatr7777777",
"777679erwffgffsfsfffsfffffffsffsspsfspssssspsssspsspspffpsspspsssgspspgpphpgsspsspspsjssspsssssspspssssfpsspspssfffsfpware777777",
"777766erafggssggsffsssfhshggssssssssssspsssssssssssssshpgsssggggsssssssgssssssssssssssssssssssssssjsssjpssssssssssspsssate677777",
"777769etafssssgssssghsssssggsssssssssssssssssssjssssssssssssssggsssssssssshssssssssssspsssssjspssssssssssssssssssssssspate767777",
"777777etafsshgggssssssssssssssggsssjsssspsssssssssssssssssggggggsssssssssshshssssssssssssssssssssssssssspsssspsspsssjssate777777",
"977777etafgsggggssgggsssggggsffgssspssshssssssspspssssssggggggggssgssssssssssssssssssssspssssssssssssssssjsssssssssssssate777777",
"7796779rtfgsggggssggfsgggfsgggssssssspsssssssssssssspsssggggggggggggsspgsgssggsspssspsssssssssjsspjsssssssssssspsssspsspre777777",
"777777erdgggsggggfggggggsssfggggsssssssspssssssssssshsssggggggggggggsssgggspggggssssssssjspsssspsssspssssssssssssspsssfwre777777",
"777769ettfgghsssggggggfsggfsggggssspssssssssssssggggsspgggggggggggsgggggsssssssssssssssssspssssspsssssspssssssssjsssspss0e777777",
"777766etdfggsfssggfgggsggggggsfgsssssssssssssspsggggsssgpgggggfgggssggggsssssspsssssssspssssssssssssssssssssssspssssssspte777777",
"777777etdfggsfsfggsssgggggggggsghssssssssspssspsggggssggssggggggggpsspggpssspssssspssssssspssssssspjssssfssssssssssssspwt4777777",
"777777etwfssssssggggggggfssgggsgpssshsspssssssssgggggsggssgggggggghssgggsssssjsssssssshsssssspsssssssssssssjspsssspssssate777777",
"777777etdfgssfsfgfsssggfssssfgsgsphssspgssssssssgsssggggsgggggggggggsssssssssssssjsppssssssssssjssssssssfspsssssssssssfwte777777",
"777777eedfgshfssssfgfgggfsfssgggsssssssgssshssssspssggggsgggggggggggssgsspsssspsssssssssssssssspsspsspssssssjpssssssssfar7777777",
"777777etafhgghgghfsssshghssshsggssssssgsssspspssssssgsgggggsgggggssssssssssshssssssssshsssjpssssssjssssshsssssssspsjsspfte777777",
"777776etdghhhhhhhhhhhhhhhhshhhshshhhhjhhhhhhhhjjhhjshhhhhhhhhhhhhhshhhhhhhhhhhhhhshhshhhjsjhhssjjsjshhhhhsjshjsjsjjjssjfte777777",
"767777etfhhhjhhhhhhhhhhhhhhhhhhhjjhhhhjjhhhjhjhjhjjhhhjhjjhhhjjhhhhhjjhjhhjhjjhhhhhjjjjsjjsjjjjshjhjhhhjjjjsjsjssjjjjjsste777777",
"797777etphjklkjjlhkjljkjlhlhkkkkjjjjjjjjjjjjjjjjjjjjjjjjjjjjjjjjjjjjjjjjjjjjjjjjjjjjjjjjjjjjjjjjjjjjjjjjjjjjjjjjjjjjjjspte777777",
"777769etfhllljljlljkljkklhllkkkkljjljjljjljljjjljjljljjlljjljjljljljjljjjjjjljjjjjjjjljjjjjjjjjljjljjjjjljjlljljjllljjjpte777777",
"797769epfhlllllllllllllllllllllklllllllllllllllljlllljlllllljlllllllllllllljlllllllllllllllllllljllllllllllllllllllllljsp0777777",
"777779etfhkllllllllllllllllkllllllllllllllllljllllllllllllllllllllllllllllllllllllllllllllllllllllllllllllllllljllllljjppe777777",
"777777etdhkllkklljjljlljkkkkkkkkjjjjljjjjljjjjljljljjlljjjjjjljjjjjllljjjljjljjjjljllljjjljjjljjljllljjljjjjljjjjllljjjpte777777",
"777766etphhjjhhhhjhhjjhhhhjhjhhhhhhjjhjhhhjhhjhjhhjhhhhhjhhhjhshjjhjhjhjjjhjjshjjjhjjsjjjjjpjhhjhhhhhhjhjjjpjjjjjsjsjjppre667767",
"5555556tppffffffffffffffffffffffggpgspsspgspgspspgspgsspfffffgfspspspspspsspsspspspsspspspsssspsspspsspsspssspsspsjpsjpt06655555",
"555-5,56wwpwfwfawpaaaaaaaaaaaaaaaaaaaaaaaaaaaaaaaaaaaaaaaaaaaaaaaaaaaaaaaaaaaaaaaaaaaaaaaaaaaaaafaaaaaaaaaaaaaaaaaaaaaw045,,55,5",
",,---,,64wwwwwwwwwwwwwwwwwwwwwwwwwwwwwwwwwwwwwwwwwwwwwwwwwwwwwwwwwwwwwwwwwwwwwwwwwwwwwwwwwwwwwwwwwwwwwwwwwwwwwwwwwwwwww41,--,,--",
"------,<14444w440000w0000000w40000400000000000000000000000000000000000000000000000000000000000004000000000000000000000415:,-----",
"-----,,<14404444040000400444444404444040040000004040040440404004404004040404040040404044404004004440040404004040400004445:------",
"------,<444ww4w44004400400000000040004000400040400040000040044000404000040040004040400000404000004000400000440040000004>5-------",
"------,<344444w4000000000000000000000000000000000000000000000000000000000000000000000000000000000000000000000000000000435-------",
"-------5344ww444004w00400040000000000000000000000000000000000000000000000000000000000000000000000000000000000000000000435,------",
"-------,144w444w0000004w00000000000000000000000000000000000000000000000000000000000000000000000000000000000000000000000455,555,,",
"-------1344w40000004400000004w0000000000000000000000w000000000000000000000000000000000000000000000000000000000w00000004475575565",
"-----,:1144w0000000w0000w0044000000000000000000000000000000000000000000000000000000000000000000000000000000000440000004ee7577766",
"------,,1444w00040000w4044w40000000000000000000000000000000000000000000000000000000000000000000000000000000044w40000004074777777",
"------,1340w00004w000040000000440000000000000000000000000000000000000000000000w0000000000000000000000w000000w4440000004ee7779777",
"------,1444w00000w40040000w4000w0000000000000000000000000000w00000000000000000w00000000000000000000000000000ww4w0000000497779979",
"------,,14440000044004w0000404000000000000000000000000000000000000000000000000000000000000w00000000000000000444w0000004e97777777",
"-----:,,14444400w40400004w00w4040000000000000000000000000w000000000000000000000000000000000000000000000000000w440400440496776777",
"----,,,,14444444440w000040000004000000000000000000000000000000000000000000000000000000000000000000000000000000444444e44161655556",
"-------,22833838000000004w444w4w00000000000000000000000000000000000000000000000000000000000000004ww400004ww40000441488585<55555-",
"------,,26266858800000004w4w444w00000000000000000000000000000000000000000000000000000000000000004444000044440004171182255--,----",
"-----,,,52222228880000004444w4440000000000000000w00000000000000000000000000000w040440000000000004w4w0000w44w00444616622<<-------",
"-----,,,;2662688000004w0w4w44ww40w00000w000000000000000w0000w00000w00000000000000w0w000w0w000w00w44w4w00w444w0444111226<--------",
"-----,,5<56811580444ww44000w000000000w00000w00040000w00000000000000w0000000000004w444ww00000000044w40000444w00043611856<,-------",
"-------,<522836804w4444w440040040000000000000004000000000000000400000044000000004ww44440000000444ww404004w4400063316355<<-------",
"-&-&-**-<1255158144444444444444404444400444444440444440444444444000000040444400044444444444404444444444444444444361<3115--------",
"&&@@@@&*-<<<5<<<1114114141114411>444>44>11411441141144>4114114414>4>4>4414114>44141114111411411414113133114411111,1,<5<-<-------",
"OOOOOOO@---5-5,5<111,11,11,1,111111,,51,11,15,55:1555,1,11,1,51,51,,,1,,:1,,655:,51,11,1,1,1,11,1,,11,11,,5<1<1,<,-<-<<,--------",
"XXXXXXOO@-------,,----:,,,,,---,::,,--,,,,,,--,,:,,:--,,,,,,,-,,,,,,,,,-::,,:,,,,-,,,,--,,,-,,,-,,,,-,,,,,,,,,,,-5--------------",
"......XO@-----------------,-------,,-----------:--::------:---------,,--,-----,,----------------:-----------,-------------------",
"..   .XO@-----------------------------:------------------------------,--,-----::-------------------------*----------------------",
"...   XO@&----------------------------------------------------:----------------------------------------*------------------------",
"......XO@--------------------------:---,-:-,---,--,,--,:--:,--,,----,,-----:----::-----,-----------,----,,----------------------",
"XXXXXXOO&---------,,-,,--,,,-,,,-,,,-,,,-,,,-,,,-,,,,,,,-,,,-,,,,,-:::::-,5:,,--,,,,,,,,,,-,,,,,,,,,,,-,,,,,-,,,;---;---,-------",
"OOOOOOO&&--55555,11,1,11,,11,1,1,1,1,51,,5,1,1,15,1,,5,5,5,15,1,551,555555:5555,1,1,1,,11,1,1,1,1,1,11,,5<<<<<<<5,5-<,,,,-------",
"@@@@&&&--<<<,111114141>411414>34:4411141>333>33344>444>4>44>4>0>11414111141411414>44:441411141411441:4114>4141111:6:1<<,,-------",
"-*-****;,15551111440400044444444044004444444044444444444444440004444404444404444000044404444404444440040004444411164115<<-------",
"-------,113816364000000000000000000000000000w00044444440w44ww4000040000040000000000000000000000040000000000000044111611,<,------",
"-------5<55111144000000w00w000000000000w00w0000ww4w4w44w4w4w4w000000000w00000000000000000000000w400000000w00000441161551------,-",
"------;;562661164400w0000000000w0000w000w000000040004w44ww4w0000w000w0000w00000000000w000000w000w000000000000044615611615----5--",
"------;5<222114444000000000000000000000000004w004000w44w444400000000000000000000000000000000000000000000000004441411611,--------",
"------;;<2866146400000000000000000000000000000040000w4w4444w000000000000000000000000000000000000000000000000000441111111<--&&--*",
"------;<6233141440000000000000000000000000000004w0004444ww44000000000000000000000000000000000000000w0000000000044644441,*&&@@@@@",
"-------51444444444000000w00000000000000000w0000w00000000000000000000000000000000000000000000000000000000000000004444443>*@OOOOOO",
"-------5144444000000000000000000w0000000004400000000000000000w000000w00000000000000000000000000w000000000000000004w4444>#OX.XX.O",
"-------<14000000000000000000000000000000000004400000000000000000000000000000000000000000000000000000000000000000w444443>#o......",
"-----,,54000000000000000000000000000000044w00w0000000000000000000000000000000000000000w0000000000000000w0000000004w4w44>#o..  ..",
"------,510000000000000000000000000w00000w4404ww44ww400000000000000000000000000000000000000000000000000000000000004w0444>+X   ...",
"------,1100w00000000000000000000000000000000444444440000000000000000000000000000000000w000000000000000000000w000w400w44>@O.  ...",
"-*****-,1400000000000000000000000000000000w4w4w4w44w44000000000000000000000000w0000000000000000000000000000000004400444>$+O..OX.",
"@@&@@@%::64444440000000000000000000000000444w444w44w4ww0000000000000000000000000000000000000000000000000000000004600644>%+OOOOOO",
"OOOOOO@%:1888863444w444444w400000000000000000000qqqqqq4q44qq000w000000000000000000000000000000004ww44444000000004341382<*&@@@@@@",
"O.XX.OO@*<58588360444ww4w4w400000000000000000000qqqqqqqqqq000000000000000000000000000000000000004444w4ww000000080663262<;---*-**",
"... ..O+*<358154000044w4444400000000000000000000qqqqqqqq0000000000000000000000000000000000000000w4w44444000000008531286<<-------",
"...  ..+%<3855880000w44www4ww0000w0000w0w00w0w00qqqqqqqqwqqq0000w000w00w0w00w000w000000w00w0w0004w4w4ww44w0400048835262<<-------",
".    ..O&226823844004ww40w4ww400w000w0000000w0w0qqqq8wq800w0000w0w000w00000w0w000000w0w000w00000www444wwww444444852856255,--,,-,",
"......O@*;2856584404w44404w4w400000w000000040000qqwwww88000w00wa0000000000000000000400000000000044444444444w444w8358225<,-------",
"XXXXXXO@*26251234444444344433433444>44>444444>44>q8888884>04>04>4>44>44444>4444444444>44>44444044444344444444446153562<<---&&---",
"OOOOOOO&*;<5<5<111114311>>>>>>>>>>>>>>>>>>>>>>>>>>>>>>>=>>>>>>>>>>>>>>>>>>>>>:>:>>>>>>>>>>>>>:>:>>>>>>>>111314111<<5<<<--&&@@@@@",
"@@@@@@&-=;;;5;5<5,511,,::######@################$$$####$$###$##########################################:-;<<<<,5;5-55,--@OOOOOOO",
"-*-*&-*----;;;----,,,,-&#OOooooooooXooooooooooo#ooooooooooooooooooooooooooo#ooOo.ooooooooooOoXoooXooooO#&--<,,,,-5----*@OO.OO .O",
"--------------------,--@OX. ............  o .. ..... .............oo.....X..........o .. XX. XX. .....XO&---,----------@OO   O .",
"---5----------------,-&@XX    . .. ....     . . . .    ..........    . .        . ..                  .O@&------------*@OO    . ",
"----------------,-----&@OX.     ...          .  . .. . ... .....   .       . .            ...         .O@*-------------@O.   . .",
"----------------:,-----@OX... X ....X.... o .................... o......X.....X........X........X... .X+$*------------*@OO.  ...",
"----&-*----<----,,,,,,:&@oXXXooooooooooooooooooooo.oooo.........o.o.o.oooXXXXoooooooooooooooooooooooXoO@&;;;;;---------@OOO .OO.",
"@@@@@@&**--;;;;-,,,1,1:::@@#####################+++++++ooo.....oo######o#########################+#+#@#%=;55<52;5;;----&@@OOOOOO",
"OOOOOO@@%===<;=<<222888====>>>>%2>>>>##>>>>>>>>>#>>>####oo.....+##$=#>>>>>>8>>>8>#>>>#>>>>>>===2>>==>%>2>88>888>>=2=======&&&&&@",
"O.XXXXOO%=<<<<<222888888888882288888888888>8888>>>>>2>=#oo.....+#===>>>>>88888888888888822888228332332338888888>8>2=2=====--&---",
" .. ..XO%===<<<288888q888888888888888888888888888>8>2===oo....o+==2=8=>888888888888888888888888a4443884488q888882=2=2====;;-----",
" ... .OO%=22<<<2888888q88888888888888888888888888>22222##o. ..o+$==222>88888888s888888a88888888844qqqq888qq88888222==22==;------",
"...  .OO%=22>2>2888888qq888a8q8q888a8a8888a88888222==2==oo.. .o#$=2=8>88888888888888a8888888a888qqqqqq8q8qq88888222=22=2;;------",
"......OO%==22>222888888888888888888888888888888822=22==$#.....oo===2>>>8888888888888888888888888888888888888888822=22=2=;-------",
".......O%=222=22888888888q8888q8a8888888a888888822=22===#o.. .o#$=2288>88888888888a88888888888888888q8888qq88888222==2==--&-&---",
"......OO%=2222228888888w888q88q888888888888888888222822$#o. ..o#==28>8888888888s8888888888a8888888888qq88q8888882222222=-&&@&@@@",
".......#*>33888888888888q8a888888888888a88888888828888>###oo .o#==88888888888888888888888888a8888q888q8q8q8888888888822>&++OOOOO",
"......O#=23q8888888888888888888888888a88888a88888888888>##oo .o#=88888888888888888888888888888a8q88888q888888q888888882>%Oo.XXXX",
"......o#=3qq8888888888888888888888888888888888888888888>#ooo .o#>28888888s888888888888s8888888888qq88888qq8888888888882>+o.....X",
"......o#=38888qqa88a8888q88q88a888888888888888888888888>#o.. oo#>2888888888888888a8888888888888888888888888888888888888>+O......",
"......o#=3qqq88q888888888888888888888888888888888888888##o....o##8888888888888888888888888888888888888888q88888888qq888=+o......",
"......O#%38q88888888888888888888888888888a8888888888882>#o....o#>88888888888888888888888888888888q8888888q888888888q882=$o......",
"......o#=388q888888888888888888888288888888888888888888>#o.. .o#>888888888888888888888888888888888888888888888888888882=+o......",
".X....X#%33382828888888>8888888822888888888882228888882>#o.. .o#>>8888888>888888>88888882288882288828888888>8888888888==+o......",
"......X+=<222222>>882222222222222222222222222222222222==+o. ..o+#>882222222222222222222222222222222222222222222<>22222=%+o......",
"......o+%=2<22<<>8>>22=2=22==222<<<2<<<2<22=<<<<2<<<2<=%+o....o+#8=>22222=22=2=2<<<<<<22<22=<<<<<<<<<2<<<<<<=22<222222==+o......",
"......X+%=<<<<<=2=>82===22222==2<=<<<=<<<<<<<<=<2=<<<<=%+.....oO>=22======2==222<<<<<=<=<=<<<=<=<=<<<<<=<<<<<=<2=2=2=2=%+o.....o",
"......X+%=<<<<<==22==222==2==22=<<<<<<<<<=<<<<<<<<=<2<=%+X. ..X+#==222222=2222==<<<<<<<<<<<<<<<<<<<<=<<<<<<<<<=<2=2=2==%+o......",
"......X+%==<<<222==22=2=22==22=22=<=<<<<=<<<<<<<<<<<<<=%+X....X+===22==2==222=222<<=<<<<=<<<<<<<<22<<<<<<22=2<<2=2==2==%+o......",
".o....X+%=<<2==<2=2==22===22=22=<<<2=<<=<=<=<<==<<<<2==%+X....oO$=22=22=22===2===2=2=<<=2===<<<=<=<<<=<<<=<<<=<=2=2222=%+o......",
"......oO%%=============================================$OX.....+$======================================================$+.o.....",
"......XO+@%=%%%%$=$==$$===%%%===%%%%%%%%=%&%=%%%%%%%%$$+O.....oo##=#=$$=%=%%====%%%%%%%%=&&%=%%%%%%=%&%%%%%%%%%%%%%%%%$++.......",
".......Xo+++O+++++++++++++++++++++++++++++++++++++++++OOo.....ooo+++++++$++++++++++++++++++++O+O++++++++++++++++++++++++.....o..",
".....o...ooooo.ooo.oo.oooooo.oooooXXo.XoXXXXXXXoXXXXXXXX..........oo.ooooo.oooo.XXXXXXXX.oo.ooooOOoo.ooo.oo.XXXXX.oooo..........",
".......o................o.......................X.......o...............o.o.....................................................",
"o................ ...........................................o........ ..................... ............................o......",
"............ ... .......................................................................................................o...o...",
"...o..o........o........................................o.......................o...............................................",
"........o...........o.....o........................o........o........o....o.................o.....o.....o.....o......o.......o..",
".................................X..............................o..................X............................................"
};
