/* XPM */
static char *torch1710261609[] = {
/* columns rows colors chars-per-pixel */
"32 32 18 1 ",
"  c #4C2F49",
". c #593756",
"X c #6E4A48",
"o c #25131A",
"O c #78514F",
"+ c #BC4C51",
"@ c #3D253B",
"# c #543740",
"$ c #483040",
"% c #D1851E",
"& c #FFD569",
"* c #90919E",
"= c #ADC1CF",
"- c #BF704D",
"; c #895A45",
": c #422C3B",
"> c #4F3740",
", c white",
/* pixels */
"          ..    ..........      ",
"          ..    ..........      ",
"  XXXXXXXXXXXXXXXXXXXXXXXXXXXX  ",
"  XXXXXXXXXXXXXXXXXXXXXXXXXXXX  ",
"  XXXXXXXXXXXXXXooooXXXXXXXXXX  ",
"  XXXXXXXXXXXXXXooooXXXXXXXXXX  ",
"  OOOOOOOOOOOOoo++++ooOOOOOOOO  ",
"  OOOOOOOOOOOOoo++++ooOOOOOOOO  ",
"@@##########oo++++oo##########@@",
"@@##########oo++++oo##########@@",
"@@########oo++++++++oo########  ",
"@@########oo++++++++oo########  ",
"@@$$####oo++++%%++++++oo####$$@@",
"@@$$####oo++++%%++++++oo####$$@@",
"oo@@@@@@oo++++&&%%++++oo@@@@@@@@",
"oo@@@@@@oo++++&&%%++++oo@@@@@@@@",
"@@$$######oo%%&&&&++oo######$$@@",
"@@$$######oo%%&&&&++oo######$$@@",
"@@######oo**==----==**oo######oo",
"@@######oo**==----==**oo######oo",
"oo$$######oo;;;;;;;;oo######$$@@",
"oo$$######oo;;;;;;;;oo######$$@@",
"@@@@@@oooooooo====oooooooo@@@@oo",
"@@@@@@oooooooo====oooooooo@@@@oo",
"oo::>>>>>>>>oooo;;oo>>>>>>>>::@@",
"oo::>>>>>>>>oooo;;oo>>>>>>>>::@@",
"oo>>>>>>>>>>oo;;;;oo>>>>>>>>>>oo",
"oo>>>>>>>>>>oo;;;;oo>>>>>>>>>>oo",
"oo::::::::::::oooo::::::::::::oo",
"oo::::::::::::oooo::::::::::::oo",
"oooooooooooooooooooooooooooooooo",
"oooooooooooooooooooooooooooooooo"
};
