/* XPM */
static char *floor_resized[] = {
/* columns rows colors chars-per-pixel */
"64 64 24 1 ",
"  c #251319",
". c #25131A",
"X c #26141B",
"o c #28151E",
"O c #29161F",
"+ c #2F1A27",
"@ c #321D2B",
"# c #35202F",
"$ c #36202F",
"% c #362030",
"& c #362031",
"* c #372031",
"= c #372131",
"- c #372132",
"; c #382132",
": c #382133",
"> c #392235",
", c #3A2336",
"< c #3B2438",
"1 c #3B2439",
"2 c #3C2439",
"3 c #3D253A",
"4 c #3D253B",
"5 c #3D253C",
/* pixels */
"................................................................",
"................................................................",
"......  ..........  ....  . ..  ..      ........  ..........  ..",
"X..XXOX+OOOOOOOOOOX+OOOOOOOOOOX+OOOOOOOOOOOOOOOOOOOOOOOOOOOOOOOO",
"...O+@@@@@@@@@@@@@@@@@@@@@@@@@@@@@@@@@@@@@@@@@@@@@@@@@@@@@@@@@@@",
"...O@%;%%%%%@;%%%%%%;%%%%@%%%%%%%%;%@;%%%;%%%%%%##%%%%%%%%%%##%%",
"...O@%%%%%%%%%%%%%%%%%%%%%%%%%%%%%%%%%%%%%%%%%;%#%%%%%%;%%%%%%%%",
"...O@%%%;;;;;;>;;;;;;;;;>;;;%%%;;;;;;;;;;;;;;;;;;;;;;;;;;;;;%%%%",
"...O@%%;,222222222222222222>;%%;>22222222222222222222222222,;%%%",
"...O@%%;25552552552552522552;##;2552552525525525255225552522;%%%",
".. X@%%;25555555555555555552;#%;2555555555552555555555255552;%%%",
".. +@%%;22525255255552555522;%%;2552525555525552255552555552;%#%",
"...O@%%;25525555255255555552;#%;225525252525555555255525552<;%%%",
"...O@%%>25552552555555252522;%#;2555555555555255555555552552;%#%",
"...O@%%;22555555555525255252;%%;2555552555555255525552255552;%%%",
"...O@%%;25525525255255555552;#%;225222222525555222222222222>;#%%",
".. O@%%>22555555525525525522;%#;2252>;;>25552522>;;;;;;;;;;;%%%%",
".. O@@%;25522552555555555552;%%;2552;;@;25525552;%#%%#%#%%#%%%#%",
".. O@%%;25255255555225522552;##;2552;%%;22555552;##%%%##@%%##%%%",
".. O@%%;25555555525555555552>;;>2522>;;>25552552>;;;;;;;>>;;;;;;",
"...O@%%;25555555555552555252222222552222255255552222222222222222",
"...O@%%;25255525252555555555552555255525555552255252525555252552",
"...O@%%;22522525552552252552255555555555555555555555555525555555",
"...O@%%>25555555555555555555555552555255255255255255525555525525",
"...O@%%;25525555255252525525255252525525525525255555555552552525",
"...O@%%>22552525555555555555555555555555555555555525525255555555",
"...O@%%;25555555555525522552555555552552255255552525525555522552",
"...O@%%;25525255255255555555255252525555555525525555555552555555",
".. O@#%;22552552555555555555525555255255552552555555255255255255",
"...O@#%;25555555552552522525555525555555525555522552555525555555",
"...O@%#;25525555255552555525555255555525555555555555555555255225",
"...O@%%;22552552552555555555525555255255552552552552255255555555",
".. O@%;;25555555555552555555255225255255555555555555552525525525",
".. O@%%;22555255552555525255555555555555255225522552555555555555",
".. O@;@>25255252252555555252555555555225555555255555522555552552",
"...O@%;;22555555555552555555525225525555525555555525555525525555",
".. O@#%;22555555555525525555525525525555255255552525555555255555",
".. O@;%;25552552255255555225555555555225555555255555252525555225",
".. O@;;;25525555555555555555255255555555255225255555552555555555",
".. O@;@;15555255552525525255555525525255555555552552555555255255",
".. O@%%;25255252252552555555555555255555525555552525555525255255",
".. O@#%;25555555555555552552255255552552555552255555552555555555",
".. O@%%;12555552255552255555552525525555522555555555252525555225",
".. O@%%;25555255552555555255555555555252555552552525555555255555",
"...O@%%;12525555255255552552555555555255555525525525555525525555",
"...O@;%;25555252555552525555552552525555525555555555522555555252",
"...O@%%;25555255555555552552252552555552555255552552555555555555",
"...O@%%;25255555255255255555555555555255525525525555525525525525",
"...O@%%;<2525525525525255255555552555525255255555255555555552552",
".. O@;%;25555555555555555555522555522555555555255555522552525555",
".  O@%%;25552552255225555225555555555555555525255525555552555555",
".. O@%%;<2525555555555255555525552525525255255555255552555552552",
".. O@%%;25555555552552555555255252555525552555555255252555555525",
".. O@%%;22555225555555525255555555555555555552255555555555255555",
".. O@%%;22255555522555555552555552255225255255555552555525252552",
".. O@%%;25555255555552555255255255555555555555255255255255555555",
".. O@%%;25525525552525525555525555552552525525255555555552552525",
".. O@%%;25555555555555555255555252555555555555555525525255555555",
".. O@;%;25552552522555552552555555525555255255552525525555522552",
"...O@%%;<2525555555525525555525552552552555525525555555552555555",
".. O@%%;25555255555525525555255255555525552552555555255255255255",
".. O@%%;22555555522555552552555555255555525555522552555525555555",
".. O@;;;25255525555555555555255225255225555555555555555555255225",
".. O@%%;22555255552552525525555555555555552552552552255255555555"
};
