/* XPM */
static char *left_4_resized[] = {
/* columns rows colors chars-per-pixel */
"64 64 223 2 ",
"   c #1F161C",
".  c #241417",
"X  c #25141A",
"o  c #29151E",
"O  c #2A181F",
"+  c #26181E",
"@  c #271622",
"#  c #2A1621",
"$  c #251B23",
"%  c #2C1A25",
"&  c #251E29",
"*  c #2D1C2B",
"=  c #2E1729",
"-  c #301B26",
";  c #331E2C",
":  c #391E2E",
">  c #2D1E32",
",  c #351F31",
"<  c #381F32",
"1  c #2C212D",
"2  c #25212D",
"3  c #34202E",
"4  c #262332",
"5  c #2C2333",
"6  c #262738",
"7  c #2B253B",
"8  c #2D2C3C",
"9  c #292938",
"0  c #362132",
"q  c #3A2235",
"w  c #322B37",
"e  c #352539",
"r  c #3D253B",
"t  c #332B3C",
"y  c #3B293D",
"u  c #2F303E",
"i  c #34313F",
"p  c #402436",
"a  c #402439",
"s  c #2D2C42",
"d  c #252E42",
"f  c #3A2541",
"g  c #342D42",
"h  c #3B2B42",
"j  c #352F48",
"k  c #2C3245",
"l  c #2B3549",
"z  c #2E3A4E",
"x  c #263448",
"c  c #343344",
"v  c #3B3343",
"b  c #33364A",
"n  c #3B354B",
"m  c #343B4C",
"M  c #3A3A4C",
"N  c #3A3843",
"B  c #2D3B51",
"V  c #343E53",
"C  c #3B3C51",
"Z  c #353B56",
"A  c #453C52",
"S  c #433C59",
"D  c #42384B",
"F  c #2D4057",
"G  c #2F445B",
"H  c #354154",
"J  c #3C4255",
"K  c #34435A",
"L  c #3C455B",
"P  c #3C495C",
"I  c #33485F",
"U  c #3A4562",
"Y  c #354C64",
"T  c #3B4B63",
"R  c #3E4D69",
"E  c #3D5065",
"W  c #3D536B",
"Q  c #3D596F",
"!  c #335067",
"~  c #3E5B74",
"^  c #3D5974",
"/  c #444B5D",
"(  c #494E5C",
")  c #444459",
"_  c #434C62",
"`  c #464B67",
"'  c #445165",
"]  c #4C5465",
"[  c #42536B",
"{  c #4B566B",
"}  c #44596D",
"|  c #4C596C",
" . c #515464",
".. c #54596E",
"X. c #445672",
"o. c #4D5273",
"O. c #435B74",
"+. c #4B5B73",
"@. c #455D7A",
"#. c #4C5D7B",
"$. c #525B74",
"%. c #504C69",
"&. c #4D6075",
"*. c #46627A",
"=. c #4B637C",
"-. c #4D6A7F",
";. c #46647B",
":. c #516176",
">. c #5E6274",
",. c #55637A",
"<. c #526B7E",
"1. c #62697B",
"2. c #465F82",
"3. c #456683",
"4. c #4B6583",
"5. c #456A84",
"6. c #4C6A83",
"7. c #4E6C89",
"8. c #4A6988",
"9. c #556383",
"0. c #546C82",
"q. c #536A8A",
"w. c #586888",
"e. c #4A738E",
"r. c #47708D",
"t. c #53728C",
"y. c #5A738C",
"u. c #5C7A8E",
"i. c #556E92",
"p. c #4E7491",
"a. c #4F7C9A",
"s. c #537493",
"d. c #547A94",
"f. c #5B7E95",
"g. c #537C9A",
"h. c #5A7B9C",
"j. c #587398",
"k. c #627489",
"l. c #687E93",
"z. c #727F91",
"x. c #717B8E",
"c. c #597AA0",
"v. c #56829D",
"b. c #5C829D",
"n. c #558097",
"m. c #6D818F",
"M. c #6F8291",
"N. c #6C869B",
"B. c #63829A",
"V. c #7B8B9D",
"C. c #738C9E",
"Z. c #5482A3",
"A. c #5B84A3",
"S. c #5C89A6",
"D. c #578BAA",
"F. c #5C8CAC",
"G. c #5A87A8",
"H. c #5D8EB3",
"J. c #5E93B4",
"K. c #5E97BA",
"L. c #5F9ABA",
"P. c #5F9BB7",
"I. c #618CAB",
"U. c #638AA3",
"Y. c #6B92A9",
"T. c #6591AE",
"R. c #7995AA",
"E. c #6394B4",
"W. c #6396B9",
"Q. c #629ABC",
"!. c #689CB7",
"~. c #7399B2",
"^. c #7F9BB2",
"/. c #6C8EAB",
"(. c #6BA2BD",
"). c #64A0BE",
"_. c #74A4BD",
"`. c #7BA5B9",
"'. c #5E9DC3",
"]. c #629DC2",
"[. c #5EA6C9",
"{. c #5FADD3",
"}. c #63A2C4",
"|. c #64A4CA",
" X c #64A9CF",
".X c #6AAACC",
"XX c #6AA4C6",
"oX c #77AAC4",
"OX c #76B2CC",
"+X c #62A6D1",
"@X c #63AAD3",
"#X c #6BAED1",
"$X c #64ACD9",
"%X c #73B4D4",
"&X c #7BB9D8",
"*X c #809EB2",
"=X c #859AAD",
"-X c #8BAABA",
";X c #86A3B7",
":X c #90A5B7",
">X c #86ACC2",
",X c #83B5CE",
"<X c #89B6CA",
"1X c #94B1C5",
"2X c #98B7CB",
"3X c #85BAD5",
"4X c #94BCD3",
"5X c #9ABBD3",
"6X c #8DC3DD",
"7X c #85C0DB",
"8X c #9DC6D6",
"9X c #9DC4D9",
"0X c #9CC8DE",
"qX c #94C1D8",
"wX c #A0C3D7",
"eX c #8EC5E1",
"rX c #9ACBE4",
"tX c #97CBE4",
"yX c #A1CDE6",
"uX c #A5CFE8",
"iX c #A6D2E6",
"pX c #A6D1E8",
"aX c #A8D2E7",
/* pixels */
"X X X X X @ @ X X X X X X X X X . . X X X X o o . X o X X X o o o o X X X . . o . . . X o . . X X X X X X X X o X X . X . . . . ",
"@ o o @ @ % @ @ @ @ # # # o X o O O o o o o o o o o o o o o o o o o o o o o o o O . . O o o o X o X o o o o o o o o O o . . X . ",
"% % % % % % % % % % - % - % = % - - - % - - - - - = - - - - - % = = - - - - - - % % % % - % - - - - - - - - - % - - - % X . X X ",
"; ; ; ; ; ; ; ; , ; , : : ; ; ; ; ; 3 ; ; - ; - ; ; - : 3 ; ; ; : = : ; - ; 3 - 3 1 3 ; ; ; ; ; - ; ; : ; ; - ; - ; - - $   X X ",
"3 3 : : ; ; , ; , : , 3 3 3 3 3 3 ; 3 ; : ; ; : ; ; 3 3 ; 3 : ; ; , , ; 3 : : 3 : ; 0 , 5 3 3 3 : ; 3 3 ; ; : ; 3 3 3 - + X X X ",
": 3 0 , , 0 , , 0 , q q 0 0 3 3 0 0 0 0 0 0 0 < 3 3 0 0 3 3 3 0 , , , : 3 3 3 3 < < 0 0 0 w q 0 3 q q 3 3 3 : : 3 3 3 3 O X X X ",
": 0 0 < 0 < q r q r q q q q q q 0 q q q q q r < p q q q q q q q 0 0 0 q q q p q q q q r 0 e e q q q q q q q q q 3 3 3 - O X X . ",
"; , q q r r r r r r r r a q a a r r r r r r r r a r a r q r r q q < q q q q q p r r r r r r y y r r y r p r q q p 3 3 - O o . . ",
"< < < q r y y r r r < D < a a < a f f < f a r r r a a r r r y q < , 0 0 q q q q r a a r r r y q f f a < a < < a 3 : : - o o . . ",
"< < < < q r y r r r a f a a a f < a a f < D a a r y r r r r q q q : : 3 0 0 q q p a a a a r r r < a f p < a f < q : : - o X X . ",
"< , < < < q r r r f f a < a f a D < r r a a f f r r r r r r r q 0 0 ; , 0 > 0 q r a a a r r r r a f < D D a p < q 3 : - o X . X ",
", , < < < q q r r < a f D a a f r f r r < f a a r a r r r r r q 0 0 , * * > > 0 r a a a p q r r f a a f f a D < q : 3 ; o X . X ",
", , , < q q r r r r r r < a < f y y r r r r r r r a r r r r q q q < > > > 4 5 5 e r r r a r r q < < f f D < a a q < : - o X X X ",
", , , , q q r r r r r r a f f a r y y r r r a r r r r r 0 0 0 0 , > e e g g s 8 e e < r r r r q f a D f f a < f q < : ; - X X . ",
"; ; : , 0 r 0 r r < a r < f < a r r r r r r r r r q q 0 , , ; * * > s n ) ( J N w 0 0 r r r r r f a p < < a r r < < : - o X . X ",
", : : , < q 0 < < r f < < < < < r r r r y a a r q 0 0 3 0 * * * > > j S :.,.] J 8 5 5 e r r r r a f < a r r r q q , : - o X X . ",
": , , , < < , q 0 , , , < , < 0 r f e r q p p < < : 1 5 5 5 1 5 > g Z O.u.B.<._ s * * 0 q y r a a a a a r r r r < , ; ; o o . . ",
", , , , , 0 , : : q q , , q < < e r r r q q : : - * 1 5 u c m c b K [ t.Y.Y.u.{ i * , , e y r a a a a a r f r r q 0 : ; o X X X ",
"0 0 q 0 0 q 0 q q q q q q 0 q q r f r r 0 ; : = = * 4 d H E } &.@.=.d.U._.~.l.$.c * ; 0 q y r a a a a < a r r r q 0 : % @ X X X ",
"q r q q q q q q q q q q q r q r r r r r 0 3 ; % & 4 6 z } 6.d.n.n.S.E._.,X>XC...i * ; 0 q e r p a a a f f f < r < , : * # X X X ",
"r r q r r r r r r q r q r r q r r r r q w 5 9 9 6 9 x I -.v.J.).).(.OX&X4X4XC.$.D - ; 3 e w r q a < r r < f r < q < , - # X X X ",
"r a r r y r r r r r r r r r r r q q 0 w w c N H F K Y *.n.J.(..XOX%X7X6XrX5XR.>.i - * : 0 e q 0 < f e r r r a < q < , - # X X X ",
"r r r r y a r r y r r r r r r r q 0 1 w i P } ;.-.5.e.g.D.L..X%X&X7X6XtXyX5XV.1.v % * : 0 0 : > > > < f r r r a < : < = o o X . ",
"r a r y a r r r a r r y a r r q q ; 2 w H } t.b.D.D.F.K.].|.#X%X7X6XtXiXuX5X=X1.M 5 5 3 q 0 5 > > > f < r r a < q 0 < = # X X . ",
"r r r a r r r r r r y a r r r r 0 * * 7 C =.A.W.].|.|.|..X#X%X7XeXtXyXaXpX4X^.k.) i w w e w e 8 s g t e q q p q < , , ; @ X X . ",
"r r r y a r a r r r r r r r r r : * & 7 U 4.I.XX+X#X+X#X%XOX7X7XtXyXaXaXaX9X;XB.&.L M g 8 8 b C C C g e 0 : q q q 0 , - % X X . ",
"r r r r r r y r r r f a r r r < , , = s U q.F.XX.X{.#X%X&X7X6XtXyXiXiXiXiX9X<XR.n.<._ m s j L { ..%.n t 0 , 3 q : , ; ; @ X X X ",
"r y r a r a r r r r r r r r r r < > > s T 4.F.P.).}.}.oXOX,XqXqX9X9X9X8X8X8X<X_.Y.f.*.I l Z +.w.k.,.J 8 * * : q q : , * @ X X . ",
"r a f a y r r a a y a r r q e r e f j Z R ;.g.S.S.D.F.T.~.`.-X-X-X-X-X-X-X-X`.oX(.S.e.*.Y W t.B.N.y./ t 1 % 3 q < < , ; @   X X ",
"r r r r r r r a r r r r r < , e g b L ' O.*.5.5.5.6.6.0.y.m.m.m.M.m.m.m.m.N.Y.!.).!.v.e.5.q.U.~.R.l.' s 1 % : 3 < , , * = @ X X ",
"r r r r r r r r r r r r r < > , g L +.<.=.*.I G G K K P / P ( ( ( ( ( ( _ +.w.A.Q.).P.S.b.T._.>X;XN.] k 1 % ; < < , , > @ X X . ",
"a r a r r r r r r r a y q , = > c _ <.y.-.Q F x l k k k u N H c m N b c b K X.q.F.E.Q.(.(._.,X3X>XC.] c 5 % : q 0 , , > @ X X . ",
"y a a r f r a r r r a r q 0 % & u J &.6.;.W K B z H z V V Z K Z H V V z z B W 3.a.G.W.XXoX<XqX4X1XC. .c 1 - : 3 q : 3 ; # o . . ",
"r r f r a r r f r a y q q ; % * 1 m P } Q W R U E E Q Q } O.^ ^ X.X.[ E Y Y R ^ 2.i.I.!.,X6X0X9X1XV. .i 1 ; : q q < 3 % # . . . ",
"r r r r r r r a a r r r q 3 % # 2 2 8 z U W @.4.7.d.n.v.Z.Z.Z.Z.Z.h.d.e.4.#.X.R U ^ d.~.<X0XrX9X:X=X .i 3 % : q : 3 3 * $ X . . ",
"r a r r r f r a a r r q 0 3 % # + 2 6 x K ^ q.j.S.T.P.L.L.'.'.[.].Q.K.F.h.i.#.R K R y.~.4XyX9X5X:XM. .i 3 - : q q : 0 * $ X . . ",
"r r y a a f r f r r r q q 3 % $ 2 1 u F R 4.h.I.P.'.[.[.+X@X+X@X@X+X'.].T.h.q.O.T } f.^.2XwX1X:XV.1.) y 3 3 q 3 0 3 3 1 # . X . ",
"r r r f y y a r r y y q 0 ; % $ 1 w H E =.j.I.W.[.[.{.{.@X@X@X$X$X$X+X].Q.F.h.q.O.-.N.;X2X2X=XM.1. .n y 0 0 q q 0 3 3 % # X . . ",
"r r a r r a a r r y p q q 3 = $ 5 N E &.s.S.!.].|.@X{.@X+X X.X X+X$X@X|.}.P.F.v.d.n.R.:X2X:Xx. .A v y r q q q q 0 3 3 1 O X . . ",
"r r r r y r r r a p y y q ; # * w M } -.s.U.E.].}.[. X|.].P.E.P.].].].].].W.J.S.v.b.Y.=X=X=X>.) q > q q r q q q q 3 3 1 # + . X ",
"r r D < f f a a r r a q q 3 % % 5 c L } <.s.U.H.].].|.'.F.v.a.g.G.F.H.H.H.H.c.G.c.U.B.N.M.1.( i , * < q q r e q 3 3 3 1 O . o . ",
"< r < r f a a f r r r r 0 3 % % * w b K [ #.j.c.H.'.'.J.a.5.~ *.8.j.h.c.c.c.c.c.c.h.y.w...( N w = = , r r r y q 3 3 3 - O . X X ",
"a a r r < f f a r r r p 0 3 % O @ & > 9 M T #.q.G.H.K.D.5.! F H o.$.9.w.w.i.i.j.j.i.#.` M w 1 $ @ = , q r r r r 3 w 3 1 # X X X ",
"a f y r D a f a a r r q q 3 % o X X   2 8 M _ =.d.F.J.Z.^ F d d n ) %.%.o.o.9.q.j.w.o.C w $ + o % = , e r r y q q 3 3 3 # o X X ",
"< a a a < f f a r r r r q ; % X X .   $ 2 i m ' 7.Z.I.Z.~ B 6 4 f n A A S _ o.=.w.9.%.n > @ @ % - : 0 q r r r r 3 3 3 - # X X X ",
"D a f a a a a f r r r q 0 ; = # X .   + $ 5 k U 3.h.I.b.O.m 4 $ 5 e h h j b L O.w.$.` n > @ % - , q q r r y f r p 3 3 - o o X X ",
"< a f f a < a f r r r r q 3 = @ @ @ $ $ & & 7 V @.g.I.b.O.H 9 2 4 5 7 7 7 d Z ' ,.$._ c > @ * ; 3 q q r r y r r 3 : ; - # X X X ",
"a < < a f D < a r r r r q ; * @ @ * 5 8 8 s B Y 5.h.E.U.5.Y z d l l k k d l V T |  .) v 5 % % 0 3 e r r r r r p q 3 : ; # X X X ",
"f r r r y a r r r r r q q : % @ 4 8 M J T R ^ 3.a.D.'.K.a.r.~ ~ ~ Q W E T U P P P L n t 0 * 0 q r r r y r y a r q 0 3 - O o . . ",
"a r f a a a r r f r r r < : @ * 5 b L { =.q.s.c.H.K.].'.H.D.a.a.g.g.e.q.=.O._ L M c t 8 5 0 q q r r r r r r r r q 0 3 3 O X . . ",
"r r r r r f a y a r r r q : % > w M ] <.y.B.I.W.L.L.].Q.Q.L.P.P.E.E.I.h.y.:.` C 8 5 5 0 e q r e y q r r r r r r 0 0 3 - # X . . ",
"r a r r r r r a r r a y q , ; * w M / ,.y.A.E.W.K.D.D.F.P.].|.|.|.Q.T.B.y.+./ n 5 1 1 0 e y r y y y r r r r r q q 3 3 - # o . . ",
"f a r f y r r < q r a r q q 3 0 q i m P O.e.A.S.g.e.5.r.Z.K.|.|.}.J.A.q.X._ n g 0 3 3 e q e y r q a r a r r r r q 0 3 - # o X . ",
"r r r r a r < r r r r a r q q q 0 e u z T *.y.y.;.~ ! W p.D.L.].J.G.p.@.U j s < 0 q q q q y y r a y r y r r r r q 0 3 ; O X . . ",
"r r r a y r r r r r r r r q q r q , 5 9 z E $.:.' H B K @.d.G.F.Z.p.3.R l s 5 0 q q r p r r y r y r r r r r r q 0 3 3 - $ X . . ",
"y a r f a r y r r a r r r r r r < , > 5 k J _ / C c s b T #.q.e.4.@.R Z g 5 5 3 q r a a r q y r r r r r r r r r q q 3 - @ X . . ",
"a f a f < a D < r r y a r r a r r < , e 7 g v n h g e g M ) _ T L J M c e , , 0 r r r a a r r r r r r r r r r r q : ; - O + . . ",
"< a f a f a < a r r r r r r r r r e e 0 w q w e q e e e t t c 8 w w w q w 0 < e r y r q r a p r r r r r r r r r q 0 3 ; # X X . ",
"f f f a f a f a r r r r r r r r f r r 0 , , * ; ; 0 e e 0 5 > & % % 3 3 < r r f y y y r r a p a a r r r r r r q 0 q ; - # X . . ",
"a f < D < a a f r r r r r r r r r f y e 0 * * % ; 0 q 0 5 * @ % # % - ; < f < r y r r y r a a a r r r r r r r r q 0 ; - # X X . ",
"f a < D f D < < r a r r y y y r r r r r < < ; : 0 q e q , , * ; ; < : < r p < f r r y r r r a r r r r r r r r r q q 3 - # + . . ",
"a f f < < r a a r r r r y a r r r r r r f e < r r q q q r < q e < < < a < D a a r r r r r r r r r r r r r r r r q 3 3 - % . . . ",
"a f a f r r y a r a a r a f r a a p r r f f h y y p p q < r f f f f f f f a a a a r r r y r r y r r r r r r r r q 3 3 ; + o . . ",
"f f < a r y r r r f r r f r f a p q r r f f v a a p p a r r f f f f f f a f < a a a r r y r r y r r r r r r r q q 0 3 % # + . . "
};
