/* XPM */
static char *left_2_resized[] = {
/* columns rows colors chars-per-pixel */
"64 64 182 2 ",
"   c #241317",
".  c #25141A",
"X  c #29161F",
"o  c #27181F",
"O  c #2A1721",
"+  c #271921",
"@  c #2C1A24",
"#  c #2D1E29",
"$  c #301A26",
"%  c #331E2C",
"&  c #361F30",
"*  c #381F32",
"=  c #2E2127",
"-  c #2D212D",
";  c #32212E",
":  c #2E2632",
">  c #2E2935",
",  c #2F2E3B",
"<  c #362132",
"1  c #392235",
"2  c #322936",
"3  c #352638",
"4  c #3D253B",
"5  c #332C3B",
"6  c #3C293D",
"7  c #33303E",
"8  c #3A303C",
"9  c #372E41",
"0  c #353344",
"q  c #3A3443",
"w  c #3D3944",
"e  c #3B364A",
"r  c #363A4B",
"t  c #393B4D",
"y  c #3A3E51",
"u  c #413745",
"i  c #433F49",
"p  c #413A46",
"a  c #413F55",
"s  c #374556",
"d  c #3A4255",
"f  c #3C465A",
"g  c #3C4A5D",
"h  c #3E4D62",
"j  c #3E5166",
"k  c #3F5369",
"l  c #40404C",
"z  c #434554",
"x  c #464957",
"c  c #44465E",
"v  c #434B5C",
"b  c #4B4D5C",
"n  c #4A4554",
"m  c #504F5E",
"M  c #414D64",
"N  c #4A4C66",
"B  c #474F68",
"V  c #415167",
"C  c #4B5361",
"Z  c #42546B",
"A  c #4A546B",
"S  c #43586E",
"D  c #4C5C6F",
"F  c #535563",
"G  c #555C6D",
"H  c #455770",
"J  c #435A73",
"K  c #4B5B74",
"L  c #455F79",
"P  c #4B5D79",
"I  c #525F7F",
"U  c #46627C",
"Y  c #49627D",
"T  c #556171",
"R  c #5C6573",
"E  c #5C6C7E",
"W  c #626C7B",
"Q  c #476780",
"!  c #4A6682",
"~  c #476983",
"^  c #4B6985",
"/  c #4C6D8A",
"(  c #536484",
")  c #536C8D",
"_  c #526D83",
"`  c #4C718E",
"'  c #587289",
"]  c #556F91",
"[  c #4D7593",
"{  c #4E7996",
"}  c #4F7798",
"|  c #4F7B9A",
" . c #527494",
".. c #527997",
"X. c #5D7B92",
"o. c #547798",
"O. c #527C9C",
"+. c #5A789D",
"@. c #58759A",
"#. c #66798B",
"$. c #597FA3",
"%. c #5B829E",
"&. c #688296",
"*. c #63839A",
"=. c #6C8A9F",
"-. c #798D9D",
";. c #738797",
":. c #5483A4",
">. c #5A83A2",
",. c #5D89A6",
"<. c #5686A9",
"1. c #5985A9",
"2. c #568AAC",
"3. c #5A8BAD",
"4. c #578EB1",
"5. c #5B8EB3",
"6. c #5791B3",
"7. c #5A91B5",
"8. c #5B95BA",
"9. c #5C99BE",
"0. c #638DA9",
"q. c #748EA1",
"w. c #6591AF",
"e. c #6893AE",
"r. c #7794A7",
"t. c #7B92A2",
"y. c #629ABC",
"u. c #6D9EBB",
"i. c #6B99B7",
"p. c #749BB3",
"a. c #6EA0BE",
"s. c #7DA0B7",
"d. c #7CA4BC",
"f. c #5D9DC3",
"g. c #629EC2",
"h. c #5DA1C7",
"j. c #5FA3CA",
"k. c #63A2C5",
"l. c #6CA2C1",
"z. c #61A5CD",
"x. c #6CAACD",
"c. c #74A6C3",
"v. c #73A8C7",
"b. c #7EB1CE",
"n. c #62AAD2",
"m. c #6CABD0",
"M. c #73AFD1",
"N. c #71B1D6",
"B. c #7BB5D4",
"V. c #74B4D8",
"C. c #78B5D9",
"Z. c #79B8DB",
"A. c #809AAC",
"S. c #859EB0",
"D. c #86AABF",
"F. c #88A4B6",
"G. c #80AEC6",
"H. c #89ABC0",
"J. c #84B2CC",
"K. c #8CB4CA",
"L. c #91B2C5",
"P. c #95B9CD",
"I. c #98BBCF",
"U. c #82B8D6",
"Y. c #8CBBD5",
"T. c #83BCDB",
"R. c #8EBFD9",
"E. c #94BCD2",
"W. c #98BDD2",
"Q. c #87C0DF",
"!. c #8BC1DD",
"~. c #93C0D7",
"^. c #91C3DD",
"/. c #9BC8DF",
"(. c #9AC3D8",
"). c #8EC4E0",
"_. c #96C8E2",
"`. c #9BCBE3",
"'. c #A2CEE5",
"]. c #A6D0E7",
"[. c #A8D1E7",
"{. c #A8D1E8",
/* pixels */
".           .     . . . . . .   . . .       . .     . . . . .         . .     .         . . .       . .   .         .   .     . ",
". . . .     . . . X . . . . . . . . . . . . . . .   . . . . . . . . . .   . .   . . . .   . . . . . . . . . .     X .     .     ",
". . . . . X . . . X . . . . . . . . . . . X . . . . . . X . . . . . . . . .   . . X . . . . . X . X . . X . . . . . .   .   .   ",
"@ O O @ O O O O O O O X O O O X O @ O X O O O O O O O O O O O O O X X X . . . O X O O X X O O O O O O O O O O O O O O O . . . . ",
"% $ % % % $ $ % $ % $ % % % $ % # % $ % % $ % # % $ $ % $ % $ % $ @ @ @ @ @ @ @ @ % $ % % % # # % $ % $ % % $ % % $ $ $ O . . . ",
"% & % & ; % < % & < ; % & & & % & % % < % & & & & & % % % % % % % % : < > 2 > < ; % ; % % & & & < ; & ; & % & < % & % % O X . . ",
"< < & & < * * * < & < * & * < & & & & & < & * & & & % % % # $ @ @ % 3 0 d g y 0 2 $ % % & & * * < & & & < < < < < % & $ O . .   ",
"% % & < < < < 1 * < < 1 < 1 1 < 1 < 1 1 1 < * * * 1 1 & % @ @ @ O - 0 f U ~ k y 2 # % % < 1 * 1 < 1 1 < < * * * & < % % O . . . ",
"% < < * 1 1 4 4 4 4 4 4 4 1 4 4 4 4 4 1 1 1 * 4 1 3 1 1 - - - = ; 5 d S ..%.~ h , # # & 1 4 1 4 4 1 4 4 4 * 4 4 1 < < $ O . . . ",
"* % & < 1 4 4 4 4 4 4 4 4 4 4 4 4 4 4 4 4 1 * * < < 1 3 7 0 r s l x D ' 4.3.[ k , @ # & 1 4 4 4 4 4 4 4 4 4 4 * 1 & ; $ O . X   ",
"% * & < 4 4 4 4 4 4 4 4 4 4 4 4 4 4 4 4 * & # # $ $ ; 5 d Z U E ' #.&.w.y.y.[ k , @ $ & 1 4 4 4 4 4 4 4 4 4 4 4 < * % % X X     ",
"% < < < 1 4 4 4 4 4 4 4 4 4 4 4 4 4 4 3 1 & # # # - 2 e Z ` ,.e.p.s.d.c.x.9.{ k 5 @ % < 4 4 1 4 4 4 4 4 4 4 4 4 < * & $ O X     ",
"* % * * 1 4 4 4 4 4 4 4 4 4 4 4 3 4 1 1 1 2 2 > 5 5 0 g ^ ,.a.b.K.~.Y.Z.N.y.{ k , @ # & 1 4 4 1 1 4 4 4 4 4 4 4 * % < $ O X     ",
"* ; * * 4 4 4 4 4 4 4 4 4 4 4 4 1 1 & 1 5 e d s g h Z Y %.a.B.^.`.`._.Q.V.g.{ k , @ # & 1 4 1 * ; < * 4 4 4 4 4 * < < $ O     X ",
"% * * * 1 4 4 4 4 4 4 4 4 4 4 4 1 & # < t M U ` ` ....,.a.b.!.`.].'._.Q.V.y.{ k , + # % 1 1 * $ % ; 1 4 4 4 4 4 1 * < $ O X     ",
"* % ; < * * 4 4 1 * 4 4 1 4 4 1 < % @ 2 d J %.4.8.8.y.l.b.!./.`.].`._.).C.k.%.S 0 : < < 1 1 < : ; ; ; 1 * 4 4 4 * * < $ O X     ",
"% % % * * * * 1 * < * * * * * * < = @ 2 d U 4.k.x.x.M.B.!./.].].].'.`.^.Z.v.,.E g e 0 3 3 3 5 7 8 8 5 1 < 1 1 4 * * % % X . . . ",
"% * * * % * * * < < * * * ; * ; < % @ : d ~ 7.n.N.Z.T.Q._.'.].[.[.].`./.!.b.a.%.^ Z y 0 5 5 t g v f q 3 < & 1 3 * * < $ X . . . ",
"* * * * * * * ; * * * * * * * < < $ $ > s U 7.x.Z.Q.^./.`.].].[.[.].'././.!.b.a.,.` S t 5 e j Q ^ J d 2 < % 1 1 1 * % $ O . . . ",
"* * 1 1 1 1 1 1 * 1 1 * 1 * * < < ; ; 8 h U :.a.a.G.K.K.P.~.P.P.~.~.P.P.P.K.b.a.g.2.~ j t f ~ %.>.` z 5 # $ 1 1 < * < % O . .   ",
"4 4 4 4 8 1 4 1 4 4 4 1 4 1 < 1 2 0 s s k U ` %.%.=.t.t.t.t.t.t.-.-.t.t.t.r.p.a.k.8.O.~ J Y %.w.e.X.v 7 = @ 1 1 < < & $ O X . . ",
"4 4 4 4 4 4 4 4 4 4 4 4 4 * ; * 5 t k L U J S k K T R R R R R R R R R R R W *.,.y.f.4.:...%.i.d.s.&.C 7 # % 1 1 < * ; % O . .   ",
"4 4 4 4 4 4 4 4 4 4 4 1 * < $ = 0 h ` [ ~ k s 0 0 w w w w w r r 8 d w w w z S [ 7.h.9.9.9.l.b.J.D.;.C 7 = # & 1 1 * % % X . .   ",
"4 4 4 4 4 4 4 4 4 4 4 4 * ; $ $ , g ~ { ~ k s , , , 7 0 7 0 0 0 8 7 7 8 , r j U %.7.y.k.x.B.!.~.L.-.F 8 = $ < 1 < * & % O . .   ",
"4 4 4 4 4 4 4 4 4 4 4 4 1 * $ $ > r j k H k g f g h k k k k k k k k k g g s j S U [ 0.a.b.Q./.(.F.A.F 8 ; $ 1 1 < * < $ O .   . ",
"4 4 4 4 4 4 4 4 4 4 4 4 1 % $ O - > r g h Z H U ~ / [ | { { | { [ %.` ~ U U Z j j D X.p.J.^./.(.D.-.F 8 % $ < 1 < * & % O . .   ",
"4 4 4 4 4 4 4 4 4 4 4 4 4 * = O + + : 0 d H ^ @.:.4.8.9.f.8.f.f.9.9.6.2.O.` U h d x E t.D.E.(.P.F.A.m 8 % $ < 1 < < & % O X . . ",
"4 4 4 4 4 4 4 4 4 4 4 4 4 % $ X + - : r h ! ..4.9.h.z.n.n.n.z.n.n.j.j.f.y.:.^ S d f G #.t.S.S.A.A.W n 3 ; % < 4 < * & $ O . .   ",
"4 4 4 6 6 4 4 4 4 4 4 4 4 * $ O : 7 t V Y ..4.8.f.j.n.n.n.n.n.n.n.n.z.z.f.5.$.~ H Z G T R W W R F m u * ; < 1 1 * < % % O X .   ",
"4 4 4 4 4 4 4 4 4 4 4 4 * * $ = : r g Y [ 1.7.g.j.z.n.n.z.z.j.j.n.z.z.z.g.8.4.O.^ Y A b n i i i 8 u 6 * 4 * 4 1 * < % % O . .   ",
"4 4 4 4 4 4 4 4 4 4 4 4 1 % $ O 2 e M !  .1.7.f.j.z.z.j.f.f.8.f.f.f.g.f.g.8.5.1.| ~ C d ; = = = = ; * 1 4 1 4 4 1 < % % X X .   ",
"4 4 4 4 4 4 4 4 4 4 4 4 1 * $ $ - 0 f H ^ @.1.8.f.j.z.f.4.:.| | $.5.5.5.5.5.3.1.%._ k 8 =       $ $ ; 1 4 4 4 4 * < % % O   . . ",
"4 4 4 4 4 4 4 4 4 4 4 4 * * @ X + : 9 r c ! ) $.$.f.f.f.[ L k k (  .@.@.$.@.@.+.@.) M 9 # . . . o @ & * 4 4 4 4 * & * # X . . . ",
"4 4 4 4 4 4 4 4 4 4 4 4 4 * @ X + + - 3 e a ! ) $.4.f.$.Q h s r N P ( ( ( ( ( ] } / M r - . . o o # & * 4 4 4 4 1 & * $ X . . . ",
"4 4 4 4 4 4 4 4 4 4 4 4 * * $ X . o o @ < e c ! } $.f.| J r , , e N N N N N ( ( } ! j 9 - o . @ @ & * 1 4 4 4 1 1 * & $ @ . . . ",
"4 4 4 4 9 4 4 4 4 4 4 4 1 & @ X . . . o # 3 0 h ` $.f.| k r : + 3 0 0 u a y N ( ) / M r - . + @ # & 1 4 4 4 4 4 * & & # O . . . ",
"4 4 4 4 4 4 4 4 4 4 4 4 * * @ X . . . . + + > r L | 6.| k r - + # - : : & 9 y H ) ! j r # o @ & * 1 4 4 4 4 4 1 * & * $ X . . . ",
"4 4 4 4 4 4 4 4 4 4 4 4 * & @ X + + + + : > , s U | f.2.Q s , > > > 3 : : 9 y M L L h 9 # @ & & 1 4 4 4 4 4 4 4 * * * # @ . . . ",
"4 4 4 4 4 4 4 4 4 4 4 4 1 & @ O + - 9 0 r s s k ` :.f.$.[ k g y y f y y t t y h Z M y 9 : # & 1 1 4 4 4 4 4 4 4 * * * $ @ . . . ",
"4 4 4 4 4 4 4 4 4 4 4 4 1 * @ @ - 9 s j k U ~ [ :.6.f.f.2.| ~ ~ ~ ~ Q L k h h h d r 9 3 & 1 1 3 4 4 4 4 4 4 4 4 * * * # X . . . ",
"4 4 4 4 4 4 4 4 4 4 4 4 4 * $ # > r k ! ] $.$.f.f.f.f.f.f.4.f.2.4.4.<.| ) L k d 9 > 3 * 1 1 4 4 4 4 4 4 4 4 4 4 * * & $ O . . . ",
"4 4 4 4 4 4 4 4 4 4 4 4 4 * # # , r k ! } $.f.f.f.f.4.f.f.f.j.j.f.f.8.$.} ! M y 3 - & * 3 4 4 4 4 4 4 4 4 4 4 * 1 * * # O . . . ",
"4 4 4 4 4 4 4 4 4 4 4 4 4 4 & * 3 9 f k Q } | 4.$.} } } 2.f.h.h.f.8.<.} L M d 9 : & & 1 4 4 4 4 4 4 4 4 4 4 4 4 1 * & # O . . . ",
"4 4 4 4 4 4 4 4 4 4 4 4 4 4 * * 3 3 9 y k Q } } / L k L } 6.f.f.f.<.} Q h r 9 3 3 * 1 3 4 4 4 4 4 4 4 4 4 4 4 4 * * & # O . . . ",
"4 4 4 4 e 4 4 4 4 4 4 4 4 4 4 * 1 1 # 9 y k ! ! k f r f Q $.$.f.$.} ^ k e 9 : < * 1 4 4 4 4 4 4 4 4 4 4 4 4 4 4 * & & % O . . . ",
"4 4 4 4 4 4 4 4 4 4 4 4 4 4 4 4 1 & # : 9 d k k d 9 5 0 k ^ } } / Q k y 9 - & * 1 4 4 4 4 4 4 4 4 4 4 4 4 4 4 4 * & & # O . . . ",
"4 4 4 4 4 4 4 4 4 4 4 4 4 4 4 4 < < * 1 9 0 y y 9 5 3 5 r h k k h y t 9 1 & < < 4 4 4 4 4 4 4 4 9 4 4 4 4 4 4 4 * * * $ O . . . ",
"4 4 4 4 4 4 4 4 4 4 4 4 4 4 4 4 4 1 1 1 1 3 3 3 3 3 3 > 9 9 9 9 9 3 9 * 1 1 < 3 4 4 4 4 4 4 4 3 4 4 4 4 4 4 4 1 1 * * $ O . . . ",
"4 4 4 4 4 4 4 4 4 4 4 4 4 4 4 4 4 4 4 4 4 4 * * * * * * * $ & $ $ % * * 4 4 4 4 4 4 4 4 4 4 4 4 4 4 4 4 4 4 4 4 * * & $ O . . . ",
"4 4 4 4 4 4 4 4 4 4 4 4 4 4 4 4 4 4 4 4 4 4 * * * * 4 * * * O $ $ $ % * 4 4 4 4 4 4 4 4 4 4 4 4 4 4 4 4 4 4 4 4 * * * # O . . . ",
"4 4 4 4 4 4 4 4 4 4 4 4 4 4 4 4 4 4 4 4 4 * * * * 4 4 4 * * * * * * 4 * 4 4 4 4 4 4 4 4 4 4 4 4 4 4 4 4 4 4 4 1 * * & # O . . . ",
"4 4 4 4 4 4 4 4 4 4 4 4 4 4 4 4 4 4 4 4 4 4 4 4 4 4 4 4 * * * 4 4 4 4 4 4 4 4 4 4 4 4 4 4 4 4 4 4 4 4 4 4 4 4 4 * * & # O . . . ",
"e 4 4 4 4 4 4 4 4 4 4 4 4 4 4 4 4 4 4 4 4 4 4 4 4 4 4 4 4 4 4 4 4 4 4 4 4 4 4 4 4 4 4 4 4 4 4 4 4 4 4 4 4 4 4 4 * & & % O . . . ",
"4 4 4 4 4 4 4 4 4 4 4 4 4 4 4 4 4 4 4 4 4 4 4 4 4 4 4 4 4 4 4 4 4 4 4 4 4 4 4 4 4 4 4 u 4 u 4 4 4 4 4 4 9 4 4 4 * & & $ O . . . ",
"4 4 4 4 4 4 4 4 4 4 4 4 4 4 4 4 4 4 4 4 4 4 4 4 4 4 4 4 4 4 4 4 4 4 4 4 4 4 4 4 4 4 4 4 4 4 4 4 4 4 4 4 4 4 4 4 * * & $ O . . . ",
"4 4 4 4 4 4 4 4 4 4 4 4 4 4 4 4 4 4 4 4 4 4 4 4 4 4 4 4 4 4 4 4 4 4 4 4 4 4 4 4 4 4 4 4 4 4 4 4 4 4 4 4 4 u 4 4 * * & % O . . . ",
"4 4 4 4 4 4 4 4 4 a 4 4 4 4 4 4 4 4 4 4 4 4 4 a 4 4 4 4 4 4 4 4 4 4 4 4 4 4 4 4 4 4 4 4 4 4 4 4 4 4 4 4 4 4 4 1 * * < % O . . . ",
"4 4 4 4 4 4 4 4 4 4 4 4 4 4 4 4 4 4 4 4 4 4 4 4 4 4 4 4 4 4 4 4 4 4 4 4 4 4 4 4 4 4 4 4 4 4 4 4 4 4 4 4 4 4 4 1 1 * & $ O . . . ",
"4 4 4 4 4 4 4 4 4 4 4 4 4 4 4 4 4 4 4 4 4 4 4 4 4 4 4 4 4 4 4 4 4 4 4 4 4 4 4 4 4 4 4 4 4 4 4 4 4 4 4 4 4 4 4 4 1 & & % X . .   ",
"4 4 4 4 4 4 4 4 4 4 4 4 4 4 4 4 4 4 4 4 4 4 4 4 4 4 4 4 4 4 4 4 4 4 4 4 4 4 4 4 4 4 4 4 4 4 4 4 4 4 4 4 4 4 4 4 1 & & # X . .   ",
"4 4 4 4 4 4 4 4 4 4 4 4 4 4 4 4 4 4 4 4 4 4 4 4 4 4 4 4 4 4 4 4 4 4 4 4 4 4 4 4 4 4 4 4 4 4 4 4 4 4 4 4 4 4 4 4 < & % $ O . . . ",
"4 4 4 4 4 4 4 4 4 4 4 4 4 4 4 4 4 4 4 4 4 4 4 4 4 4 4 4 4 4 4 4 4 4 4 4 4 4 4 4 4 u 4 4 4 4 4 u 4 4 4 4 4 4 4 4 1 * ; % O . . . ",
"4 4 4 4 4 4 4 4 4 4 4 4 4 4 4 4 4 4 4 4 4 4 4 4 4 4 4 u 4 4 4 4 4 4 4 4 4 4 4 4 4 4 4 4 4 4 4 4 4 4 4 4 4 4 4 1 1 * & % O . . . ",
"4 a 4 4 4 4 4 4 4 4 4 4 4 4 4 4 4 4 4 u 4 4 4 4 4 4 4 4 4 4 4 4 4 4 4 4 4 4 4 4 4 4 4 4 4 4 4 4 4 4 4 4 4 4 4 4 1 * % % O . . . "
};
