/* XPM */
static char *top_wall_resized[] = {
/* columns rows colors chars-per-pixel */
"64 64 200 2 ",
"   c #231118",
".  c #231218",
"X  c #231219",
"o  c #241218",
"O  c #241219",
"+  c #241319",
"@  c #25131A",
"#  c #27141C",
"$  c #291621",
"%  c #2A1721",
"&  c #2A1722",
"*  c #2B1722",
"=  c #2A1820",
"-  c #2C1921",
";  c #2C1922",
":  c #2D1922",
">  c #2D1A22",
",  c #2E1B23",
"<  c #2F1B23",
"1  c #2F1C23",
"2  c #2F1B28",
"3  c #301B22",
"4  c #301B23",
"5  c #301C23",
"6  c #301B28",
"7  c #301C28",
"8  c #311D29",
"9  c #331E29",
"0  c #341F29",
"q  c #351F29",
"w  c #36212D",
"e  c #362033",
"r  c #372033",
"t  c #372133",
"y  c #3B2633",
"u  c #392235",
"i  c #3A2335",
"p  c #3B2435",
"a  c #3B2634",
"s  c #3B2635",
"d  c #3B2436",
"f  c #3C2634",
"g  c #3C2536",
"h  c #3D2636",
"j  c #3E2636",
"k  c #3D2834",
"l  c #3F2937",
"z  c #3D2539",
"x  c #3C243A",
"c  c #3C253A",
"v  c #3C243B",
"b  c #3C253B",
"n  c #3D253B",
"m  c #3E263A",
"M  c #3E263B",
"N  c #3E273B",
"B  c #3F273B",
"V  c #3D253C",
"C  c #3E253C",
"Z  c #3E263C",
"A  c #3F273C",
"S  c #3F2838",
"D  c #3E2839",
"F  c #422C36",
"G  c #452E37",
"H  c #452F37",
"J  c #492E37",
"K  c #40273E",
"L  c #41273E",
"P  c #432B39",
"I  c #412A3B",
"U  c #422B3A",
"Y  c #422C3B",
"T  c #442D38",
"R  c #462F39",
"E  c #40283C",
"W  c #41293C",
"Q  c #40283D",
"!  c #42293C",
"~  c #43293C",
"^  c #412B3C",
"/  c #422A3C",
"(  c #422A3D",
")  c #432A3D",
"_  c #432B3E",
"`  c #432A3F",
"'  c #452B3F",
"]  c #422C3C",
"[  c #432C3C",
"{  c #432D3C",
"}  c #452F3C",
"|  c #452F3D",
" . c #462E3D",
".. c #462F3D",
"X. c #452D3F",
"o. c #452E3F",
"O. c #462E3F",
"+. c #482E39",
"@. c #4A2F39",
"#. c #482F3F",
"$. c #48313D",
"%. c #4B303D",
"&. c #49323D",
"*. c #48313E",
"=. c #4B333F",
"-. c #4D323D",
";. c #4C313F",
":. c #4E323E",
">. c #4E323F",
",. c #4E333F",
"<. c #4F333F",
"1. c #4C343F",
"2. c #4C353F",
"3. c #4D353F",
"4. c #472D40",
"5. c #472C45",
"6. c #482F40",
"7. c #4A2F44",
"8. c #4B2F44",
"9. c #482C46",
"0. c #482D46",
"q. c #4B2E49",
"w. c #4B2F49",
"e. c #4C2F49",
"r. c #4C2F4A",
"t. c #4D2F4A",
"y. c #483040",
"u. c #483041",
"i. c #493141",
"p. c #4B3240",
"a. c #4D3340",
"s. c #4C3241",
"d. c #4F3340",
"f. c #4F3341",
"g. c #4D3540",
"h. c #4E3640",
"j. c #4F3740",
"k. c #4E3147",
"l. c #4E3149",
"z. c #4E304C",
"x. c #4F314C",
"c. c #513540",
"v. c #513441",
"b. c #513640",
"n. c #503740",
"m. c #523640",
"M. c #533640",
"N. c #533740",
"B. c #523641",
"V. c #523542",
"C. c #543740",
"Z. c #553740",
"A. c #523447",
"S. c #503840",
"D. c #503841",
"F. c #513841",
"G. c #553840",
"H. c #553841",
"J. c #563841",
"K. c #563842",
"L. c #5D3D44",
"P. c #5D3E44",
"I. c #523449",
"U. c #543549",
"Y. c #543649",
"T. c #553649",
"R. c #56374A",
"E. c #57374B",
"W. c #57384B",
"Q. c #553553",
"!. c #563553",
"~. c #593756",
"^. c #593757",
"/. c #5C3A50",
"(. c #5E3C53",
"). c #603F48",
"_. c #664348",
"`. c #66434A",
"'. c #664448",
"]. c #674449",
"[. c #68454A",
"{. c #68454B",
"}. c #69454B",
"|. c #6E4A48",
" X c #6F4A48",
".X c #6F4B48",
"XX c #6F4B4B",
"oX c #6C484C",
"OX c #6E494E",
"+X c #704B48",
"@X c #704B4B",
"#X c #704C4A",
"$X c #714C4A",
"%X c #704B4C",
"&X c #764F4D",
"*X c #76504D",
"=X c #77504D",
"-X c #79524F",
";X c #7A5250",
":X c #7A5350",
/* pixels */
"e.e.e.e.e.e.e.e.e.e.e.e.e.e.e.e.e.e.e.x.!.^.^.!.I.q.q.e.e.e.e.x.Q.^.^.^.^.^.^.^.^.^.~.~.~.~.~.~.~.~.~.!.x.q.q.e.e.e.e.e.e.q.e.e.",
"e.e.e.e.e.q.e.e.e.e.e.e.e.q.e.e.q.e.q.x.!.^.^.!.x.q.q.q.e.q.q.x.Q.^.^.^.^.^.^.^.^.^.~.~.~.~.~.^.~.~.^.!.x.q.q.q.e.e.q.e.e.l.e.e.",
"e.l.e.e.e.q.q.q.q.q.q.q.q.q.q.q.e.q.e.l.!.^.^.!.x.q.q.q.q.q.q.I.Q.^.^.^.^.^.^.^.^.^.^.^.~.^.^.^.~.^.^.!.I.q.9.e.q.q.q.e.q.l.e.e.",
"e.e.e.l.I.U.U.U.U.U.U.U.U.U.U.U.U.U.U.W./.(.(./.E.U.U.U.U.U.I.U./.(.(.(./.(.(./.(.(.(.(./.(.(.(.(.(.(./.W.U.U.U.U.U.U.I.l.e.e.e.",
"e.e.e.I.).'.'._._._._._._._._._._._._._.{.}.}.'._._.`.`.`.`._.'.{.{.{.{.{.{.}.}.{.{.{.{.{.{.{.{.{.{.{.{._._._._.'.'.'.).I.q.e.e.",
"e.q.q.U.'.+X.X.X.X.X.X.X.X.X.X.X|.|.|.|..X.X.X|..X.X.X.X|.|.|.|.$X|.+X|.+X.X.X+X+X|.#X|.+X+X|.|.+X+X|.+X|.$X|.+X.X.X#X'.U.q.e.e.",
"e.e.q.U.'..X.X.X.X.X.X.X.X.X.X.X|.|..X.X.X.X|.|..X.X.X.X|.|.|.|.|.|.|.|..X.X.X.X|.|.+X|.|.|.|.|.|.|.|.|.|.+X|.|..X.X.X'.U.q.q.e.",
"e.e.q.U._..X.X.XoX.XoX.X.X.X.X.X|.|.oX.X.X.X|.oX.X.X.X.X|.|.|.|.|.|.{..X.X.X.X.X|.|.|.|.|.|.|.|.|.|.|.|.|.|.|.|..X.X.X'.U.q.e.e.",
"e.q.e.U._..X.X.X|.|..X.X.X|.|.|..XoX|.|.|.|..X.X|.|.|.|.|.|.|.|.|.|.|.|..XoX|.|.|.|.|.|.|.|.|.|.|.|.|.|.|.|.|.|..X.X+X_.U.q.e.e.",
"e.e.q.U.`..X.X.X|.|..X.XoX|.|.|..X.X|.|.|.|..X.X|.|.|.|.|.|.|.|.|.|.|.|..X.X|.|.|.|.|.|.|.|.|.|.|.|.|.|.|.|.|.|..X.X|._.U.e.q.l.",
"e.e.q.U.`.|..X.X|.|.|..X.X.X|.|..X.X|.|.|..X.X.X|.|.|.|.|.|.|.|.|.|.|.|..X.X.X.X.X.X|.|.|.|.|.|.|.|.|.|.|.|.|.|.oX|.|._.U.q.q.q.",
"e.e.q.U.'..X%X+X|.+X+X#X.X+X.X.X#X#X+X#X.X.X.X+X$X|.+X$X$X$X$X$X+X#X#X#X#X+XOX.X.X+X.X.X#X#XXX#X#X.X#X#X#XXX#XXX.X#X#X{.U.q.q.e.",
"e.q.q.E.oX*X*X&X&X&X*X*X&X&X&X&X*X*X*X&X&X&X&X&X&X&X&X&X=X=X=X=X&X&X&X&X&X&X&X&X&X&X*X*X*X*X*X*X*X&X&X&X&X&X&X&X*X*X*XoXW.q.q.e.",
"e.e.q.E.OX;X;X;X-X-X-X-X;X;X-X;X-X-X-X-X-X-X-X;X-X-X-X-X-X-X=X-X-X-X;X;X-X-X-X;X;X;X-X-X-X-X-X-X-X-X-X-X-X-X-X-X;X;X;XOXW.q.q.l.",
"e.q.q.W.OX;X;X;X-X-X-X-X;X;X-X-X-X-X;X;X-X-X;X;X-X-X-X-X-X-X-X-X-X;X;X;X-X;X;X;X-X-X-X-X-X;X;X-X;X;X-X-X;X;X-X-X;X;X;XOXW.q.q.e.",
"9.9.5.I._.%X%X#XOX.XOX.XOX.XOXOXOX.XOXOX.XOX%X%X+XOX.X.X$X$X$X$X.X%XOX.XOX.XOX.XOXOX.XOX.XOXOXXXOX.XOX.X#XOX#XOX.XOX%X'.A.5.9.9.",
"Q 4.L 6.Z.L.L.L.P.P.P.P.P.P.P.P.P.P.P.P.P.P.P.P.).L.L._.<._.'.P.P.P.P.P.P.P.P.P.P.P.P.P.P.P.P.'.L.L.L.L.'.P.P.'.P.P.P.<.@.~ ~ Q ",
"v x m Q d.Z.M.Z.<.<.G.G.G.<.G.<.<.G.G.G.-.G.<.G.J.<.<.<.<.<.<.<.G.<.G.G.G.G.<.G.G.<.G.G.G.<.<.<.M.M.M.M.<.<.<.<.<.<.L.-.J k z m ",
"v v v Q ;.M.Z.M.<.L.<.-.G.<.G.G.G.G.G.G.G.<.G.G.<.Z.Z.Z.<.<.<.P.G.G.<.G.<.G.G.G.G.G.G.<.G.<.L.<.J.<.M.M.P.3.<.<.L.G.G.-.L v z z ",
"v v v Q ;.Z.Z.Z.G.<.L.L.G.G.G.G.G.G.<.G.G.G.G.G.Z.Z.Z.Z.<.P.P.<.<.G.G.G.G.G.G.<.<.G.G.G.<.L.<.<.<.J.M.J.<.3.L.L.<.G.G.-.4.V 4.V ",
"m b m ) <.Z.Z.Z.<.L.<.<.<.P.<.<.G.G.-.G.G.G.G.<.Z.Z.Z.<.Z.Z.M.Z.G.G.G.G.G.G.G.G.G.G.G.G.P.<.<.L.J.<.P.<.<.P.P.<.M.Z.Z.d.9.9.9.9.",
"V b b Q <.Z.Z.Z.P.<.<.L.<.<.P.P.G.G.G.G.G.G.G.G.Z.Z.Z.Z.M.M.Z.Z.G.G.<.G.G.<.G.G.G.G.<.G.<.P.P.<.<.L.<.P.L.<.<.<.Z.Z.M.M.k.e.e.e.",
"b b b ) <.Z.Z.Z.P.<.<.P.P.<.<.<.G.G.G.G.G.<.G.G.Z.Z.Z.Z.Z.M.Z.M.G.G.G.G.G.G.G.G.G.G.G.G.<.<.P.<.<.<.<.<.<.<.L.L.Z.Z.J.M.l.e.l.e.",
"V b m ) ;.<.v.M.<.P.<.<.<.P.P.<.G.G.G.G.G.G.G.G.Z.<.Z.v.Z.Z.Z.Z.<.G.G.G.G.G.G.<.G.G.G.G.P.<.<.P.<.L.P.<.<.P.<.<.M.M.<.M.e.9.9.9.",
"m b b L O.p.p.p.F.J.<.J.L.<.<.<.-.G.G.G.L.<.<.<.<.<.<.P.Z.Z.Z.Z.G.G.-.G.G.G.<.L.L.<.<.<.<.P.<.<.Z.Z.Z.Z.M.Z.M.M.y.y.u.u._ N 4.Z ",
"V V m L 4.u.u.p.<.J.L.<.<.J.<.).G.G.G.G.<.J.<._.<.P.P.<.Z.Z.Z.Z.G.G.L.<.G.G.G.-.<.J.<.).<.<.P.<.Z.Z.Z.Z.Z.Z.Z.M.d.y.u.4.N z v v ",
"V V m L  .u.y.;.L.<.<.<.J.<.J.<.<.L.G.G.J.<.J.<.<.P.<.<.Z.Z.Z.Z.G.L.<.L.<.L.G.G.J.<.J.<.P.<.P.<.Z.Z.Z.Z.Z.Z.Z.M.y.y.y.4.N v v v ",
"t r r i Q 4. . .<.<.<.<.<.<.<.;.-.3.3.@.<.<.<.;.<.<.<.<.<.<.;.<.@.3.-.-.-.3.3.-.<.<.<.<.<.<.<.<.<.;.<.<.;.;.<.;.y.4.4._ N v V v ",
"* * % 6 d L L E } P Q ) Q P ~ ~ J J Q ) ) ~ E ~ @.J Q ~ ~ ~ L P ~ E ~ ~ J P P P E ~ ~ ~ ~ ~ P L ) Q ) P Q ) Q L Q N Q V V V V V ",
"o o o % e m b b m m b b b V b b h k b m b b b b m ~ x x b m b b b b b b F y b b b b b b b b b b b b b V b V m m V m V m V V V V ",
"o o o * r m m m m m b m b b b b m m x m b b b b m x x x x m m m b b b b b b b b b b b b b b b b b V b b m m m m m V V V m V V m ",
"* * * 6 i L L L L Q Q ) ~ ~ L ) ~ ~ Q Q ~ ~ ~ ~ ~ ~ ~ ~ Q Q Q ) ~ ~ ~ ~ ~ ~ ~ L ~ ~ ~ ~ ~ L ~ ~ L P ) L Q ) Q Q Q V N V V m V V ",
"t t t a _ 4. .y.;.<.;.;.<.<.;.;.3.-.-.-.3.-.-.-.3.-.-.-.-.-.-.@.<.<.<.<.<.<.<.<.-.-.3.-.-.3.<.<.<.-.<.<.-.-.-.@.@.@.4._ N V V V ",
"V V V Q  .y.y.p.Z.Z.Z.Z.Z.Z.Z.Z.<.<.L.G.L.G.G.G.L.<.L.<.<.L.<.L.<.<.<.P.P.<.P.<.G.G.L.<.P.<.G.G.G.G.<.L.G.G.L.3.1.1.u. .N v v N ",
"V V V N 4.u.4.y.M.Z.Z.Z.Z.Z.Z.Z.P.<.G.G.<.<.G.G.<.<.<.L.P.<.L.<.L.<.).<.<.<.<.P.G.G.G.G.<.L.<.G.G.G.G.G.G.G.G.G.1.;.O. .N v V N ",
"V V m Q O.y.d.y.M.Z.Z.Z.Z.Z.Z.Z.<.L.G.G.<.L.G.G.<.L.L.<.<.L.<.L.<.<.<.<.P.P.<.<.G.G.G.<.L.<.<.G.G.G.G.<.G.G.G.<.3.;.=. .z t t t ",
"V V m Q d.v.M.M.M.Z.Z.M.M.Z.Z.M.<.G.G.G.<.G.G.G.G.<.G.G.P.3.<.<.G.<.L.<.<.<.P.<.L.<.G.G.<.3.3.L.G.G.G.G.G.G.G.G.M.M.M.+.w % % = ",
"V V V Q d.Z.M.M.M.M.Z.Z.Z.M.M.Z.G.G.G.G.G.G.G.G.G.G.G.G.<.3.L.<.G.G.<.<.P.<.P.<.<.G.G.G.L.L.<.<.<.G.G.G.<.G.G.G.M.J.J.J <   X X ",
"V V V  .d.Z.Z.M.Z.M.M.Z.Z.Z.Z.Z.G.G.<.G.G.G.<.G.G.<.G.G.<.L.L.<.G.G.<.L.L.<.<.P.-.G.<.-.<.<.<.L.G.G.G.<.L.G.G.G.M.J.J.+.1 X X o ",
"t t t h #.M.M.M.M.Z.Z.M.M.Z.Z.Z.G.G.G.G.G.G.G.G.G.L.<.G.3.L.<.3.G.G.L.<.<.P.<.<.L.<.L.L.<.L.<.L.G.G.G.G.<.G.G.<.M.M.M.+.0 % = = ",
"% % % 9 ~ d.y.g.M.Z.Z.M.Z.M.Z.Z.<.L.G.G.G.<.L.<.J.F.J.F.<.L.<.L.G.G.<.L.<.L.<.<.L.3.<.L.<.<.P.<.Z.Z.Z.Z.M.Z.M.M.y.y.p.O.a t t t ",
"o X X : l y.y.y.M.Z.Z.Z.Z.Z.Z.Z.G.<.G.<.G.G.G.G.F.F.J.J.G.<.G.J.G.G.G.<.J.<.J.J.<.L.L.<.P.<.<.L.Z.Z.Z.Z.Z.Z.Z.M.d.y.u.O.Q V V V ",
"o o o : l u.y.d.Z.Z.<.J.Z.J.J.Z.L.<.G.L.L.G.L.<.F.L.F.F.J.J.J.J.L.G.L.<.<.L.L.<.L.<.<.L.<.P.<.<.Z.Z.J.Z.Z.Z.Z.M.y.u.u.O.Q V N V ",
"= % % 9 D u.4.4.3.<.<.;.+.+.J J J J J J J J J J R R R R J J J J J J J J J J J J J J J J J J @.G J +.J +.;.d.<.;.y.4.4.Q a t t i ",
"t t t i m N N Q Q Q  .h w < 3 3 3 3 3 3 3 3 3 3 < < < < 1 < < < 3 3 3 3 3 3 3 3 3 3 < < < < 1 w 5 5 4 0 h Q ) Q Q Q Q i 2 % % * ",
"V V V V z v V V v v V t # o o o o o o o o o o o     + + + + + + o o o o o o o o o o o o o o o o o o X % e V V m V V V t % X o o ",
"V V V V V m V V m z D w # o o o o o o o o o o o + + + + + + + + o o o o o o o o o o o o o o o o o   X % t m V m m V V i % o o o ",
"t i t i z N N N Q Q _ k w 3 < < 3 3 3 3 3 3 3 3 > - - - # + + + # 3 3 3 3 3 3 3 3 3 3 3 < < < < , , , 9 l Q Q Q V V V i 2 * * * ",
"* * * 9 f B { { $.h.=.$.R H H H H H H H H H H H k k y w = + + = k k k k k H H k H H H l H H l l G G G } 3.3.3.&.T l B l s t t t ",
"o o X = f B { { h.n.n.F.F.F.F.3.F.F.S.F.F.S.F.2.{ } { y > +   > k D l $.F.F.F.F.F.F.F.F.F.F.F.D.M.n.F.3.F.3.3.3.$.{ $.B A A A A ",
"@ o o * y T T T =.n.n.n.3.F.F.F.S.F.S.S.2.F.F.2.$.{ { y > o + > k D l $.F.F.S.F.F.F.F.F.F.F.D.D.3.F.F.3.F.F.F.3.{ l { B Z Z A A ",
"@ @ @ : l O.{ ;.2.n.n.3.3.F.3.3.2.S.S.S.S.S.2.2.$.{ { k > o + > k $.$.R 1.S.S.S.S.S.2.S.S.F.D.2.3.F.3.F.F.3.F.3.$.$.$.l d e e e ",
"@ @ @ : T g.3.3.3.F.F.3.F.3.F.3.S.S.S.S.S.S.F.g.2.2.2.F > + + > l g.g.g.S.S.1.S.S.F.S.2.g.D.D.D.F.3.3.F.3.3.F.3.2.h.h.l 9 & & & ",
"@ @ X 1 } F.F.F.F.3.F.F.3.F.3.F.S.S.2.S.S.2.F.F.F.F.F.H < + + < H F.F.F.F.1.S.S.S.2.S.F.D.D.g.D.3.J.F.3.F.J.3.F.h.F.F.R , X X @ ",
"@ @ o 1 G F.F.3.F.3.3.F.3.3.J.F.S.2.S.2.S.S.S.g.S.F.F.H < + o < l F.F.S.F.S.F.2.S.S.S.S.D.D.D.D.F.3.F.3.3.3.J.3.F.F.F.R 1 X + @ ",
"@ @ @ 1 F 3.3.=.3.3.3.3.3.3.3.3.2.2.2.2.2.2.2.g.2.2.2.F > + o > l g.g.g.1.1.1.1.1.1.1.1.2.2.2.g.3.3.3.3.3.3.3.3.1.2.h.l , X + @ ",
"@ @ @ > D ......&.&.$.D $.$.D g.{ { $.{ $.{ $.{ $.{ { k >   + ; k $.$.$.{ { $.{ $.$.............l 1.l 2.D g.$.g.$.{ $.k 1 @ @ @ ",
"@ @ @ ; f ..l { T l $.B D $.D D { { { { Y } { D { { { y - + + ; k } { D { { l } D { D ....D ..D $.B $.B B D D D { l B f > @ @ @ ",
"@ @ @ ; f l l { { l $.l l { g.l D { { D Y l { { { { D k > +   - k l D { { D { { D { { D D { D { ..D l B $.B D D { B $.f - @ @ @ ",
"@ @ @ - w D y y k y s s D f f f y k k y k y k y y k y w - + + - w k k k k y k k f f f a k k k f k k k k k l y y k f f w - @ @ @ ",
"@ @ @ @ = ; ; > ; ; ; > > > ; ; - > - - ; ; ; ; > > - - # + + # - ; ; ; > > - > - - , - - - - - , , - - - - - - - - > - @ @ @ @ ",
"@ @ @ @ @ X @ X @ @ X X @ @ @ X + + + + + + + + + +   + # + + + + + + + + + + + @ X X X @ @ @ @ @ @ X @ @ @ @ @ @ @ @ @ @ @ @ @ ",
"@ @ @ @ @ @ @ @ @ @ @ @ @ @ @ @ + + + + + + + + + + + + + + + + + + + + + + + + @ @ @ @ @ @ @ @ @ @ @ @ @ @ @ @ @ @ @ @ @ @ @ @ ",
"@ @ @ @ @ @ @ @ @ @ @ @ @ @ @ @ + # + + + # + + + # + + + # + # + + + + # + + + @ @ @ @ @ @ @ @ @ @ @ @ @ @ @ @ @ @ @ @ @ @ @ @ "
};
